<?xml version="1.0" encoding="UTF-8" standalone="no"?>
<!-- Created with Inkscape (http://www.inkscape.org/) -->

<svg xmlns:dc="http://purl.org/dc/elements/1.1/" xmlns:cc="http://creativecommons.org/ns#" xmlns:rdf="http://www.w3.org/1999/02/22-rdf-syntax-ns#" xmlns:svg="http://www.w3.org/2000/svg" xmlns="http://www.w3.org/2000/svg" xmlns:sodipodi="http://sodipodi.sourceforge.net/DTD/sodipodi-0.dtd" xmlns:inkscape="http://www.inkscape.org/namespaces/inkscape" width="210mm" height="297mm" viewBox="0 0 210 297" version="1.1" id="svg8" inkscape:version="0.92.3 (2405546, 2018-03-11)" sodipodi:docname="spring.svg">
  <defs id="defs2" />
  <sodipodi:namedview id="base" pagecolor="#ffffff" bordercolor="#666666" borderopacity="1.0" inkscape:pageopacity="0.0" inkscape:pageshadow="2" inkscape:zoom="0.35" inkscape:cx="-270.8992" inkscape:cy="736.67223" inkscape:document-units="mm" inkscape:current-layer="layer1" showgrid="false" inkscape:window-width="1881" inkscape:window-height="1058" inkscape:window-x="0" inkscape:window-y="0" inkscape:window-maximized="1" />
  <metadata id="metadata5">
    <rdf:RDF>
      <cc:Work rdf:about="">
        <dc:format>image/svg+xml</dc:format>
        <dc:type rdf:resource="http://purl.org/dc/dcmitype/StillImage" />
        <dc:title></dc:title>
      </cc:Work>
    </rdf:RDF>
  </metadata>
  <g inkscape:label="Layer 1" inkscape:groupmode="layer" id="layer1">
    <path style="opacity:1;fill:#000000;fill-opacity:1;fill-rule:nonzero;stroke:none;stroke-width:1.00157475;stroke-linecap:round;stroke-linejoin:round;stroke-miterlimit:4;stroke-dasharray:none;stroke-dashoffset:0;stroke-opacity:1" d="M 274.14258 319.98438 C 240.4408 319.98438 213.11914 347.30604 213.11914 381.00781 C 213.11914 388.01591 214.31578 394.73985 216.49023 401.00781 C 177.79376 432.63827 159.67693 482.92033 196.64844 514.22852 C 216.84676 530.91528 271.63281 541.19922 271.63281 541.19922 C 204.0435 483.90995 205.10762 464.16674 242.38086 433.11914 C 251.63349 438.7706 262.50697 442.0293 274.14258 442.0293 C 280.79313 442.0293 287.19484 440.96495 293.1875 438.99805 C 298.79006 437.15919 304.0356 434.53198 308.79102 431.24609 C 324.72515 420.23599 335.16406 401.84144 335.16406 381.00781 C 335.16407 347.30603 307.84436 319.98437 274.14258 319.98438 z " transform="scale(0.26458333)" id="path4747" />
  </g>
</svg>
