<?xml version="1.0" encoding="UTF-8" standalone="no"?>
<svg xmlns:dc="http://purl.org/dc/elements/1.1/" xmlns:cc="http://creativecommons.org/ns#" xmlns:rdf="http://www.w3.org/1999/02/22-rdf-syntax-ns#" xmlns:svg="http://www.w3.org/2000/svg" xmlns="http://www.w3.org/2000/svg" xmlns:sodipodi="http://sodipodi.sourceforge.net/DTD/sodipodi-0.dtd" xmlns:inkscape="http://www.inkscape.org/namespaces/inkscape" width="50" height="50" viewBox="0 0 13.229167 13.229167" version="1.1" id="svg8" inkscape:version="1.0.1 (3bc2e813f5, 2020-09-07)" sodipodi:docname="arch.svg">
  <defs id="defs2" />
  <sodipodi:namedview id="base" pagecolor="#ffffff" bordercolor="#666666" borderopacity="1.0" inkscape:pageopacity="0.0" inkscape:pageshadow="2" inkscape:zoom="22.627417" inkscape:cx="18.25969" inkscape:cy="10.069886" inkscape:document-units="mm" inkscape:current-layer="svg8" showgrid="true" inkscape:window-width="1847" inkscape:window-height="1056" inkscape:window-x="0" inkscape:window-y="0" inkscape:window-maximized="1" inkscape:pagecheckerboard="true" units="px" inkscape:document-rotation="0">
    <inkscape:grid type="xygrid" id="grid13930" units="px" spacingx="0.26458334" spacingy="0.26458334" />
  </sodipodi:namedview>
  <metadata id="metadata5">
    <rdf:RDF>
      <cc:Work rdf:about="">
        <dc:format>image/svg+xml</dc:format>
        <dc:type rdf:resource="http://purl.org/dc/dcmitype/StillImage" />
        <dc:title></dc:title>
      </cc:Work>
    </rdf:RDF>
  </metadata>
  <path id="path1037" style="fill:#000000;fill-opacity:1;fill-rule:evenodd;stroke:#ffffff;stroke-width:0.79375;stroke-linecap:butt;stroke-linejoin:miter;stroke-miterlimit:4;stroke-dasharray:none;stroke-opacity:0.5" d="M 4.4842032,3.0429485 H 3.2537609 C 3.262216,2.8836719 3.2803814,2.7164342 3.2882397,2.5528022 C 3.3120868,2.3343127 3.2740969,2.0299092 3.4567883,1.8873094 C 3.5905242,1.8061707 3.6663747,1.6139534 3.7502467,1.4949626 C 3.8698228,1.3492813 3.9395747,1.279041 4.03426,1.1279042 C 4.1031592,1.0235989 4.27148,0.94777407 4.3600917,0.84716931 C 4.4573009,0.72690566 4.6097864,0.67086784 4.7618791,0.65373589 C 4.9465961,0.6310465 5.1379482,0.6214755 5.3206729,0.66178401 C 5.4357368,0.72700274 5.5488264,0.80978013 5.6890289,0.80121057 C 5.8427875,0.82369732 5.9510729,0.86771445 6.0854168,0.96866832 C 6.226156,1.0358093 6.232965,1.1089063 6.3063709,1.2525502 C 6.3946639,1.4596415 6.5257456,1.5003727 6.5456938,1.6573856 C 6.5348145,1.8180311 6.616611,1.946441 6.6992285,2.0810343 C 6.7902371,2.2036057 6.6950622,2.3962726 6.7384322,2.5442085 C 6.7844687,2.7046996 6.8337862,2.8755767 6.796529,3.0429485 H 5.6187149 C 5.5933441,2.8792493 5.7486962,2.7194862 5.7708113,2.553194 C 5.8151837,2.1935523 5.756553,1.8454253 5.5561336,1.509192 C 5.5180584,1.3708816 5.4620865,1.189986 5.2931727,1.231898 C 5.1451974,1.2100165 5.0662565,1.0560911 4.854735,1.253435 C 4.6699643,1.3164577 4.4822864,1.7048213 4.3789153,1.8297113 C 4.298807,1.9401419 4.3213417,2.2481675 4.2663095,2.506182 C 4.2297117,2.6777682 4.4929096,2.8884466 4.4842032,3.0429485 Z" sodipodi:nodetypes="ccccccccccccccccccccccsc" />
  <path id="path916" style="fill:#000000;fill-opacity:1;fill-rule:evenodd;stroke:none;stroke-width:0.264583px;stroke-linecap:butt;stroke-linejoin:miter;stroke-opacity:1" d="M 4.4842032,3.0429485 H 3.2537609 C 3.262216,2.8836719 3.2803814,2.7164342 3.2882397,2.5528022 C 3.3120868,2.3343127 3.2740969,2.0299092 3.4567883,1.8873094 C 3.5905242,1.8061707 3.6663747,1.6139534 3.7502467,1.4949626 C 3.8698228,1.3492813 3.9395747,1.279041 4.03426,1.1279042 C 4.1031592,1.0235989 4.27148,0.94777407 4.3600917,0.84716931 C 4.4573009,0.72690566 4.6097864,0.67086784 4.7618791,0.65373589 C 4.9465961,0.6310465 5.1379482,0.6214755 5.3206729,0.66178401 C 5.4357368,0.72700274 5.5488264,0.80978013 5.6890289,0.80121057 C 5.8427875,0.82369732 5.9510729,0.86771445 6.0854168,0.96866832 C 6.226156,1.0358093 6.232965,1.1089063 6.3063709,1.2525502 C 6.3946639,1.4596415 6.5257456,1.5003727 6.5456938,1.6573856 C 6.5348145,1.8180311 6.616611,1.946441 6.6992285,2.0810343 C 6.7902371,2.2036057 6.6950622,2.3962726 6.7384322,2.5442085 C 6.7844687,2.7046996 6.8337862,2.8755767 6.796529,3.0429485 H 5.6187149 C 5.5933441,2.8792493 5.7486962,2.7194862 5.7708113,2.553194 C 5.8151837,2.1935523 5.756553,1.8454253 5.5561336,1.509192 C 5.5180584,1.3708816 5.4620865,1.189986 5.2931727,1.231898 C 5.1451974,1.2100165 5.0662565,1.0560911 4.854735,1.253435 C 4.6699643,1.3164577 4.4822864,1.7048213 4.3789153,1.8297113 C 4.298807,1.9401419 4.3213417,2.2481675 4.2663095,2.506182 C 4.2297117,2.6777682 4.4929096,2.8884466 4.4842032,3.0429485 Z" sodipodi:nodetypes="ccccccccccccccccccccccsc" />
</svg>
