<?xml version="1.0" encoding="UTF-8" standalone="no"?>
<svg xmlns:dc="http://purl.org/dc/elements/1.1/" xmlns:cc="http://creativecommons.org/ns#" xmlns:rdf="http://www.w3.org/1999/02/22-rdf-syntax-ns#" xmlns:svg="http://www.w3.org/2000/svg" xmlns="http://www.w3.org/2000/svg" xmlns:sodipodi="http://sodipodi.sourceforge.net/DTD/sodipodi-0.dtd" xmlns:inkscape="http://www.inkscape.org/namespaces/inkscape" width="14" height="14" id="svg3800" version="1.1" viewBox="0 0 14 14" sodipodi:docname="artwork.svg" inkscape:version="0.92.3 (2405546, 2018-03-11)">
  <sodipodi:namedview pagecolor="#ffffff" bordercolor="#666666" borderopacity="1" objecttolerance="10" gridtolerance="10" guidetolerance="10" inkscape:pageopacity="0" inkscape:pageshadow="2" inkscape:window-width="1881" inkscape:window-height="1058" id="namedview10688" showgrid="false" inkscape:zoom="16.857143" inkscape:cx="7" inkscape:cy="7" inkscape:window-x="0" inkscape:window-y="0" inkscape:window-maximized="1" inkscape:current-layer="svg3800" />
  <defs id="defs3802" />
  <metadata id="metadata3805">
    <rdf:RDF>
      <cc:Work rdf:about="">
        <dc:format>image/svg+xml</dc:format>
        <dc:type rdf:resource="http://purl.org/dc/dcmitype/StillImage" />
        <dc:title />
      </cc:Work>
    </rdf:RDF>
  </metadata>
  <g id="g11237" transform="translate(1.5520395,2.8104498)" style="stroke:#ffffff;stroke-opacity:0.50196081;stroke-width:2;stroke-miterlimit:4;stroke-dasharray:none;stroke-linejoin:round;stroke-linecap:round">
    <g id="g11235" style="stroke:#ffffff;stroke-opacity:0.50196081;stroke-width:2;stroke-miterlimit:4;stroke-dasharray:none;stroke-linejoin:round;stroke-linecap:round">
      <path style="opacity:1;fill:#000000;fill-opacity:1;stroke:#ffffff;stroke-width:2;stroke-linecap:round;stroke-miterlimit:4;stroke-dasharray:none;stroke-opacity:0.50196081;paint-order:markers stroke fill;stroke-linejoin:round" d="M 4 0 L 5 2 L 6 2 L 5 4 L 6 6 L 5 8 L 6 10 L 5 12 L 9 12 L 8 10 L 9 8 L 8 6 L 9 4 L 8 2 L 9 2 L 10 0 L 4 0 z M 7 3 A 1 1 0 0 1 8 4 A 1 1 0 0 1 7 5 A 1 1 0 0 1 6 4 A 1 1 0 0 1 7 3 z M 7 7 A 1 1 0 0 1 8 8 A 1 1 0 0 1 7 9 A 1 1 0 0 1 6 8 A 1 1 0 0 1 7 7 z M 3 13 L 3 14 L 11 14 L 11 13 L 3 13 z " transform="translate(-1.5520395,-2.8104498)" id="path11233" />
    </g>
  </g>
  <g transform="translate(1.5520395,2.8104498)" id="g97">
    <g id="g105">
      <path id="rect818" transform="translate(-1.5520395,-2.8104498)" d="M 4 0 L 5 2 L 6 2 L 5 4 L 6 6 L 5 8 L 6 10 L 5 12 L 9 12 L 8 10 L 9 8 L 8 6 L 9 4 L 8 2 L 9 2 L 10 0 L 4 0 z M 7 3 A 1 1 0 0 1 8 4 A 1 1 0 0 1 7 5 A 1 1 0 0 1 6 4 A 1 1 0 0 1 7 3 z M 7 7 A 1 1 0 0 1 8 8 A 1 1 0 0 1 7 9 A 1 1 0 0 1 6 8 A 1 1 0 0 1 7 7 z M 3 13 L 3 14 L 11 14 L 11 13 L 3 13 z " style="opacity:1;fill:#000000;fill-opacity:1;stroke:none;stroke-width:0.02481934;stroke-linecap:square;stroke-miterlimit:4;stroke-dasharray:none;stroke-opacity:1;paint-order:markers stroke fill" />
    </g>
  </g>
</svg>
