<svg xml:space="preserve" width="16" height="16" xmlns="http://www.w3.org/2000/svg">
  <path style="fill:none;fill-opacity:.5;stroke:#fff;stroke-width:3;stroke-linecap:round;stroke-linejoin:round;stroke-miterlimit:4;stroke-dasharray:none;stroke-opacity:.5;paint-order:stroke fill markers" d="M7.338 1.5c-1.6.16-3.019.9-4.059 1.998 1.12.94 1.9 2.302 2.06 3.84h1.999V1.5zm1.322 0v5.838h1.998c.16-1.54.942-2.9 2.06-3.84A6.519 6.519 0 0 0 8.66 1.5zm4.86 3.018a4.614 4.614 0 0 0-1.541 2.82h2.519a6.26 6.26 0 0 0-.978-2.82zM2.479 4.52c-.52.84-.88 1.777-.979 2.817h2.52A4.597 4.597 0 0 0 2.479 4.52zM1.5 8.661c.1 1.04.44 1.98.979 2.82A4.586 4.586 0 0 0 4.04 8.66H1.5zm3.84 0c-.16 1.54-.942 2.898-2.06 3.839a6.492 6.492 0 0 0 4.06 1.998V8.66h-2zm3.32 0V14.5c1.6-.16 3.02-.9 4.06-1.998-1.12-.943-1.902-2.304-2.062-3.842H8.66zm3.319 0a4.491 4.491 0 0 0 1.558 2.82c.519-.84.88-1.78.979-2.82h-2.537z" />
  <path style="fill:#000;fill-opacity:1;stroke:none;stroke-width:3;stroke-linecap:round;stroke-linejoin:round;stroke-miterlimit:4;stroke-dasharray:none;stroke-opacity:.5;paint-order:stroke fill markers" d="M7.338 1.5c-1.6.16-3.019.9-4.059 1.998 1.12.94 1.9 2.302 2.06 3.84h1.999V1.5zm1.322 0v5.838h1.998c.16-1.54.942-2.9 2.06-3.84A6.519 6.519 0 0 0 8.66 1.5zm4.86 3.018a4.614 4.614 0 0 0-1.541 2.82h2.519a6.26 6.26 0 0 0-.978-2.82zM2.479 4.52c-.52.84-.88 1.777-.979 2.817h2.52A4.597 4.597 0 0 0 2.479 4.52zM1.5 8.661c.1 1.04.44 1.98.979 2.82A4.586 4.586 0 0 0 4.04 8.66H1.5zm3.84 0c-.16 1.54-.942 2.898-2.06 3.839a6.492 6.492 0 0 0 4.06 1.998V8.66h-2zm3.32 0V14.5c1.6-.16 3.02-.9 4.06-1.998-1.12-.943-1.902-2.304-2.062-3.842H8.66zm3.319 0a4.491 4.491 0 0 0 1.558 2.82c.519-.84.88-1.78.979-2.82h-2.537z" />
</svg>
