<?xml version="1.0" encoding="UTF-8" standalone="no"?>
<!-- Generator: Adobe Illustrator 19.0.0, SVG Export Plug-In . SVG Version: 6.00 Build 0)  -->

<svg version="1.1" id="Layer_1" x="0px" y="0px" viewBox="0 0 16 16" xml:space="preserve" sodipodi:docname="basketball.svg" width="16" height="16" inkscape:version="1.1.1 (3bf5ae0d25, 2021-09-20)" xmlns:inkscape="http://www.inkscape.org/namespaces/inkscape" xmlns:sodipodi="http://sodipodi.sourceforge.net/DTD/sodipodi-0.dtd" xmlns="http://www.w3.org/2000/svg" xmlns:svg="http://www.w3.org/2000/svg"><defs id="defs866" /><sodipodi:namedview id="namedview864" pagecolor="#ffffff" bordercolor="#666666" borderopacity="1.0" inkscape:pageshadow="2" inkscape:pageopacity="0.0" inkscape:pagecheckerboard="true" showgrid="false" inkscape:zoom="26.15625" inkscape:cx="12.540024" inkscape:cy="10.303465" inkscape:window-width="1883" inkscape:window-height="1062" inkscape:window-x="0" inkscape:window-y="0" inkscape:window-maximized="1" inkscape:current-layer="Layer_1" />
<g id="g2215" transform="matrix(0.02542665,0,0,0.02542557,1.499985,1.4898146)" style="fill:none;fill-opacity:1;stroke:#ffffff;stroke-width:117.98894918;stroke-linecap:round;stroke-linejoin:round;stroke-miterlimit:4;stroke-dasharray:none;stroke-opacity:0.5;paint-order:stroke fill markers">
	<path id="path2199" d="M 412.1,230 H 511.2 C 507.3,189.1 493.9,152.1 472.7,119.1 C 440.4,147.5 418.4,186 412.1,230 Z" style="fill:none;fill-opacity:1;stroke:#ffffff;stroke-width:117.98894918;stroke-linecap:round;stroke-linejoin:round;stroke-miterlimit:4;stroke-dasharray:none;stroke-opacity:0.5;paint-order:stroke fill markers" />
	<path id="path2201" d="M 412.1,282 C 418.4,326 440.4,365.4 473.4,392.9 C 493.8,359.9 508,322.9 511.9,282 C 512,282 412.1,282 412.1,282 Z" style="fill:none;fill-opacity:1;stroke:#ffffff;stroke-width:117.98894918;stroke-linecap:round;stroke-linejoin:round;stroke-miterlimit:4;stroke-dasharray:none;stroke-opacity:0.5;paint-order:stroke fill markers" />
	<path id="path2203" d="M 281.6,230 H 360.2 C 366.5,169.4 397.2,116 441.2,79 C 400.3,35.8 343.7,6.7 281.6,0.4 Z" style="fill:none;fill-opacity:1;stroke:#ffffff;stroke-width:117.98894918;stroke-linecap:round;stroke-linejoin:round;stroke-miterlimit:4;stroke-dasharray:none;stroke-opacity:0.5;paint-order:stroke fill markers" />
	<path id="path2205" d="M 151,230 H 229.6 V 0.4 C 166.7,6.7 110.9,35.8 70,79 C 114,116 144.7,169.5 151,230 Z" style="fill:none;fill-opacity:1;stroke:#ffffff;stroke-width:117.98894918;stroke-linecap:round;stroke-linejoin:round;stroke-miterlimit:4;stroke-dasharray:none;stroke-opacity:0.5;paint-order:stroke fill markers" />
	<path id="path2207" d="M 0,282 C 3.9,322.9 17.3,359.9 38.5,392.9 C 70.8,365.3 93.6,326 99.9,282 C 99.9,282 0,282 0,282 Z" style="fill:none;fill-opacity:1;stroke:#ffffff;stroke-width:117.98894918;stroke-linecap:round;stroke-linejoin:round;stroke-miterlimit:4;stroke-dasharray:none;stroke-opacity:0.5;paint-order:stroke fill markers" />
	<path id="path2209" d="M 38.5,119.2 C 18.1,152.2 3.9,189.1 0,230 H 99.1 C 92.8,186 70.8,147.5 38.5,119.2 Z" style="fill:none;fill-opacity:1;stroke:#ffffff;stroke-width:117.98894918;stroke-linecap:round;stroke-linejoin:round;stroke-miterlimit:4;stroke-dasharray:none;stroke-opacity:0.5;paint-order:stroke fill markers" />
	<path id="path2211" d="M 360.2,282 H 281.6 V 511.7 C 344.5,505.4 400.4,476.3 441.3,433.1 C 397.2,396 366.5,342.5 360.2,282 Z" style="fill:none;fill-opacity:1;stroke:#ffffff;stroke-width:117.98894918;stroke-linecap:round;stroke-linejoin:round;stroke-miterlimit:4;stroke-dasharray:none;stroke-opacity:0.5;paint-order:stroke fill markers" />
	<path id="path2213" d="M 229.7,282 H 151 C 144.7,342.6 114,396 70,433 C 110.9,476.3 167.5,505.4 229.7,511.6 C 229.7,511.6 229.7,282 229.7,282 Z" style="fill:none;fill-opacity:1;stroke:#ffffff;stroke-width:117.98894918;stroke-linecap:round;stroke-linejoin:round;stroke-miterlimit:4;stroke-dasharray:none;stroke-opacity:0.5;paint-order:stroke fill markers" />
</g><g id="XMLID_1_" transform="matrix(0.02542665,0,0,0.02542557,1.499985,1.4898146)" style="fill:#000000;fill-opacity:1;stroke:none;stroke-width:117.989;stroke-linecap:round;stroke-linejoin:round;stroke-miterlimit:4;stroke-dasharray:none;stroke-opacity:0.5;paint-order:stroke fill markers">
	<path id="XMLID_3_" d="M 412.1,230 H 511.2 C 507.3,189.1 493.9,152.1 472.7,119.1 C 440.4,147.5 418.4,186 412.1,230 Z" style="fill:#000000;fill-opacity:1;stroke:none;stroke-width:117.989;stroke-linecap:round;stroke-linejoin:round;stroke-miterlimit:4;stroke-dasharray:none;stroke-opacity:0.5;paint-order:stroke fill markers" />
	<path id="XMLID_4_" d="M 412.1,282 C 418.4,326 440.4,365.4 473.4,392.9 C 493.8,359.9 508,322.9 511.9,282 C 512,282 412.1,282 412.1,282 Z" style="fill:#000000;fill-opacity:1;stroke:none;stroke-width:117.989;stroke-linecap:round;stroke-linejoin:round;stroke-miterlimit:4;stroke-dasharray:none;stroke-opacity:0.5;paint-order:stroke fill markers" />
	<path id="XMLID_5_" d="M 281.6,230 H 360.2 C 366.5,169.4 397.2,116 441.2,79 C 400.3,35.8 343.7,6.7 281.6,0.4 Z" style="fill:#000000;fill-opacity:1;stroke:none;stroke-width:117.989;stroke-linecap:round;stroke-linejoin:round;stroke-miterlimit:4;stroke-dasharray:none;stroke-opacity:0.5;paint-order:stroke fill markers" />
	<path id="XMLID_6_" d="M 151,230 H 229.6 V 0.4 C 166.7,6.7 110.9,35.8 70,79 C 114,116 144.7,169.5 151,230 Z" style="fill:#000000;fill-opacity:1;stroke:none;stroke-width:117.989;stroke-linecap:round;stroke-linejoin:round;stroke-miterlimit:4;stroke-dasharray:none;stroke-opacity:0.5;paint-order:stroke fill markers" />
	<path id="XMLID_7_" d="M 0,282 C 3.9,322.9 17.3,359.9 38.5,392.9 C 70.8,365.3 93.6,326 99.9,282 C 99.9,282 0,282 0,282 Z" style="fill:#000000;fill-opacity:1;stroke:none;stroke-width:117.989;stroke-linecap:round;stroke-linejoin:round;stroke-miterlimit:4;stroke-dasharray:none;stroke-opacity:0.5;paint-order:stroke fill markers" />
	<path id="XMLID_8_" d="M 38.5,119.2 C 18.1,152.2 3.9,189.1 0,230 H 99.1 C 92.8,186 70.8,147.5 38.5,119.2 Z" style="fill:#000000;fill-opacity:1;stroke:none;stroke-width:117.989;stroke-linecap:round;stroke-linejoin:round;stroke-miterlimit:4;stroke-dasharray:none;stroke-opacity:0.5;paint-order:stroke fill markers" />
	<path id="XMLID_9_" d="M 360.2,282 H 281.6 V 511.7 C 344.5,505.4 400.4,476.3 441.3,433.1 C 397.2,396 366.5,342.5 360.2,282 Z" style="fill:#000000;fill-opacity:1;stroke:none;stroke-width:117.989;stroke-linecap:round;stroke-linejoin:round;stroke-miterlimit:4;stroke-dasharray:none;stroke-opacity:0.5;paint-order:stroke fill markers" />
	<path id="XMLID_10_" d="M 229.7,282 H 151 C 144.7,342.6 114,396 70,433 C 110.9,476.3 167.5,505.4 229.7,511.6 C 229.7,511.6 229.7,282 229.7,282 Z" style="fill:#000000;fill-opacity:1;stroke:none;stroke-width:117.989;stroke-linecap:round;stroke-linejoin:round;stroke-miterlimit:4;stroke-dasharray:none;stroke-opacity:0.5;paint-order:stroke fill markers" />
</g>
</svg>
