<svg width="14" height="14" xmlns="http://www.w3.org/2000/svg">
  <path d="M3.071.108v1.907h2.66V.108Zm5.21 0v1.907h2.665V.108Zm0 2.504v5.265c0 .252.203.456.456.456H9.192v5.103c0 .244.2.443.444.443h3.912c.244 0 .444-.2.444-.443V10.26L14 9.796l-1.695-7.184Zm-6.582.008L0 9.804l.008.469v3.175c0 .244.2.444.444.444h3.912c.248 0 .448-.2.448-.444V8.35H5.264a.459.459 0 0 0 .455-.46V2.62Zm4.609 0v4.896h1.38V2.62Z" style="fill:none;stroke:#fff;stroke-opacity:.5;stroke-width:3;stroke-miterlimit:4;stroke-dasharray:none;stroke-linejoin:round;stroke-linecap:round" />
  <path d="M3.071.108v1.907h2.66V.108Zm5.21 0v1.907h2.665V.108Zm0 2.504v5.265c0 .252.203.456.456.456H9.192v5.103c0 .244.2.443.444.443h3.912c.244 0 .444-.2.444-.443V10.26L14 9.796l-1.695-7.184Zm-6.582.008L0 9.804l.008.469v3.175c0 .244.2.444.444.444h3.912c.248 0 .448-.2.448-.444V8.35H5.264a.459.459 0 0 0 .455-.46V2.62Zm4.609 0v4.896h1.38V2.62Z" />
</svg>
