<?xml version="1.0" encoding="UTF-8" standalone="no"?>
<svg xmlns:dc="http://purl.org/dc/elements/1.1/" xmlns:cc="http://creativecommons.org/ns#" xmlns:rdf="http://www.w3.org/1999/02/22-rdf-syntax-ns#" xmlns:svg="http://www.w3.org/2000/svg" xmlns="http://www.w3.org/2000/svg" xmlns:sodipodi="http://sodipodi.sourceforge.net/DTD/sodipodi-0.dtd" xmlns:inkscape="http://www.inkscape.org/namespaces/inkscape" viewBox="0 0 14 14" height="14" width="14" id="svg109" version="1.1" sodipodi:docname="board.svg" inkscape:version="0.92.3 (2405546, 2018-03-11)">
  <sodipodi:namedview pagecolor="#ffffff" bordercolor="#666666" borderopacity="1" objecttolerance="10" gridtolerance="10" guidetolerance="10" inkscape:pageopacity="0" inkscape:pageshadow="2" inkscape:window-width="1881" inkscape:window-height="1051" id="namedview15382" showgrid="false" inkscape:zoom="16.857143" inkscape:cx="-3.4703389" inkscape:cy="7.0000001" inkscape:window-x="0" inkscape:window-y="0" inkscape:window-maximized="1" inkscape:current-layer="svg109" inkscape:pagecheckerboard="true" />
  <metadata id="metadata115">
    <rdf:RDF>
      <cc:Work rdf:about="">
        <dc:format>image/svg+xml</dc:format>
        <dc:type rdf:resource="http://purl.org/dc/dcmitype/StillImage" />
        <dc:title></dc:title>
      </cc:Work>
    </rdf:RDF>
  </metadata>
  <defs id="defs113" />
  <path style="opacity:1;fill:none;fill-opacity:1;fill-rule:evenodd;stroke:#ffffff;stroke-width:3;stroke-linecap:round;stroke-linejoin:round;stroke-miterlimit:4;stroke-dasharray:none;stroke-opacity:0.50196078;paint-order:markers stroke fill" d="M 0,0 C 0,4.6666667 0,9.3333333 0,14 H 1 V 11 H 13 V 14 H 14 C 14,9.3333333 14,4.6666667 14,0 C 9.3333333,0 4.6666667,0 0,0 Z M 1,1 H 13 V 10 H 1 Z M 4,3 V 4 H 10 V 3 Z M 2,5 V 6 H 12 V 5 Z M 2,7 V 8 H 12 V 7 Z" id="outline" inkscape:connector-curvature="0" />
  <path id="rect18-1" d="m 0,0 c 0,4.6666667 0,9.3333333 0,14 h 1 v -3 h 12 v 3 h 1 C 14,9.3333333 14,4.6666667 14,0 9.3333333,0 4.6666667,0 0,0 Z m 1,1 h 12 v 9 H 1 Z m 3,2 v 1 h 6 V 3 Z M 2,5 V 6 H 12 V 5 Z M 2,7 V 8 H 12 V 7 Z" style="opacity:1;fill:#000000;fill-opacity:1;fill-rule:evenodd;stroke:none;stroke-width:5.16719103;stroke-linecap:square;stroke-linejoin:round;stroke-miterlimit:4;stroke-dasharray:none;stroke-opacity:1;paint-order:markers stroke fill" />
</svg>
