<svg width="14.992" height="12.99" xmlns="http://www.w3.org/2000/svg">
  <path style="-inkscape-font-specification:&quot;Andale Mono, Normal&quot;"
    d="m7.496 1.5-.354.353L1.5 7.498h2.76v3.992h6.472V7.498h2.76Zm0 1.414 3.582 3.584H9.732v3.992H5.26V6.498H3.914Zm.11 2.005c-.266 0-.685-.018-.975.116l-.254.117.1.262.22.58.295-.14c.21-.102.514-.046.593-.046.12 0 .172.025.206.054v.002h.001c.028.023.041.04.041.135 0 .05-.01.087-.033.131a.603.603 0 0 1-.138.16l-.002.002-.297.268c-.23.206-.348.513-.348.84v.43h.904v-.427c0-.064.01-.106.014-.12a.165.165 0 0 1 .027-.053c-.01.014.083-.084.223-.202l.002-.002c.367-.31.604-.652.604-1.04 0-.313-.11-.612-.336-.803-.223-.188-.519-.264-.846-.264Zm-.099 3.504a.6.6 0 0 0-.412.172.605.605 0 0 0-.164.412c0 .147.059.304.158.414l.002.002h.002a.59.59 0 0 0 .414.184.592.592 0 0 0 .416-.184.607.607 0 0 0-.004-.828.597.597 0 0 0-.412-.172Z"
    color="#000" fill="none" stroke="#fff" stroke-width="3" stroke-opacity=".5"
    stroke-linejoin="round" stroke-linecap="round" />
  <path style="-inkscape-font-specification:&quot;Andale Mono, Normal&quot;;-inkscape-stroke:none"
    d="m7.496 1.5-.354.353L1.5 7.498h2.76v3.992h6.472V7.498h2.76Zm0 1.414 3.582 3.584H9.732v3.992H5.26V6.498H3.914Zm.11 2.005c-.266 0-.685-.018-.975.116l-.254.117.1.262.22.58.295-.14c.21-.102.514-.046.593-.046.12 0 .172.025.206.054v.002h.001c.028.023.041.04.041.135 0 .05-.01.087-.033.131a.603.603 0 0 1-.138.16l-.002.002-.297.268c-.23.206-.348.513-.348.84v.43h.904v-.427c0-.064.01-.106.014-.12a.165.165 0 0 1 .027-.053c-.01.014.083-.084.223-.202l.002-.002c.367-.31.604-.652.604-1.04 0-.313-.11-.612-.336-.803-.223-.188-.519-.264-.846-.264Zm-.099 3.504a.6.6 0 0 0-.412.172.605.605 0 0 0-.164.412c0 .147.059.304.158.414l.002.002h.002a.59.59 0 0 0 .414.184.592.592 0 0 0 .416-.184.607.607 0 0 0-.004-.828.597.597 0 0 0-.412-.172Z"
    color="#000" />
</svg>
