<?xml version="1.0" encoding="UTF-8" standalone="no"?>
<svg xmlns:dc="http://purl.org/dc/elements/1.1/" xmlns:cc="http://creativecommons.org/ns#" xmlns:rdf="http://www.w3.org/1999/02/22-rdf-syntax-ns#" xmlns:svg="http://www.w3.org/2000/svg" xmlns="http://www.w3.org/2000/svg" xmlns:sodipodi="http://sodipodi.sourceforge.net/DTD/sodipodi-0.dtd" xmlns:inkscape="http://www.inkscape.org/namespaces/inkscape" version="1.1" width="14" height="14" viewBox="0 0 14 14" id="svg4" sodipodi:docname="bunker.svg" inkscape:version="0.92.4 (5da689c313, 2019-01-14)">
  <sodipodi:namedview pagecolor="#ffffff" bordercolor="#666666" borderopacity="1" objecttolerance="10" gridtolerance="10" guidetolerance="10" inkscape:pageopacity="0" inkscape:pageshadow="2" inkscape:window-width="1881" inkscape:window-height="1051" id="namedview846" showgrid="false" inkscape:pagecheckerboard="true" inkscape:zoom="61.285714" inkscape:cx="7" inkscape:cy="7" inkscape:window-x="0" inkscape:window-y="0" inkscape:window-maximized="1" inkscape:current-layer="svg4" />
  <metadata id="metadata10">
    <rdf:RDF>
      <cc:Work rdf:about="">
        <dc:format>image/svg+xml</dc:format>
        <dc:type rdf:resource="http://purl.org/dc/dcmitype/StillImage" />
        <dc:title></dc:title>
      </cc:Work>
    </rdf:RDF>
  </metadata>
  <defs id="defs8" />
  <path id="outline" d="M 5,3 C 3.0000002,3 3,3 2,5 L 0,11 H 2 L 4,5 H 10 L 12,11 H 14 L 12,5 C 11,3 11,3 9,3 Z M 7.0136719,6.5 C 6.2592778,6.4940661 5.5029349,6.9941165 5,8 L 4,11 H 10 L 9,8 C 8.502935,7.005871 7.7592604,6.5075591 7.0136719,6.5 Z" style="opacity:0.5;fill:none;fill-opacity:1;fill-rule:nonzero;stroke:#ffffff;stroke-width:3;stroke-linecap:round;stroke-linejoin:round;stroke-miterlimit:4;stroke-dasharray:none;stroke-opacity:1" inkscape:connector-curvature="0" />
  <path style="opacity:1;fill:#000000;fill-opacity:1;fill-rule:nonzero;stroke:none;stroke-width:0.99999994;stroke-opacity:1" d="M 5,3 C 3.0000002,3 3,3 2,5 L 0,11 H 2 L 4,5 h 6 l 2,6 h 2 L 12,5 C 11,3 11,3 9,3 Z M 7.0136719,6.5 C 6.2592778,6.4940661 5.5029349,6.9941165 5,8 l -1,3 h 6 L 9,8 C 8.502935,7.005871 7.7592604,6.5075591 7.0136719,6.5 Z" id="path44" />
</svg>
