<?xml version="1.0" encoding="UTF-8" standalone="no"?>
<!-- Created with Inkscape (http://www.inkscape.org/) -->

<svg xmlns:dc="http://purl.org/dc/elements/1.1/" xmlns:cc="http://creativecommons.org/ns#" xmlns:rdf="http://www.w3.org/1999/02/22-rdf-syntax-ns#" xmlns:svg="http://www.w3.org/2000/svg" xmlns="http://www.w3.org/2000/svg" xmlns:sodipodi="http://sodipodi.sourceforge.net/DTD/sodipodi-0.dtd" xmlns:inkscape="http://www.inkscape.org/namespaces/inkscape" version="1.1" width="14" height="14" viewBox="0 0 14 14" id="svg9475" sodipodi:docname="cafe.svg" inkscape:version="0.92.3 (2405546, 2018-03-11)">
  <metadata id="metadata9481">
    <rdf:RDF>
      <cc:Work rdf:about="">
        <dc:format>image/svg+xml</dc:format>
        <dc:type rdf:resource="http://purl.org/dc/dcmitype/StillImage" />
        <dc:title></dc:title>
      </cc:Work>
    </rdf:RDF>
  </metadata>
  <defs id="defs9479" />
  <sodipodi:namedview pagecolor="#ffffff" bordercolor="#666666" borderopacity="1" objecttolerance="10" gridtolerance="10" guidetolerance="10" inkscape:pageopacity="0" inkscape:pageshadow="2" inkscape:window-width="1881" inkscape:window-height="1051" id="namedview9477" showgrid="false" inkscape:zoom="16.857143" inkscape:cx="-3.4703389" inkscape:cy="7.0000001" inkscape:window-x="0" inkscape:window-y="0" inkscape:window-maximized="1" inkscape:current-layer="svg9475" inkscape:pagecheckerboard="true" />
  <path id="path10026" d="M 1,1 1,7 C 1,9 3,10 5.5,10 8,10 10,9 10,7 l 2,0 c 1,0 2,-1 2,-2 L 14,4 C 14,3 13,2 12,2 l -2,0 0,-1 z m 9,2.25 1.75,0 c 0.667788,0 1,0.5628359 1,1.25 0,0.6871641 -0.388201,1.25 -1,1.25 L 10,5.75 z M 0,11 c 0,1 1,2 2,2 l 7,0 c 1,0 2,-1 2,-2 z" style="stroke:#ffffff;stroke-opacity:0.50196081;stroke-linejoin:round;stroke-linecap:round;stroke-width:3;stroke-miterlimit:4;stroke-dasharray:none" />
  <rect width="14" height="14" x="0" y="0" id="canvas" style="fill:none;stroke:none;visibility:hidden" />
  <path d="M 1,1 1,7 C 1,9 3,10 5.5,10 8,10 10,9 10,7 l 2,0 c 1,0 2,-1 2,-2 L 14,4 C 14,3 13,2 12,2 l -2,0 0,-1 z m 9,2.25 1.75,0 c 0.667788,0 1,0.5628359 1,1.25 0,0.6871641 -0.388201,1.25 -1,1.25 L 10,5.75 z M 0,11 c 0,1 1,2 2,2 l 7,0 c 1,0 2,-1 2,-2 z" id="cafe" />
</svg>
