<?xml version="1.0" encoding="UTF-8" standalone="no"?>
<!-- Created with Inkscape (http://www.inkscape.org/) -->

<svg xmlns:dc="http://purl.org/dc/elements/1.1/" xmlns:cc="http://creativecommons.org/ns#" xmlns:rdf="http://www.w3.org/1999/02/22-rdf-syntax-ns#" xmlns:svg="http://www.w3.org/2000/svg" xmlns="http://www.w3.org/2000/svg" xmlns:xlink="http://www.w3.org/1999/xlink" xmlns:sodipodi="http://sodipodi.sourceforge.net/DTD/sodipodi-0.dtd" xmlns:inkscape="http://www.inkscape.org/namespaces/inkscape" width="50" height="50" viewBox="0 0 13.229167 13.229167" version="1.1" id="svg8" inkscape:version="0.92.3 (2405546, 2018-03-11)" sodipodi:docname="cave.svg">
  <defs id="defs2" />
  <sodipodi:namedview id="base" pagecolor="#ffffff" bordercolor="#666666" borderopacity="1.0" inkscape:pageopacity="0.0" inkscape:pageshadow="2" inkscape:zoom="32" inkscape:cx="167.9536" inkscape:cy="977.67163" inkscape:document-units="mm" inkscape:current-layer="layer1" showgrid="true" inkscape:window-width="1881" inkscape:window-height="1058" inkscape:window-x="0" inkscape:window-y="0" inkscape:window-maximized="1" inkscape:pagecheckerboard="true" units="px">
    <inkscape:grid type="xygrid" id="grid13930" units="px" spacingx="0.26458334" spacingy="0.26458334" />
  </sodipodi:namedview>
  <metadata id="metadata5">
    <rdf:RDF>
      <cc:Work rdf:about="">
        <dc:format>image/svg+xml</dc:format>
        <dc:type rdf:resource="http://purl.org/dc/dcmitype/StillImage" />
        <dc:title></dc:title>
      </cc:Work>
    </rdf:RDF>
  </metadata>
  <g inkscape:label="Layer 1" inkscape:groupmode="layer" id="layer1" style="display:inline" transform="translate(0,-283.7708)">
    <path sodipodi:type="inkscape:offset" inkscape:radius="0.26527476" inkscape:original="M 45.507812 37.708984 C 45.097377 37.708984 44.768051 37.880392 44.554688 38.125 C 44.341327 38.369606 44.238279 38.679121 44.238281 38.978516 L 44.238281 39.511719 L 43.705078 39.511719 L 43.705078 39.888672 L 44.615234 39.888672 L 44.615234 38.978516 C 44.615234 38.767701 44.690468 38.540094 44.837891 38.371094 C 44.985304 38.202093 45.196702 38.085937 45.507812 38.085938 C 45.818925 38.085938 46.030322 38.202096 46.177734 38.371094 C 46.325147 38.540094 46.402344 38.767699 46.402344 38.978516 L 46.402344 39.888672 L 47.3125 39.888672 L 47.3125 39.511719 L 46.779297 39.511719 L 46.779297 38.978516 C 46.779295 38.679122 46.676255 38.369606 46.462891 38.125 C 46.24953 37.880392 45.91825 37.708984 45.507812 37.708984 z " xlink:href="#path9291" style="color:#000000;font-style:normal;font-variant:normal;font-weight:normal;font-stretch:normal;font-size:medium;line-height:normal;font-family:sans-serif;font-variant-ligatures:normal;font-variant-position:normal;font-variant-caps:normal;font-variant-numeric:normal;font-variant-alternates:normal;font-feature-settings:normal;text-indent:0;text-align:start;text-decoration:none;text-decoration-line:none;text-decoration-style:solid;text-decoration-color:#000000;letter-spacing:normal;word-spacing:normal;text-transform:none;writing-mode:lr-tb;direction:ltr;text-orientation:mixed;dominant-baseline:auto;baseline-shift:baseline;text-anchor:start;white-space:normal;shape-padding:0;clip-rule:nonzero;display:inline;overflow:visible;visibility:visible;opacity:0.5;isolation:auto;mix-blend-mode:normal;color-interpolation:sRGB;color-interpolation-filters:linearRGB;solid-color:#000000;solid-opacity:1;vector-effect:none;fill:#e8e8e8;fill-opacity:1;fill-rule:evenodd;stroke:none;stroke-width:0.26458335px;stroke-linecap:butt;stroke-linejoin:miter;stroke-miterlimit:4;stroke-dasharray:none;stroke-dashoffset:0;stroke-opacity:1;color-rendering:auto;image-rendering:auto;shape-rendering:auto;text-rendering:auto;enable-background:accumulate" id="path3272" inkscape:href="#path9291" d="m 45.507812,37.443359 c -0.484291,0 -0.890449,0.207567 -1.152343,0.507813 c -0.258416,0.296259 -0.382815,0.667078 -0.382813,1.027344 v 0.267578 h -0.267578 a 0.26530129,0.26530129 0 0 0 -0.265625,0.265625 v 0.376953 a 0.26530129,0.26530129 0 0 0 0.265625,0.265625 h 0.910156 a 0.26530129,0.26530129 0 0 0 0.265625,-0.265625 v -0.910156 c 0,-0.147703 0.057,-0.319815 0.15625,-0.433594 c 0.104411,-0.119702 0.225623,-0.19336 0.470703,-0.19336 c 0.245084,0 0.366293,0.07366 0.470704,0.19336 c 0.100013,0.11466 0.158203,0.287536 0.158203,0.433594 v 0.910156 a 0.26530129,0.26530129 0 0 0 0.265625,0.265625 H 47.3125 a 0.26530129,0.26530129 0 0 0 0.265625,-0.265625 V 39.511719 A 0.26530129,0.26530129 0 0 0 47.3125,39.246094 h -0.267578 v -0.267578 c -3e-6,-0.360258 -0.124391,-0.731083 -0.382813,-1.027344 c -0.26242,-0.300852 -0.670002,-0.507813 -1.154297,-0.507813 z" />
    <path style="color:#000000;font-style:normal;font-variant:normal;font-weight:normal;font-stretch:normal;font-size:medium;line-height:normal;font-family:sans-serif;font-variant-ligatures:normal;font-variant-position:normal;font-variant-caps:normal;font-variant-numeric:normal;font-variant-alternates:normal;font-feature-settings:normal;text-indent:0;text-align:start;text-decoration:none;text-decoration-line:none;text-decoration-style:solid;text-decoration-color:#000000;letter-spacing:normal;word-spacing:normal;text-transform:none;writing-mode:lr-tb;direction:ltr;text-orientation:mixed;dominant-baseline:auto;baseline-shift:baseline;text-anchor:start;white-space:normal;shape-padding:0;clip-rule:nonzero;display:inline;overflow:visible;visibility:visible;opacity:1;isolation:auto;mix-blend-mode:normal;color-interpolation:sRGB;color-interpolation-filters:linearRGB;solid-color:#000000;solid-opacity:1;vector-effect:none;fill:#000000;fill-opacity:1;fill-rule:evenodd;stroke:none;stroke-width:0.26458335px;stroke-linecap:butt;stroke-linejoin:miter;stroke-miterlimit:4;stroke-dasharray:none;stroke-dashoffset:0;stroke-opacity:1;color-rendering:auto;image-rendering:auto;shape-rendering:auto;text-rendering:auto;enable-background:accumulate" d="m 45.508334,37.708293 c -0.410436,0 -0.740949,0.171517 -0.954312,0.416125 c -0.213361,0.244606 -0.316256,0.555046 -0.316254,0.854441 v 0.53264 h -0.532639 v 0.377286 h 0.909925 v -0.909926 c 0,-0.210815 0.07451,-0.438541 0.221933,-0.607541 c 0.147413,-0.169001 0.360236,-0.285739 0.671347,-0.285739 c 0.311113,0 0.521161,0.116741 0.668573,0.285739 c 0.147413,0.169 0.224707,0.396724 0.224707,0.607541 v 0.909926 h 0.909927 v -0.377286 h -0.532639 v -0.53264 c -2e-6,-0.299394 -0.102892,-0.609835 -0.316256,-0.854441 C 46.249285,37.87981 45.918772,37.708293 45.508334,37.708293 Z" id="path9291" inkscape:connector-curvature="0" />
  </g>
</svg>
