<?xml version="1.0" encoding="UTF-8" standalone="no"?>
<!-- Created with Inkscape (http://www.inkscape.org/) -->

<svg xmlns:dc="http://purl.org/dc/elements/1.1/" xmlns:cc="http://creativecommons.org/ns#" xmlns:rdf="http://www.w3.org/1999/02/22-rdf-syntax-ns#" xmlns:svg="http://www.w3.org/2000/svg" xmlns="http://www.w3.org/2000/svg" xmlns:xlink="http://www.w3.org/1999/xlink" xmlns:sodipodi="http://sodipodi.sourceforge.net/DTD/sodipodi-0.dtd" xmlns:inkscape="http://www.inkscape.org/namespaces/inkscape" width="210mm" height="297mm" viewBox="0 0 210 297" version="1.1" id="svg8" inkscape:version="0.92.3 (2405546, 2018-03-11)" sodipodi:docname="cave.svg">
  <defs id="defs2" />
  <sodipodi:namedview id="base" pagecolor="#ffffff" bordercolor="#666666" borderopacity="1.0" inkscape:pageopacity="0.0" inkscape:pageshadow="2" inkscape:zoom="16" inkscape:cx="177.3544" inkscape:cy="983.96631" inkscape:document-units="mm" inkscape:current-layer="layer1" showgrid="true" inkscape:window-width="1881" inkscape:window-height="1058" inkscape:window-x="0" inkscape:window-y="0" inkscape:window-maximized="1" inkscape:pagecheckerboard="true">
    <inkscape:grid type="xygrid" id="grid13930" />
  </sodipodi:namedview>
  <metadata id="metadata5">
    <rdf:RDF>
      <cc:Work rdf:about="">
        <dc:format>image/svg+xml</dc:format>
        <dc:type rdf:resource="http://purl.org/dc/dcmitype/StillImage" />
        <dc:title></dc:title>
      </cc:Work>
    </rdf:RDF>
  </metadata>
  <g inkscape:label="Layer 1" inkscape:groupmode="layer" id="layer1" style="display:inline">
    <path style="fill:none;fill-rule:evenodd;stroke:#000000;stroke-width:0.00705146px;stroke-linecap:butt;stroke-linejoin:miter;stroke-opacity:1" d="m 47.020918,40.416553 c 0,0 0,0 0,0 z" id="path4751" inkscape:connector-curvature="0" />
    <path sodipodi:type="inkscape:offset" inkscape:radius="0.24064715" inkscape:original="M 41.376953 31.710938 C 40.966517 31.710938 40.635238 31.882345 40.421875 32.126953 C 40.208514 32.371559 40.105467 32.683027 40.105469 32.982422 L 40.105469 33.515625 L 39.574219 33.515625 L 39.574219 33.892578 L 40.484375 33.892578 L 40.484375 32.982422 C 40.484375 32.771607 40.557655 32.544 40.705078 32.375 C 40.852491 32.205999 41.065842 32.087891 41.376953 32.087891 C 41.688066 32.087891 41.89751 32.206002 42.044922 32.375 C 42.192335 32.544 42.269531 32.771605 42.269531 32.982422 L 42.269531 33.892578 L 43.179688 33.892578 L 43.179688 33.515625 L 42.646484 33.515625 L 42.646484 32.982422 C 42.646482 32.683028 42.545395 32.371559 42.332031 32.126953 C 42.11867 31.882345 41.787391 31.710938 41.376953 31.710938 z " xlink:href="#path9291" style="color:#000000;font-style:normal;font-variant:normal;font-weight:normal;font-stretch:normal;font-size:medium;line-height:normal;font-family:sans-serif;font-variant-ligatures:normal;font-variant-position:normal;font-variant-caps:normal;font-variant-numeric:normal;font-variant-alternates:normal;font-feature-settings:normal;text-indent:0;text-align:start;text-decoration:none;text-decoration-line:none;text-decoration-style:solid;text-decoration-color:#000000;letter-spacing:normal;word-spacing:normal;text-transform:none;writing-mode:lr-tb;direction:ltr;text-orientation:mixed;dominant-baseline:auto;baseline-shift:baseline;text-anchor:start;white-space:normal;shape-padding:0;clip-rule:nonzero;display:inline;overflow:visible;visibility:visible;opacity:0.5;isolation:auto;mix-blend-mode:normal;color-interpolation:sRGB;color-interpolation-filters:linearRGB;solid-color:#000000;solid-opacity:1;vector-effect:none;fill:#fefefe;fill-opacity:1;fill-rule:evenodd;stroke:none;stroke-width:0.26458335px;stroke-linecap:butt;stroke-linejoin:miter;stroke-miterlimit:4;stroke-dasharray:none;stroke-dashoffset:0;stroke-opacity:1;color-rendering:auto;image-rendering:auto;shape-rendering:auto;text-rendering:auto;enable-background:accumulate" id="path13272" inkscape:href="#path9291" d="m 41.376953,31.470703 c -0.477436,0 -0.878852,0.202418 -1.136719,0.498047 c -0.25465,0.291942 -0.375002,0.659058 -0.375,1.013672 v 0.292969 h -0.291015 a 0.24067122,0.24067122 0 0 0 -0.240235,0.240234 v 0.376953 a 0.24067122,0.24067122 0 0 0 0.240235,0.240234 h 0.910156 a 0.24067122,0.24067122 0 0 0 0.240234,-0.240234 v -0.910156 c 0,-0.155049 0.05908,-0.331107 0.16211,-0.449219 c 0.108314,-0.124177 0.240028,-0.205078 0.490234,-0.205078 c 0.250207,0 0.376629,0.07932 0.486328,0.205078 c 0.104414,0.119704 0.166016,0.297148 0.166016,0.449219 v 0.910156 a 0.24067122,0.24067122 0 0 0 0.240234,0.240234 h 0.910157 a 0.24067122,0.24067122 0 0 0 0.240234,-0.240234 v -0.376953 a 0.24067122,0.24067122 0 0 0 -0.240234,-0.240234 h -0.292969 v -0.292969 c -3e-6,-0.353561 -0.117913,-0.72118 -0.373047,-1.013672 C 42.255806,31.67312 41.85439,31.470703 41.376953,31.470703 Z" />
    <path style="color:#000000;font-style:normal;font-variant:normal;font-weight:normal;font-stretch:normal;font-size:medium;line-height:normal;font-family:sans-serif;font-variant-ligatures:normal;font-variant-position:normal;font-variant-caps:normal;font-variant-numeric:normal;font-variant-alternates:normal;font-feature-settings:normal;text-indent:0;text-align:start;text-decoration:none;text-decoration-line:none;text-decoration-style:solid;text-decoration-color:#000000;letter-spacing:normal;word-spacing:normal;text-transform:none;writing-mode:lr-tb;direction:ltr;text-orientation:mixed;dominant-baseline:auto;baseline-shift:baseline;text-anchor:start;white-space:normal;shape-padding:0;clip-rule:nonzero;display:inline;overflow:visible;visibility:visible;opacity:1;isolation:auto;mix-blend-mode:normal;color-interpolation:sRGB;color-interpolation-filters:linearRGB;solid-color:#000000;solid-opacity:1;vector-effect:none;fill:#000000;fill-opacity:1;fill-rule:evenodd;stroke:none;stroke-width:0.26458335px;stroke-linecap:butt;stroke-linejoin:miter;stroke-miterlimit:4;stroke-dasharray:none;stroke-dashoffset:0;stroke-opacity:1;color-rendering:auto;image-rendering:auto;shape-rendering:auto;text-rendering:auto;enable-background:accumulate" d="m 41.376793,31.711543 c -0.410436,0 -0.740949,0.171517 -0.954312,0.416125 c -0.213361,0.244606 -0.316256,0.555046 -0.316254,0.854441 v 0.53264 h -0.532639 v 0.377286 h 0.909925 v -0.909926 c 0,-0.210815 0.07451,-0.438541 0.221933,-0.607541 c 0.147413,-0.169001 0.360236,-0.285739 0.671347,-0.285739 c 0.311113,0 0.521161,0.116741 0.668573,0.285739 c 0.147413,0.169 0.224707,0.396724 0.224707,0.607541 v 0.909926 H 43.18 v -0.377286 h -0.532639 v -0.53264 c -2e-6,-0.299394 -0.102892,-0.609835 -0.316256,-0.854441 C 42.117744,31.88306 41.787231,31.711543 41.376793,31.711543 Z" id="path9291" inkscape:connector-curvature="0" />
  </g>
</svg>
