<?xml version="1.0" encoding="UTF-8" standalone="no"?>
<!-- Created with Inkscape (http://www.inkscape.org/) -->

<svg xmlns:dc="http://purl.org/dc/elements/1.1/" xmlns:cc="http://creativecommons.org/ns#" xmlns:rdf="http://www.w3.org/1999/02/22-rdf-syntax-ns#" xmlns:svg="http://www.w3.org/2000/svg" xmlns="http://www.w3.org/2000/svg" xmlns:xlink="http://www.w3.org/1999/xlink" xmlns:sodipodi="http://sodipodi.sourceforge.net/DTD/sodipodi-0.dtd" xmlns:inkscape="http://www.inkscape.org/namespaces/inkscape" width="210mm" height="297mm" viewBox="0 0 210 297" version="1.1" id="svg8" inkscape:version="0.92.3 (2405546, 2018-03-11)" sodipodi:docname="cave.svg">
  <defs id="defs2" />
  <sodipodi:namedview id="base" pagecolor="#ffffff" bordercolor="#666666" borderopacity="1.0" inkscape:pageopacity="0.0" inkscape:pageshadow="2" inkscape:zoom="16" inkscape:cx="165.40546" inkscape:cy="977.52021" inkscape:document-units="mm" inkscape:current-layer="layer1" showgrid="true" inkscape:window-width="1881" inkscape:window-height="1058" inkscape:window-x="0" inkscape:window-y="0" inkscape:window-maximized="1" inkscape:pagecheckerboard="true">
    <inkscape:grid type="xygrid" id="grid13930" />
  </sodipodi:namedview>
  <metadata id="metadata5">
    <rdf:RDF>
      <cc:Work rdf:about="">
        <dc:format>image/svg+xml</dc:format>
        <dc:type rdf:resource="http://purl.org/dc/dcmitype/StillImage" />
        <dc:title />
      </cc:Work>
    </rdf:RDF>
  </metadata>
  <g inkscape:label="Layer 1" inkscape:groupmode="layer" id="layer1" style="display:inline">
    <path sodipodi:type="inkscape:offset" inkscape:radius="0.22872217" inkscape:original="M 45.71875 37.386719 C 45.308314 37.386719 44.978988 37.558126 44.765625 37.802734 C 44.552264 38.04734 44.449217 38.358808 44.449219 38.658203 L 44.449219 39.189453 L 43.916016 39.189453 L 43.916016 39.566406 L 44.826172 39.566406 L 44.826172 38.658203 C 44.826172 38.447388 44.901405 38.219781 45.048828 38.050781 C 45.196241 37.88178 45.407639 37.763672 45.71875 37.763672 C 46.029863 37.763672 46.24126 37.881783 46.388672 38.050781 C 46.536085 38.219781 46.613281 38.447386 46.613281 38.658203 L 46.613281 39.566406 L 47.523438 39.566406 L 47.523438 39.189453 L 46.990234 39.189453 L 46.990234 38.658203 C 46.990232 38.358809 46.887192 38.04734 46.673828 37.802734 C 46.460467 37.558126 46.129188 37.386719 45.71875 37.386719 z " xlink:href="#path9291" style="color:#000000;font-style:normal;font-variant:normal;font-weight:normal;font-stretch:normal;font-size:medium;line-height:normal;font-family:sans-serif;font-variant-ligatures:normal;font-variant-position:normal;font-variant-caps:normal;font-variant-numeric:normal;font-variant-alternates:normal;font-feature-settings:normal;text-indent:0;text-align:start;text-decoration:none;text-decoration-line:none;text-decoration-style:solid;text-decoration-color:#000000;letter-spacing:normal;word-spacing:normal;text-transform:none;writing-mode:lr-tb;direction:ltr;text-orientation:mixed;dominant-baseline:auto;baseline-shift:baseline;text-anchor:start;white-space:normal;shape-padding:0;clip-rule:nonzero;display:inline;overflow:visible;visibility:visible;opacity:1;isolation:auto;mix-blend-mode:normal;color-interpolation:sRGB;color-interpolation-filters:linearRGB;solid-color:#000000;solid-opacity:1;vector-effect:none;fill:#ffffff;fill-opacity:0.50196081;fill-rule:evenodd;stroke:none;stroke-width:0.26458335px;stroke-linecap:butt;stroke-linejoin:miter;stroke-miterlimit:4;stroke-dasharray:none;stroke-dashoffset:0;stroke-opacity:1;color-rendering:auto;image-rendering:auto;shape-rendering:auto;text-rendering:auto;enable-background:accumulate" id="path4784" inkscape:href="#path9291" d="m 45.71875,37.158203 c -0.474116,0 -0.869793,0.201561 -1.125,0.494141 c -0.252604,0.289596 -0.373049,0.653981 -0.373047,1.005859 v 0.302735 H 43.916016 A 0.22874504,0.22874504 0 0 0 43.6875,39.189453 v 0.376953 a 0.22874504,0.22874504 0 0 0 0.228516,0.228516 h 0.910156 a 0.22874504,0.22874504 0 0 0 0.228516,-0.228516 v -0.908203 c 0,-0.156399 0.06013,-0.335644 0.166015,-0.457031 c 0.11091,-0.127152 0.244823,-0.208985 0.498047,-0.208984 c 0.253225,0 0.387137,0.08183 0.498047,0.208984 c 0.106545,0.122147 0.167969,0.302049 0.167969,0.457031 v 0.908203 a 0.22874504,0.22874504 0 0 0 0.228515,0.228516 h 0.910157 a 0.22874504,0.22874504 0 0 0 0.228515,-0.228516 V 39.189453 A 0.22874504,0.22874504 0 0 0 47.523438,38.960938 H 47.21875 v -0.302735 c -2e-6,-0.351871 -0.120437,-0.716261 -0.373047,-1.005859 c -0.25566,-0.293102 -0.652836,-0.494141 -1.126953,-0.494141 z" />
    <path style="color:#000000;font-style:normal;font-variant:normal;font-weight:normal;font-stretch:normal;font-size:medium;line-height:normal;font-family:sans-serif;font-variant-ligatures:normal;font-variant-position:normal;font-variant-caps:normal;font-variant-numeric:normal;font-variant-alternates:normal;font-feature-settings:normal;text-indent:0;text-align:start;text-decoration:none;text-decoration-line:none;text-decoration-style:solid;text-decoration-color:#000000;letter-spacing:normal;word-spacing:normal;text-transform:none;writing-mode:lr-tb;direction:ltr;text-orientation:mixed;dominant-baseline:auto;baseline-shift:baseline;text-anchor:start;white-space:normal;shape-padding:0;clip-rule:nonzero;display:inline;overflow:visible;visibility:visible;opacity:1;isolation:auto;mix-blend-mode:normal;color-interpolation:sRGB;color-interpolation-filters:linearRGB;solid-color:#000000;solid-opacity:1;vector-effect:none;fill:#000000;fill-opacity:1;fill-rule:evenodd;stroke:none;stroke-width:0.26458335px;stroke-linecap:butt;stroke-linejoin:miter;stroke-miterlimit:4;stroke-dasharray:none;stroke-dashoffset:0;stroke-opacity:1;color-rendering:auto;image-rendering:auto;shape-rendering:auto;text-rendering:auto;enable-background:accumulate" d="m 45.719432,37.386794 c -0.410436,0 -0.740949,0.171517 -0.954312,0.416125 c -0.213361,0.244606 -0.316256,0.555046 -0.316254,0.854441 V 39.19 h -0.532639 v 0.377286 h 0.909925 V 38.65736 c 0,-0.210815 0.07451,-0.438541 0.221933,-0.607541 c 0.147413,-0.169001 0.360236,-0.285739 0.671347,-0.285739 c 0.311113,0 0.521161,0.116741 0.668573,0.285739 c 0.147413,0.169 0.224707,0.396724 0.224707,0.607541 v 0.909926 h 0.909927 V 39.19 H 46.99 v -0.53264 c -2e-6,-0.299394 -0.102892,-0.609835 -0.316256,-0.854441 C 46.460383,37.558311 46.12987,37.386794 45.719432,37.386794 Z" id="path9291" inkscape:connector-curvature="0" />
  </g>
</svg>
