<?xml version="1.0" encoding="UTF-8" standalone="no"?>
<svg xmlns:dc="http://purl.org/dc/elements/1.1/" xmlns:cc="http://creativecommons.org/ns#" xmlns:rdf="http://www.w3.org/1999/02/22-rdf-syntax-ns#" xmlns:svg="http://www.w3.org/2000/svg" xmlns="http://www.w3.org/2000/svg" xmlns:sodipodi="http://sodipodi.sourceforge.net/DTD/sodipodi-0.dtd" xmlns:inkscape="http://www.inkscape.org/namespaces/inkscape" version="1.1" id="svg2" width="14" height="14" viewBox="0 0 14 14" sodipodi:docname="chalet.svg" inkscape:version="0.92.3 (2405546, 2018-03-11)">
  <sodipodi:namedview pagecolor="#ffffff" bordercolor="#666666" borderopacity="1" objecttolerance="10" gridtolerance="10" guidetolerance="10" inkscape:pageopacity="0" inkscape:pageshadow="2" inkscape:window-width="1881" inkscape:window-height="1051" id="namedview17204" showgrid="false" inkscape:zoom="23.8396" inkscape:cx="0.20447809" inkscape:cy="5.7663735" inkscape:window-x="0" inkscape:window-y="0" inkscape:window-maximized="1" inkscape:current-layer="svg2" inkscape:pagecheckerboard="true" />
  <metadata id="metadata8">
    <rdf:RDF>
      <cc:Work rdf:about="">
        <dc:format>image/svg+xml</dc:format>
        <dc:type rdf:resource="http://purl.org/dc/dcmitype/StillImage" />
        <dc:title></dc:title>
      </cc:Work>
    </rdf:RDF>
  </metadata>
  <defs id="defs6" />
  <g id="g7313" style="opacity:0.5">
    <path id="outline" d="M 4.2421875,0.73339625 L 0,4.5927712 H 0.49023438 V 11.221678 H 3.0859375 V 7.5068337 H 5.3984375 V 10.247068 L 3.1464844,12.834959 C 3.0061613,12.996366 3.1201114,13.248006 3.3339844,13.249022 L 13.748047,13.266602 C 13.926847,13.267602 14.048896,13.08609 13.980469,12.920899 L 10.605469,4.8134764 C 10.566029,4.7182454 10.472191,4.6569817 10.369141,4.6591795 C 10.298551,4.6606195 10.231867,4.6918345 10.185547,4.7451165 L 7.9941406,7.2626931 V 4.5927712 H 8.484375 Z M 10.296875,5.3779275 L 13.373047,12.7666 L 3.8828125,12.74902 L 5.3984375,11.006832 V 11.221676 H 7.9941406 V 8.0244118 Z" style="opacity:1;fill:#000000;fill-opacity:1;stroke:#ffffff;stroke-width:3;stroke-linecap:round;stroke-linejoin:round;stroke-miterlimit:4;stroke-dasharray:none;stroke-opacity:0.96698112" inkscape:connector-curvature="0" />
    <path style="fill:#000000;fill-opacity:0.99056602;stroke:none;opacity:1" d="M 10.296875,5.3779275 7.9941406,8.0244118 V 11.221678 H 5.3984375 v -0.214844 l -1.515625,1.742188 9.4902345,0.01758 z" id="polygon4-1-3" />
  </g>
  <path id="polygon4-1" d="M 4.2421875,0.73339625 0,4.5927712 H 0.49023438 V 11.221678 H 3.0859375 V 7.5068337 h 2.3125 v 2.7402343 l -2.2519531,2.587891 c -0.1403231,0.161407 -0.026373,0.413047 0.1875,0.414063 l 10.4140626,0.01758 c 0.1788,10e-4 0.300849,-0.180512 0.232422,-0.345703 l -3.375,-8.1074226 c -0.03944,-0.095231 -0.133278,-0.1564947 -0.236328,-0.1542969 -0.07059,0.00144 -0.137274,0.032655 -0.183594,0.085937 L 7.9941406,7.2626931 V 4.5927712 H 8.484375 Z M 10.296875,5.3779275 13.373047,12.7666 3.8828125,12.74902 5.3984375,11.006832 v 0.214844 H 7.9941406 V 8.0244118 Z" style="fill:#000000;fill-opacity:1;stroke-width:0.01526906" />
</svg>
