<?xml version="1.0" encoding="UTF-8" standalone="no"?>
<!-- Uploaded to: SVG Repo, www.svgrepo.com, Generator: SVG Repo Mixer Tools -->

<svg fill="#000000" height="20" width="20" version="1.2" id="Layer_1" viewBox="0 0 6.25 6.25" xml:space="preserve" sodipodi:docname="church.svg" inkscape:version="1.2.2 (b0a8486541, 2022-12-01)" xmlns:inkscape="http://www.inkscape.org/namespaces/inkscape" xmlns:sodipodi="http://sodipodi.sourceforge.net/DTD/sodipodi-0.dtd" xmlns="http://www.w3.org/2000/svg" xmlns:svg="http://www.w3.org/2000/svg"><defs id="defs674" /><sodipodi:namedview id="namedview672" pagecolor="#ffffff" bordercolor="#666666" borderopacity="1.0" inkscape:showpageshadow="2" inkscape:pageopacity="0.0" inkscape:pagecheckerboard="true" inkscape:deskcolor="#d1d1d1" showgrid="true" inkscape:zoom="13.350176" inkscape:cx="-3.2209313" inkscape:cy="9.9998682" inkscape:window-width="1863" inkscape:window-height="1056" inkscape:window-x="0" inkscape:window-y="0" inkscape:window-maximized="1" inkscape:current-layer="Layer_1"><inkscape:grid type="xygrid" id="grid797" originx="0" originy="0" /></sodipodi:namedview>
<path id="path61193" style="stroke-width:0.9375;stroke-dasharray:none;stroke:#ffffff;stroke-opacity:0.5;stroke-linejoin:round;stroke-linecap:round" d="M 3.4375,0.3125 V 0.9375 H 2.8125 V 1.25 H 3.4375 V 1.875 L 2.8125,2.8125 V 3.75 H 1.5625 L 0.9375,4.375 V 5.9375 H 4.375 V 4.375 V 2.8125 L 3.75,1.875 V 1.25 H 4.375 V 0.9375 H 3.75 V 0.3125 Z M 1.875,4.6875 V 5.3125 H 1.5850106 V 4.6875 C 1.5850106,4.375 1.875,4.3749898 1.875,4.6875 Z M 2.8125,4.6875 V 5.3125 H 2.5225106 V 4.6875 C 2.5225106,4.375 2.8125,4.3749898 2.8125,4.6875 Z M 3.75,4.6875 V 5.3125 H 3.4600106 V 4.6875 C 3.4600106,4.375 3.75,4.3749898 3.75,4.6875 Z M 3.75,3.125 V 3.4375 H 3.4600106 V 3.125 C 3.4600106,2.8125 3.75,2.8124898 3.75,3.125 Z" sodipodi:nodetypes="cccccccccccccccccccccsccsssccsssccsssccss" /><path id="path669" style="stroke-width:0.9375;stroke-dasharray:none" d="M 3.4375,0.3125 V 0.9375 H 2.8125 V 1.25 H 3.4375 V 1.875 L 2.8125,2.8125 V 3.75 H 1.5625 L 0.9375,4.375 V 5.9375 H 4.375 V 4.375 V 2.8125 L 3.75,1.875 V 1.25 H 4.375 V 0.9375 H 3.75 V 0.3125 Z M 1.875,4.6875 V 5.3125 H 1.5850106 V 4.6875 C 1.5850106,4.375 1.875,4.3749898 1.875,4.6875 Z M 2.8125,4.6875 V 5.3125 H 2.5225106 V 4.6875 C 2.5225106,4.375 2.8125,4.3749898 2.8125,4.6875 Z M 3.75,4.6875 V 5.3125 H 3.4600106 V 4.6875 C 3.4600106,4.375 3.75,4.3749898 3.75,4.6875 Z M 3.75,3.125 V 3.4375 H 3.4600106 V 3.125 C 3.4600106,2.8125 3.75,2.8124898 3.75,3.125 Z" sodipodi:nodetypes="cccccccccccccccccccccsccsssccsssccsssccss" />
</svg>
