<?xml version="1.0" encoding="UTF-8" standalone="no"?>
<!-- Created with Inkscape (http://www.inkscape.org/) -->

<svg version="1.0" width="14" height="14" id="svg2" sodipodi:version="0.32" inkscape:version="1.1.2 (0a00cf5339, 2022-02-04)" sodipodi:docname="college.svg" inkscape:output_extension="org.inkscape.output.svg.inkscape" xmlns:inkscape="http://www.inkscape.org/namespaces/inkscape" xmlns:sodipodi="http://sodipodi.sourceforge.net/DTD/sodipodi-0.dtd" xmlns="http://www.w3.org/2000/svg" xmlns:svg="http://www.w3.org/2000/svg" xmlns:rdf="http://www.w3.org/1999/02/22-rdf-syntax-ns#" xmlns:cc="http://creativecommons.org/ns#" xmlns:dc="http://purl.org/dc/elements/1.1/">
  <metadata id="metadata2975">
    <rdf:RDF>
      <cc:Work rdf:about="">
        <dc:format>image/svg+xml</dc:format>
        <dc:type rdf:resource="http://purl.org/dc/dcmitype/StillImage" />
        <cc:license rdf:resource="http://web.resource.org/cc/PublicDomain" />
        <dc:language>en</dc:language>
      </cc:Work>
    </rdf:RDF>
  </metadata>
  <sodipodi:namedview inkscape:window-height="1062" inkscape:window-width="1883" inkscape:pageshadow="2" inkscape:pageopacity="0.0" guidetolerance="10.0" gridtolerance="10.0" objecttolerance="10.0" borderopacity="1.0" bordercolor="#666666" pagecolor="#ffffff" id="base" inkscape:zoom="14.746834" inkscape:cx="6.6115887" inkscape:cy="12.782405" inkscape:window-x="0" inkscape:window-y="0" inkscape:current-layer="svg2" showgrid="false" inkscape:pagecheckerboard="0" inkscape:window-maximized="1" />
  <defs id="defs4">
    <inkscape:perspective sodipodi:type="inkscape:persp3d" inkscape:vp_x="0 : -276 : 1" inkscape:vp_y="0 : 1000 : 0" inkscape:vp_z="580 : -276 : 1" inkscape:persp3d-origin="290 : -372.66667 : 1" id="perspective2441" />
    <inkscape:perspective id="perspective3452" inkscape:persp3d-origin="30 : -546 : 1" inkscape:vp_z="60 : -536 : 1" inkscape:vp_y="0 : 1000 : 0" inkscape:vp_x="0 : -536 : 1" sodipodi:type="inkscape:persp3d" />
    <symbol viewBox="244.5 110 489 219.9" id="symbol-university">
      <path id="path4460" d="M 79,43 L 136,162 C 136,162 157,66 240,66 C 323,66 364,172 364,172 L 407,39 L 489,22 L 0,17 Z" />
      <path id="path4462" d="M 94,176 L 73,215" stroke-width="20" stroke="#000000" fill="none" />
      <path id="path4464" d="M 300,19 C 300,29.5 277.4,38 249.5,38 C 221.6,38 199,29.5 199,19 C 199,8.5 221.6,0 249.5,0 C 277.4,0 300,8.5 300,19 Z" />
      <path id="path4466" d="M 112,216 L 96,178 L 64,88 C 64,88 55,80 60,53 C 65,26 76,29 76,29" stroke-width="20" stroke="#000000" ill="none" />
    </symbol>
    <inkscape:perspective id="perspective4471" inkscape:persp3d-origin="372.04724 : -215.21261 : 1" inkscape:vp_z="744.09448 : -39.81891 : 1" inkscape:vp_y="0 : 1000 : 0" inkscape:vp_x="0 : -39.81891 : 1" sodipodi:type="inkscape:persp3d" />
    <inkscape:perspective id="perspective4668" inkscape:persp3d-origin="6 : -562 : 1" inkscape:vp_z="12 : -560 : 1" inkscape:vp_y="0 : 1000 : 0" inkscape:vp_x="0 : -560 : 1" sodipodi:type="inkscape:persp3d" />
    <marker viewBox="0 0 10 10" refY="5" refX="10" orient="auto" markerWidth="4" markerUnits="strokeWidth" markerHeight="3" id="ArrowStart">
      <path id="path3634" d="M 10,0 L 0,5 L 10,10 Z" />
    </marker>
    <marker viewBox="0 0 10 10" refY="5" refX="0" orient="auto" markerWidth="4" markerUnits="strokeWidth" markerHeight="3" id="ArrowEnd">
      <path id="path3631" d="M 0,0 L 10,5 L 0,10 Z" />
    </marker>
    <inkscape:perspective id="perspective2510" inkscape:persp3d-origin="306.082 : -361.60966 : 1" inkscape:vp_z="612.164 : -259.41449 : 1" inkscape:vp_y="0 : 1000 : 0" inkscape:vp_x="0 : -259.41449 : 1" sodipodi:type="inkscape:persp3d" />
    <marker viewBox="0 0 10 10" refY="5" refX="10" orient="auto" markerWidth="4" markerUnits="strokeWidth" markerHeight="3" id="marker2611">
      <path id="path1325" d="M 10,0 L 0,5 L 10,10 Z" />
    </marker>
    <marker viewBox="0 0 10 10" refY="5" refX="0" orient="auto" markerWidth="4" markerUnits="strokeWidth" markerHeight="3" id="marker2608">
      <path id="path1322" d="M 0,0 L 10,5 L 0,10 Z" />
    </marker>
    <inkscape:perspective id="perspective2605" inkscape:persp3d-origin="306.082 : -361.60966 : 1" inkscape:vp_z="612.164 : -259.41449 : 1" inkscape:vp_y="0 : 1000 : 0" inkscape:vp_x="0 : -259.41449 : 1" sodipodi:type="inkscape:persp3d" />
    <inkscape:perspective id="perspective2656" inkscape:persp3d-origin="372.04724 : -215.21261 : 1" inkscape:vp_z="744.09448 : -39.81891 : 1" inkscape:vp_y="0 : 1000 : 0" inkscape:vp_x="0 : -39.81891 : 1" sodipodi:type="inkscape:persp3d" />
  </defs>
  <path id="path57792" style="color:#000000;fill:none;fill-rule:evenodd;stroke-width:3;stroke-linecap:round;stroke:#ffffff;stroke-opacity:0.5;stroke-miterlimit:4;stroke-dasharray:none" d="M 6.8261719 0.00390625 L 6.8242188 0.005859375 C 6.6708355 0.027517325 6.5389046 0.11997367 6.4707031 0.25390625 L 5.4492188 2.6992188 L 0.3125 2.6992188 C 0.13950316 2.6993316 0.00011738524 2.8335718 0 3 L 0 11.052734 C 0.0001175576 11.219162 0.13950329 11.353403 0.3125 11.353516 L 1.8320312 11.353516 L 0.984375 13.378906 C 0.88856916 13.610779 1.0072064 13.874186 1.2480469 13.966797 C 1.488506 14.059182 1.7603539 13.947725 1.8574219 13.716797 L 2.84375 11.353516 L 11.0625 11.353516 L 12.048828 13.716797 C 12.145894 13.948797 12.42108 14.060482 12.662109 13.966797 C 12.902152 13.873415 13.017906 13.610235 12.921875 13.378906 L 12.076172 11.353516 L 13.6875 11.353516 C 13.860497 11.353403 13.999882 11.219162 14 11.052734 L 14 3 C 13.999882 2.8335719 13.860497 2.6993319 13.6875 2.6992188 L 8.4589844 2.6992188 L 7.4375 0.25390625 C 7.3692985 0.11997364 7.2373677 0.027517295 7.0839844 0.005859375 C 7.0826313 0.005200605 7.0814378 0.00455238 7.0800781 0.00390625 C 7.0381295 -0.00089504 6.9968439 -0.00024089599 6.9550781 0.005859375 C 6.9126449 -0.00041885 6.8687908 -0.00107318 6.8261719 0.00390625 z M 6.9550781 1.5175781 L 7.4472656 2.6992188 L 6.4609375 2.6992188 L 6.9550781 1.5175781 z M 1.2382812 5.1308594 L 2.3300781 5.1308594 C 2.511976 5.4617046 2.6954393 5.793944 2.8769531 6.125 C 3.085767 5.794058 3.2949079 5.4616862 3.5039062 5.1308594 L 4.6015625 5.1308594 C 4.2269646 5.7088017 3.8530643 6.2872605 3.4785156 6.8652344 C 3.8837748 7.5109419 4.2874484 8.1574344 4.6933594 8.8027344 L 3.609375 8.8027344 C 3.3716556 8.4139816 3.1269824 8.0302427 2.890625 7.640625 C 2.6592744 8.0288981 2.4284265 8.4155175 2.1953125 8.8027344 L 1.140625 8.8027344 C 1.5207203 8.1677015 1.9021857 7.5340774 2.28125 6.8984375 C 2.0196666 6.4530258 1.7550301 6.0088369 1.4921875 5.5644531 L 1.2382812 5.1308594 z M 9.4277344 5.1308594 L 10.435547 5.1308594 C 10.677137 5.8454822 10.915734 6.5610646 11.158203 7.2753906 C 11.385291 6.5606868 11.613187 5.8457023 11.839844 5.1308594 L 12.859375 5.1308594 L 11.806641 8.0585938 C 11.592791 8.495463 11.560611 8.9923667 11.376953 9.4394531 C 11.146101 10.050224 10.401487 10.360767 9.7871094 10.152344 C 9.7355133 9.9434317 9.7395513 9.6844949 9.7089844 9.4570312 C 9.6272859 9.2350483 9.7925483 9.3148598 9.9316406 9.3378906 C 10.238277 9.4120674 10.686107 9.2995253 10.732422 8.9375 C 10.390775 7.7301875 9.9105349 6.5588055 9.5078125 5.3671875 L 9.4277344 5.1308594 z M 6.5664062 5.2675781 L 7.4667969 5.2675781 L 7.4667969 6.4960938 L 8.6953125 6.4960938 L 8.6953125 7.3867188 L 7.4667969 7.3867188 L 7.4667969 8.6308594 L 6.5664062 8.6308594 L 6.5664062 7.3867188 L 5.3378906 7.3867188 L 5.3378906 6.4960938 L 5.984375 6.4960938 C 6.1609539 6.4561694 6.501668 6.5794993 6.5664062 6.4277344 L 6.5664062 5.2675781 z " />
  <path id="path3526" style="color:#000000;fill:#000000;fill-rule:evenodd;stroke-width:1.02174;stroke-linecap:round;-inkscape-stroke:none" d="M 6.8261719 0.00390625 L 6.8242188 0.005859375 C 6.6708355 0.027517325 6.5389046 0.11997367 6.4707031 0.25390625 L 5.4492188 2.6992188 L 0.3125 2.6992188 C 0.13950316 2.6993316 0.00011738524 2.8335718 0 3 L 0 11.052734 C 0.0001175576 11.219162 0.13950329 11.353403 0.3125 11.353516 L 1.8320312 11.353516 L 0.984375 13.378906 C 0.88856916 13.610779 1.0072064 13.874186 1.2480469 13.966797 C 1.488506 14.059182 1.7603539 13.947725 1.8574219 13.716797 L 2.84375 11.353516 L 11.0625 11.353516 L 12.048828 13.716797 C 12.145894 13.948797 12.42108 14.060482 12.662109 13.966797 C 12.902152 13.873415 13.017906 13.610235 12.921875 13.378906 L 12.076172 11.353516 L 13.6875 11.353516 C 13.860497 11.353403 13.999882 11.219162 14 11.052734 L 14 3 C 13.999882 2.8335719 13.860497 2.6993319 13.6875 2.6992188 L 8.4589844 2.6992188 L 7.4375 0.25390625 C 7.3692985 0.11997364 7.2373677 0.027517295 7.0839844 0.005859375 C 7.0826313 0.005200605 7.0814378 0.00455238 7.0800781 0.00390625 C 7.0381295 -0.00089504 6.9968439 -0.00024089599 6.9550781 0.005859375 C 6.9126449 -0.00041885 6.8687908 -0.00107318 6.8261719 0.00390625 z M 6.9550781 1.5175781 L 7.4472656 2.6992188 L 6.4609375 2.6992188 L 6.9550781 1.5175781 z M 1.2382812 5.1308594 L 2.3300781 5.1308594 C 2.511976 5.4617046 2.6954393 5.793944 2.8769531 6.125 C 3.085767 5.794058 3.2949079 5.4616862 3.5039062 5.1308594 L 4.6015625 5.1308594 C 4.2269646 5.7088017 3.8530643 6.2872605 3.4785156 6.8652344 C 3.8837748 7.5109419 4.2874484 8.1574344 4.6933594 8.8027344 L 3.609375 8.8027344 C 3.3716556 8.4139816 3.1269824 8.0302427 2.890625 7.640625 C 2.6592744 8.0288981 2.4284265 8.4155175 2.1953125 8.8027344 L 1.140625 8.8027344 C 1.5207203 8.1677015 1.9021857 7.5340774 2.28125 6.8984375 C 2.0196666 6.4530258 1.7550301 6.0088369 1.4921875 5.5644531 L 1.2382812 5.1308594 z M 9.4277344 5.1308594 L 10.435547 5.1308594 C 10.677137 5.8454822 10.915734 6.5610646 11.158203 7.2753906 C 11.385291 6.5606868 11.613187 5.8457023 11.839844 5.1308594 L 12.859375 5.1308594 L 11.806641 8.0585938 C 11.592791 8.495463 11.560611 8.9923667 11.376953 9.4394531 C 11.146101 10.050224 10.401487 10.360767 9.7871094 10.152344 C 9.7355133 9.9434317 9.7395513 9.6844949 9.7089844 9.4570312 C 9.6272859 9.2350483 9.7925483 9.3148598 9.9316406 9.3378906 C 10.238277 9.4120674 10.686107 9.2995253 10.732422 8.9375 C 10.390775 7.7301875 9.9105349 6.5588055 9.5078125 5.3671875 L 9.4277344 5.1308594 z M 6.5664062 5.2675781 L 7.4667969 5.2675781 L 7.4667969 6.4960938 L 8.6953125 6.4960938 L 8.6953125 7.3867188 L 7.4667969 7.3867188 L 7.4667969 8.6308594 L 6.5664062 8.6308594 L 6.5664062 7.3867188 L 5.3378906 7.3867188 L 5.3378906 6.4960938 L 5.984375 6.4960938 C 6.1609539 6.4561694 6.501668 6.5794993 6.5664062 6.4277344 L 6.5664062 5.2675781 z " />
</svg>
