<?xml version="1.0" encoding="UTF-8" standalone="no"?>
<svg xmlns:dc="http://purl.org/dc/elements/1.1/" xmlns:cc="http://creativecommons.org/ns#" xmlns:rdf="http://www.w3.org/1999/02/22-rdf-syntax-ns#" xmlns:svg="http://www.w3.org/2000/svg" xmlns="http://www.w3.org/2000/svg" xmlns:sodipodi="http://sodipodi.sourceforge.net/DTD/sodipodi-0.dtd" xmlns:inkscape="http://www.inkscape.org/namespaces/inkscape" version="1.1" id="svg2" viewBox="0 0 14 14" height="14" width="14" sodipodi:docname="convenience.svg" inkscape:version="0.92.3 (2405546, 2018-03-11)">
  <sodipodi:namedview pagecolor="#ffffff" bordercolor="#666666" borderopacity="1" objecttolerance="10" gridtolerance="10" guidetolerance="10" inkscape:pageopacity="0" inkscape:pageshadow="2" inkscape:window-width="1881" inkscape:window-height="1051" id="namedview10084" showgrid="false" inkscape:zoom="33.714286" inkscape:cx="2.7392985" inkscape:cy="7.888652" inkscape:window-x="0" inkscape:window-y="0" inkscape:window-maximized="1" inkscape:current-layer="svg2" inkscape:pagecheckerboard="true" />
  <metadata id="metadata24">
    <rdf:RDF>
      <cc:Work rdf:about="">
        <dc:format>image/svg+xml</dc:format>
        <dc:type rdf:resource="http://purl.org/dc/dcmitype/StillImage" />
        <dc:title></dc:title>
      </cc:Work>
    </rdf:RDF>
  </metadata>
  <defs id="defs22" />
  <path id="outline" d="M 8.3808594,1.6914062 C 8.1923828,1.6792187 8.0003906,1.7675001 7.9003906,2 L 5.921875,5 H 0 L 2,12 H 11 L 13,5 H 7.1269531 L 8.8300781,2.4003906 C 8.9967448,2.0128908 8.694987,1.7117189 8.3808594,1.6914062 Z M 1.25,6 H 3 V 7 H 1.5507812 Z M 3.5,6 H 5 V 7 H 3.5 Z M 5.5,6 H 7.5 V 7 H 5.5 Z M 8,6 H 9.5 V 7 H 8 Z M 10,6 H 11.75 L 11.449219,7 H 10 Z M 1.6992188,7.5 H 3 V 9 H 2.1503906 Z M 3.5,7.5 H 5 V 9 H 3.5 Z M 5.5,7.5 H 7.5 V 9 H 5.5 Z M 8,7.5 H 9.5 V 9 H 8 Z M 10,7.5 H 11.300781 L 10.849609,9 H 10 Z M 2.3007812,9.5 H 3 V 11 H 2.75 Z M 3.5,9.5 H 5 V 11 H 3.5 Z M 5.5,9.5 H 7.5 V 11 H 5.5 Z M 8,9.5 H 9.5 V 11 H 8 Z M 10,9.5 H 10.699219 L 10.25,11 H 10 Z" style="stroke:#ffffff;stroke-width:3;stroke-linecap:round;stroke-linejoin:round;stroke-miterlimit:4;stroke-dasharray:none;stroke-opacity:0.50196078" inkscape:connector-curvature="0" />
  <path d="M 8.3808594 1.6914062 C 8.1923828 1.6792187 8.0003906 1.7675001 7.9003906 2 L 5.921875 5 L 0 5 L 2 12 L 11 12 L 13 5 L 7.1269531 5 L 8.8300781 2.4003906 C 8.9967448 2.0128908 8.694987 1.7117189 8.3808594 1.6914062 z M 1.25 6 L 3 6 L 3 7 L 1.5507812 7 L 1.25 6 z M 3.5 6 L 5 6 L 5 7 L 3.5 7 L 3.5 6 z M 5.5 6 L 7.5 6 L 7.5 7 L 5.5 7 L 5.5 6 z M 8 6 L 9.5 6 L 9.5 7 L 8 7 L 8 6 z M 10 6 L 11.75 6 L 11.449219 7 L 10 7 L 10 6 z M 1.6992188 7.5 L 3 7.5 L 3 9 L 2.1503906 9 L 1.6992188 7.5 z M 3.5 7.5 L 5 7.5 L 5 9 L 3.5 9 L 3.5 7.5 z M 5.5 7.5 L 7.5 7.5 L 7.5 9 L 5.5 9 L 5.5 7.5 z M 8 7.5 L 9.5 7.5 L 9.5 9 L 8 9 L 8 7.5 z M 10 7.5 L 11.300781 7.5 L 10.849609 9 L 10 9 L 10 7.5 z M 2.3007812 9.5 L 3 9.5 L 3 11 L 2.75 11 L 2.3007812 9.5 z M 3.5 9.5 L 5 9.5 L 5 11 L 3.5 11 L 3.5 9.5 z M 5.5 9.5 L 7.5 9.5 L 7.5 11 L 5.5 11 L 5.5 9.5 z M 8 9.5 L 9.5 9.5 L 9.5 11 L 8 11 L 8 9.5 z M 10 9.5 L 10.699219 9.5 L 10.25 11 L 10 11 L 10 9.5 z " id="rect5" />
</svg>
