<?xml version="1.0" encoding="UTF-8" standalone="no"?>
<svg version="1.0" width="15.186669" height="14.034822" id="svg934" sodipodi:docname="disused_mine.svg" inkscape:version="1.1.1 (3bf5ae0d25, 2021-09-20)" xmlns:inkscape="http://www.inkscape.org/namespaces/inkscape" xmlns:sodipodi="http://sodipodi.sourceforge.net/DTD/sodipodi-0.dtd" xmlns="http://www.w3.org/2000/svg" xmlns:svg="http://www.w3.org/2000/svg">
  <defs id="defs938" />
  <sodipodi:namedview id="namedview936" pagecolor="#ffffff" bordercolor="#666666" borderopacity="1.0" inkscape:pageshadow="2" inkscape:pageopacity="0.0" inkscape:pagecheckerboard="0" showgrid="false" fit-margin-top="0" fit-margin-left="0" fit-margin-right="0" fit-margin-bottom="0" inkscape:zoom="23.089655" inkscape:cx="10.697431" inkscape:cy="14.746864" inkscape:window-width="1883" inkscape:window-height="1062" inkscape:window-x="0" inkscape:window-y="0" inkscape:window-maximized="1" inkscape:current-layer="svg934" />
  <path d="M 9.3497648,12.524847 A -0.24,-0.24 0 0 0 9.4997648,12.484847 C 10.329765,11.904847 11.189765,11.344847 11.939765,10.604847 V 10.604847 C 12.639765,9.8848472 13.099765,9.0048472 13.649765,8.2548472 A -0.24,-0.24 0 0 0 13.599765,7.9248472 L 12.349765,7.0048472 A -0.24,-0.24 0 0 0 12.019765,7.0648472 L 10.759765,8.8748472 L 8.2997648,6.3948472 L 10.949765,3.5448473 L 12.049765,2.3848473 A -0.24,-0.24 0 0 0 12.029765,2.0548473 L 11.469765,1.5448473 C 11.369765,1.4448473 11.219765,1.4648473 11.129765,1.5548473 L 7.5297648,5.6148472 L 3.5897645,1.6648473 A -0.24,-0.24 0 0 0 3.2597645,1.6648473 L 2.7197645,2.2048473 A -0.24,-0.24 0 0 0 2.7197645,2.5448473 A -7070.3,-7070.3 0 0 1 6.7897648,6.4448472 L 4.5597645,8.9248472 L 3.8097645,8.2548472 L 1.8097645,7.2048472 C 1.5697645,7.0748472 1.3497645,7.3848472 1.5397645,7.5748472 V 7.5748472 L 1.5697645,7.6448472 A -7.16,-7.16 0 0 1 1.6997645,7.9048472 L 2.0497645,8.6848472 A -44.14,-44.14 0 0 0 2.4197645,9.4848472 A -6.98,-6.98 0 0 0 2.5597645,9.7848472 A -1.67,-1.67 0 0 0 2.6197645,9.8848472 L 2.6997645,9.9848472 V 9.9848472 A -74.78,-74.78 0 0 1 3.2497645,10.484847 L 3.0097645,10.714847 A -0.24,-0.24 0 0 0 3.0297645,11.064847 L 3.3497645,11.334847 A -0.24,-0.24 0 0 0 3.6697645,11.334847 L 3.9197645,11.084847 A -27.98,-27.98 0 0 1 5.2897648,12.414847 A -0.24,-0.24 0 0 0 5.6197648,12.434847 L 6.8397648,11.364847 A -0.24,-0.24 0 0 0 6.8397648,11.014847 L 5.3597648,9.5448472 L 7.5597648,7.1748472 L 10.079765,9.5748472 L 8.2897648,10.874847 A -0.24,-0.24 0 0 0 8.2397648,11.204847 L 9.1797648,12.434847 A -0.24,-0.24 0 0 0 9.3597648,12.534847 Z" color="#000000" opacity="0.5" fill="none" stroke="#ffffff" stroke-width="3" stroke-linecap="round" stroke-linejoin="round" id="path930" />
  <path d="M 9.3497648,12.524847 A -0.24,-0.24 0 0 0 9.4997648,12.484847 C 10.329765,11.904847 11.189765,11.344847 11.939765,10.604847 C 12.639765,9.8848472 13.099765,9.0048472 13.649765,8.2548472 A -0.24,-0.24 0 0 0 13.599765,7.9248472 L 12.349765,7.0048472 A -0.24,-0.24 0 0 0 12.019765,7.0648472 L 10.759765,8.8748472 L 8.2997648,6.3948472 L 10.949765,3.5448473 L 12.049765,2.3848473 A -0.24,-0.24 0 0 0 12.029765,2.0548473 L 11.469765,1.5448473 C 11.369765,1.4448473 11.219765,1.4648473 11.129765,1.5548473 L 7.5297648,5.6148472 L 3.5897645,1.6648473 A -0.24,-0.24 0 0 0 3.2597645,1.6648473 L 2.7197645,2.2048473 A -0.24,-0.24 0 0 0 2.7197645,2.5448473 A -8832.6,-8832.6 0 0 1 6.7897648,6.4448472 L 4.5597645,8.9248472 L 3.8097645,8.2548472 L 1.8097645,7.2048472 C 1.5697645,7.0748472 1.3497645,7.3848472 1.5397645,7.5748472 L 1.5697645,7.6448472 A -7.16,-7.16 0 0 1 1.6997645,7.9048472 L 2.0497645,8.6848472 A -44.14,-44.14 0 0 0 2.4197645,9.4848472 A -6.98,-6.98 0 0 0 2.5597645,9.7848472 A -1.67,-1.67 0 0 0 2.6197645,9.8848472 L 2.6997645,9.9848472 A -74.78,-74.78 0 0 1 3.2497645,10.484847 L 3.0097645,10.714847 A -0.24,-0.24 0 0 0 3.0297645,11.064847 L 3.3497645,11.334847 A -0.24,-0.24 0 0 0 3.6697645,11.334847 L 3.9197645,11.084847 A -27.98,-27.98 0 0 1 5.2897648,12.414847 A -0.24,-0.24 0 0 0 5.6197648,12.434847 L 6.8397648,11.364847 A -0.24,-0.24 0 0 0 6.8397648,11.014847 L 5.3597648,9.5448472 L 7.5597648,7.1748472 L 10.079765,9.5748472 L 8.2897648,10.874847 A -0.24,-0.24 0 0 0 8.2397648,11.204847 L 9.1797648,12.434847 A -0.24,-0.24 0 0 0 9.3597648,12.534847 Z" color="#000000" id="path932" />
</svg>
