<?xml version="1.0" encoding="UTF-8" standalone="no"?>
<!-- Created with Inkscape (http://www.inkscape.org/) -->

<svg xmlns:dc="http://purl.org/dc/elements/1.1/" xmlns:cc="http://creativecommons.org/ns#" xmlns:rdf="http://www.w3.org/1999/02/22-rdf-syntax-ns#" xmlns:svg="http://www.w3.org/2000/svg" xmlns="http://www.w3.org/2000/svg" xmlns:sodipodi="http://sodipodi.sourceforge.net/DTD/sodipodi-0.dtd" xmlns:inkscape="http://www.inkscape.org/namespaces/inkscape" version="1.1" width="14" height="14" viewBox="0 0 14 14" id="svg9443" sodipodi:docname="drinking_water.svg" inkscape:version="0.92.4 (5da689c313, 2019-01-14)">
  <metadata id="metadata9449">
    <rdf:RDF>
      <cc:Work rdf:about="">
        <dc:format>image/svg+xml</dc:format>
        <dc:type rdf:resource="http://purl.org/dc/dcmitype/StillImage" />
        <dc:title></dc:title>
      </cc:Work>
    </rdf:RDF>
  </metadata>
  <defs id="defs9447" />
  <sodipodi:namedview pagecolor="#ffffff" bordercolor="#666666" borderopacity="1" objecttolerance="10" gridtolerance="10" guidetolerance="10" inkscape:pageopacity="0" inkscape:pageshadow="2" inkscape:window-width="1881" inkscape:window-height="1051" id="namedview9445" showgrid="true" inkscape:pagecheckerboard="true" inkscape:zoom="23.8396" inkscape:cx="7.1216252" inkscape:cy="6.6872496" inkscape:window-x="0" inkscape:window-y="0" inkscape:window-maximized="1" inkscape:current-layer="svg9443">
    <inkscape:grid type="xygrid" id="grid9994" units="px" spacingx="1" spacingy="1" />
  </sodipodi:namedview>
  <path id="outline" d="M 1,6 L 2.5,14 H 7.5 L 9,6 Z M 2.18,7 H 7.81 L 7.44,9 H 2.55 M 4,5 C 4,3 5,2 7,2 H 8 V 1 H 7 C 6,1 6,0 7,0 H 10 C 11,0 11,1 10,1 H 9 V 2 H 13 V 3.5 H 7 C 5.91526,3.49111 5.5,3.9824765 5.5,5 Z" style="opacity:0.5;fill:none;stroke:#ffffff;stroke-width:3;stroke-linecap:round;stroke-linejoin:round;stroke-miterlimit:4;stroke-dasharray:none;stroke-opacity:1" inkscape:connector-curvature="0" />
  <rect width="14" height="14" x="0" y="0" id="canvas" style="fill:none;stroke:none;visibility:hidden" />
  <path d="m 1,6 1.5,8 5,0 L 9,6 z M 2.18,7 7.81,7 7.44,9 2.55,9 M 4,5 C 4,3 5,2 7,2 L 8,2 8,1 7,1 C 6,1 6,0 7,0 l 3,0 c 1,0 1,1 0,1 l -1,0 0,1 4,0 0,1.5 -6,0 C 5.91526,3.49111 5.5,3.9824765 5.5,5 z" id="drinking-water" />
</svg>
