<?xml version="1.0" encoding="UTF-8" standalone="no"?>
<!-- Created with Inkscape (http://www.inkscape.org/) -->

<svg xmlns:dc="http://purl.org/dc/elements/1.1/" xmlns:cc="http://creativecommons.org/ns#" xmlns:rdf="http://www.w3.org/1999/02/22-rdf-syntax-ns#" xmlns:svg="http://www.w3.org/2000/svg" xmlns="http://www.w3.org/2000/svg" xmlns:sodipodi="http://sodipodi.sourceforge.net/DTD/sodipodi-0.dtd" xmlns:inkscape="http://www.inkscape.org/namespaces/inkscape" version="1.1" width="14" height="14" viewBox="0 0 14 14" id="svg2686" sodipodi:docname="fast_food.svg" inkscape:version="0.92.3 (2405546, 2018-03-11)">
  <metadata id="metadata2692">
    <rdf:RDF>
      <cc:Work rdf:about="">
        <dc:format>image/svg+xml</dc:format>
        <dc:type rdf:resource="http://purl.org/dc/dcmitype/StillImage" />
      </cc:Work>
    </rdf:RDF>
  </metadata>
  <defs id="defs2690" />
  <sodipodi:namedview pagecolor="#ffffff" bordercolor="#666666" borderopacity="1" objecttolerance="10" gridtolerance="10" guidetolerance="10" inkscape:pageopacity="0" inkscape:pageshadow="2" inkscape:window-width="1881" inkscape:window-height="1058" id="namedview2688" showgrid="false" inkscape:zoom="16.857143" inkscape:cx="7" inkscape:cy="7" inkscape:window-x="0" inkscape:window-y="0" inkscape:window-maximized="1" inkscape:current-layer="svg2686" />
  <path id="path3237" d="M 5,3 C 2,3 0.960032,5.000799 1,6 L 1,7 13,7 13,6 C 13,5 12,3 9,3 z M 1,8 C 0,8 0,9 1,9 l 12,0 c 1,0 1,-1 0,-1 z m 0,2.03125 0,0.625 C 1,11.34045 1.81579,12 2.5,12 l 9,0 c 0.68421,0 1.5,-0.65955 1.5,-1.34375 l 0,-0.625 z" style="fill:#000000;fill-opacity:1;stroke:#ffffff;stroke-opacity:0.50196081;stroke-width:2;stroke-miterlimit:4;stroke-dasharray:none;stroke-linejoin:round;stroke-linecap:round" />
  <rect width="14" height="14" x="0" y="0" id="canvas" style="fill:none;stroke:none;visibility:hidden" />
  <path d="M 5,3 C 2,3 0.960032,5.000799 1,6 L 1,7 13,7 13,6 C 13,5 12,3 9,3 z M 1,8 C 0,8 0,9 1,9 l 12,0 c 1,0 1,-1 0,-1 z m 0,2.03125 0,0.625 C 1,11.34045 1.81579,12 2.5,12 l 9,0 c 0.68421,0 1.5,-0.65955 1.5,-1.34375 l 0,-0.625 z" id="fast-food" />
</svg>
