<?xml version="1.0" encoding="UTF-8" standalone="no"?>
<svg xmlns:dc="http://purl.org/dc/elements/1.1/" xmlns:cc="http://creativecommons.org/ns#" xmlns:rdf="http://www.w3.org/1999/02/22-rdf-syntax-ns#" xmlns:svg="http://www.w3.org/2000/svg" xmlns="http://www.w3.org/2000/svg" xmlns:sodipodi="http://sodipodi.sourceforge.net/DTD/sodipodi-0.dtd" xmlns:inkscape="http://www.inkscape.org/namespaces/inkscape" id="Svg" width="128" height="128" version="1.1" sodipodi:docname="fell.svg" inkscape:version="0.92.4 (5da689c313, 2019-01-14)">
  <metadata id="metadata1898">
    <rdf:RDF>
      <cc:Work rdf:about="">
        <dc:format>image/svg+xml</dc:format>
        <dc:type rdf:resource="http://purl.org/dc/dcmitype/StillImage" />
      </cc:Work>
    </rdf:RDF>
  </metadata>
  <sodipodi:namedview pagecolor="#ffffff" bordercolor="#666666" borderopacity="1" objecttolerance="10" gridtolerance="10" guidetolerance="10" inkscape:pageopacity="0" inkscape:pageshadow="2" inkscape:window-width="1881" inkscape:window-height="1061" id="namedview1896" showgrid="false" inkscape:zoom="3.3007813" inkscape:cx="41.572584" inkscape:cy="47.695265" inkscape:window-x="0" inkscape:window-y="0" inkscape:window-maximized="1" inkscape:current-layer="Svg" />
  <defs id="defs818" />
  <path style="fill:#b0be93" d="M 0 0 L 0 1.0546875 L 0.28125 1.0546875 C 0.26957806 0.68959836 0.24491267 0.3610324 0.2265625 0 L 0 0 z M 1.1015625 0 C 1.0105953 0.34081393 0.92796352 0.69183443 0.875 1.0546875 L 1.875 1.0546875 C 1.9024026 0.69223531 1.9441602 0.34118389 1.9902344 0 L 1.1015625 0 z M 2.9433594 0 C 2.84499 0.16936113 2.7418318 0.33106475 2.6601562 0.51953125 C 2.585907 0.69086191 2.5218929 0.8693375 2.46875 1.0546875 L 3.40625 1.0546875 C 3.4687305 0.7028125 3.5579823 0.38397656 3.6621094 0.099609375 C 3.6755216 0.062981055 3.6912474 0.035462379 3.7050781 0 L 2.9433594 0 z M 123.91602 0 C 124.03779 0.31165902 124.14793 0.65586795 124.21875 1.0546875 L 125.15625 1.0546875 C 125.04623 0.67096428 124.88167 0.31974909 124.69727 0 L 123.91602 0 z M 125.63281 0 C 125.67912 0.34125278 125.7226 0.69222693 125.75 1.0546875 L 126.75 1.0546875 C 126.69704 0.69181918 126.61265 0.3408648 126.52148 0 L 125.63281 0 z M 127.39844 0 C 127.38009 0.3610324 127.35542 0.68959836 127.34375 1.0546875 L 128 1.0546875 L 128 0 L 127.39844 0 z M 26.398438 5.7070312 C 26.273438 5.7070312 26.148438 5.8945312 26.148438 6.2695312 C 26.148438 6.8995312 25.986142 8.7536316 25.929688 10.519531 L 26.867188 10.519531 C 26.810731 8.7536314 26.648436 6.8995312 26.648438 6.2695312 C 26.648438 5.8945312 26.523438 5.7070312 26.398438 5.7070312 z M 23.710938 6.2070312 C 23.585938 6.2070312 23.523438 6.3945312 23.648438 6.7695312 C 23.855887 7.3919312 24.212735 8.8899316 24.335938 10.519531 L 25.335938 10.519531 C 25.097373 8.8851315 24.356406 7.3934312 24.148438 6.7695312 C 24.023438 6.3945312 23.835938 6.2070312 23.710938 6.2070312 z M 29.085938 6.2070312 C 28.960938 6.2070312 28.773438 6.3945312 28.648438 6.7695312 C 28.440467 7.3934312 27.699501 8.8851314 27.460938 10.519531 L 28.460938 10.519531 C 28.584141 8.8899316 28.940987 7.3919312 29.148438 6.7695312 C 29.273438 6.3945312 29.210938 6.2070312 29.085938 6.2070312 z M 61.355469 6.5117188 C 61.230469 6.5117188 61.105469 6.6992188 61.105469 7.0742188 C 61.105469 7.7042187 60.943175 9.5583184 60.886719 11.324219 L 61.824219 11.324219 C 61.767763 9.5583184 61.605469 7.7042188 61.605469 7.0742188 C 61.605469 6.6992188 61.480469 6.5117188 61.355469 6.5117188 z M 58.667969 7.0117188 C 58.542969 7.0117188 58.480469 7.1992188 58.605469 7.5742188 C 58.812919 8.1966187 59.169766 9.6946185 59.292969 11.324219 L 60.292969 11.324219 C 60.054405 9.6898186 59.313439 8.1981187 59.105469 7.5742188 C 58.980469 7.1992188 58.792969 7.0117188 58.667969 7.0117188 z M 64.042969 7.0117188 C 63.917969 7.0117188 63.730469 7.1992188 63.605469 7.5742188 C 63.397499 8.1981187 62.656533 9.6898184 62.417969 11.324219 L 63.417969 11.324219 C 63.541172 9.6946186 63.898019 8.1966187 64.105469 7.5742188 C 64.230469 7.1992188 64.167969 7.0117188 64.042969 7.0117188 z M 6.5527344 7.4765625 C 6.4277344 7.4765625 6.3027344 7.6640625 6.3027344 8.0390625 C 6.3027344 8.6690625 6.1404403 10.523162 6.0839844 12.289062 L 7.0214844 12.289062 C 6.9650284 10.523162 6.8027344 8.6690625 6.8027344 8.0390625 C 6.8027344 7.6640625 6.6777344 7.4765625 6.5527344 7.4765625 z M 21.710938 7.6757812 C 21.546875 7.6517812 21.460938 7.8320313 21.648438 8.0195312 C 21.853064 8.2241313 22.554765 9.1120314 22.804688 10.519531 L 23.742188 10.519531 C 23.317044 9.0367315 22.104347 7.9754312 21.898438 7.7695312 C 21.835938 7.7075312 21.765625 7.6837813 21.710938 7.6757812 z M 31.085938 7.6757812 C 31.031247 7.6857812 30.960938 7.7065313 30.898438 7.7695312 C 30.692526 7.9754312 29.479829 9.0367315 29.054688 10.519531 L 29.992188 10.519531 C 30.242109 9.1120315 30.94381 8.2241314 31.148438 8.0195312 C 31.335938 7.8320314 31.249999 7.6522813 31.085938 7.6757812 z M 3.8652344 7.9765625 C 3.7402344 7.9765625 3.6777344 8.1640625 3.8027344 8.5390625 C 4.0101848 9.1614625 4.3670315 10.659463 4.4902344 12.289062 L 5.4902344 12.289062 C 5.2516707 10.654663 4.5107046 9.1629625 4.3027344 8.5390625 C 4.1777344 8.1640625 3.9902344 7.9765625 3.8652344 7.9765625 z M 9.2402344 7.9765625 C 9.1152344 7.9765625 8.9277344 8.1640625 8.8027344 8.5390625 C 8.5947644 9.1629625 7.8537981 10.654663 7.6152344 12.289062 L 8.6152344 12.289062 C 8.7384374 10.659464 9.0952844 9.1614625 9.3027344 8.5390625 C 9.4277344 8.1640625 9.3652344 7.9765625 9.2402344 7.9765625 z M 56.667969 8.4804688 C 56.503906 8.4564687 56.417969 8.6367188 56.605469 8.8242188 C 56.810096 9.0288187 57.511797 9.9167185 57.761719 11.324219 L 58.699219 11.324219 C 58.274076 9.8414186 57.061379 8.7801187 56.855469 8.5742188 C 56.792969 8.5122187 56.722656 8.4884687 56.667969 8.4804688 z M 66.042969 8.4804688 C 65.988279 8.4904686 65.917969 8.5112186 65.855469 8.5742188 C 65.649559 8.7801186 64.436862 9.8414185 64.011719 11.324219 L 64.949219 11.324219 C 65.199141 9.9167185 65.900842 9.0288187 66.105469 8.8242188 C 66.292969 8.6367188 66.207031 8.4569686 66.042969 8.4804688 z M 116.44336 9.2714844 C 116.31836 9.2714844 116.19336 9.4589844 116.19336 9.8339844 C 116.19336 10.463984 116.03107 12.318084 115.97461 14.083984 L 116.91211 14.083984 C 116.85565 12.318084 116.69336 10.463984 116.69336 9.8339844 C 116.69336 9.4589844 116.56836 9.2714844 116.44336 9.2714844 z M 1.8652344 9.4453125 C 1.7011719 9.4213125 1.6152344 9.6015625 1.8027344 9.7890625 C 2.0073618 9.9936625 2.7090624 10.881563 2.9589844 12.289062 L 3.8964844 12.289062 C 3.4713411 10.806264 2.2586443 9.7449625 2.0527344 9.5390625 C 1.9902344 9.4770625 1.9199219 9.4533125 1.8652344 9.4453125 z M 11.240234 9.4453125 C 11.185544 9.4553125 11.115234 9.4760625 11.052734 9.5390625 C 10.846824 9.7449625 9.6341274 10.806264 9.2089844 12.289062 L 10.146484 12.289062 C 10.396406 10.881564 11.098107 9.9936625 11.302734 9.7890625 C 11.490234 9.6015625 11.404296 9.4237656 11.240234 9.4472656 L 11.240234 9.4453125 z M 113.75586 9.7714844 C 113.63086 9.7714844 113.56836 9.9589848 113.69336 10.333984 C 113.90081 10.956384 114.25766 12.454384 114.38086 14.083984 L 115.38086 14.083984 C 115.1423 12.449584 114.40133 10.957884 114.19336 10.333984 C 114.06836 9.9589848 113.88086 9.7714844 113.75586 9.7714844 z M 119.13086 9.7714844 C 119.00586 9.7714844 118.81836 9.9589848 118.69336 10.333984 C 118.48539 10.957884 117.74442 12.449584 117.50586 14.083984 L 118.50586 14.083984 C 118.62906 12.454384 118.98591 10.956384 119.19336 10.333984 C 119.31836 9.9589848 119.25586 9.7714844 119.13086 9.7714844 z M 44.033203 10.931641 C 43.908203 10.931641 43.783203 11.119141 43.783203 11.494141 C 43.783203 12.124141 43.620909 13.978241 43.564453 15.744141 L 44.501953 15.744141 C 44.445497 13.978241 44.283203 12.124141 44.283203 11.494141 C 44.283203 11.119141 44.158203 10.931641 44.033203 10.931641 z M 98.089844 11.025391 C 97.964844 11.025391 97.839844 11.212891 97.839844 11.587891 C 97.839844 12.217891 97.67755 14.071991 97.621094 15.837891 L 98.558594 15.837891 C 98.502138 14.071991 98.339844 12.217891 98.339844 11.587891 C 98.339844 11.212891 98.214844 11.025391 98.089844 11.025391 z M 111.75586 11.240234 C 111.5918 11.216234 111.50586 11.396484 111.69336 11.583984 C 111.89799 11.788584 112.59969 12.676484 112.84961 14.083984 L 113.78711 14.083984 C 113.36197 12.601184 112.14927 11.539884 111.94336 11.333984 C 111.88086 11.271984 111.81055 11.248234 111.75586 11.240234 z M 121.13086 11.240234 C 121.07617 11.250234 121.00586 11.272937 120.94336 11.335938 C 120.73745 11.541836 119.52475 12.603136 119.09961 14.085938 L 120.03711 14.085938 C 120.28703 12.678437 120.98873 11.790537 121.19336 11.585938 C 121.38086 11.398438 121.29492 11.218688 121.13086 11.242188 L 121.13086 11.240234 z M 82.666016 11.371094 C 82.541016 11.371094 82.416016 11.558594 82.416016 11.933594 C 82.416016 12.563594 82.253722 14.417694 82.197266 16.183594 L 83.134766 16.183594 C 83.07831 14.417694 82.916016 12.563594 82.916016 11.933594 C 82.916016 11.558594 82.791016 11.371094 82.666016 11.371094 z M 41.345703 11.431641 C 41.220703 11.431641 41.158203 11.619141 41.283203 11.994141 C 41.490653 12.616541 41.8475 14.114541 41.970703 15.744141 L 42.970703 15.744141 C 42.732139 14.109741 41.991173 12.618041 41.783203 11.994141 C 41.658203 11.619141 41.470703 11.431641 41.345703 11.431641 z M 46.720703 11.431641 C 46.595703 11.431641 46.408203 11.619141 46.283203 11.994141 C 46.075233 12.618041 45.334267 14.109741 45.095703 15.744141 L 46.095703 15.744141 C 46.218906 14.114541 46.575753 12.616541 46.783203 11.994141 C 46.908203 11.619141 46.845703 11.431641 46.720703 11.431641 z M 95.402344 11.525391 C 95.277344 11.525391 95.214844 11.712891 95.339844 12.087891 C 95.547294 12.710291 95.904141 14.208291 96.027344 15.837891 L 97.027344 15.837891 C 96.78878 14.203491 96.047814 12.711791 95.839844 12.087891 C 95.714844 11.712891 95.527344 11.525391 95.402344 11.525391 z M 100.77734 11.525391 C 100.65234 11.525391 100.46484 11.712891 100.33984 12.087891 C 100.13187 12.711791 99.390908 14.203491 99.152344 15.837891 L 100.15234 15.837891 C 100.27554 14.208291 100.63239 12.710291 100.83984 12.087891 C 100.96484 11.712891 100.90234 11.525391 100.77734 11.525391 z M 79.978516 11.871094 C 79.853516 11.871094 79.791016 12.058594 79.916016 12.433594 C 80.123466 13.055994 80.480313 14.553994 80.603516 16.183594 L 81.603516 16.183594 C 81.364952 14.549194 80.623986 13.057494 80.416016 12.433594 C 80.291016 12.058594 80.103516 11.871094 79.978516 11.871094 z M 85.353516 11.871094 C 85.228516 11.871094 85.041016 12.058594 84.916016 12.433594 C 84.708046 13.057494 83.96708 14.549194 83.728516 16.183594 L 84.728516 16.183594 C 84.851719 14.553994 85.208566 13.055994 85.416016 12.433594 C 85.541016 12.058594 85.478516 11.871094 85.353516 11.871094 z M 39.345703 12.900391 C 39.18164 12.876391 39.095703 13.056641 39.283203 13.244141 C 39.48783 13.448741 40.189531 14.336641 40.439453 15.744141 L 41.376953 15.744141 C 40.95181 14.261341 39.739113 13.200041 39.533203 12.994141 C 39.470703 12.932141 39.40039 12.908391 39.345703 12.900391 z M 48.720703 12.900391 C 48.666013 12.910391 48.595703 12.931141 48.533203 12.994141 C 48.327293 13.200041 47.114596 14.261341 46.689453 15.744141 L 47.626953 15.744141 C 47.876875 14.336641 48.578576 13.448741 48.783203 13.244141 C 48.970703 13.056641 48.884765 12.878844 48.720703 12.902344 L 48.720703 12.900391 z M 93.402344 12.994141 C 93.238282 12.970141 93.152344 13.150391 93.339844 13.337891 C 93.544471 13.542491 94.246172 14.430391 94.496094 15.837891 L 95.433594 15.837891 C 95.008451 14.355091 93.795754 13.293791 93.589844 13.087891 C 93.527344 13.025891 93.457032 13.002141 93.402344 12.994141 z M 102.77734 12.994141 C 102.72265 13.004141 102.65234 13.026844 102.58984 13.089844 C 102.38393 13.295744 101.17123 14.357044 100.74609 15.839844 L 101.68359 15.839844 C 101.93351 14.432344 102.63521 13.544444 102.83984 13.339844 C 103.02734 13.152344 102.9414 12.972594 102.77734 12.996094 L 102.77734 12.994141 z M 77.978516 13.339844 C 77.814454 13.315844 77.728516 13.496094 77.916016 13.683594 C 78.120643 13.888194 78.822344 14.776094 79.072266 16.183594 L 80.009766 16.183594 C 79.584623 14.700794 78.371926 13.639494 78.166016 13.433594 C 78.103516 13.371594 78.033204 13.347844 77.978516 13.339844 z M 87.353516 13.339844 C 87.298826 13.349844 87.228516 13.370594 87.166016 13.433594 C 86.960106 13.639494 85.747409 14.700794 85.322266 16.183594 L 86.259766 16.183594 C 86.509688 14.776094 87.211389 13.888194 87.416016 13.683594 C 87.603516 13.496094 87.517578 13.316344 87.353516 13.339844 z M 92.21875 22.738281 C 92.09375 22.738281 91.96875 22.925781 91.96875 23.300781 C 91.96875 23.930781 91.806456 25.784881 91.75 27.550781 L 92.6875 27.550781 C 92.631044 25.784881 92.46875 23.930781 92.46875 23.300781 C 92.46875 22.925781 92.34375 22.738281 92.21875 22.738281 z M 89.53125 23.238281 C 89.40625 23.238281 89.34375 23.425781 89.46875 23.800781 C 89.6762 24.423181 90.033047 25.921181 90.15625 27.550781 L 91.15625 27.550781 C 90.917686 25.916381 90.17672 24.424681 89.96875 23.800781 C 89.84375 23.425781 89.65625 23.238281 89.53125 23.238281 z M 94.90625 23.238281 C 94.78125 23.238281 94.59375 23.425781 94.46875 23.800781 C 94.26078 24.424681 93.519814 25.916381 93.28125 27.550781 L 94.28125 27.550781 C 94.404453 25.921181 94.7613 24.423181 94.96875 23.800781 C 95.09375 23.425781 95.03125 23.238281 94.90625 23.238281 z M 55.183594 23.501953 C 55.058594 23.501953 54.933594 23.689453 54.933594 24.064453 C 54.933594 24.694453 54.7713 26.548553 54.714844 28.314453 L 55.652344 28.314453 C 55.595888 26.548553 55.433594 24.694453 55.433594 24.064453 C 55.433594 23.689453 55.308594 23.501953 55.183594 23.501953 z M 52.496094 24.001953 C 52.371094 24.001953 52.308594 24.189453 52.433594 24.564453 C 52.641044 25.186853 52.997891 26.684853 53.121094 28.314453 L 54.121094 28.314453 C 53.88253 26.680053 53.141564 25.188353 52.933594 24.564453 C 52.808594 24.189453 52.621094 24.001953 52.496094 24.001953 z M 57.871094 24.001953 C 57.746094 24.001953 57.558594 24.189453 57.433594 24.564453 C 57.225624 25.188353 56.484658 26.680053 56.246094 28.314453 L 57.246094 28.314453 C 57.369297 26.684853 57.726144 25.186853 57.933594 24.564453 C 58.058594 24.189453 57.996094 24.001953 57.871094 24.001953 z M 36.304688 24.304688 C 36.179688 24.304688 36.054688 24.492188 36.054688 24.867188 C 36.054688 25.497188 35.892392 27.351288 35.835938 29.117188 L 36.773438 29.117188 C 36.716982 27.351288 36.554688 25.497188 36.554688 24.867188 C 36.554688 24.492188 36.429688 24.304688 36.304688 24.304688 z M 18.951172 24.427734 C 18.826172 24.427734 18.701172 24.615234 18.701172 24.990234 C 18.701172 25.620234 18.538878 27.474334 18.482422 29.240234 L 19.419922 29.240234 C 19.363466 27.474334 19.201172 25.620234 19.201172 24.990234 C 19.201172 24.615234 19.076172 24.427734 18.951172 24.427734 z M 108.45312 24.496094 C 108.32812 24.496094 108.20312 24.683594 108.20312 25.058594 C 108.20312 25.688594 108.04084 27.542694 107.98438 29.308594 L 108.92188 29.308594 C 108.8654 27.542694 108.70313 25.688594 108.70312 25.058594 C 108.70312 24.683594 108.57812 24.496094 108.45312 24.496094 z M 87.53125 24.705078 L 87.53125 24.707031 C 87.367187 24.683031 87.28125 24.863281 87.46875 25.050781 C 87.673377 25.255381 88.375078 26.143281 88.625 27.550781 L 89.5625 27.550781 C 89.137357 26.067981 87.92466 25.006681 87.71875 24.800781 C 87.65625 24.738781 87.585937 24.713078 87.53125 24.705078 z M 96.90625 24.707031 C 96.85156 24.717031 96.78125 24.737781 96.71875 24.800781 C 96.51284 25.006681 95.300143 26.067981 94.875 27.550781 L 95.8125 27.550781 C 96.062422 26.143281 96.764123 25.255381 96.96875 25.050781 C 97.15625 24.863281 97.070312 24.683531 96.90625 24.707031 z M 33.617188 24.804688 C 33.492188 24.804688 33.429688 24.992188 33.554688 25.367188 C 33.762138 25.989588 34.118985 27.487588 34.242188 29.117188 L 35.242188 29.117188 C 35.003624 27.482788 34.262658 25.991088 34.054688 25.367188 C 33.929688 24.992188 33.742188 24.804688 33.617188 24.804688 z M 38.992188 24.804688 C 38.867188 24.804688 38.679688 24.992188 38.554688 25.367188 C 38.346716 25.991088 37.60575 27.482787 37.367188 29.117188 L 38.367188 29.117188 C 38.490391 27.487588 38.847237 25.989588 39.054688 25.367188 C 39.179688 24.992188 39.117188 24.804688 38.992188 24.804688 z M 16.263672 24.927734 C 16.138672 24.927734 16.076172 25.115234 16.201172 25.490234 C 16.408622 26.112634 16.765469 27.610634 16.888672 29.240234 L 17.888672 29.240234 C 17.650108 27.605834 16.909142 26.114134 16.701172 25.490234 C 16.576172 25.115234 16.388672 24.927734 16.263672 24.927734 z M 21.638672 24.927734 C 21.513672 24.927734 21.326172 25.115234 21.201172 25.490234 C 20.993202 26.114134 20.252236 27.605834 20.013672 29.240234 L 21.013672 29.240234 C 21.136875 27.610634 21.493722 26.112634 21.701172 25.490234 C 21.826172 25.115234 21.763672 24.927734 21.638672 24.927734 z M 105.76562 24.996094 C 105.64062 24.996094 105.57812 25.183594 105.70312 25.558594 C 105.91058 26.180994 106.26742 27.678994 106.39062 29.308594 L 107.39062 29.308594 C 107.15207 27.674194 106.41109 26.182494 106.20312 25.558594 C 106.07812 25.183594 105.89062 24.996094 105.76562 24.996094 z M 111.14062 24.996094 C 111.01562 24.996094 110.82812 25.183594 110.70312 25.558594 C 110.49515 26.182494 109.75419 27.674194 109.51562 29.308594 L 110.51562 29.308594 C 110.63882 27.678994 110.99568 26.180994 111.20312 25.558594 C 111.32812 25.183594 111.26562 24.996094 111.14062 24.996094 z M 73.619141 25.011719 C 73.494141 25.011719 73.369141 25.199219 73.369141 25.574219 C 73.369141 26.204219 73.206847 28.058319 73.150391 29.824219 L 74.087891 29.824219 C 74.031435 28.058319 73.869141 26.204219 73.869141 25.574219 C 73.869141 25.199219 73.744141 25.011719 73.619141 25.011719 z M 50.496094 25.470703 C 50.332031 25.446703 50.246094 25.626953 50.433594 25.814453 C 50.638221 26.019053 51.339922 26.906953 51.589844 28.314453 L 52.527344 28.314453 C 52.102201 26.831653 50.889504 25.770353 50.683594 25.564453 C 50.621094 25.502453 50.550781 25.478703 50.496094 25.470703 z M 59.871094 25.470703 C 59.816404 25.480703 59.746094 25.503406 59.683594 25.566406 C 59.477684 25.772306 58.264987 26.833606 57.839844 28.316406 L 58.777344 28.316406 C 59.027266 26.908906 59.728967 26.021006 59.933594 25.816406 C 60.121094 25.628906 60.035156 25.449156 59.871094 25.472656 L 59.871094 25.470703 z M 70.931641 25.511719 C 70.806641 25.511719 70.744141 25.699219 70.869141 26.074219 C 71.076591 26.696619 71.433438 28.194619 71.556641 29.824219 L 72.556641 29.824219 C 72.318077 28.189819 71.577111 26.698119 71.369141 26.074219 C 71.244141 25.699219 71.056641 25.511719 70.931641 25.511719 z M 76.306641 25.511719 C 76.181641 25.511719 75.994141 25.699219 75.869141 26.074219 C 75.661171 26.698119 74.920205 28.189819 74.681641 29.824219 L 75.681641 29.824219 C 75.804844 28.194619 76.161691 26.696619 76.369141 26.074219 C 76.494141 25.699219 76.431641 25.511719 76.306641 25.511719 z M 31.617188 26.273438 C 31.453125 26.249437 31.367188 26.429687 31.554688 26.617188 C 31.759314 26.821788 32.461014 27.709688 32.710938 29.117188 L 33.648438 29.117188 C 33.223295 27.634388 32.010598 26.573087 31.804688 26.367188 C 31.742188 26.305188 31.671875 26.281437 31.617188 26.273438 z M 40.992188 26.273438 C 40.937497 26.283437 40.867188 26.306141 40.804688 26.369141 C 40.598776 26.575041 39.38608 27.636341 38.960938 29.119141 L 39.898438 29.119141 C 40.148359 27.711641 40.85006 26.823741 41.054688 26.619141 C 41.242188 26.431641 41.15625 26.251891 40.992188 26.275391 L 40.992188 26.273438 z M 14.263672 26.396484 C 14.09961 26.372484 14.013672 26.552734 14.201172 26.740234 C 14.405799 26.944834 15.1075 27.832734 15.357422 29.240234 L 16.294922 29.240234 C 15.869779 27.757434 14.657082 26.696134 14.451172 26.490234 C 14.388672 26.428234 14.31836 26.404484 14.263672 26.396484 z M 23.638672 26.396484 C 23.583982 26.406484 23.513672 26.427234 23.451172 26.490234 C 23.245262 26.696134 22.032565 27.757434 21.607422 29.240234 L 22.544922 29.240234 C 22.794844 27.832734 23.496545 26.944834 23.701172 26.740234 C 23.888672 26.552734 23.802734 26.372984 23.638672 26.396484 z M 103.76562 26.464844 C 103.60157 26.440844 103.51562 26.621094 103.70312 26.808594 C 103.90775 27.013194 104.60944 27.901094 104.85938 29.308594 L 105.79688 29.308594 C 105.37174 27.825794 104.15904 26.764494 103.95312 26.558594 C 103.89062 26.496594 103.82031 26.472844 103.76562 26.464844 z M 113.14062 26.464844 C 113.08594 26.474844 113.01564 26.495594 112.95312 26.558594 C 112.74721 26.764494 111.53451 27.825794 111.10938 29.308594 L 112.04688 29.308594 C 112.29678 27.901094 112.99851 27.013194 113.20312 26.808594 C 113.39062 26.621094 113.30469 26.441344 113.14062 26.464844 z M 1.4628906 26.707031 C 1.3378906 26.707031 1.2128906 26.894531 1.2128906 27.269531 C 1.2128906 27.899531 1.0505965 29.753631 0.99414062 31.519531 L 1.9316406 31.519531 C 1.8751846 29.753631 1.7128906 27.899531 1.7128906 27.269531 C 1.7128906 26.894531 1.5878906 26.707031 1.4628906 26.707031 z M 68.931641 26.980469 C 68.767578 26.956469 68.681641 27.136719 68.869141 27.324219 C 69.073768 27.528819 69.775469 28.416719 70.025391 29.824219 L 70.962891 29.824219 C 70.537748 28.341419 69.325051 27.280119 69.119141 27.074219 C 69.056641 27.012219 68.986328 26.988469 68.931641 26.980469 z M 78.306641 26.980469 C 78.251951 26.990469 78.181641 27.011219 78.119141 27.074219 C 77.913231 27.280119 76.700534 28.341419 76.275391 29.824219 L 77.212891 29.824219 C 77.462813 28.416719 78.164514 27.528819 78.369141 27.324219 C 78.556641 27.136719 78.470703 26.956969 78.306641 26.980469 z M 4.1503906 27.207031 C 4.0253906 27.207031 3.8378906 27.394531 3.7128906 27.769531 C 3.5049206 28.393431 2.7639543 29.885131 2.5253906 31.519531 L 3.5253906 31.519531 C 3.6485936 29.889931 4.0054406 28.391931 4.2128906 27.769531 C 4.3378906 27.394531 4.2753906 27.207031 4.1503906 27.207031 z M 126.77539 27.207031 C 126.65039 27.207031 126.58789 27.394531 126.71289 27.769531 C 126.92034 28.391931 127.27719 29.889931 127.40039 31.519531 L 128 31.519531 L 128 29.894531 C 127.69951 28.959855 127.34754 28.173469 127.21289 27.769531 C 127.08789 27.394531 126.90039 27.207031 126.77539 27.207031 z M 6.1503906 28.675781 C 6.0957006 28.685781 6.0253906 28.706531 5.9628906 28.769531 C 5.7569806 28.975431 4.5442836 30.036731 4.1191406 31.519531 L 5.0566406 31.519531 C 5.3065626 30.112031 6.0082636 29.224131 6.2128906 29.019531 C 6.4003906 28.832031 6.3144526 28.652281 6.1503906 28.675781 z M 124.77539 28.675781 C 124.61133 28.651781 124.52539 28.832031 124.71289 29.019531 C 124.91752 29.224131 125.61922 30.112031 125.86914 31.519531 L 126.80664 31.519531 C 126.3815 30.036731 125.1688 28.975431 124.96289 28.769531 C 124.90039 28.707531 124.83008 28.683781 124.77539 28.675781 z M 0 29.894531 L 0 31.519531 L 0.40039062 31.519531 C 0.31628246 30.943306 0.16363021 30.403505 0 29.894531 z M 118.76953 38.074219 C 118.64453 38.074219 118.51953 38.261719 118.51953 38.636719 C 118.51953 39.266719 118.35724 41.120819 118.30078 42.886719 L 119.23828 42.886719 C 119.18182 41.120819 119.01953 39.266719 119.01953 38.636719 C 119.01953 38.261719 118.89453 38.074219 118.76953 38.074219 z M 116.08203 38.574219 C 115.95703 38.574219 115.89453 38.761719 116.01953 39.136719 C 116.22698 39.759119 116.58383 41.257119 116.70703 42.886719 L 117.70703 42.886719 C 117.46847 41.252319 116.7275 39.760619 116.51953 39.136719 C 116.39453 38.761719 116.20703 38.574219 116.08203 38.574219 z M 121.45703 38.574219 C 121.33203 38.574219 121.14453 38.761719 121.01953 39.136719 C 120.81156 39.760619 120.07059 41.252319 119.83203 42.886719 L 120.83203 42.886719 C 120.95523 41.257119 121.31208 39.759119 121.51953 39.136719 C 121.64453 38.761719 121.58203 38.574219 121.45703 38.574219 z M 64.304688 39.716797 C 64.179688 39.716797 64.054688 39.904297 64.054688 40.279297 C 64.054688 40.909297 63.892392 42.763397 63.835938 44.529297 L 64.773438 44.529297 C 64.716982 42.763397 64.554688 40.909297 64.554688 40.279297 C 64.554688 39.904297 64.429688 39.716797 64.304688 39.716797 z M 114.08203 40.041016 L 114.08203 40.042969 C 113.91797 40.018969 113.83203 40.199219 114.01953 40.386719 C 114.22416 40.591319 114.92586 41.479219 115.17578 42.886719 L 116.11328 42.886719 C 115.68814 41.403919 114.47544 40.342619 114.26953 40.136719 C 114.20703 40.074719 114.13672 40.049016 114.08203 40.041016 z M 123.45703 40.042969 C 123.40234 40.052969 123.33203 40.073719 123.26953 40.136719 C 123.06362 40.342619 121.85092 41.403919 121.42578 42.886719 L 122.36328 42.886719 C 122.6132 41.479219 123.3149 40.591319 123.51953 40.386719 C 123.70703 40.199219 123.62109 40.019469 123.45703 40.042969 z M 61.617188 40.216797 C 61.492188 40.216797 61.429688 40.404297 61.554688 40.779297 C 61.762138 41.401697 62.118984 42.899697 62.242188 44.529297 L 63.242188 44.529297 C 63.003624 42.894897 62.262656 41.403197 62.054688 40.779297 C 61.929688 40.404297 61.742188 40.216797 61.617188 40.216797 z M 66.992188 40.216797 C 66.867188 40.216797 66.679688 40.404297 66.554688 40.779297 C 66.346716 41.403197 65.60575 42.894897 65.367188 44.529297 L 66.367188 44.529297 C 66.490391 42.899697 66.847238 41.401697 67.054688 40.779297 C 67.179688 40.404297 67.117188 40.216797 66.992188 40.216797 z M 24.025391 40.496094 C 23.900391 40.496094 23.775391 40.683594 23.775391 41.058594 C 23.775391 41.688594 23.613097 43.542694 23.556641 45.308594 L 24.494141 45.308594 C 24.437685 43.542694 24.275391 41.688594 24.275391 41.058594 C 24.275391 40.683594 24.150391 40.496094 24.025391 40.496094 z M 21.337891 40.996094 C 21.212891 40.996094 21.150391 41.183594 21.275391 41.558594 C 21.482841 42.180994 21.839688 43.678994 21.962891 45.308594 L 22.962891 45.308594 C 22.724327 43.674194 21.983361 42.182494 21.775391 41.558594 C 21.650391 41.183594 21.462891 40.996094 21.337891 40.996094 z M 26.712891 40.996094 C 26.587891 40.996094 26.400391 41.183594 26.275391 41.558594 C 26.067421 42.182494 25.326455 43.674194 25.087891 45.308594 L 26.087891 45.308594 C 26.211094 43.678994 26.567941 42.180994 26.775391 41.558594 C 26.900391 41.183594 26.837891 40.996094 26.712891 40.996094 z M 45.1875 41.515625 C 45.0625 41.515625 44.9375 41.703125 44.9375 42.078125 C 44.9375 42.708125 44.775206 44.562225 44.71875 46.328125 L 45.65625 46.328125 C 45.599794 44.562225 45.4375 42.708125 45.4375 42.078125 C 45.4375 41.703125 45.3125 41.515625 45.1875 41.515625 z M 59.617188 41.685547 C 59.453125 41.661547 59.367188 41.841797 59.554688 42.029297 C 59.759315 42.233897 60.461016 43.121797 60.710938 44.529297 L 61.648438 44.529297 C 61.223295 43.046497 60.010598 41.985197 59.804688 41.779297 C 59.742188 41.717297 59.671875 41.693547 59.617188 41.685547 z M 68.992188 41.685547 C 68.937498 41.695547 68.867188 41.716297 68.804688 41.779297 C 68.598776 41.985197 67.386081 43.046497 66.960938 44.529297 L 67.898438 44.529297 C 68.148359 43.121797 68.85006 42.233897 69.054688 42.029297 C 69.242188 41.841797 69.15625 41.662047 68.992188 41.685547 z M 42.5 42.015625 C 42.375 42.015625 42.3125 42.203125 42.4375 42.578125 C 42.64495 43.200525 43.001797 44.698525 43.125 46.328125 L 44.125 46.328125 C 43.886436 44.693725 43.14547 43.202025 42.9375 42.578125 C 42.8125 42.203125 42.625 42.015625 42.5 42.015625 z M 47.875 42.015625 C 47.75 42.015625 47.5625 42.203125 47.4375 42.578125 C 47.22953 43.202025 46.488564 44.693725 46.25 46.328125 L 47.25 46.328125 C 47.373203 44.698525 47.73005 43.200525 47.9375 42.578125 C 48.0625 42.203125 48 42.015625 47.875 42.015625 z M 19.337891 42.462891 L 19.337891 42.464844 C 19.173828 42.440844 19.087891 42.621094 19.275391 42.808594 C 19.480018 43.013194 20.181719 43.901094 20.431641 45.308594 L 21.369141 45.308594 C 20.943998 43.825794 19.731301 42.764494 19.525391 42.558594 C 19.462891 42.496594 19.392578 42.470891 19.337891 42.462891 z M 28.712891 42.464844 C 28.658201 42.474844 28.587891 42.495594 28.525391 42.558594 C 28.319481 42.764494 27.106784 43.825794 26.681641 45.308594 L 27.619141 45.308594 C 27.869063 43.901094 28.570764 43.013194 28.775391 42.808594 C 28.962891 42.621094 28.876953 42.441344 28.712891 42.464844 z M 99.925781 42.464844 C 99.800781 42.464844 99.675781 42.652344 99.675781 43.027344 C 99.675781 43.657344 99.513487 45.511444 99.457031 47.277344 L 100.39453 47.277344 C 100.33807 45.511444 100.17578 43.657344 100.17578 43.027344 C 100.17578 42.652344 100.05078 42.464844 99.925781 42.464844 z M 81.744141 42.863281 C 81.619141 42.863281 81.494141 43.050781 81.494141 43.425781 C 81.494141 44.055781 81.331847 45.909881 81.275391 47.675781 L 82.212891 47.675781 C 82.156435 45.909881 81.994141 44.055781 81.994141 43.425781 C 81.994141 43.050781 81.869141 42.863281 81.744141 42.863281 z M 97.238281 42.964844 C 97.113281 42.964844 97.050781 43.152344 97.175781 43.527344 C 97.383231 44.149744 97.740078 45.647744 97.863281 47.277344 L 98.863281 47.277344 C 98.624717 45.642944 97.883751 44.151244 97.675781 43.527344 C 97.550781 43.152344 97.363281 42.964844 97.238281 42.964844 z M 102.61328 42.964844 C 102.48828 42.964844 102.30078 43.152344 102.17578 43.527344 C 101.96781 44.151244 101.22684 45.642944 100.98828 47.277344 L 101.98828 47.277344 C 102.11148 45.647744 102.46833 44.149744 102.67578 43.527344 C 102.80078 43.152344 102.73828 42.964844 102.61328 42.964844 z M 79.056641 43.363281 C 78.931641 43.363281 78.869141 43.550781 78.994141 43.925781 C 79.201591 44.548181 79.558438 46.046181 79.681641 47.675781 L 80.681641 47.675781 C 80.443077 46.041381 79.702111 44.549681 79.494141 43.925781 C 79.369141 43.550781 79.181641 43.363281 79.056641 43.363281 z M 84.431641 43.363281 C 84.306641 43.363281 84.119141 43.550781 83.994141 43.925781 C 83.786171 44.549681 83.045205 46.041381 82.806641 47.675781 L 83.806641 47.675781 C 83.929844 46.046181 84.286691 44.548181 84.494141 43.925781 C 84.619141 43.550781 84.556641 43.363281 84.431641 43.363281 z M 40.5 43.484375 C 40.335937 43.460375 40.25 43.640625 40.4375 43.828125 C 40.642127 44.032725 41.343828 44.920625 41.59375 46.328125 L 42.53125 46.328125 C 42.106107 44.845325 40.89341 43.784025 40.6875 43.578125 C 40.625 43.516125 40.554687 43.492375 40.5 43.484375 z M 49.875 43.484375 C 49.82031 43.494375 49.75 43.515125 49.6875 43.578125 C 49.48159 43.784025 48.268893 44.845325 47.84375 46.328125 L 48.78125 46.328125 C 49.031172 44.920625 49.732873 44.032725 49.9375 43.828125 C 50.125 43.640625 50.039062 43.460875 49.875 43.484375 z M 6.7949219 43.666016 C 6.6699219 43.666016 6.5449219 43.853516 6.5449219 44.228516 C 6.5449219 44.858516 6.3826278 46.712616 6.3261719 48.478516 L 7.2636719 48.478516 C 7.2072159 46.712616 7.0449219 44.858516 7.0449219 44.228516 C 7.0449219 43.853516 6.9199219 43.666016 6.7949219 43.666016 z M 4.1074219 44.166016 C 3.9824219 44.166016 3.9199219 44.353516 4.0449219 44.728516 C 4.2523723 45.350916 4.609219 46.848916 4.7324219 48.478516 L 5.7324219 48.478516 C 5.4938582 46.844116 4.7528921 45.352416 4.5449219 44.728516 C 4.4199219 44.353516 4.2324219 44.166016 4.1074219 44.166016 z M 9.4824219 44.166016 C 9.3574219 44.166016 9.1699219 44.353516 9.0449219 44.728516 C 8.8369519 45.352416 8.0959856 46.844116 7.8574219 48.478516 L 8.8574219 48.478516 C 8.9806249 46.848916 9.3374719 45.350916 9.5449219 44.728516 C 9.6699219 44.353516 9.6074219 44.166016 9.4824219 44.166016 z M 95.238281 44.433594 C 95.074218 44.409594 94.988281 44.589844 95.175781 44.777344 C 95.380408 44.981944 96.082109 45.869844 96.332031 47.277344 L 97.269531 47.277344 C 96.844388 45.794544 95.631691 44.733244 95.425781 44.527344 C 95.363281 44.465344 95.292968 44.441594 95.238281 44.433594 z M 104.61328 44.433594 C 104.55859 44.443594 104.48828 44.466297 104.42578 44.529297 C 104.21987 44.735197 103.00717 45.796497 102.58203 47.279297 L 103.51953 47.279297 C 103.76945 45.871797 104.47115 44.983897 104.67578 44.779297 C 104.86328 44.591797 104.77734 44.412047 104.61328 44.435547 L 104.61328 44.433594 z M 77.056641 44.832031 C 76.892578 44.808031 76.806641 44.988281 76.994141 45.175781 C 77.198768 45.380381 77.900469 46.268281 78.150391 47.675781 L 79.087891 47.675781 C 78.662748 46.192981 77.450051 45.131681 77.244141 44.925781 C 77.181641 44.863781 77.111328 44.840031 77.056641 44.832031 z M 86.431641 44.832031 C 86.376951 44.842031 86.306641 44.862781 86.244141 44.925781 C 86.038231 45.131681 84.825534 46.192981 84.400391 47.675781 L 85.337891 47.675781 C 85.587813 46.268281 86.289514 45.380381 86.494141 45.175781 C 86.681641 44.988281 86.595703 44.808531 86.431641 44.832031 z M 2.1074219 45.634766 C 1.9433594 45.610766 1.8574219 45.791016 2.0449219 45.978516 C 2.2495493 46.183116 2.9512499 47.071016 3.2011719 48.478516 L 4.1386719 48.478516 C 3.7135286 46.995716 2.5008318 45.934416 2.2949219 45.728516 C 2.2324219 45.666516 2.1621094 45.642766 2.1074219 45.634766 z M 11.482422 45.634766 C 11.427732 45.644766 11.357422 45.665516 11.294922 45.728516 C 11.089012 45.934416 9.8763149 46.995716 9.4511719 48.478516 L 10.388672 48.478516 C 10.638594 47.071016 11.340295 46.183116 11.544922 45.978516 C 11.732422 45.791016 11.646484 45.611266 11.482422 45.634766 z M 52.052734 53.476562 C 51.927734 53.476562 51.802734 53.664062 51.802734 54.039062 C 51.802734 54.669064 51.64044 56.523163 51.583984 58.289062 L 52.521484 58.289062 C 52.465028 56.523162 52.302734 54.669062 52.302734 54.039062 C 52.302734 53.664062 52.177734 53.476562 52.052734 53.476562 z M 49.365234 53.976562 C 49.240234 53.976562 49.177734 54.164062 49.302734 54.539062 C 49.510184 55.161462 49.867031 56.659462 49.990234 58.289062 L 50.990234 58.289062 C 50.75167 56.654663 50.010704 55.162962 49.802734 54.539062 C 49.677734 54.164062 49.490234 53.976562 49.365234 53.976562 z M 54.740234 53.976562 C 54.615234 53.976562 54.427734 54.164062 54.302734 54.539062 C 54.094764 55.162962 53.353798 56.654663 53.115234 58.289062 L 54.115234 58.289062 C 54.238437 56.659464 54.595284 55.161462 54.802734 54.539062 C 54.927734 54.164062 54.865234 53.976562 54.740234 53.976562 z M 47.365234 55.443359 L 47.365234 55.445312 C 47.201172 55.421312 47.115234 55.601562 47.302734 55.789062 C 47.507361 55.993662 48.209062 56.881563 48.458984 58.289062 L 49.396484 58.289062 C 48.971341 56.806264 47.758644 55.744963 47.552734 55.539062 C 47.490234 55.477063 47.419922 55.451359 47.365234 55.443359 z M 56.740234 55.445312 C 56.685544 55.455312 56.615234 55.476063 56.552734 55.539062 C 56.346824 55.744962 55.134127 56.806262 54.708984 58.289062 L 55.646484 58.289062 C 55.896406 56.881563 56.598107 55.993662 56.802734 55.789062 C 56.990234 55.601562 56.904296 55.421812 56.740234 55.445312 z M 125.85352 55.798828 C 125.72852 55.798828 125.60352 55.986328 125.60352 56.361328 C 125.60352 56.991328 125.44123 58.845428 125.38477 60.611328 L 126.32227 60.611328 C 126.26581 58.845428 126.10352 56.991328 126.10352 56.361328 C 126.10352 55.986328 125.97852 55.798828 125.85352 55.798828 z M 0.54101562 56.298828 C 0.41601562 56.298828 0.22851563 56.486328 0.10351562 56.861328 C 0.085049345 56.916726 0.026145933 57.058379 0 57.126953 L 0 59.849609 C 0.15812012 58.53336 0.42938706 57.383756 0.60351562 56.861328 C 0.72851562 56.486328 0.66601562 56.298828 0.54101562 56.298828 z M 123.16602 56.298828 C 123.04102 56.298828 122.97852 56.486328 123.10352 56.861328 C 123.31097 57.483728 123.66782 58.981728 123.79102 60.611328 L 124.79102 60.611328 C 124.55246 58.976928 123.81149 57.485228 123.60352 56.861328 C 123.47852 56.486328 123.29102 56.298828 123.16602 56.298828 z M 87.220703 56.964844 C 87.095703 56.964844 86.970703 57.152344 86.970703 57.527344 C 86.970703 58.157344 86.808409 60.011444 86.751953 61.777344 L 87.689453 61.777344 C 87.632997 60.011444 87.470703 58.157344 87.470703 57.527344 C 87.470703 57.152344 87.345703 56.964844 87.220703 56.964844 z M 128 57.126953 C 127.73169 57.830671 127.13339 59.122051 126.91602 60.611328 L 127.91602 60.611328 C 127.9358 60.349575 127.96974 60.101488 128 59.849609 L 128 57.126953 z M 84.533203 57.464844 C 84.408203 57.464844 84.345703 57.652344 84.470703 58.027344 C 84.678153 58.649744 85.035 60.147744 85.158203 61.777344 L 86.158203 61.777344 C 85.919639 60.142944 85.178673 58.651244 84.970703 58.027344 C 84.845703 57.652344 84.658203 57.464844 84.533203 57.464844 z M 89.908203 57.464844 C 89.783203 57.464844 89.595703 57.652344 89.470703 58.027344 C 89.262733 58.651244 88.521767 60.142944 88.283203 61.777344 L 89.283203 61.777344 C 89.406406 60.147744 89.763253 58.649744 89.970703 58.027344 C 90.095703 57.652344 90.033203 57.464844 89.908203 57.464844 z M 19.111328 57.5625 C 18.986328 57.5625 18.861328 57.75 18.861328 58.125 C 18.861328 58.755 18.699034 60.6091 18.642578 62.375 L 19.580078 62.375 C 19.523622 60.6091 19.361328 58.755 19.361328 58.125 C 19.361328 57.75 19.236328 57.5625 19.111328 57.5625 z M 2.5410156 57.767578 C 2.4863256 57.777578 2.4160156 57.800281 2.3535156 57.863281 C 2.1476056 58.069181 0.93490863 59.130481 0.50976562 60.613281 L 1.4472656 60.613281 C 1.6971876 59.205781 2.3988886 58.317881 2.6035156 58.113281 C 2.7910156 57.925781 2.7050776 57.746031 2.5410156 57.769531 L 2.5410156 57.767578 z M 121.16602 57.767578 C 121.00196 57.743578 120.91602 57.923828 121.10352 58.111328 C 121.30815 58.315928 122.00985 59.203828 122.25977 60.611328 L 123.19727 60.611328 C 122.77213 59.128528 121.55943 58.067228 121.35352 57.861328 C 121.29102 57.799328 121.22071 57.775578 121.16602 57.767578 z M 16.423828 58.0625 C 16.298828 58.0625 16.236328 58.25 16.361328 58.625 C 16.568778 59.2474 16.925625 60.7454 17.048828 62.375 L 18.048828 62.375 C 17.810264 60.7406 17.069298 59.2489 16.861328 58.625 C 16.736328 58.25 16.548828 58.0625 16.423828 58.0625 z M 21.798828 58.0625 C 21.673828 58.0625 21.486328 58.25 21.361328 58.625 C 21.153358 59.2489 20.412392 60.7406 20.173828 62.375 L 21.173828 62.375 C 21.297031 60.7454 21.653878 59.2474 21.861328 58.625 C 21.986328 58.25 21.923828 58.0625 21.798828 58.0625 z M 106.89844 58.490234 C 106.77344 58.490234 106.64844 58.677734 106.64844 59.052734 C 106.64844 59.682734 106.48615 61.536834 106.42969 63.302734 L 107.36719 63.302734 C 107.31073 61.536834 107.14844 59.682734 107.14844 59.052734 C 107.14844 58.677734 107.02344 58.490234 106.89844 58.490234 z M 35.005859 58.613281 C 34.880859 58.613281 34.755859 58.800781 34.755859 59.175781 C 34.755859 59.805781 34.593565 61.659881 34.537109 63.425781 L 35.474609 63.425781 C 35.418153 61.659881 35.255859 59.805781 35.255859 59.175781 C 35.255859 58.800781 35.130859 58.613281 35.005859 58.613281 z M 82.533203 58.933594 C 82.369141 58.909594 82.283203 59.089844 82.470703 59.277344 C 82.67533 59.481944 83.377031 60.369844 83.626953 61.777344 L 84.564453 61.777344 C 84.13931 60.294544 82.926613 59.233244 82.720703 59.027344 C 82.658203 58.965344 82.587891 58.941594 82.533203 58.933594 z M 91.908203 58.933594 C 91.853513 58.943594 91.783203 58.964344 91.720703 59.027344 C 91.514793 59.233244 90.302096 60.294544 89.876953 61.777344 L 90.814453 61.777344 C 91.064375 60.369844 91.766076 59.481944 91.970703 59.277344 C 92.158203 59.089844 92.072265 58.912047 91.908203 58.935547 L 91.908203 58.933594 z M 104.21094 58.990234 C 104.08594 58.990234 104.02344 59.177734 104.14844 59.552734 C 104.35589 60.175134 104.71274 61.673134 104.83594 63.302734 L 105.83594 63.302734 C 105.59738 61.668334 104.85641 60.176634 104.64844 59.552734 C 104.52344 59.177734 104.33594 58.990234 104.21094 58.990234 z M 109.58594 58.990234 C 109.46094 58.990234 109.27344 59.177734 109.14844 59.552734 C 108.94047 60.176634 108.1995 61.668334 107.96094 63.302734 L 108.96094 63.302734 C 109.08414 61.673134 109.44099 60.175134 109.64844 59.552734 C 109.77344 59.177734 109.71094 58.990234 109.58594 58.990234 z M 32.318359 59.113281 C 32.193359 59.113281 32.130859 59.300781 32.255859 59.675781 C 32.463309 60.298181 32.820156 61.796181 32.943359 63.425781 L 33.943359 63.425781 C 33.704795 61.791381 32.963829 60.299681 32.755859 59.675781 C 32.630859 59.300781 32.443359 59.113281 32.318359 59.113281 z M 37.693359 59.113281 C 37.568359 59.113281 37.380859 59.300781 37.255859 59.675781 C 37.047889 60.299681 36.306923 61.791381 36.068359 63.425781 L 37.068359 63.425781 C 37.191562 61.796181 37.548409 60.298181 37.755859 59.675781 C 37.880859 59.300781 37.818359 59.113281 37.693359 59.113281 z M 14.423828 59.53125 C 14.259766 59.50725 14.173828 59.6875 14.361328 59.875 C 14.565955 60.0796 15.267656 60.9675 15.517578 62.375 L 16.455078 62.375 C 16.029935 60.8922 14.817238 59.8309 14.611328 59.625 C 14.548828 59.563 14.478516 59.53925 14.423828 59.53125 z M 23.798828 59.53125 C 23.744138 59.54125 23.673828 59.563953 23.611328 59.626953 C 23.405418 59.832853 22.192721 60.894153 21.767578 62.376953 L 22.705078 62.376953 C 22.955 60.969453 23.656701 60.081553 23.861328 59.876953 C 24.048828 59.689453 23.96289 59.509703 23.798828 59.533203 L 23.798828 59.53125 z M 73.380859 59.726562 C 73.255859 59.726562 73.130859 59.914062 73.130859 60.289062 C 73.130859 60.919062 72.968565 62.773164 72.912109 64.539062 L 73.849609 64.539062 C 73.793153 62.773162 73.630859 60.919062 73.630859 60.289062 C 73.630859 59.914062 73.505859 59.726562 73.380859 59.726562 z M 70.693359 60.226562 C 70.568359 60.226562 70.505859 60.414062 70.630859 60.789062 C 70.838309 61.411462 71.195156 62.909462 71.318359 64.539062 L 72.318359 64.539062 C 72.079795 62.904663 71.338829 61.412963 71.130859 60.789062 C 71.005859 60.414062 70.818359 60.226562 70.693359 60.226562 z M 76.068359 60.226562 C 75.943359 60.226562 75.755859 60.414062 75.630859 60.789062 C 75.422889 61.412962 74.681923 62.904663 74.443359 64.539062 L 75.443359 64.539062 C 75.566562 62.909462 75.923409 61.411462 76.130859 60.789062 C 76.255859 60.414062 76.193359 60.226562 76.068359 60.226562 z M 102.21094 60.458984 C 102.04688 60.434984 101.96094 60.615234 102.14844 60.802734 C 102.35307 61.007334 103.05477 61.895234 103.30469 63.302734 L 104.24219 63.302734 C 103.81705 61.819934 102.60435 60.758634 102.39844 60.552734 C 102.33594 60.490734 102.26563 60.466984 102.21094 60.458984 z M 111.58594 60.458984 C 111.53125 60.468984 111.46094 60.489734 111.39844 60.552734 C 111.19253 60.758634 109.97983 61.819934 109.55469 63.302734 L 110.49219 63.302734 C 110.74211 61.895234 111.44381 61.007334 111.64844 60.802734 C 111.83594 60.615234 111.75 60.435484 111.58594 60.458984 z M 30.318359 60.582031 C 30.154296 60.558031 30.068359 60.738281 30.255859 60.925781 C 30.460486 61.130381 31.162187 62.018281 31.412109 63.425781 L 32.349609 63.425781 C 31.924466 61.942981 30.711769 60.881681 30.505859 60.675781 C 30.443359 60.613781 30.373046 60.590031 30.318359 60.582031 z M 39.693359 60.582031 C 39.638669 60.592031 39.568359 60.614734 39.505859 60.677734 C 39.299949 60.883634 38.087252 61.944934 37.662109 63.427734 L 38.599609 63.427734 C 38.849531 62.020234 39.551232 61.132334 39.755859 60.927734 C 39.943359 60.740234 39.857421 60.560484 39.693359 60.583984 L 39.693359 60.582031 z M 68.693359 61.693359 L 68.693359 61.695312 C 68.529297 61.671312 68.443359 61.851563 68.630859 62.039062 C 68.835486 62.243662 69.537187 63.131563 69.787109 64.539062 L 70.724609 64.539062 C 70.299466 63.056262 69.086769 61.994962 68.880859 61.789062 C 68.818359 61.727062 68.748047 61.701359 68.693359 61.693359 z M 78.068359 61.695312 C 78.013669 61.705313 77.943359 61.726063 77.880859 61.789062 C 77.674949 61.994962 76.462252 63.056264 76.037109 64.539062 L 76.974609 64.539062 C 77.224531 63.131563 77.926232 62.243662 78.130859 62.039062 C 78.318359 61.851562 78.232421 61.671812 78.068359 61.695312 z M 119.69727 69.867188 C 119.57227 69.867188 119.44727 70.054688 119.44727 70.429688 C 119.44727 71.059686 119.28498 72.913787 119.22852 74.679688 L 120.16602 74.679688 C 120.10956 72.913787 119.94727 71.059686 119.94727 70.429688 C 119.94727 70.054688 119.82227 69.867188 119.69727 69.867188 z M 117.00977 70.367188 C 116.88477 70.367188 116.82227 70.554688 116.94727 70.929688 C 117.15472 71.552087 117.51157 73.050087 117.63477 74.679688 L 118.63477 74.679688 C 118.39621 73.045287 117.65524 71.553586 117.44727 70.929688 C 117.32227 70.554688 117.13477 70.367188 117.00977 70.367188 z M 122.38477 70.367188 C 122.25977 70.367188 122.07227 70.554688 121.94727 70.929688 C 121.7393 71.553586 120.99833 73.045287 120.75977 74.679688 L 121.75977 74.679688 C 121.88297 73.050087 122.23982 71.552087 122.44727 70.929688 C 122.57227 70.554688 122.50977 70.367188 122.38477 70.367188 z M 78.490234 71.109375 C 78.365234 71.109375 78.240234 71.296875 78.240234 71.671875 C 78.240234 72.301875 78.07794 74.155975 78.021484 75.921875 L 78.958984 75.921875 C 78.902528 74.155975 78.740234 72.301875 78.740234 71.671875 C 78.740234 71.296875 78.615234 71.109375 78.490234 71.109375 z M 75.802734 71.609375 C 75.677734 71.609375 75.615234 71.796875 75.740234 72.171875 C 75.947684 72.794275 76.304531 74.292275 76.427734 75.921875 L 77.427734 75.921875 C 77.18917 74.287475 76.448204 72.795775 76.240234 72.171875 C 76.115234 71.796875 75.927734 71.609375 75.802734 71.609375 z M 81.177734 71.609375 C 81.052734 71.609375 80.865234 71.796875 80.740234 72.171875 C 80.532264 72.795775 79.791298 74.287475 79.552734 75.921875 L 80.552734 75.921875 C 80.675937 74.292275 81.032784 72.794275 81.240234 72.171875 C 81.365234 71.796875 81.302734 71.609375 81.177734 71.609375 z M 115.00977 71.835938 C 114.84571 71.811937 114.75977 71.992188 114.94727 72.179688 C 115.1519 72.384287 115.8536 73.272187 116.10352 74.679688 L 117.04102 74.679688 C 116.61588 73.196887 115.40318 72.135587 115.19727 71.929688 C 115.13477 71.867687 115.06446 71.843936 115.00977 71.835938 z M 124.38477 71.835938 C 124.33008 71.845938 124.25977 71.866687 124.19727 71.929688 C 123.99136 72.135587 122.77866 73.196888 122.35352 74.679688 L 123.29102 74.679688 C 123.54094 73.272188 124.24264 72.384287 124.44727 72.179688 C 124.63477 71.992188 124.54883 71.812438 124.38477 71.835938 z M 63.767578 72.851562 C 63.642578 72.851562 63.517578 73.039062 63.517578 73.414062 C 63.517578 74.044062 63.355284 75.898163 63.298828 77.664062 L 64.236328 77.664062 C 64.179872 75.898162 64.017578 74.044062 64.017578 73.414062 C 64.017578 73.039062 63.892578 72.851562 63.767578 72.851562 z M 73.802734 73.078125 C 73.638671 73.054125 73.552734 73.234375 73.740234 73.421875 C 73.944861 73.626475 74.646562 74.514375 74.896484 75.921875 L 75.833984 75.921875 C 75.408841 74.439075 74.196144 73.377775 73.990234 73.171875 C 73.927734 73.109875 73.857421 73.086125 73.802734 73.078125 z M 83.177734 73.078125 C 83.123044 73.088125 83.052734 73.108875 82.990234 73.171875 C 82.784324 73.377775 81.571627 74.439075 81.146484 75.921875 L 82.083984 75.921875 C 82.333906 74.514375 83.035607 73.626475 83.240234 73.421875 C 83.427734 73.234375 83.341796 73.054625 83.177734 73.078125 z M 61.080078 73.351562 C 60.955078 73.351562 60.892578 73.539062 61.017578 73.914062 C 61.225028 74.536462 61.581875 76.034463 61.705078 77.664062 L 62.705078 77.664062 C 62.466514 76.029663 61.725548 74.537962 61.517578 73.914062 C 61.392578 73.539062 61.205078 73.351562 61.080078 73.351562 z M 66.455078 73.351562 C 66.330078 73.351562 66.142578 73.539062 66.017578 73.914062 C 65.809608 74.537962 65.068642 76.029663 64.830078 77.664062 L 65.830078 77.664062 C 65.953281 76.034463 66.310128 74.536462 66.517578 73.914062 C 66.642578 73.539062 66.580078 73.351562 66.455078 73.351562 z M 6.53125 73.695312 C 6.40625 73.695312 6.28125 73.882812 6.28125 74.257812 C 6.28125 74.887812 6.1189559 76.741913 6.0625 78.507812 L 7 78.507812 C 6.943544 76.741912 6.78125 74.887812 6.78125 74.257812 C 6.78125 73.882812 6.65625 73.695312 6.53125 73.695312 z M 26.296875 73.736328 C 26.171875 73.736328 26.046875 73.923828 26.046875 74.298828 C 26.046875 74.928828 25.884581 76.782928 25.828125 78.548828 L 26.765625 78.548828 C 26.709169 76.782928 26.546875 74.928828 26.546875 74.298828 C 26.546875 73.923828 26.421875 73.736328 26.296875 73.736328 z M 3.84375 74.195312 C 3.71875 74.195312 3.65625 74.382812 3.78125 74.757812 C 3.9887004 75.380212 4.3455471 76.878213 4.46875 78.507812 L 5.46875 78.507812 C 5.2301863 76.873413 4.4892202 75.381712 4.28125 74.757812 C 4.15625 74.382812 3.96875 74.195312 3.84375 74.195312 z M 9.21875 74.195312 C 9.09375 74.195312 8.90625 74.382812 8.78125 74.757812 C 8.57328 75.381712 7.8323137 76.873413 7.59375 78.507812 L 8.59375 78.507812 C 8.716953 76.878213 9.0738 75.380212 9.28125 74.757812 C 9.40625 74.382812 9.34375 74.195312 9.21875 74.195312 z M 23.609375 74.236328 C 23.484375 74.236328 23.421875 74.423828 23.546875 74.798828 C 23.754325 75.421228 24.111172 76.919228 24.234375 78.548828 L 25.234375 78.548828 C 24.995811 76.914428 24.254845 75.422728 24.046875 74.798828 C 23.921875 74.423828 23.734375 74.236328 23.609375 74.236328 z M 28.984375 74.236328 C 28.859375 74.236328 28.671875 74.423828 28.546875 74.798828 C 28.338905 75.422728 27.597939 76.914428 27.359375 78.548828 L 28.359375 78.548828 C 28.482578 76.919228 28.839425 75.421228 29.046875 74.798828 C 29.171875 74.423828 29.109375 74.236328 28.984375 74.236328 z M 59.080078 74.820312 C 58.916016 74.796312 58.830078 74.976563 59.017578 75.164062 C 59.222205 75.368662 59.923906 76.256563 60.173828 77.664062 L 61.111328 77.664062 C 60.686185 76.181263 59.473488 75.119962 59.267578 74.914062 C 59.205078 74.852063 59.134766 74.828312 59.080078 74.820312 z M 68.455078 74.820312 C 68.400388 74.830313 68.330078 74.851062 68.267578 74.914062 C 68.061668 75.119962 66.848971 76.181264 66.423828 77.664062 L 67.361328 77.664062 C 67.61125 76.256563 68.312951 75.368662 68.517578 75.164062 C 68.705078 74.976562 68.61914 74.796813 68.455078 74.820312 z M 46.572266 74.853516 C 46.447266 74.853516 46.322266 75.041016 46.322266 75.416016 C 46.322266 76.046016 46.159972 77.900116 46.103516 79.666016 L 47.041016 79.666016 C 46.98456 77.900116 46.822266 76.046016 46.822266 75.416016 C 46.822266 75.041016 46.697266 74.853516 46.572266 74.853516 z M 43.884766 75.353516 C 43.759766 75.353516 43.697266 75.541016 43.822266 75.916016 C 44.029716 76.538416 44.386563 78.036416 44.509766 79.666016 L 45.509766 79.666016 C 45.271202 78.031616 44.530236 76.539916 44.322266 75.916016 C 44.197266 75.541016 44.009766 75.353516 43.884766 75.353516 z M 49.259766 75.353516 C 49.134766 75.353516 48.947266 75.541016 48.822266 75.916016 C 48.614296 76.539916 47.87333 78.031616 47.634766 79.666016 L 48.634766 79.666016 C 48.757969 78.036416 49.114816 76.538416 49.322266 75.916016 C 49.447266 75.541016 49.384766 75.353516 49.259766 75.353516 z M 1.84375 75.664062 C 1.6796875 75.640062 1.59375 75.820313 1.78125 76.007812 C 1.9858774 76.212412 2.687578 77.100313 2.9375 78.507812 L 3.875 78.507812 C 3.4498567 77.025014 2.2371599 75.963712 2.03125 75.757812 C 1.96875 75.695813 1.8984375 75.672062 1.84375 75.664062 z M 11.21875 75.664062 C 11.16406 75.674063 11.09375 75.694812 11.03125 75.757812 C 10.82534 75.963712 9.612643 77.025014 9.1875 78.507812 L 10.125 78.507812 C 10.374922 77.100313 11.076623 76.212412 11.28125 76.007812 C 11.46875 75.820312 11.382812 75.640563 11.21875 75.664062 z M 21.609375 75.705078 C 21.445312 75.681078 21.359375 75.861328 21.546875 76.048828 C 21.751502 76.253428 22.453203 77.141328 22.703125 78.548828 L 23.640625 78.548828 C 23.215482 77.066028 22.002785 76.004728 21.796875 75.798828 C 21.734375 75.736828 21.664062 75.713078 21.609375 75.705078 z M 30.984375 75.705078 C 30.929685 75.715078 30.859375 75.735828 30.796875 75.798828 C 30.590965 76.004728 29.378268 77.066028 28.953125 78.548828 L 29.890625 78.548828 C 30.140547 77.141328 30.842248 76.253428 31.046875 76.048828 C 31.234375 75.861328 31.148437 75.681578 30.984375 75.705078 z M 101.18359 75.974609 C 101.05859 75.974609 100.93359 76.162109 100.93359 76.537109 C 100.93359 77.167109 100.7713 79.021209 100.71484 80.787109 L 101.65234 80.787109 C 101.59588 79.021209 101.43359 77.167109 101.43359 76.537109 C 101.43359 76.162109 101.30859 75.974609 101.18359 75.974609 z M 98.496094 76.474609 C 98.371094 76.474609 98.308594 76.662109 98.433594 77.037109 C 98.641044 77.659509 98.997891 79.157509 99.121094 80.787109 L 100.12109 80.787109 C 99.882534 79.152709 99.141564 77.661009 98.933594 77.037109 C 98.808594 76.662109 98.621094 76.474609 98.496094 76.474609 z M 103.87109 76.474609 C 103.74609 76.474609 103.55859 76.662109 103.43359 77.037109 C 103.22562 77.661009 102.48465 79.152709 102.24609 80.787109 L 103.24609 80.787109 C 103.36929 79.157509 103.72614 77.659509 103.93359 77.037109 C 104.05859 76.662109 103.99609 76.474609 103.87109 76.474609 z M 41.884766 76.822266 C 41.720704 76.798266 41.634766 76.978516 41.822266 77.166016 C 42.026893 77.370616 42.728594 78.258516 42.978516 79.666016 L 43.916016 79.666016 C 43.490873 78.183216 42.278176 77.121916 42.072266 76.916016 C 42.009766 76.854016 41.939454 76.830266 41.884766 76.822266 z M 51.259766 76.822266 C 51.205076 76.832266 51.134766 76.854969 51.072266 76.917969 C 50.866356 77.123869 49.653659 78.185169 49.228516 79.667969 L 50.166016 79.667969 C 50.415938 78.260469 51.117639 77.372569 51.322266 77.167969 C 51.509766 76.980469 51.423828 76.800719 51.259766 76.824219 L 51.259766 76.822266 z M 96.496094 77.943359 C 96.332032 77.919359 96.246094 78.099609 96.433594 78.287109 C 96.638221 78.491709 97.339922 79.379609 97.589844 80.787109 L 98.527344 80.787109 C 98.102201 79.304309 96.889504 78.243009 96.683594 78.037109 C 96.621094 77.975109 96.550782 77.951359 96.496094 77.943359 z M 105.87109 77.943359 C 105.8164 77.953359 105.74609 77.974109 105.68359 78.037109 C 105.47768 78.243009 104.26498 79.304309 103.83984 80.787109 L 104.77734 80.787109 C 105.02726 79.379609 105.72896 78.491709 105.93359 78.287109 C 106.12109 78.099609 106.03515 77.919859 105.87109 77.943359 z M 18.814453 87.191406 C 18.689453 87.191406 18.564453 87.378906 18.564453 87.753906 C 18.564453 88.383906 18.402159 90.238006 18.345703 92.003906 L 19.283203 92.003906 C 19.226747 90.238006 19.064453 88.383906 19.064453 87.753906 C 19.064453 87.378906 18.939453 87.191406 18.814453 87.191406 z M 16.126953 87.691406 C 16.001953 87.691406 15.939453 87.878906 16.064453 88.253906 C 16.271903 88.876306 16.62875 90.374306 16.751953 92.003906 L 17.751953 92.003906 C 17.513389 90.369506 16.772423 88.877806 16.564453 88.253906 C 16.439453 87.878906 16.251953 87.691406 16.126953 87.691406 z M 21.501953 87.691406 C 21.376953 87.691406 21.189453 87.878906 21.064453 88.253906 C 20.856483 88.877806 20.115517 90.369506 19.876953 92.003906 L 20.876953 92.003906 C 21.000156 90.374306 21.357003 88.876306 21.564453 88.253906 C 21.689453 87.878906 21.626953 87.691406 21.501953 87.691406 z M 107.73242 88.011719 C 107.60742 88.011719 107.48242 88.199219 107.48242 88.574219 C 107.48242 89.204219 107.32013 91.058319 107.26367 92.824219 L 108.20117 92.824219 C 108.14471 91.058319 107.98242 89.204219 107.98242 88.574219 C 107.98242 88.199219 107.85742 88.011719 107.73242 88.011719 z M 87.486328 88.060547 C 87.361328 88.060547 87.236328 88.248047 87.236328 88.623047 C 87.236328 89.253047 87.074034 91.107147 87.017578 92.873047 L 87.955078 92.873047 C 87.898622 91.107147 87.736328 89.253047 87.736328 88.623047 C 87.736328 88.248047 87.611328 88.060547 87.486328 88.060547 z M 105.04492 88.511719 C 104.91992 88.511719 104.85742 88.699219 104.98242 89.074219 C 105.18987 89.696619 105.54672 91.194619 105.66992 92.824219 L 106.66992 92.824219 C 106.43136 91.189819 105.69039 89.698119 105.48242 89.074219 C 105.35742 88.699219 105.16992 88.511719 105.04492 88.511719 z M 110.41992 88.511719 C 110.29492 88.511719 110.10742 88.699219 109.98242 89.074219 C 109.77445 89.698119 109.03348 91.189819 108.79492 92.824219 L 109.79492 92.824219 C 109.91812 91.194619 110.27497 89.696619 110.48242 89.074219 C 110.60742 88.699219 110.54492 88.511719 110.41992 88.511719 z M 84.798828 88.560547 C 84.673828 88.560547 84.611328 88.748047 84.736328 89.123047 C 84.943778 89.745447 85.300625 91.243447 85.423828 92.873047 L 86.423828 92.873047 C 86.185264 91.238647 85.444298 89.746947 85.236328 89.123047 C 85.111328 88.748047 84.923828 88.560547 84.798828 88.560547 z M 90.173828 88.560547 C 90.048828 88.560547 89.861328 88.748047 89.736328 89.123047 C 89.528358 89.746947 88.787392 91.238647 88.548828 92.873047 L 89.548828 92.873047 C 89.672031 91.243447 90.028878 89.745447 90.236328 89.123047 C 90.361328 88.748047 90.298828 88.560547 90.173828 88.560547 z M 14.126953 89.160156 C 13.962891 89.136156 13.876953 89.316406 14.064453 89.503906 C 14.26908 89.708506 14.970781 90.596406 15.220703 92.003906 L 16.158203 92.003906 C 15.73306 90.521106 14.520363 89.459806 14.314453 89.253906 C 14.251953 89.191906 14.181641 89.168156 14.126953 89.160156 z M 23.501953 89.160156 C 23.447263 89.170156 23.376953 89.190906 23.314453 89.253906 C 23.108543 89.459806 21.895846 90.521106 21.470703 92.003906 L 22.408203 92.003906 C 22.658125 90.596406 23.359826 89.708506 23.564453 89.503906 C 23.751953 89.316406 23.666015 89.136656 23.501953 89.160156 z M 56.048828 89.748047 C 55.923828 89.748047 55.798828 89.935547 55.798828 90.310547 C 55.798828 90.940547 55.636534 92.794647 55.580078 94.560547 L 56.517578 94.560547 C 56.461122 92.794647 56.298828 90.940547 56.298828 90.310547 C 56.298828 89.935547 56.173828 89.748047 56.048828 89.748047 z M 35.65625 89.890625 C 35.53125 89.890625 35.40625 90.078125 35.40625 90.453125 C 35.40625 91.083125 35.243956 92.937225 35.1875 94.703125 L 36.125 94.703125 C 36.068544 92.937225 35.90625 91.083125 35.90625 90.453125 C 35.90625 90.078125 35.78125 89.890625 35.65625 89.890625 z M 103.04492 89.980469 C 102.88086 89.956469 102.79492 90.136719 102.98242 90.324219 C 103.18705 90.528819 103.88875 91.416719 104.13867 92.824219 L 105.07617 92.824219 C 104.65103 91.341419 103.43833 90.280119 103.23242 90.074219 C 103.16992 90.012219 103.09961 89.988469 103.04492 89.980469 z M 112.41992 89.980469 C 112.36523 89.990469 112.29492 90.011219 112.23242 90.074219 C 112.02651 90.280119 110.81381 91.341419 110.38867 92.824219 L 111.32617 92.824219 C 111.57609 91.416719 112.27779 90.528819 112.48242 90.324219 C 112.66992 90.136719 112.58398 89.956969 112.41992 89.980469 z M 82.798828 90.029297 C 82.634766 90.005297 82.548828 90.185547 82.736328 90.373047 C 82.940955 90.577647 83.642656 91.465547 83.892578 92.873047 L 84.830078 92.873047 C 84.404935 91.390247 83.192238 90.328947 82.986328 90.123047 C 82.923828 90.061047 82.853516 90.037297 82.798828 90.029297 z M 92.173828 90.029297 C 92.119138 90.039297 92.048828 90.060047 91.986328 90.123047 C 91.780418 90.328947 90.567721 91.390247 90.142578 92.873047 L 91.080078 92.873047 C 91.33 91.465547 92.031701 90.577647 92.236328 90.373047 C 92.423828 90.185547 92.33789 90.005797 92.173828 90.029297 z M 53.361328 90.248047 C 53.236328 90.248047 53.173828 90.435547 53.298828 90.810547 C 53.506278 91.432947 53.863125 92.930947 53.986328 94.560547 L 54.986328 94.560547 C 54.747764 92.926147 54.006798 91.434447 53.798828 90.810547 C 53.673828 90.435547 53.486328 90.248047 53.361328 90.248047 z M 58.736328 90.248047 C 58.611328 90.248047 58.423828 90.435547 58.298828 90.810547 C 58.090858 91.434447 57.349892 92.926147 57.111328 94.560547 L 58.111328 94.560547 C 58.234531 92.930947 58.591378 91.432947 58.798828 90.810547 C 58.923828 90.435547 58.861328 90.248047 58.736328 90.248047 z M 32.96875 90.390625 C 32.84375 90.390625 32.78125 90.578125 32.90625 90.953125 C 33.1137 91.575525 33.470547 93.073525 33.59375 94.703125 L 34.59375 94.703125 C 34.355186 93.068725 33.61422 91.577025 33.40625 90.953125 C 33.28125 90.578125 33.09375 90.390625 32.96875 90.390625 z M 38.34375 90.390625 C 38.21875 90.390625 38.03125 90.578125 37.90625 90.953125 C 37.69828 91.577025 36.957314 93.068725 36.71875 94.703125 L 37.71875 94.703125 C 37.841953 93.073525 38.1988 91.575525 38.40625 90.953125 C 38.53125 90.578125 38.46875 90.390625 38.34375 90.390625 z M 73.832031 91.234375 C 73.707031 91.234375 73.582031 91.421875 73.582031 91.796875 C 73.582031 92.426875 73.419737 94.280975 73.363281 96.046875 L 74.300781 96.046875 C 74.244325 94.280975 74.082031 92.426875 74.082031 91.796875 C 74.082031 91.421875 73.957031 91.234375 73.832031 91.234375 z M 51.361328 91.716797 C 51.197265 91.692797 51.111328 91.873047 51.298828 92.060547 C 51.503455 92.265147 52.205156 93.153047 52.455078 94.560547 L 53.392578 94.560547 C 52.967435 93.077747 51.754738 92.016447 51.548828 91.810547 C 51.486328 91.748547 51.416015 91.724797 51.361328 91.716797 z M 60.736328 91.716797 C 60.681638 91.726797 60.611328 91.747547 60.548828 91.810547 C 60.342918 92.016447 59.130221 93.077747 58.705078 94.560547 L 59.642578 94.560547 C 59.8925 93.153047 60.594201 92.265147 60.798828 92.060547 C 60.986328 91.873047 60.90039 91.693297 60.736328 91.716797 z M 71.144531 91.734375 C 71.019531 91.734375 70.957031 91.921875 71.082031 92.296875 C 71.289481 92.919275 71.646328 94.417275 71.769531 96.046875 L 72.769531 96.046875 C 72.530967 94.412475 71.790001 92.920775 71.582031 92.296875 C 71.457031 91.921875 71.269531 91.734375 71.144531 91.734375 z M 76.519531 91.734375 C 76.394531 91.734375 76.207031 91.921875 76.082031 92.296875 C 75.874061 92.920775 75.133095 94.412475 74.894531 96.046875 L 75.894531 96.046875 C 76.017734 94.417275 76.374581 92.919275 76.582031 92.296875 C 76.707031 91.921875 76.644531 91.734375 76.519531 91.734375 z M 30.96875 91.859375 C 30.804687 91.835375 30.71875 92.015625 30.90625 92.203125 C 31.110877 92.407725 31.812578 93.295625 32.0625 94.703125 L 33 94.703125 C 32.574857 93.220325 31.36216 92.159025 31.15625 91.953125 C 31.09375 91.891125 31.023437 91.867375 30.96875 91.859375 z M 40.34375 91.859375 C 40.28906 91.869375 40.21875 91.890125 40.15625 91.953125 C 39.95034 92.159025 38.737643 93.220325 38.3125 94.703125 L 39.25 94.703125 C 39.499922 93.295625 40.201623 92.407725 40.40625 92.203125 C 40.59375 92.015625 40.507812 91.835875 40.34375 91.859375 z M 126.11523 91.984375 C 125.99023 91.984375 125.86523 92.171875 125.86523 92.546875 C 125.86523 93.176875 125.70294 95.030975 125.64648 96.796875 L 126.58398 96.796875 C 126.52752 95.030975 126.36523 93.176875 126.36523 92.546875 C 126.36523 92.171875 126.24023 91.984375 126.11523 91.984375 z M 0.80273438 92.484375 C 0.67773438 92.484375 0.49023437 92.671875 0.36523438 93.046875 C 0.29994406 93.242743 0.13831644 93.641837 0 93.986328 L 0 96.796875 L 0.17773438 96.796875 C 0.30093738 95.167275 0.65778437 93.669275 0.86523438 93.046875 C 0.99023438 92.671875 0.92773438 92.484375 0.80273438 92.484375 z M 123.42773 92.484375 C 123.30273 92.484375 123.24023 92.671875 123.36523 93.046875 C 123.57268 93.669275 123.92953 95.167275 124.05273 96.796875 L 125.05273 96.796875 C 124.81417 95.162475 124.0732 93.670775 123.86523 93.046875 C 123.74023 92.671875 123.55273 92.484375 123.42773 92.484375 z M 69.144531 93.203125 C 68.980468 93.179125 68.894531 93.359375 69.082031 93.546875 C 69.286658 93.751475 69.988359 94.639375 70.238281 96.046875 L 71.175781 96.046875 C 70.750638 94.564075 69.537941 93.502775 69.332031 93.296875 C 69.269531 93.234875 69.199218 93.211125 69.144531 93.203125 z M 78.519531 93.203125 C 78.464841 93.213125 78.394531 93.233875 78.332031 93.296875 C 78.126121 93.502775 76.913424 94.564075 76.488281 96.046875 L 77.425781 96.046875 C 77.675703 94.639375 78.377404 93.751475 78.582031 93.546875 C 78.769531 93.359375 78.683593 93.179625 78.519531 93.203125 z M 121.42773 93.951172 L 121.42773 93.953125 C 121.26367 93.929125 121.17773 94.109375 121.36523 94.296875 C 121.56986 94.501475 122.27156 95.389375 122.52148 96.796875 L 123.45898 96.796875 C 123.03384 95.314075 121.82114 94.252775 121.61523 94.046875 C 121.55273 93.984875 121.48242 93.959172 121.42773 93.951172 z M 2.8027344 93.953125 C 2.7480444 93.963125 2.6777344 93.983875 2.6152344 94.046875 C 2.4093244 94.252775 1.1966274 95.314075 0.77148438 96.796875 L 1.7089844 96.796875 C 1.9589064 95.389375 2.6606074 94.501475 2.8652344 94.296875 C 3.0527344 94.109375 2.9667964 93.929625 2.8027344 93.953125 z M 128 93.986328 C 127.69773 94.739148 127.3414 95.67558 127.17773 96.796875 L 128 96.796875 L 128 93.986328 z M 60.078125 101.9707 C 59.953125 101.9707 59.828125 102.1582 59.828125 102.5332 C 59.828125 103.1632 59.665831 105.0173 59.609375 106.7832 L 60.546875 106.7832 C 60.490419 105.0173 60.328125 103.1632 60.328125 102.5332 C 60.328125 102.1582 60.203125 101.9707 60.078125 101.9707 z M 57.390625 102.4707 C 57.265625 102.4707 57.203125 102.6582 57.328125 103.0332 C 57.535575 103.6556 57.892422 105.1536 58.015625 106.7832 L 59.015625 106.7832 C 58.777061 105.1488 58.036095 103.6571 57.828125 103.0332 C 57.703125 102.6582 57.515625 102.4707 57.390625 102.4707 z M 62.765625 102.4707 C 62.640625 102.4707 62.453125 102.6582 62.328125 103.0332 C 62.120155 103.6571 61.379189 105.1488 61.140625 106.7832 L 62.140625 106.7832 C 62.263828 105.1536 62.620675 103.6556 62.828125 103.0332 C 62.953125 102.6582 62.890625 102.4707 62.765625 102.4707 z M 25.056641 102.76367 C 24.931641 102.76367 24.806641 102.95117 24.806641 103.32617 C 24.806641 103.95617 24.644347 105.81027 24.587891 107.57617 L 25.525391 107.57617 C 25.468935 105.81027 25.306641 103.95617 25.306641 103.32617 C 25.306641 102.95117 25.181641 102.76367 25.056641 102.76367 z M 22.369141 103.26367 C 22.244141 103.26367 22.181641 103.45117 22.306641 103.82617 C 22.514091 104.44857 22.870938 105.94657 22.994141 107.57617 L 23.994141 107.57617 C 23.755577 105.94177 23.014611 104.45007 22.806641 103.82617 C 22.681641 103.45117 22.494141 103.26367 22.369141 103.26367 z M 27.744141 103.26367 C 27.619141 103.26367 27.431641 103.45117 27.306641 103.82617 C 27.098671 104.45007 26.357705 105.94177 26.119141 107.57617 L 27.119141 107.57617 C 27.242344 105.94657 27.599191 104.44857 27.806641 103.82617 C 27.931641 103.45117 27.869141 103.26367 27.744141 103.26367 z M 97.931641 103.6582 C 97.806641 103.6582 97.681641 103.8457 97.681641 104.2207 C 97.681641 104.8507 97.519347 106.7048 97.462891 108.4707 L 98.400391 108.4707 C 98.343935 106.7048 98.181641 104.8507 98.181641 104.2207 C 98.181641 103.8457 98.056641 103.6582 97.931641 103.6582 z M 81.8125 103.92383 C 81.6875 103.92383 81.5625 104.11133 81.5625 104.48633 C 81.5625 105.11633 81.400206 106.97043 81.34375 108.73633 L 82.28125 108.73633 C 82.224794 106.97043 82.0625 105.11633 82.0625 104.48633 C 82.0625 104.11133 81.9375 103.92383 81.8125 103.92383 z M 55.390625 103.9375 L 55.390625 103.93945 C 55.226562 103.91545 55.140625 104.0957 55.328125 104.2832 C 55.532752 104.4878 56.234453 105.3757 56.484375 106.7832 L 57.421875 106.7832 C 56.996732 105.3004 55.784035 104.2391 55.578125 104.0332 C 55.515625 103.9712 55.445312 103.9455 55.390625 103.9375 z M 64.765625 103.93945 C 64.710935 103.94945 64.640625 103.9702 64.578125 104.0332 C 64.372215 104.2391 63.159518 105.3004 62.734375 106.7832 L 63.671875 106.7832 C 63.921797 105.3757 64.623498 104.4878 64.828125 104.2832 C 65.015625 104.0957 64.929687 103.91595 64.765625 103.93945 z M 95.244141 104.1582 C 95.119141 104.1582 95.056641 104.3457 95.181641 104.7207 C 95.389091 105.3431 95.745938 106.8411 95.869141 108.4707 L 96.869141 108.4707 C 96.630577 106.8363 95.889611 105.3446 95.681641 104.7207 C 95.556641 104.3457 95.369141 104.1582 95.244141 104.1582 z M 100.61914 104.1582 C 100.49414 104.1582 100.30664 104.3457 100.18164 104.7207 C 99.973672 105.3446 99.232705 106.8363 98.994141 108.4707 L 99.994141 108.4707 C 100.11734 106.8411 100.47419 105.3431 100.68164 104.7207 C 100.80664 104.3457 100.74414 104.1582 100.61914 104.1582 z M 79.125 104.42383 C 79 104.42383 78.9375 104.61133 79.0625 104.98633 C 79.26995 105.60873 79.626797 107.10673 79.75 108.73633 L 80.75 108.73633 C 80.511436 107.10193 79.77047 105.61023 79.5625 104.98633 C 79.4375 104.61133 79.25 104.42383 79.125 104.42383 z M 84.5 104.42383 C 84.375 104.42383 84.1875 104.61133 84.0625 104.98633 C 83.85453 105.61023 83.113564 107.10193 82.875 108.73633 L 83.875 108.73633 C 83.998203 107.10673 84.35505 105.60873 84.5625 104.98633 C 84.6875 104.61133 84.625 104.42383 84.5 104.42383 z M 117.74023 104.72656 C 117.61523 104.72656 117.49023 104.91406 117.49023 105.28906 C 117.49023 105.91906 117.32794 107.77316 117.27148 109.53906 L 118.20898 109.53906 C 118.15252 107.77316 117.99023 105.91906 117.99023 105.28906 C 117.99023 104.91406 117.86523 104.72656 117.74023 104.72656 z M 20.369141 104.73047 L 20.369141 104.73242 C 20.205079 104.70842 20.119141 104.88867 20.306641 105.07617 C 20.511268 105.28077 21.212969 106.16867 21.462891 107.57617 L 22.400391 107.57617 C 21.975248 106.09337 20.762551 105.03207 20.556641 104.82617 C 20.494141 104.76417 20.423829 104.73847 20.369141 104.73047 z M 29.744141 104.73242 C 29.689451 104.74242 29.619141 104.76317 29.556641 104.82617 C 29.350731 105.03207 28.138034 106.09337 27.712891 107.57617 L 28.650391 107.57617 C 28.900313 106.16867 29.602014 105.28077 29.806641 105.07617 C 29.994141 104.88867 29.908203 104.70892 29.744141 104.73242 z M 115.05273 105.22656 C 114.92773 105.22656 114.86523 105.41406 114.99023 105.78906 C 115.19768 106.41146 115.55453 107.90946 115.67773 109.53906 L 116.67773 109.53906 C 116.43917 107.90466 115.6982 106.41296 115.49023 105.78906 C 115.36523 105.41406 115.17773 105.22656 115.05273 105.22656 z M 120.42773 105.22656 C 120.30273 105.22656 120.11523 105.41406 119.99023 105.78906 C 119.78226 106.41296 119.04129 107.90466 118.80273 109.53906 L 119.80273 109.53906 C 119.92593 107.90946 120.28278 106.41146 120.49023 105.78906 C 120.61523 105.41406 120.55273 105.22656 120.42773 105.22656 z M 46.46875 105.39844 C 46.34375 105.39844 46.21875 105.58594 46.21875 105.96094 C 46.21875 106.59094 46.056456 108.44504 46 110.21094 L 46.9375 110.21094 C 46.881044 108.44504 46.71875 106.59094 46.71875 105.96094 C 46.71875 105.58594 46.59375 105.39844 46.46875 105.39844 z M 93.244141 105.62695 C 93.080079 105.60295 92.994141 105.7832 93.181641 105.9707 C 93.386268 106.1753 94.087969 107.0632 94.337891 108.4707 L 95.275391 108.4707 C 94.850248 106.9879 93.637551 105.9266 93.431641 105.7207 C 93.369141 105.6587 93.298829 105.63495 93.244141 105.62695 z M 102.61914 105.62695 C 102.56445 105.63695 102.49414 105.65966 102.43164 105.72266 C 102.22573 105.92856 101.01303 106.98986 100.58789 108.47266 L 101.52539 108.47266 C 101.77531 107.06516 102.47701 106.17726 102.68164 105.97266 C 102.86914 105.78516 102.7832 105.60541 102.61914 105.62891 L 102.61914 105.62695 z M 77.125 105.89062 L 77.125 105.89258 C 76.960937 105.86858 76.875 106.04883 77.0625 106.23633 C 77.267127 106.44093 77.968828 107.32883 78.21875 108.73633 L 79.15625 108.73633 C 78.731107 107.25353 77.51841 106.19223 77.3125 105.98633 C 77.25 105.92433 77.179687 105.89864 77.125 105.89062 z M 86.5 105.89258 C 86.44531 105.90258 86.375 105.92333 86.3125 105.98633 C 86.10659 106.19223 84.893893 107.25353 84.46875 108.73633 L 85.40625 108.73633 C 85.656172 107.32883 86.357873 106.44093 86.5625 106.23633 C 86.75 106.04883 86.664062 105.86908 86.5 105.89258 z M 43.78125 105.89844 C 43.65625 105.89844 43.59375 106.08594 43.71875 106.46094 C 43.9262 107.08334 44.283047 108.58134 44.40625 110.21094 L 45.40625 110.21094 C 45.167686 108.57654 44.42672 107.08484 44.21875 106.46094 C 44.09375 106.08594 43.90625 105.89844 43.78125 105.89844 z M 49.15625 105.89844 C 49.03125 105.89844 48.84375 106.08594 48.71875 106.46094 C 48.51078 107.08484 47.769814 108.57654 47.53125 110.21094 L 48.53125 110.21094 C 48.654453 108.58134 49.0113 107.08334 49.21875 106.46094 C 49.34375 106.08594 49.28125 105.89844 49.15625 105.89844 z M 9.2539062 106.40234 C 9.1289062 106.40234 9.0039062 106.58984 9.0039062 106.96484 C 9.0039062 107.59484 8.8416121 109.44894 8.7851562 111.21484 L 9.7226562 111.21484 C 9.6662003 109.44894 9.5039062 107.59484 9.5039062 106.96484 C 9.5039062 106.58984 9.3789062 106.40234 9.2539062 106.40234 z M 113.05273 106.69336 L 113.05273 106.69531 C 112.88867 106.67131 112.80273 106.85156 112.99023 107.03906 C 113.19486 107.24366 113.89656 108.13156 114.14648 109.53906 L 115.08398 109.53906 C 114.65884 108.05626 113.44614 106.99496 113.24023 106.78906 C 113.17773 106.72706 113.10742 106.70136 113.05273 106.69336 z M 122.42773 106.69531 C 122.37304 106.70531 122.30273 106.72606 122.24023 106.78906 C 122.03432 106.99496 120.82162 108.05626 120.39648 109.53906 L 121.33398 109.53906 C 121.5839 108.13156 122.2856 107.24366 122.49023 107.03906 C 122.67773 106.85156 122.59179 106.67181 122.42773 106.69531 z M 6.5664062 106.90234 C 6.4414062 106.90234 6.3789062 107.08984 6.5039062 107.46484 C 6.7113566 108.08724 7.0682034 109.58524 7.1914062 111.21484 L 8.1914062 111.21484 C 7.9528426 109.58044 7.2118766 108.08874 7.0039062 107.46484 C 6.8789062 107.08984 6.6914062 106.90234 6.5664062 106.90234 z M 11.941406 106.90234 C 11.816406 106.90234 11.628906 107.08984 11.503906 107.46484 C 11.295936 108.08874 10.55497 109.58044 10.316406 111.21484 L 11.316406 111.21484 C 11.439609 109.58524 11.796456 108.08724 12.003906 107.46484 C 12.128906 107.08984 12.066406 106.90234 11.941406 106.90234 z M 41.78125 107.36719 C 41.617187 107.34319 41.53125 107.52344 41.71875 107.71094 C 41.923377 107.91554 42.625078 108.80344 42.875 110.21094 L 43.8125 110.21094 C 43.387357 108.72814 42.17466 107.66684 41.96875 107.46094 C 41.90625 107.39894 41.835937 107.37519 41.78125 107.36719 z M 51.15625 107.36719 C 51.10156 107.37719 51.03125 107.39794 50.96875 107.46094 C 50.76284 107.66684 49.550143 108.72814 49.125 110.21094 L 50.0625 110.21094 C 50.312422 108.80344 51.014123 107.91554 51.21875 107.71094 C 51.40625 107.52344 51.320312 107.34369 51.15625 107.36719 z M 4.5664062 108.36914 L 4.5664062 108.37109 C 4.4023438 108.34709 4.3164062 108.52734 4.5039062 108.71484 C 4.7085336 108.91944 5.4102342 109.80734 5.6601562 111.21484 L 6.5976562 111.21484 C 6.1725129 109.73204 4.9598162 108.67074 4.7539062 108.46484 C 4.6914062 108.40284 4.6210938 108.37714 4.5664062 108.36914 z M 13.941406 108.37109 C 13.886716 108.38109 13.816406 108.40184 13.753906 108.46484 C 13.547996 108.67074 12.335299 109.73204 11.910156 111.21484 L 12.847656 111.21484 C 13.097578 109.80734 13.799279 108.91944 14.003906 108.71484 C 14.191406 108.52734 14.105468 108.34759 13.941406 108.37109 z M 87.570312 118.62305 C 87.445312 118.62305 87.320312 118.81055 87.320312 119.18555 C 87.320312 119.81555 87.158019 121.66965 87.101562 123.43555 L 88.039062 123.43555 C 87.982608 121.66965 87.820312 119.81555 87.820312 119.18555 C 87.820312 118.81055 87.695312 118.62305 87.570312 118.62305 z M 19.150391 118.73047 C 19.025391 118.73047 18.900391 118.91797 18.900391 119.29297 C 18.900391 119.92297 18.738097 121.77707 18.681641 123.54297 L 19.619141 123.54297 C 19.562685 121.77707 19.400391 119.92297 19.400391 119.29297 C 19.400391 118.91797 19.275391 118.73047 19.150391 118.73047 z M 84.882812 119.12305 C 84.757812 119.12305 84.695312 119.31055 84.820312 119.68555 C 85.027762 120.30795 85.38461 121.80595 85.507812 123.43555 L 86.507812 123.43555 C 86.269249 121.80115 85.528284 120.30945 85.320312 119.68555 C 85.195312 119.31055 85.007812 119.12305 84.882812 119.12305 z M 90.257812 119.12305 C 90.132812 119.12305 89.945312 119.31055 89.820312 119.68555 C 89.612342 120.30945 88.871377 121.80115 88.632812 123.43555 L 89.632812 123.43555 C 89.756016 121.80595 90.112863 120.30795 90.320312 119.68555 C 90.445312 119.31055 90.382812 119.12305 90.257812 119.12305 z M 16.462891 119.23047 C 16.337891 119.23047 16.275391 119.41797 16.400391 119.79297 C 16.607841 120.41537 16.964688 121.91337 17.087891 123.54297 L 18.087891 123.54297 C 17.849327 121.90857 17.108361 120.41687 16.900391 119.79297 C 16.775391 119.41797 16.587891 119.23047 16.462891 119.23047 z M 21.837891 119.23047 C 21.712891 119.23047 21.525391 119.41797 21.400391 119.79297 C 21.192421 120.41687 20.451455 121.90857 20.212891 123.54297 L 21.212891 123.54297 C 21.336094 121.91337 21.692941 120.41537 21.900391 119.79297 C 22.025391 119.41797 21.962891 119.23047 21.837891 119.23047 z M 35.789062 120.35156 C 35.664062 120.35156 35.539062 120.53906 35.539062 120.91406 C 35.539062 121.54406 35.376768 123.39816 35.320312 125.16406 L 36.257812 125.16406 C 36.201356 123.39816 36.039062 121.54406 36.039062 120.91406 C 36.039062 120.53906 35.914062 120.35156 35.789062 120.35156 z M 82.882812 120.5918 C 82.71875 120.5678 82.632812 120.74805 82.820312 120.93555 C 83.02494 121.14015 83.726641 122.02805 83.976562 123.43555 L 84.914062 123.43555 C 84.488919 121.95275 83.276224 120.89145 83.070312 120.68555 C 83.007812 120.62355 82.9375 120.5998 82.882812 120.5918 z M 92.257812 120.5918 C 92.203122 120.6018 92.132813 120.62255 92.070312 120.68555 C 91.864402 120.89145 90.651705 121.95275 90.226562 123.43555 L 91.164062 123.43555 C 91.413984 122.02805 92.115685 121.14015 92.320312 120.93555 C 92.507812 120.74805 92.421875 120.5683 92.257812 120.5918 z M 14.462891 120.69922 C 14.298829 120.67522 14.212891 120.85547 14.400391 121.04297 C 14.605018 121.24757 15.306719 122.13547 15.556641 123.54297 L 16.494141 123.54297 C 16.068998 122.06017 14.856301 120.99887 14.650391 120.79297 C 14.587891 120.73097 14.517579 120.70722 14.462891 120.69922 z M 23.837891 120.69922 C 23.783201 120.70922 23.712891 120.72997 23.650391 120.79297 C 23.444481 120.99887 22.231784 122.06017 21.806641 123.54297 L 22.744141 123.54297 C 22.994063 122.13547 23.695764 121.24757 23.900391 121.04297 C 24.087891 120.85547 24.001953 120.67572 23.837891 120.69922 z M 33.101562 120.85156 C 32.976562 120.85156 32.914062 121.03906 33.039062 121.41406 C 33.246513 122.03646 33.603359 123.53446 33.726562 125.16406 L 34.726562 125.16406 C 34.487998 123.52966 33.747032 122.03796 33.539062 121.41406 C 33.414062 121.03906 33.226562 120.85156 33.101562 120.85156 z M 38.476562 120.85156 C 38.351562 120.85156 38.164062 121.03906 38.039062 121.41406 C 37.831092 122.03796 37.090126 123.52966 36.851562 125.16406 L 37.851562 125.16406 C 37.974765 123.53446 38.331612 122.03646 38.539062 121.41406 C 38.664062 121.03906 38.601562 120.85156 38.476562 120.85156 z M 108.04102 121.15625 C 107.91602 121.15625 107.79102 121.34375 107.79102 121.71875 C 107.79102 122.34875 107.62873 124.20285 107.57227 125.96875 L 108.50977 125.96875 C 108.45331 124.20285 108.29102 122.34875 108.29102 121.71875 C 108.29102 121.34375 108.16602 121.15625 108.04102 121.15625 z M 105.35352 121.65625 C 105.22852 121.65625 105.16602 121.84375 105.29102 122.21875 C 105.49847 122.84115 105.85532 124.33915 105.97852 125.96875 L 106.97852 125.96875 C 106.73996 124.33435 105.99899 122.84265 105.79102 122.21875 C 105.66602 121.84375 105.47852 121.65625 105.35352 121.65625 z M 110.72852 121.65625 C 110.60352 121.65625 110.41602 121.84375 110.29102 122.21875 C 110.08305 122.84265 109.34208 124.33435 109.10352 125.96875 L 110.10352 125.96875 C 110.22672 124.33915 110.58357 122.84115 110.79102 122.21875 C 110.91602 121.84375 110.85352 121.65625 110.72852 121.65625 z M 72.292969 122.14258 C 72.167969 122.14258 72.042969 122.33008 72.042969 122.70508 C 72.042969 123.33508 71.880675 125.18918 71.824219 126.95508 L 72.761719 126.95508 C 72.705263 125.18918 72.542969 123.33508 72.542969 122.70508 C 72.542969 122.33008 72.417969 122.14258 72.292969 122.14258 z M 31.101562 122.32031 C 30.9375 122.29631 30.851562 122.47656 31.039062 122.66406 C 31.24369 122.86866 31.94539 123.75656 32.195312 125.16406 L 33.132812 125.16406 C 32.70767 123.68126 31.494974 122.61996 31.289062 122.41406 C 31.226562 122.35206 31.15625 122.32831 31.101562 122.32031 z M 40.476562 122.32031 C 40.421872 122.33031 40.351562 122.35302 40.289062 122.41602 C 40.083152 122.62192 38.870455 123.68322 38.445312 125.16602 L 39.382812 125.16602 C 39.632734 123.75852 40.334435 122.87062 40.539062 122.66602 C 40.726562 122.47852 40.640625 122.29877 40.476562 122.32227 L 40.476562 122.32031 z M 52.207031 122.49414 C 52.082031 122.49414 51.957031 122.68164 51.957031 123.05664 C 51.957031 123.68664 51.794737 125.54074 51.738281 127.30664 L 52.675781 127.30664 C 52.619325 125.54074 52.457031 123.68664 52.457031 123.05664 C 52.457031 122.68164 52.332031 122.49414 52.207031 122.49414 z M 69.605469 122.64258 C 69.480469 122.64258 69.417969 122.83008 69.542969 123.20508 C 69.750419 123.82748 70.107266 125.32548 70.230469 126.95508 L 71.230469 126.95508 C 70.991905 125.32068 70.250939 123.82898 70.042969 123.20508 C 69.917969 122.83008 69.730469 122.64258 69.605469 122.64258 z M 74.980469 122.64258 C 74.855469 122.64258 74.667969 122.83008 74.542969 123.20508 C 74.334999 123.82898 73.594033 125.32068 73.355469 126.95508 L 74.355469 126.95508 C 74.478672 125.32548 74.835519 123.82748 75.042969 123.20508 C 75.167969 122.83008 75.105469 122.64258 74.980469 122.64258 z M 49.519531 122.99414 C 49.394531 122.99414 49.332031 123.18164 49.457031 123.55664 C 49.664481 124.17904 50.021328 125.67704 50.144531 127.30664 L 51.144531 127.30664 C 50.905967 125.67224 50.165001 124.18054 49.957031 123.55664 C 49.832031 123.18164 49.644531 122.99414 49.519531 122.99414 z M 54.894531 122.99414 C 54.769531 122.99414 54.582031 123.18164 54.457031 123.55664 C 54.249061 124.18054 53.508095 125.67224 53.269531 127.30664 L 54.269531 127.30664 C 54.392734 125.67704 54.749581 124.17904 54.957031 123.55664 C 55.082031 123.18164 55.019531 122.99414 54.894531 122.99414 z M 103.35352 123.125 C 103.18946 123.101 103.10352 123.28125 103.29102 123.46875 C 103.49565 123.67335 104.19735 124.56125 104.44727 125.96875 L 105.38477 125.96875 C 104.95963 124.48595 103.74693 123.42465 103.54102 123.21875 C 103.47852 123.15675 103.40821 123.133 103.35352 123.125 z M 112.72852 123.125 C 112.67383 123.135 112.60352 123.15575 112.54102 123.21875 C 112.33511 123.42465 111.12241 124.48595 110.69727 125.96875 L 111.63477 125.96875 C 111.88469 124.56125 112.58639 123.67335 112.79102 123.46875 C 112.97852 123.28125 112.89258 123.1015 112.72852 123.125 z M 67.605469 124.11133 C 67.441406 124.08733 67.355469 124.26758 67.542969 124.45508 C 67.747596 124.65968 68.449297 125.54758 68.699219 126.95508 L 69.636719 126.95508 C 69.211576 125.47228 67.998879 124.41098 67.792969 124.20508 C 67.730469 124.14308 67.660156 124.11933 67.605469 124.11133 z M 76.980469 124.11133 C 76.925779 124.12133 76.855469 124.14208 76.792969 124.20508 C 76.587059 124.41098 75.374362 125.47228 74.949219 126.95508 L 75.886719 126.95508 C 76.136641 125.54758 76.838342 124.65968 77.042969 124.45508 C 77.230469 124.26758 77.144531 124.08783 76.980469 124.11133 z M 127.8125 124.24219 C 127.6875 124.24219 127.5625 124.42969 127.5625 124.80469 C 127.5625 125.30444 127.46885 126.61475 127.39844 128 L 128 128 L 128 124.43164 C 127.9519 124.31006 127.88367 124.24219 127.8125 124.24219 z M 0 124.43164 L 0 128 L 0.2265625 128 C 0.15615472 126.61475 0.0625 125.30444 0.0625 124.80469 C 0.0625 124.64321 0.036374142 124.52358 0 124.43164 z M 47.519531 124.46289 C 47.355468 124.43889 47.269531 124.61914 47.457031 124.80664 C 47.661658 125.01124 48.363359 125.89914 48.613281 127.30664 L 49.550781 127.30664 C 49.125638 125.82384 47.912941 124.76254 47.707031 124.55664 C 47.644531 124.49464 47.574218 124.47089 47.519531 124.46289 z M 56.894531 124.46289 C 56.839841 124.47289 56.769531 124.49559 56.707031 124.55859 C 56.501121 124.76449 55.288424 125.82579 54.863281 127.30859 L 55.800781 127.30859 C 56.050703 125.90109 56.752404 125.01319 56.957031 124.80859 C 57.144531 124.62109 57.058593 124.44134 56.894531 124.46484 L 56.894531 124.46289 z M 2.5 124.74219 C 2.375 124.74219 2.1875 124.92969 2.0625 125.30469 C 1.9007034 125.79007 1.4229641 126.80557 1.1035156 128 L 1.9921875 128 C 2.1540703 126.807 2.4011917 125.78865 2.5625 125.30469 C 2.6875 124.92969 2.625 124.74219 2.5 124.74219 z M 125.125 124.74219 C 125 124.74219 124.9375 124.92969 125.0625 125.30469 C 125.22381 125.78865 125.47093 126.807 125.63281 128 L 126.52148 128 C 126.20204 126.80557 125.7243 125.79007 125.5625 125.30469 C 125.4375 124.92969 125.25 124.74219 125.125 124.74219 z M 4.5 126.21094 C 4.44531 126.22094 4.375 126.24169 4.3125 126.30469 C 4.159876 126.4573 3.4559179 127.08416 2.9277344 128 L 3.7089844 128 C 4.0169745 127.21176 4.4158547 126.70131 4.5625 126.55469 C 4.75 126.36719 4.664062 126.18744 4.5 126.21094 z M 123.125 126.21094 C 122.96094 126.18694 122.875 126.36719 123.0625 126.55469 C 123.20915 126.70131 123.60803 127.21176 123.91602 128 L 124.69727 128 C 124.16908 127.08416 123.46512 126.4573 123.3125 126.30469 C 123.25 126.24269 123.17969 126.21894 123.125 126.21094 z " id="path820" />
</svg>
