<?xml version="1.0" encoding="UTF-8" standalone="no"?>
<!-- Created with Inkscape (http://www.inkscape.org/) -->

<svg xmlns:dc="http://purl.org/dc/elements/1.1/" xmlns:cc="http://creativecommons.org/ns#" xmlns:rdf="http://www.w3.org/1999/02/22-rdf-syntax-ns#" xmlns:svg="http://www.w3.org/2000/svg" xmlns="http://www.w3.org/2000/svg" xmlns:sodipodi="http://sodipodi.sourceforge.net/DTD/sodipodi-0.dtd" xmlns:inkscape="http://www.inkscape.org/namespaces/inkscape" version="1.1" width="14" height="14" viewBox="0 0 14 14" id="svg918" sodipodi:docname="firestation.svg" inkscape:version="0.92.3 (2405546, 2018-03-11)">
  <metadata id="metadata924">
    <rdf:RDF>
      <cc:Work rdf:about="">
        <dc:format>image/svg+xml</dc:format>
        <dc:type rdf:resource="http://purl.org/dc/dcmitype/StillImage" />
        <dc:title></dc:title>
      </cc:Work>
    </rdf:RDF>
  </metadata>
  <defs id="defs922" />
  <sodipodi:namedview pagecolor="#ffffff" bordercolor="#666666" borderopacity="1" objecttolerance="10" gridtolerance="10" guidetolerance="10" inkscape:pageopacity="0" inkscape:pageshadow="2" inkscape:window-width="1881" inkscape:window-height="1051" id="namedview920" showgrid="false" inkscape:pagecheckerboard="true" inkscape:zoom="16.857143" inkscape:cx="7" inkscape:cy="7" inkscape:window-x="0" inkscape:window-y="0" inkscape:window-maximized="1" inkscape:current-layer="svg918" />
  <path id="outline" d="M 7,0 C 3.424161,1.2414283 2,5 2,8 C 2,11 3.744933,13.259763 6,14 C 4,10.741416 4,8 7,6 C 6.495078,7.352818 7,10 8,11 C 8.431455,10.599243 9,9.575273 9,9 C 11,11 9.562898,12.633261 9,14 C 10.08818,13.440898 12,12 12,9 C 12,6 10,5 10,2 C 8.616484,2.5992431 8,4 8,5 C 7.047939,4.4434404 6,2.2464256 7,0 Z" style="opacity:0.5;fill:none;stroke:#ffffff;stroke-width:3;stroke-linecap:round;stroke-linejoin:round;stroke-miterlimit:4;stroke-dasharray:none;stroke-opacity:1" inkscape:connector-curvature="0" />
  <path d="M 7,0 C 3.424161,1.2414283 2,5 2,8 2,11 3.744933,13.259763 6,14 4,10.741416 4,8 7,6 6.495078,7.352818 7,10 8,11 8.431455,10.599243 9,9.575273 9,9 c 2,2 0.562898,3.633261 0,5 1.08818,-0.559102 3,-2 3,-5 C 12,6 10,5 10,2 8.616484,2.5992431 8,4 8,5 7.047939,4.4434404 6,2.2464256 7,0 z" id="fire-station" />
</svg>
