<?xml version="1.0" encoding="UTF-8" standalone="no"?>
<svg width="14" height="14" version="1.1" id="svg890" sodipodi:docname="fixme.svg" inkscape:version="1.1.2 (0a00cf5339, 2022-02-04)" xmlns:inkscape="http://www.inkscape.org/namespaces/inkscape" xmlns:sodipodi="http://sodipodi.sourceforge.net/DTD/sodipodi-0.dtd" xmlns="http://www.w3.org/2000/svg" xmlns:svg="http://www.w3.org/2000/svg">
  <defs id="defs894" />
  <sodipodi:namedview id="namedview892" pagecolor="#ffffff" bordercolor="#666666" borderopacity="1.0" inkscape:pageshadow="2" inkscape:pageopacity="0.0" inkscape:pagecheckerboard="true" showgrid="false" inkscape:zoom="59.785714" inkscape:cx="5.8542413" inkscape:cy="7.0501792" inkscape:window-width="1883" inkscape:window-height="1062" inkscape:window-x="0" inkscape:window-y="0" inkscape:window-maximized="1" inkscape:current-layer="svg890" />
  <path d="M5.675 3.075q.933-.422 1.671-.422.997 0 1.54.448.543.449.543 1.324 0 .907-1.176 1.882-.511.422-.627.565-.11.137-.18.337-.068.2-.068.501V8h-.722v-.3q0-.918.585-1.43l.696-.611q.337-.285.496-.575.158-.295.158-.628 0-.548-.348-.838-.348-.295-.95-.295-.543 0-1.37.39zm1.434 5.953q.28 0 .47.19.19.19.19.47 0 .284-.196.49-.19.2-.464.2-.269 0-.459-.2-.19-.206-.19-.49 0-.285.185-.47.19-.19.464-.19z" color="#000" fill="red" id="path4471" style="stroke-width:2;stroke-miterlimit:4;stroke-dasharray:none;stroke:#ffffff;stroke-opacity:0.50094932;stroke-linejoin:round;stroke-linecap:round" />
  <path d="M5.675 3.075q.933-.422 1.671-.422.997 0 1.54.448.543.449.543 1.324 0 .907-1.176 1.882-.511.422-.627.565-.11.137-.18.337-.068.2-.068.501V8h-.722v-.3q0-.918.585-1.43l.696-.611q.337-.285.496-.575.158-.295.158-.628 0-.548-.348-.838-.348-.295-.95-.295-.543 0-1.37.39zm1.434 5.953q.28 0 .47.19.19.19.19.47 0 .284-.196.49-.19.2-.464.2-.269 0-.459-.2-.19-.206-.19-.49 0-.285.185-.47.19-.19.464-.19z" color="#000" fill="red" id="path888" />
</svg>
