<svg xmlns="http://www.w3.org/2000/svg" width="14" height="14">
 <g transform="translate(-187.1 -49.85)">
  <path d="m214.1 184.2c-8.254-1.967-13.12-11.66-7.49-18.66 5.765-6.101-2.125-10.54-3.152-16.49 1.124-5.35-0.4458-19.85 8.316-16.29 3.58 5.199-3.085 12.59 0.4394 17.73 2.757 6.98 10.37 9.104 16.17 12.85 5.879 3.147 13.33 1.322 17.78-3.568 2.605-4.25 12.1-5.351 9.138 1.587-5.066 4.889-10.84 11.11-18.49 10.81-8.501-2.552-9.573 7.505-15.35 11.04-2.164 1.462-4.892 1.596-7.366 0.9882zm47.28-26.8 34.57-7.691c0.4801-2.473-16.11-21.57-25.89-31.03-20.06-18.82-45.13-32.99-72.47-37.5 1.444 15.26 6.057 30.39 9.425 44.41l-4.206 1.422c-2.569-10.76-9.08-36.08-11.64-46.84-6.912-5.881-3.79-16.55 0.4382-23.1 5.247-8.112 15.54-7.989 23.95-6.33 29.51 4.36 56.42 19.83 78.49 39.43 12.66 11.61 24.47 25.79 28.05 43 2.192 8.54-5.18 14.9-11.58 19-7.03 4.051-5.729 0.5286-13.4 2.591-35.03 6.235 0 0-35.03 6.235l-0.7155-3.6zm-33.79 0.6621c-9.467-0.8367-10.76-15.99-1.451-18.35 8.352-2.858 15.88 7.855 10.42 14.69-2.068 2.671-5.609 4.192-8.969 3.664z" stroke-width=".2646"/>
 </g>
</svg>
