<svg width="14" height="14" version="1.1" xmlns="http://www.w3.org/2000/svg">
 <path d="m3.395 12.94c-0.7316-0.1743-1.163-1.034-0.6639-1.654 0.511-0.5408-0.1884-0.9342-0.2794-1.462 0.09963-0.4742-0.03951-1.759 0.7371-1.444 0.3173 0.4608-0.2734 1.116 0.03895 1.572 0.2444 0.6187 0.9192 0.807 1.433 1.139 0.5211 0.2789 1.182 0.1172 1.576-0.3163 0.2309-0.3767 1.073-0.4743 0.81 0.1407-0.449 0.4333-0.9608 0.9848-1.639 0.9582-0.7535-0.2262-0.8485 0.6652-1.361 0.9786-0.1918 0.1296-0.4336 0.1415-0.6529 0.08759zm4.191-2.375 3.064-0.6817c0.04256-0.2192-1.428-1.912-2.295-2.75-1.778-1.668-4-2.924-6.424-3.324 0.128 1.353 0.5369 2.694 0.8354 3.936l-0.3728 0.126c-0.2277-0.9537-0.8048-3.198-1.032-4.152-0.6127-0.5213-0.3359-1.467 0.03884-2.048 0.4651-0.719 1.377-0.7081 2.123-0.5611 2.616 0.3865 5.001 1.758 6.957 3.495 1.122 1.029 2.169 2.286 2.486 3.811 0.1943 0.757-0.4591 1.321-1.026 1.684-0.6231 0.3591-0.5078 0.04686-1.188 0.2297-3.105 0.5527 0 0-3.105 0.5527l-0.06342-0.3191zm-2.995 0.05869c-0.8391-0.07417-0.9537-1.417-0.1286-1.626 0.7403-0.2533 1.408 0.6962 0.9236 1.302-0.1833 0.2367-0.4972 0.3716-0.795 0.3248z" fill="none" opacity=".5" stroke="#fff" stroke-width="3.012"/>
 <path d="m3.392 12.94c-0.7316-0.1743-1.163-1.034-0.6639-1.654 0.511-0.5408-0.1884-0.9342-0.2794-1.462 0.09963-0.4742-0.03951-1.759 0.7371-1.444 0.3173 0.4608-0.2734 1.116 0.03895 1.572 0.2444 0.6187 0.9192 0.807 1.433 1.139 0.5211 0.2789 1.182 0.1172 1.576-0.3163 0.2309-0.3767 1.073-0.4743 0.81 0.1407-0.449 0.4333-0.9608 0.9848-1.639 0.9582-0.7535-0.2262-0.8485 0.6652-1.361 0.9786-0.1918 0.1296-0.4336 0.1415-0.6529 0.08759zm4.191-2.375 3.064-0.6817c0.04256-0.2192-1.428-1.912-2.295-2.75-1.778-1.668-4-2.924-6.424-3.324 0.128 1.353 0.5369 2.694 0.8354 3.936l-0.3728 0.126c-0.2277-0.9537-0.8048-3.198-1.032-4.152-0.6127-0.5213-0.3359-1.467 0.03884-2.048 0.4651-0.719 1.377-0.7081 2.123-0.5611 2.616 0.3865 5.001 1.758 6.957 3.495 1.122 1.029 2.169 2.286 2.486 3.811 0.1943 0.757-0.4591 1.321-1.026 1.684-0.6231 0.3591-0.5078 0.04686-1.188 0.2297-3.105 0.5527 0 0-3.105 0.5527l-0.06342-0.3191zm-2.995 0.05869c-0.8391-0.07417-0.9537-1.417-0.1286-1.626 0.7403-0.2533 1.408 0.6962 0.9236 1.302-0.1833 0.2367-0.4972 0.3716-0.795 0.3248z" stroke-width="0"/>
</svg>
