<svg width="20" height="20" xmlns="http://www.w3.org/2000/svg">
  <path d="m10.256 1.25-.7 1.017c-.173.24-.131.444.122.617.24.146.444.106.617-.12l.4-.597 6.228 4.087-5.09.916a.733.733 0 0 0-.45.29.518.518 0 0 0-.088.486l1.097 4.286-3.595 5.362a.762.762 0 0 0-.1.378c0 .213.078.397.23.55a.75.75 0 0 0 .55.228c.28 0 .506-.132.679-.397l3.753-5.643.2.778-.558 4.226a.775.775 0 0 0 .639.878c.213.04.41-.005.589-.13a.704.704 0 0 0 .308-.51l.58-4.325a1.376 1.376 0 0 0-.041-.458l-1.278-5.082 3.337-.6a.605.605 0 0 0 .42-.267.655.655 0 0 0 .119-.489.755.755 0 0 0-.3-.439zm-8.488.4v16.748h1.125V6.4L8.45 4.145 2.893 2.08v-.43zm9.824 2.548c-.36 0-.664.123-.917.37a1.22 1.22 0 0 0-.38.908c0 .358.127.66.38.905.253.246.558.37.917.37.36 0 .671-.124.93-.37.26-.246.39-.547.39-.905 0-.36-.13-.663-.39-.909a1.309 1.309 0 0 0-.93-.37Z" style="fill:none;stroke:#fff;stroke-opacity:.5;stroke-linecap:round;stroke-linejoin:round;stroke-width:3;stroke-miterlimit:4;stroke-dasharray:none" />
  <path d="m10.256 1.25-.7 1.017c-.173.24-.131.444.122.617.24.146.444.106.617-.12l.4-.597 6.228 4.087-5.09.916a.733.733 0 0 0-.45.29.518.518 0 0 0-.088.486l1.097 4.286-3.595 5.362a.762.762 0 0 0-.1.378c0 .213.078.397.23.55a.75.75 0 0 0 .55.228c.28 0 .506-.132.679-.397l3.753-5.643.2.778-.558 4.226a.775.775 0 0 0 .639.878c.213.04.41-.005.589-.13a.704.704 0 0 0 .308-.51l.58-4.325a1.376 1.376 0 0 0-.041-.458l-1.278-5.082 3.337-.6a.605.605 0 0 0 .42-.267.655.655 0 0 0 .119-.489.755.755 0 0 0-.3-.439zm-8.488.4v16.748h1.125V6.4L8.45 4.145 2.893 2.08v-.43zm9.824 2.548c-.36 0-.664.123-.917.37a1.22 1.22 0 0 0-.38.908c0 .358.127.66.38.905.253.246.558.37.917.37.36 0 .671-.124.93-.37.26-.246.39-.547.39-.905 0-.36-.13-.663-.39-.909a1.309 1.309 0 0 0-.93-.37Z" />
</svg>
