<?xml version="1.0" encoding="UTF-8" standalone="no"?>
<!-- Generator: Adobe Illustrator 18.0.0, SVG Export Plug-In . SVG Version: 6.00 Build 0)  -->

<svg xmlns:dc="http://purl.org/dc/elements/1.1/" xmlns:cc="http://creativecommons.org/ns#" xmlns:rdf="http://www.w3.org/1999/02/22-rdf-syntax-ns#" xmlns:svg="http://www.w3.org/2000/svg" xmlns="http://www.w3.org/2000/svg" xmlns:sodipodi="http://sodipodi.sourceforge.net/DTD/sodipodi-0.dtd" xmlns:inkscape="http://www.inkscape.org/namespaces/inkscape" version="1.1" id="Capa_1" x="0px" y="0px" viewBox="0 0 299.99999 299.99999" xml:space="preserve" sodipodi:docname="grapes.svg" width="300" height="300" inkscape:version="0.92.4 (5da689c313, 2019-01-14)"><metadata id="metadata963"><rdf:RDF><cc:Work rdf:about=""><dc:format>image/svg+xml</dc:format><dc:type rdf:resource="http://purl.org/dc/dcmitype/StillImage" /><dc:title></dc:title></cc:Work></rdf:RDF></metadata><defs id="defs961" /><sodipodi:namedview pagecolor="#ffffff" bordercolor="#666666" borderopacity="1" objecttolerance="10" gridtolerance="10" guidetolerance="10" inkscape:pageopacity="0" inkscape:pageshadow="2" inkscape:window-width="1881" inkscape:window-height="1056" id="namedview959" showgrid="false" inkscape:zoom="23.24776" inkscape:cx="37.662036" inkscape:cy="211.40513" inkscape:window-x="0" inkscape:window-y="0" inkscape:window-maximized="1" inkscape:current-layer="Capa_1" />
<g id="g926" transform="matrix(0.04828263,0,0,0.04828263,8.8631995,76.336114)" style="stroke-width:20.71138">
	<path d="M 157.635,40.869 C 146.528,40.869 136.621,46.09 130.223,54.201 C 125.207,47.844 118.038,43.26 109.817,41.576 C 106.502,18.115 86.299,0.004 61.936,0 H 61.934 C 57.793,0 54.436,3.357 54.434,7.5 C 54.434,11.642 57.791,15 61.934,15 C 78.098,15.002 91.612,26.557 94.657,41.838 C 86.915,43.697 80.173,48.139 75.389,54.201 C 68.99,46.09 59.082,40.869 47.973,40.869 C 28.723,40.869 13.061,56.531 13.061,75.783 C 13.061,93.31 26.043,107.857 42.895,110.326 C 41.338,114.279 40.473,118.58 40.473,123.08 C 40.473,140.559 53.387,155.078 70.176,157.601 C 68.534,161.648 67.619,166.066 67.619,170.695 C 67.619,189.949 83.281,205.613 102.531,205.613 C 121.785,205.613 137.449,189.949 137.449,170.695 C 137.449,166.091 136.545,161.697 134.918,157.668 C 151.955,155.367 165.135,140.738 165.135,123.08 C 165.135,118.58 164.27,114.279 162.713,110.326 C 179.568,107.859 192.553,93.31 192.553,75.783 C 192.553,56.531 176.889,40.869 157.635,40.869 Z M 102.803,55.869 C 113.789,55.869 122.725,64.803 122.725,75.783 C 122.725,82.478 119.395,88.396 114.313,92.009 C 113.243,92.56 112.204,93.163 111.2,93.818 C 108.643,95.011 105.805,95.699 102.803,95.699 C 99.803,95.699 96.967,95.013 94.412,93.818 C 93.408,93.164 92.369,92.56 91.299,92.009 C 86.219,88.398 82.889,82.478 82.889,75.783 C 82.889,64.803 91.822,55.869 102.803,55.869 Z M 28.06,75.783 C 28.06,64.802 36.994,55.869 47.972,55.869 C 58.954,55.869 67.888,64.803 67.888,75.783 C 67.888,82.478 64.558,88.398 59.478,92.009 C 58.408,92.56 57.369,93.163 56.365,93.818 C 53.81,95.011 50.974,95.699 47.972,95.699 C 36.994,95.699 28.06,86.766 28.06,75.783 Z M 55.473,123.08 C 55.473,116.383 58.805,110.459 63.885,106.846 C 64.957,106.295 65.996,105.692 67,105.037 C 69.553,103.844 72.389,103.158 75.389,103.158 C 78.389,103.158 81.225,103.843 83.778,105.037 C 84.782,105.691 85.821,106.295 86.891,106.846 C 91.973,110.459 95.303,116.383 95.303,123.08 C 95.303,134.06 86.369,142.992 75.389,142.992 C 64.408,142.992 55.473,134.061 55.473,123.08 Z M 102.531,190.613 C 91.552,190.613 82.619,181.677 82.619,170.695 C 82.619,159.713 91.553,150.779 102.531,150.779 C 113.513,150.779 122.449,159.713 122.449,170.695 C 122.449,181.678 113.514,190.613 102.531,190.613 Z M 130.225,142.992 C 119.241,142.992 110.303,134.06 110.303,123.08 C 110.303,116.383 113.635,110.461 118.717,106.848 C 119.789,106.297 120.828,105.694 121.832,105.037 C 124.387,103.844 127.225,103.158 130.225,103.158 C 133.223,103.158 136.059,103.843 138.612,105.037 C 139.616,105.691 140.655,106.295 141.725,106.846 C 146.805,110.461 150.135,116.383 150.135,123.08 C 150.135,134.061 141.203,142.992 130.225,142.992 Z M 157.635,95.699 C 154.635,95.699 151.801,95.013 149.246,93.82 C 148.242,93.164 147.203,92.56 146.133,92.009 C 141.055,88.398 137.725,82.478 137.725,75.783 C 137.725,64.802 146.657,55.869 157.635,55.869 C 168.617,55.869 177.553,64.803 177.553,75.783 C 177.553,86.766 168.617,95.699 157.635,95.699 Z" id="path924" inkscape:connector-curvature="0" style="stroke-width:20.71138" />
</g>
<g id="g928" transform="translate(0,94.386993)">
</g>
<g id="g930" transform="translate(0,94.386993)">
</g>
<g id="g932" transform="translate(0,94.386993)">
</g>
<g id="g934" transform="translate(0,94.386993)">
</g>
<g id="g936" transform="translate(0,94.386993)">
</g>
<g id="g938" transform="translate(0,94.386993)">
</g>
<g id="g940" transform="translate(0,94.386993)">
</g>
<g id="g942" transform="translate(0,94.386993)">
</g>
<g id="g944" transform="translate(0,94.386993)">
</g>
<g id="g946" transform="translate(0,94.386993)">
</g>
<g id="g948" transform="translate(0,94.386993)">
</g>
<g id="g950" transform="translate(0,94.386993)">
</g>
<g id="g952" transform="translate(0,94.386993)">
</g>
<g id="g954" transform="translate(0,94.386993)">
</g>
<g id="g956" transform="translate(0,94.386993)">
</g>
<g style="stroke-width:20.71138" transform="matrix(0.04828263,0,0,0.04828263,26.789315,76.336114)" id="g971">
	<path style="stroke-width:20.71138" inkscape:connector-curvature="0" id="path969" d="M 157.635,40.869 C 146.528,40.869 136.621,46.09 130.223,54.201 C 125.207,47.844 118.038,43.26 109.817,41.576 C 106.502,18.115 86.299,0.004 61.936,0 H 61.934 C 57.793,0 54.436,3.357 54.434,7.5 C 54.434,11.642 57.791,15 61.934,15 C 78.098,15.002 91.612,26.557 94.657,41.838 C 86.915,43.697 80.173,48.139 75.389,54.201 C 68.99,46.09 59.082,40.869 47.973,40.869 C 28.723,40.869 13.061,56.531 13.061,75.783 C 13.061,93.31 26.043,107.857 42.895,110.326 C 41.338,114.279 40.473,118.58 40.473,123.08 C 40.473,140.559 53.387,155.078 70.176,157.601 C 68.534,161.648 67.619,166.066 67.619,170.695 C 67.619,189.949 83.281,205.613 102.531,205.613 C 121.785,205.613 137.449,189.949 137.449,170.695 C 137.449,166.091 136.545,161.697 134.918,157.668 C 151.955,155.367 165.135,140.738 165.135,123.08 C 165.135,118.58 164.27,114.279 162.713,110.326 C 179.568,107.859 192.553,93.31 192.553,75.783 C 192.553,56.531 176.889,40.869 157.635,40.869 Z M 102.803,55.869 C 113.789,55.869 122.725,64.803 122.725,75.783 C 122.725,82.478 119.395,88.396 114.313,92.009 C 113.243,92.56 112.204,93.163 111.2,93.818 C 108.643,95.011 105.805,95.699 102.803,95.699 C 99.803,95.699 96.967,95.013 94.412,93.818 C 93.408,93.164 92.369,92.56 91.299,92.009 C 86.219,88.398 82.889,82.478 82.889,75.783 C 82.889,64.803 91.822,55.869 102.803,55.869 Z M 28.06,75.783 C 28.06,64.802 36.994,55.869 47.972,55.869 C 58.954,55.869 67.888,64.803 67.888,75.783 C 67.888,82.478 64.558,88.398 59.478,92.009 C 58.408,92.56 57.369,93.163 56.365,93.818 C 53.81,95.011 50.974,95.699 47.972,95.699 C 36.994,95.699 28.06,86.766 28.06,75.783 Z M 55.473,123.08 C 55.473,116.383 58.805,110.459 63.885,106.846 C 64.957,106.295 65.996,105.692 67,105.037 C 69.553,103.844 72.389,103.158 75.389,103.158 C 78.389,103.158 81.225,103.843 83.778,105.037 C 84.782,105.691 85.821,106.295 86.891,106.846 C 91.973,110.459 95.303,116.383 95.303,123.08 C 95.303,134.06 86.369,142.992 75.389,142.992 C 64.408,142.992 55.473,134.061 55.473,123.08 Z M 102.531,190.613 C 91.552,190.613 82.619,181.677 82.619,170.695 C 82.619,159.713 91.553,150.779 102.531,150.779 C 113.513,150.779 122.449,159.713 122.449,170.695 C 122.449,181.678 113.514,190.613 102.531,190.613 Z M 130.225,142.992 C 119.241,142.992 110.303,134.06 110.303,123.08 C 110.303,116.383 113.635,110.461 118.717,106.848 C 119.789,106.297 120.828,105.694 121.832,105.037 C 124.387,103.844 127.225,103.158 130.225,103.158 C 133.223,103.158 136.059,103.843 138.612,105.037 C 139.616,105.691 140.655,106.295 141.725,106.846 C 146.805,110.461 150.135,116.383 150.135,123.08 C 150.135,134.061 141.203,142.992 130.225,142.992 Z M 157.635,95.699 C 154.635,95.699 151.801,95.013 149.246,93.82 C 148.242,93.164 147.203,92.56 146.133,92.009 C 141.055,88.398 137.725,82.478 137.725,75.783 C 137.725,64.802 146.657,55.869 157.635,55.869 C 168.617,55.869 177.553,64.803 177.553,75.783 C 177.553,86.766 168.617,95.699 157.635,95.699 Z" />
</g><g style="stroke-width:20.71138" transform="matrix(0.04828263,0,0,0.04828263,17.67411,91.5491)" id="g975">
	<path style="stroke-width:20.71138" inkscape:connector-curvature="0" id="path973" d="M 157.635,40.869 C 146.528,40.869 136.621,46.09 130.223,54.201 C 125.207,47.844 118.038,43.26 109.817,41.576 C 106.502,18.115 86.299,0.004 61.936,0 H 61.934 C 57.793,0 54.436,3.357 54.434,7.5 C 54.434,11.642 57.791,15 61.934,15 C 78.098,15.002 91.612,26.557 94.657,41.838 C 86.915,43.697 80.173,48.139 75.389,54.201 C 68.99,46.09 59.082,40.869 47.973,40.869 C 28.723,40.869 13.061,56.531 13.061,75.783 C 13.061,93.31 26.043,107.857 42.895,110.326 C 41.338,114.279 40.473,118.58 40.473,123.08 C 40.473,140.559 53.387,155.078 70.176,157.601 C 68.534,161.648 67.619,166.066 67.619,170.695 C 67.619,189.949 83.281,205.613 102.531,205.613 C 121.785,205.613 137.449,189.949 137.449,170.695 C 137.449,166.091 136.545,161.697 134.918,157.668 C 151.955,155.367 165.135,140.738 165.135,123.08 C 165.135,118.58 164.27,114.279 162.713,110.326 C 179.568,107.859 192.553,93.31 192.553,75.783 C 192.553,56.531 176.889,40.869 157.635,40.869 Z M 102.803,55.869 C 113.789,55.869 122.725,64.803 122.725,75.783 C 122.725,82.478 119.395,88.396 114.313,92.009 C 113.243,92.56 112.204,93.163 111.2,93.818 C 108.643,95.011 105.805,95.699 102.803,95.699 C 99.803,95.699 96.967,95.013 94.412,93.818 C 93.408,93.164 92.369,92.56 91.299,92.009 C 86.219,88.398 82.889,82.478 82.889,75.783 C 82.889,64.803 91.822,55.869 102.803,55.869 Z M 28.06,75.783 C 28.06,64.802 36.994,55.869 47.972,55.869 C 58.954,55.869 67.888,64.803 67.888,75.783 C 67.888,82.478 64.558,88.398 59.478,92.009 C 58.408,92.56 57.369,93.163 56.365,93.818 C 53.81,95.011 50.974,95.699 47.972,95.699 C 36.994,95.699 28.06,86.766 28.06,75.783 Z M 55.473,123.08 C 55.473,116.383 58.805,110.459 63.885,106.846 C 64.957,106.295 65.996,105.692 67,105.037 C 69.553,103.844 72.389,103.158 75.389,103.158 C 78.389,103.158 81.225,103.843 83.778,105.037 C 84.782,105.691 85.821,106.295 86.891,106.846 C 91.973,110.459 95.303,116.383 95.303,123.08 C 95.303,134.06 86.369,142.992 75.389,142.992 C 64.408,142.992 55.473,134.061 55.473,123.08 Z M 102.531,190.613 C 91.552,190.613 82.619,181.677 82.619,170.695 C 82.619,159.713 91.553,150.779 102.531,150.779 C 113.513,150.779 122.449,159.713 122.449,170.695 C 122.449,181.678 113.514,190.613 102.531,190.613 Z M 130.225,142.992 C 119.241,142.992 110.303,134.06 110.303,123.08 C 110.303,116.383 113.635,110.461 118.717,106.848 C 119.789,106.297 120.828,105.694 121.832,105.037 C 124.387,103.844 127.225,103.158 130.225,103.158 C 133.223,103.158 136.059,103.843 138.612,105.037 C 139.616,105.691 140.655,106.295 141.725,106.846 C 146.805,110.461 150.135,116.383 150.135,123.08 C 150.135,134.061 141.203,142.992 130.225,142.992 Z M 157.635,95.699 C 154.635,95.699 151.801,95.013 149.246,93.82 C 148.242,93.164 147.203,92.56 146.133,92.009 C 141.055,88.398 137.725,82.478 137.725,75.783 C 137.725,64.802 146.657,55.869 157.635,55.869 C 168.617,55.869 177.553,64.803 177.553,75.783 C 177.553,86.766 168.617,95.699 157.635,95.699 Z" />
</g><g id="g979" transform="matrix(0.04828263,0,0,0.04828263,36.420697,91.5491)" style="stroke-width:20.71138">
	<path d="M 157.635,40.869 C 146.528,40.869 136.621,46.09 130.223,54.201 C 125.207,47.844 118.038,43.26 109.817,41.576 C 106.502,18.115 86.299,0.004 61.936,0 H 61.934 C 57.793,0 54.436,3.357 54.434,7.5 C 54.434,11.642 57.791,15 61.934,15 C 78.098,15.002 91.612,26.557 94.657,41.838 C 86.915,43.697 80.173,48.139 75.389,54.201 C 68.99,46.09 59.082,40.869 47.973,40.869 C 28.723,40.869 13.061,56.531 13.061,75.783 C 13.061,93.31 26.043,107.857 42.895,110.326 C 41.338,114.279 40.473,118.58 40.473,123.08 C 40.473,140.559 53.387,155.078 70.176,157.601 C 68.534,161.648 67.619,166.066 67.619,170.695 C 67.619,189.949 83.281,205.613 102.531,205.613 C 121.785,205.613 137.449,189.949 137.449,170.695 C 137.449,166.091 136.545,161.697 134.918,157.668 C 151.955,155.367 165.135,140.738 165.135,123.08 C 165.135,118.58 164.27,114.279 162.713,110.326 C 179.568,107.859 192.553,93.31 192.553,75.783 C 192.553,56.531 176.889,40.869 157.635,40.869 Z M 102.803,55.869 C 113.789,55.869 122.725,64.803 122.725,75.783 C 122.725,82.478 119.395,88.396 114.313,92.009 C 113.243,92.56 112.204,93.163 111.2,93.818 C 108.643,95.011 105.805,95.699 102.803,95.699 C 99.803,95.699 96.967,95.013 94.412,93.818 C 93.408,93.164 92.369,92.56 91.299,92.009 C 86.219,88.398 82.889,82.478 82.889,75.783 C 82.889,64.803 91.822,55.869 102.803,55.869 Z M 28.06,75.783 C 28.06,64.802 36.994,55.869 47.972,55.869 C 58.954,55.869 67.888,64.803 67.888,75.783 C 67.888,82.478 64.558,88.398 59.478,92.009 C 58.408,92.56 57.369,93.163 56.365,93.818 C 53.81,95.011 50.974,95.699 47.972,95.699 C 36.994,95.699 28.06,86.766 28.06,75.783 Z M 55.473,123.08 C 55.473,116.383 58.805,110.459 63.885,106.846 C 64.957,106.295 65.996,105.692 67,105.037 C 69.553,103.844 72.389,103.158 75.389,103.158 C 78.389,103.158 81.225,103.843 83.778,105.037 C 84.782,105.691 85.821,106.295 86.891,106.846 C 91.973,110.459 95.303,116.383 95.303,123.08 C 95.303,134.06 86.369,142.992 75.389,142.992 C 64.408,142.992 55.473,134.061 55.473,123.08 Z M 102.531,190.613 C 91.552,190.613 82.619,181.677 82.619,170.695 C 82.619,159.713 91.553,150.779 102.531,150.779 C 113.513,150.779 122.449,159.713 122.449,170.695 C 122.449,181.678 113.514,190.613 102.531,190.613 Z M 130.225,142.992 C 119.241,142.992 110.303,134.06 110.303,123.08 C 110.303,116.383 113.635,110.461 118.717,106.848 C 119.789,106.297 120.828,105.694 121.832,105.037 C 124.387,103.844 127.225,103.158 130.225,103.158 C 133.223,103.158 136.059,103.843 138.612,105.037 C 139.616,105.691 140.655,106.295 141.725,106.846 C 146.805,110.461 150.135,116.383 150.135,123.08 C 150.135,134.061 141.203,142.992 130.225,142.992 Z M 157.635,95.699 C 154.635,95.699 151.801,95.013 149.246,93.82 C 148.242,93.164 147.203,92.56 146.133,92.009 C 141.055,88.398 137.725,82.478 137.725,75.783 C 137.725,64.802 146.657,55.869 157.635,55.869 C 168.617,55.869 177.553,64.803 177.553,75.783 C 177.553,86.766 168.617,95.699 157.635,95.699 Z" id="path977" inkscape:connector-curvature="0" style="stroke-width:20.71138" />
</g><rect style="opacity:1;fill:none;fill-opacity:0.13513513;fill-rule:nonzero;stroke:none;stroke-width:0.03779528;stroke-linecap:round;stroke-linejoin:round;stroke-miterlimit:4;stroke-dasharray:none;stroke-dashoffset:0;stroke-opacity:1;paint-order:normal" id="rect981" width="36.315113" height="31.838369" x="9.4632816" y="73.56958" /></svg>