<?xml version="1.0" encoding="UTF-8" standalone="no"?>
<svg xmlns:dc="http://purl.org/dc/elements/1.1/" xmlns:cc="http://creativecommons.org/ns#" xmlns:rdf="http://www.w3.org/1999/02/22-rdf-syntax-ns#" xmlns:svg="http://www.w3.org/2000/svg" xmlns="http://www.w3.org/2000/svg" xmlns:sodipodi="http://sodipodi.sourceforge.net/DTD/sodipodi-0.dtd" xmlns:inkscape="http://www.inkscape.org/namespaces/inkscape" width="14" height="14" version="1.1" viewBox="0 0 3.7042 3.7042" id="svg958" sodipodi:docname="hospital.svg" inkscape:version="0.92.3 (2405546, 2018-03-11)">
  <metadata id="metadata964">
    <rdf:RDF>
      <cc:Work rdf:about="">
        <dc:format>image/svg+xml</dc:format>
        <dc:type rdf:resource="http://purl.org/dc/dcmitype/StillImage" />
      </cc:Work>
    </rdf:RDF>
  </metadata>
  <defs id="defs962" />
  <sodipodi:namedview pagecolor="#ffffff" bordercolor="#666666" borderopacity="1" objecttolerance="10" gridtolerance="10" guidetolerance="10" inkscape:pageopacity="0" inkscape:pageshadow="2" inkscape:window-width="1881" inkscape:window-height="1058" id="namedview960" showgrid="false" inkscape:zoom="23.8396" inkscape:cx="6.3918742" inkscape:cy="6.6524996" inkscape:window-x="0" inkscape:window-y="0" inkscape:window-maximized="1" inkscape:current-layer="svg958" />
  <g id="g7064" transform="translate(0 -293.3)" style="stroke:#fcfcfc;stroke-opacity:0.50196081;stroke-width:0.52917143;stroke-miterlimit:4;stroke-dasharray:none">
    <path id="path7062" fill="#000000" d="m7 0a7 7 0 0 0-7 7 7 7 0 0 0 7 7 7 7 0 0 0 7-7 7 7 0 0 0-7-7zm-1 3h2v3h3v2h-3v3h-2v-3h-3v-2h3v-3z" transform="matrix(.26458 0 0 .26458 0 293.3)" style="stroke:#fcfcfc;stroke-opacity:0.50196081;stroke-width:2.0000432;stroke-miterlimit:4;stroke-dasharray:none" />
  </g>
  <g transform="translate(0 -293.3)" id="g956">
    <path transform="matrix(.26458 0 0 .26458 0 293.3)" d="m7 0a7 7 0 0 0-7 7 7 7 0 0 0 7 7 7 7 0 0 0 7-7 7 7 0 0 0-7-7zm-1 3h2v3h3v2h-3v3h-2v-3h-3v-2h3v-3z" fill="#000000" id="path954" />
  </g>
</svg>
