<?xml version="1.0" encoding="UTF-8" standalone="no"?>
<!-- Created with Inkscape (http://www.inkscape.org/) -->

<svg version="1.0" width="14" height="14" id="svg2" sodipodi:version="0.32" inkscape:version="1.1.2 (0a00cf5339, 2022-02-04)" sodipodi:docname="kindergarten.svg" inkscape:output_extension="org.inkscape.output.svg.inkscape" xmlns:inkscape="http://www.inkscape.org/namespaces/inkscape" xmlns:sodipodi="http://sodipodi.sourceforge.net/DTD/sodipodi-0.dtd" xmlns="http://www.w3.org/2000/svg" xmlns:svg="http://www.w3.org/2000/svg" xmlns:rdf="http://www.w3.org/1999/02/22-rdf-syntax-ns#" xmlns:cc="http://creativecommons.org/ns#" xmlns:dc="http://purl.org/dc/elements/1.1/">
  <defs id="defs22">
    <inkscape:perspective sodipodi:type="inkscape:persp3d" inkscape:vp_x="0 : -276 : 1" inkscape:vp_y="0 : 1000 : 0" inkscape:vp_z="580 : -276 : 1" inkscape:persp3d-origin="290 : -372.66667 : 1" id="perspective24" />
    <marker viewBox="0 0 10 10" refY="5" refX="10" orient="auto" markerWidth="4" markerUnits="strokeWidth" markerHeight="3" id="ArrowStart">
      <path id="path3568" d="M 10,0 L 0,5 L 10,10 Z" />
    </marker>
    <marker viewBox="0 0 10 10" refY="5" refX="0" orient="auto" markerWidth="4" markerUnits="strokeWidth" markerHeight="3" id="ArrowEnd">
      <path id="path3565" d="M 0,0 L 10,5 L 0,10 Z" />
    </marker>
    <inkscape:perspective id="perspective2683" inkscape:persp3d-origin="306.082 : -361.60966 : 1" inkscape:vp_z="612.164 : -259.41449 : 1" inkscape:vp_y="0 : 1000 : 0" inkscape:vp_x="0 : -259.41449 : 1" sodipodi:type="inkscape:persp3d" />
    <marker viewBox="0 0 10 10" refY="5" refX="10" orient="auto" markerWidth="4" markerUnits="strokeWidth" markerHeight="3" id="marker2959">
      <path id="path2626" d="M 10,0 L 0,5 L 10,10 Z" />
    </marker>
    <marker viewBox="0 0 10 10" refY="5" refX="0" orient="auto" markerWidth="4" markerUnits="strokeWidth" markerHeight="3" id="marker2956">
      <path id="path2623" d="M 0,0 L 10,5 L 0,10 Z" />
    </marker>
    <inkscape:perspective id="perspective2953" inkscape:persp3d-origin="306.082 : -361.60966 : 1" inkscape:vp_z="612.164 : -259.41449 : 1" inkscape:vp_y="0 : 1000 : 0" inkscape:vp_x="0 : -259.41449 : 1" sodipodi:type="inkscape:persp3d" />
  </defs>
  <metadata id="metadata10">
    <rdf:RDF>
      <cc:Work rdf:about="">
        <dc:format>image/svg+xml</dc:format>
        <dc:type rdf:resource="http://purl.org/dc/dcmitype/StillImage" />
        <cc:license rdf:resource="http://web.resource.org/cc/PublicDomain" />
        <dc:language>en</dc:language>
      </cc:Work>
    </rdf:RDF>
  </metadata>
  <sodipodi:namedview inkscape:window-height="1062" inkscape:window-width="1883" inkscape:pageshadow="2" inkscape:pageopacity="0.0" guidetolerance="10.0" gridtolerance="10.0" objecttolerance="10.0" borderopacity="1.0" bordercolor="#666666" pagecolor="#ffffff" id="base" showgrid="false" inkscape:zoom="11.313708" inkscape:cx="-7.6897863" inkscape:cy="26.914252" inkscape:window-x="0" inkscape:window-y="0" inkscape:current-layer="svg2" inkscape:pagecheckerboard="0" inkscape:window-maximized="1" />
  <path id="path52548" style="fill:none;fill-opacity:1;stroke:#ffffff;stroke-width:3;stroke-opacity:0.5;stroke-miterlimit:4;stroke-dasharray:none;stroke-linecap:round;stroke-linejoin:round" d="M 7 0 C 5.9078701 0 5.0234375 0.8863858 5.0234375 1.9785156 C 5.0234375 3.0706124 5.9078701 3.9550781 7 3.9550781 C 8.0920968 3.9550781 8.9785156 3.0706124 8.9785156 1.9785156 C 8.9785156 0.88638579 8.0920968 -1.4802974e-16 7 0 z M 5.7988281 4.2597656 C 5.4259413 4.2597656 5.191257 4.3962022 4.9765625 4.609375 L 2.3300781 7.2617188 C 1.606667 7.9852291 2.5863735 8.9116733 3.3085938 8.1894531 L 4.90625 6.5800781 L 4.90625 8.0878906 L 6.9960938 8.0878906 L 6.9980469 8.0878906 L 9.0742188 8.0878906 L 9.0742188 6.5703125 L 10.714844 8.2148438 C 11.375435 8.9106325 12.382069 7.9758188 11.693359 7.2871094 L 9.0195312 4.609375 C 8.7985845 4.3920671 8.546715 4.2597656 8.1738281 4.2597656 L 6.9980469 4.2597656 L 6.9960938 4.2597656 L 5.7988281 4.2597656 z M 4.90625 8.8710938 C 4.90625 8.8710938 3.5698149 10.209483 3.5683594 10.210938 C 3.1383089 10.640989 3.2492527 11.397299 3.6503906 11.806641 L 5.5195312 13.75 C 6.2408583 14.471327 7.2033683 13.472966 6.5058594 12.775391 L 5.3242188 11.59375 L 6.4785156 10.443359 L 4.90625 8.8710938 z M 9.0664062 8.8710938 L 7.4941406 10.443359 L 8.6484375 11.59375 L 7.4667969 12.775391 C 6.769288 13.472966 7.731798 14.471327 8.453125 13.75 L 10.322266 11.806641 C 10.723404 11.397299 10.834348 10.640989 10.404297 10.210938 C 10.402842 10.209483 9.0664062 8.8710938 9.0664062 8.8710938 z " />
  <path id="path2636" style="fill:#000000;fill-opacity:1;stroke:none;stroke-width:0.0330808" d="M 7 0 C 5.9078701 0 5.0234375 0.8863858 5.0234375 1.9785156 C 5.0234375 3.0706124 5.9078701 3.9550781 7 3.9550781 C 8.0920968 3.9550781 8.9785156 3.0706124 8.9785156 1.9785156 C 8.9785156 0.88638579 8.0920968 -1.4802974e-16 7 0 z M 5.7988281 4.2597656 C 5.4259413 4.2597656 5.191257 4.3962022 4.9765625 4.609375 L 2.3300781 7.2617188 C 1.606667 7.9852291 2.5863735 8.9116733 3.3085938 8.1894531 L 4.90625 6.5800781 L 4.90625 8.0878906 L 6.9960938 8.0878906 L 6.9980469 8.0878906 L 9.0742188 8.0878906 L 9.0742188 6.5703125 L 10.714844 8.2148438 C 11.375435 8.9106325 12.382069 7.9758188 11.693359 7.2871094 L 9.0195312 4.609375 C 8.7985845 4.3920671 8.546715 4.2597656 8.1738281 4.2597656 L 6.9980469 4.2597656 L 6.9960938 4.2597656 L 5.7988281 4.2597656 z M 4.90625 8.8710938 C 4.90625 8.8710938 3.5698149 10.209483 3.5683594 10.210938 C 3.1383089 10.640989 3.2492527 11.397299 3.6503906 11.806641 L 5.5195312 13.75 C 6.2408583 14.471327 7.2033683 13.472966 6.5058594 12.775391 L 5.3242188 11.59375 L 6.4785156 10.443359 L 4.90625 8.8710938 z M 9.0664062 8.8710938 L 7.4941406 10.443359 L 8.6484375 11.59375 L 7.4667969 12.775391 C 6.769288 13.472966 7.731798 14.471327 8.453125 13.75 L 10.322266 11.806641 C 10.723404 11.397299 10.834348 10.640989 10.404297 10.210938 C 10.402842 10.209483 9.0664062 8.8710938 9.0664062 8.8710938 z " />
</svg>
