<svg width="5000px" height="5000px" xmlns="http://www.w3.org/2000/svg">
 <path d="m4035 12793c-1250.5-112.37-2279.2-1160.1-2527.7-2365.6-348.46-1001.2-974.92-1876.3-1379.9-2847.9-268.93-1034.5-29.049-2106.6-47.058-3157.6 55.018-899.17 81.675-1813.6 273.4-2693.3 345.31-688.2 1075.4-1039.3 1677.5-1463.6 863.79-458.21 1859.9-211.72 2779.2-138.45 1010.7 108.27 1958.3 485.85 2935.4 736.97 680.46 191.01 1317.6 638.03 1555.5 1328.6 436.17 964.21 767.74 2148.5 267.93 3151.5-473.71 840.35-1293.9 1506-1442.2 2509.6-192.17 1143.1-678.52 2208.1-1099.6 3280.8-143.56 475.22-428.1 888.96-866 1136.9-539.03 317.36-1151.1 630.65-1795.7 527.5-110.06-6.35-220.44-10.81-330.65-5.263z"/>
</svg>
