<?xml version="1.0" encoding="UTF-8" standalone="no"?>
<svg width="32" height="32" version="1.0" id="svg43359" sodipodi:docname="lean_to.svg" inkscape:version="1.2.2 (b0a8486541, 2022-12-01)" xmlns:inkscape="http://www.inkscape.org/namespaces/inkscape" xmlns:sodipodi="http://sodipodi.sourceforge.net/DTD/sodipodi-0.dtd" xmlns="http://www.w3.org/2000/svg" xmlns:svg="http://www.w3.org/2000/svg">
  <defs id="defs43363" />
  <sodipodi:namedview id="namedview43361" pagecolor="#ffffff" bordercolor="#666666" borderopacity="1.0" inkscape:showpageshadow="2" inkscape:pageopacity="0.0" inkscape:pagecheckerboard="0" inkscape:deskcolor="#d1d1d1" showgrid="false" inkscape:zoom="14.75" inkscape:cx="7.2881356" inkscape:cy="9.7288136" inkscape:window-width="1863" inkscape:window-height="1056" inkscape:window-x="0" inkscape:window-y="0" inkscape:window-maximized="1" inkscape:current-layer="svg43359" />
  <path d="M 2.9334307,8.1414293e-4 A 0.30039869,0.30039869 0 0 0 2.7485005,0.08921976 L 0.6339824,2.2028358 A 0.30039869,0.30039869 0 0 0 0.6339824,2.627724 A 0.30039869,0.30039869 0 0 0 1.0579686,2.627724 L 3.1742909,0.5132059 A 0.30039869,0.30039869 0 0 0 3.1742909,0.08921976 A 0.30039869,0.30039869 0 0 0 2.9785356,8.1414293e-4 A 0.30039869,0.30039869 0 0 0 2.9343327,8.1414293e-4 Z M 5.8932147,8.1414293e-4 A 0.30039869,0.30039869 0 0 0 5.7082846,0.08921976 L 4.4399346,1.3575698 A 0.30039869,0.30039869 0 0 0 4.4399346,1.7815559 A 0.30039869,0.30039869 0 0 0 4.8639207,1.7815559 L 6.134075,0.514108 A 0.30039869,0.30039869 0 0 0 6.134075,0.09012186 A 0.30039869,0.30039869 0 0 0 5.9383197,0.00171624 A 0.30039869,0.30039869 0 0 0 5.8941168,0.00171624 Z M 9.6991665,8.1414293e-4 A 0.30039869,0.30039869 0 0 0 9.5142363,0.08921976 L 7.8228027,1.7806538 A 0.30039869,0.30039869 0 0 0 7.8228027,2.20464 A 0.30039869,0.30039869 0 0 0 8.2467889,2.20464 L 9.9391246,0.5132059 A 0.30039869,0.30039869 0 0 0 9.9391246,0.08921976 A 0.30039869,0.30039869 0 0 0 9.7433693,8.1414293e-4 A 0.30039869,0.30039869 0 0 0 9.6991665,8.1414293e-4 Z M 13.082035,8.1414293e-4 A 0.30039869,0.30039869 0 0 0 12.897104,0.08921976 L 11.627852,1.3575698 A 0.30039869,0.30039869 0 0 0 11.627852,1.7815559 A 0.30039869,0.30039869 0 0 0 12.051839,1.7815559 L 13.321091,0.5132059 A 0.30039869,0.30039869 0 0 0 13.321091,0.08921976 A 0.30039869,0.30039869 0 0 0 13.125335,8.1414293e-4 A 0.30039869,0.30039869 0 0 0 13.081133,8.1414293e-4 Z M 3.6082001,3.2727242 A 0.90209817,0.90209817 0 0 0 2.9704167,3.537039 L 0.26412215,6.2433335 A 0.90209817,0.90209817 0 0 0 0.90190555,7.7832151 H 1.8608359 V 14.94407 H 3.5513679 V 7.7832151 H 9.9228868 V 15 H 11.727083 V 7.7832151 H 12.629181 A 0.90209817,0.90209817 0 0 0 13.266965,6.2433335 L 10.56067,3.537039 A 0.90209817,0.90209817 0 0 0 9.9228868,3.2727242 Z" color="#000000" fill="#000305" id="path43482" style="stroke-width:3;fill:none;fill-opacity:1;stroke:#ffffff;stroke-opacity:0.5;stroke-dasharray:none;stroke-linejoin:round;stroke-linecap:round" />
  <path d="M 2.9334307,8.1414293e-4 A 0.30039869,0.30039869 0 0 0 2.7485005,0.08921976 L 0.6339824,2.2028358 A 0.30039869,0.30039869 0 0 0 0.6339824,2.627724 A 0.30039869,0.30039869 0 0 0 1.0579686,2.627724 L 3.1742909,0.5132059 A 0.30039869,0.30039869 0 0 0 3.1742909,0.08921976 A 0.30039869,0.30039869 0 0 0 2.9785356,8.1414293e-4 A 0.30039869,0.30039869 0 0 0 2.9343327,8.1414293e-4 Z M 5.8932147,8.1414293e-4 A 0.30039869,0.30039869 0 0 0 5.7082846,0.08921976 L 4.4399346,1.3575698 A 0.30039869,0.30039869 0 0 0 4.4399346,1.7815559 A 0.30039869,0.30039869 0 0 0 4.8639207,1.7815559 L 6.134075,0.514108 A 0.30039869,0.30039869 0 0 0 6.134075,0.09012186 A 0.30039869,0.30039869 0 0 0 5.9383197,0.00171624 A 0.30039869,0.30039869 0 0 0 5.8941168,0.00171624 Z M 9.6991665,8.1414293e-4 A 0.30039869,0.30039869 0 0 0 9.5142363,0.08921976 L 7.8228027,1.7806538 A 0.30039869,0.30039869 0 0 0 7.8228027,2.20464 A 0.30039869,0.30039869 0 0 0 8.2467889,2.20464 L 9.9391246,0.5132059 A 0.30039869,0.30039869 0 0 0 9.9391246,0.08921976 A 0.30039869,0.30039869 0 0 0 9.7433693,8.1414293e-4 A 0.30039869,0.30039869 0 0 0 9.6991665,8.1414293e-4 Z M 13.082035,8.1414293e-4 A 0.30039869,0.30039869 0 0 0 12.897104,0.08921976 L 11.627852,1.3575698 A 0.30039869,0.30039869 0 0 0 11.627852,1.7815559 A 0.30039869,0.30039869 0 0 0 12.051839,1.7815559 L 13.321091,0.5132059 A 0.30039869,0.30039869 0 0 0 13.321091,0.08921976 A 0.30039869,0.30039869 0 0 0 13.125335,8.1414293e-4 A 0.30039869,0.30039869 0 0 0 13.081133,8.1414293e-4 Z M 3.6082001,3.2727242 A 0.90209817,0.90209817 0 0 0 2.9704167,3.537039 L 0.26412215,6.2433335 A 0.90209817,0.90209817 0 0 0 0.90190555,7.7832151 H 1.8608359 V 14.94407 H 3.5513679 V 7.7832151 H 9.9228868 V 15 H 11.727083 V 7.7832151 H 12.629181 A 0.90209817,0.90209817 0 0 0 13.266965,6.2433335 L 10.56067,3.537039 A 0.90209817,0.90209817 0 0 0 9.9228868,3.2727242 Z" color="#000000" fill="#000305" id="path43357" style="stroke-width:1" />
</svg>
