<svg width="14" height="14" xmlns="http://www.w3.org/2000/svg">
  <path
    d="M9 7h1v1H9ZM4 7h1v1H4Zm3-.072-1 .996V13h2V8ZM9 8v5h5V8Zm2 1h2v2h-2ZM0 8v5h5V8Zm1 1h2v2H1Zm6-8L1 4 0 7h5l2-2 2 2h5l-1-3Z"
    style="opacity:1;fill:none;fill-opacity:1;fill-rule:nonzero;stroke:#fdfdfd;stroke-opacity:.5;stroke-width:3;stroke-miterlimit:4;stroke-dasharray:none;stroke-linejoin:round;stroke-linecap:round" />
  <path
    d="M9 7h1v1H9ZM4 7h1v1H4Zm3-.072-1 .996V13h2V8ZM9 8v5h5V8Zm2 1h2v2h-2ZM0 8v5h5V8Zm1 1h2v2H1Zm6-8L1 4 0 7h5l2-2 2 2h5l-1-3Z"
    style="opacity:1;fill:#000;fill-opacity:1;fill-rule:nonzero;stroke:none;stroke-opacity:1" />
</svg>
