<?xml version="1.0" encoding="UTF-8" standalone="no"?>
<!-- Created with Inkscape (http://www.inkscape.org/) -->

<svg xmlns:dc="http://purl.org/dc/elements/1.1/" xmlns:cc="http://creativecommons.org/ns#" xmlns:rdf="http://www.w3.org/1999/02/22-rdf-syntax-ns#" xmlns:svg="http://www.w3.org/2000/svg" xmlns="http://www.w3.org/2000/svg" xmlns:xlink="http://www.w3.org/1999/xlink" xmlns:sodipodi="http://sodipodi.sourceforge.net/DTD/sodipodi-0.dtd" xmlns:inkscape="http://www.inkscape.org/namespaces/inkscape" version="1.0" width="580" height="580" id="svg2" sodipodi:version="0.32" inkscape:version="0.92.3 (2405546, 2018-03-11)" sodipodi:docname="mine.svg" inkscape:output_extension="org.inkscape.output.svg.inkscape">
  <metadata id="metadata10">
    <rdf:RDF>
      <cc:Work rdf:about="">
        <dc:format>image/svg+xml</dc:format>
        <dc:type rdf:resource="http://purl.org/dc/dcmitype/StillImage" />
        <cc:license rdf:resource="http://web.resource.org/cc/PublicDomain" />
        <dc:language>en</dc:language>
        <dc:title></dc:title>
      </cc:Work>
    </rdf:RDF>
  </metadata>
  <sodipodi:namedview inkscape:window-height="1058" inkscape:window-width="1881" inkscape:pageshadow="2" inkscape:pageopacity="0.0" guidetolerance="10.0" gridtolerance="10.0" objecttolerance="10.0" borderopacity="1.0" bordercolor="#666666" pagecolor="#ffffff" id="base" showgrid="true" inkscape:zoom="22.627417" inkscape:cx="533.49946" inkscape:cy="50.456306" inkscape:window-x="0" inkscape:window-y="0" inkscape:current-layer="svg2" showguides="true" inkscape:guide-bbox="true" inkscape:window-maximized="1" inkscape:pagecheckerboard="true">
    <inkscape:grid type="xygrid" id="grid1619" spacingy="1" units="px" spacingx="1" />
  </sodipodi:namedview>
  <defs id="defs4">
    <inkscape:perspective sodipodi:type="inkscape:persp3d" inkscape:vp_x="0 : 290 : 1" inkscape:vp_y="0 : 1000 : 0" inkscape:vp_z="580 : 290 : 1" inkscape:persp3d-origin="290 : 193.33333 : 1" id="perspective12" />
    <style type="text/css" id="style6">
   
    .fil0 {fill:#EF7900}
   
  </style>
    <inkscape:perspective id="perspective6807" inkscape:persp3d-origin="29.116032 : 19.410688 : 1" inkscape:vp_z="58.232063 : 29.116032 : 1" inkscape:vp_y="0 : 1000 : 0" inkscape:vp_x="0 : 29.116032 : 1" sodipodi:type="inkscape:persp3d" />
    <inkscape:perspective id="perspective6954" inkscape:persp3d-origin="290 : 193.33333 : 1" inkscape:vp_z="580 : 290 : 1" inkscape:vp_y="0 : 1000 : 0" inkscape:vp_x="0 : 290 : 1" sodipodi:type="inkscape:persp3d" />
    <inkscape:perspective id="perspective2541" inkscape:persp3d-origin="240 : 160 : 1" inkscape:vp_z="480 : 240 : 1" inkscape:vp_y="0 : 1000 : 0" inkscape:vp_x="0 : 240 : 1" sodipodi:type="inkscape:persp3d" />
    <inkscape:perspective id="perspective2750" inkscape:persp3d-origin="215 : 143.33333 : 1" inkscape:vp_z="430 : 215 : 1" inkscape:vp_y="0 : 1000 : 0" inkscape:vp_x="0 : 215 : 1" sodipodi:type="inkscape:persp3d" />
  </defs>
  <path sodipodi:type="inkscape:offset" inkscape:radius="1.0056057" inkscape:original="M 543.5918 520.04883 L 543.5918 520.05078 C 543.5415 520.04978 543.49227 520.06555 543.45117 520.09375 C 542.62245 520.67483 541.76473 521.23291 541.01367 521.96875 C 541.01278 521.96962 541.01177 521.97066 541.00977 521.97266 C 540.30374 522.68889 539.84706 523.57086 539.29688 524.32422 C 539.21988 524.42972 539.24411 524.57732 539.34961 524.6543 L 540.59766 525.56641 C 540.70499 525.64471 540.85596 525.61887 540.93164 525.50977 L 542.1875 523.69922 L 544.65234 526.17969 C 544.65234 526.17969 543.1975 527.75617 542.00391 529.0293 C 541.58052 529.4809 541.18922 529.89403 540.9082 530.18555 C 540.8182 530.28175 540.82518 530.43272 540.92188 530.52148 L 541.48438 531.0332 C 541.58168 531.1219 541.73277 531.11472 541.82031 531.01562 C 543.00304 529.68574 545.42578 526.95898 545.42578 526.95898 C 545.42578 526.95898 548.19198 529.73994 549.35742 530.91211 C 549.45032 531.00551 549.60306 531.00601 549.69531 530.91211 L 550.22656 530.36914 C 550.31876 530.27524 550.31766 530.12234 550.22266 530.03125 C 548.88874 528.75562 546.1582 526.13867 546.1582 526.13867 L 548.38672 523.64648 L 549.13477 524.31836 L 551.13477 525.37305 C 551.37446 525.49775 551.60285 525.18743 551.41211 524.99609 C 551.41011 524.99509 551.41602 525.001 551.41602 525 C 551.40902 524.9872 551.39491 524.96449 551.37891 524.93359 C 551.34661 524.87179 551.30425 524.78143 551.25391 524.67383 C 551.15322 524.45863 551.02495 524.1734 550.89648 523.88672 C 550.76813 523.60003 550.63917 523.3117 550.53125 523.08398 C 550.47735 522.97007 550.42839 522.87102 550.38672 522.79297 C 550.36582 522.75397 550.34753 522.72013 550.32812 522.68945 C 550.30893 522.65895 550.29815 522.6355 550.24805 522.5918 C 550.08531 522.44919 549.88872 522.27331 549.69531 522.09961 L 549.9375 521.86328 C 550.0375 521.76588 550.03093 521.60382 549.92383 521.51367 L 549.59766 521.23828 C 549.50446 521.15948 549.36643 521.1653 549.2793 521.25 L 549.03125 521.49414 C 548.51188 521.01421 547.99738 520.52064 547.66406 520.16016 C 547.62066 520.11316 547.5601 520.08568 547.49609 520.08398 C 547.43679 520.08298 547.3786 520.10338 547.33398 520.14258 L 546.11328 521.21289 C 546.01016 521.30339 546.00655 521.46215 546.10352 521.55859 L 547.58984 523.02539 C 546.80465 523.87622 545.38086 525.39648 545.38086 525.39648 L 542.875 522.99609 L 544.6582 521.70703 C 544.7659 521.62933 544.78927 521.47883 544.70898 521.37305 L 543.77539 520.14258 C 543.73169 520.08518 543.66403 520.05023 543.5918 520.04883 z " xlink:href="#path1617" style="color:#000000;font-style:normal;font-variant:normal;font-weight:normal;font-stretch:normal;font-size:medium;line-height:normal;font-family:sans-serif;font-variant-ligatures:normal;font-variant-position:normal;font-variant-caps:normal;font-variant-numeric:normal;font-variant-alternates:normal;font-feature-settings:normal;text-indent:0;text-align:start;text-decoration:none;text-decoration-line:none;text-decoration-style:solid;text-decoration-color:#000000;letter-spacing:normal;word-spacing:normal;text-transform:none;writing-mode:lr-tb;direction:ltr;text-orientation:mixed;dominant-baseline:auto;baseline-shift:baseline;text-anchor:start;white-space:normal;shape-padding:0;clip-rule:nonzero;display:inline;overflow:visible;visibility:visible;opacity:0.5;isolation:auto;mix-blend-mode:normal;color-interpolation:sRGB;color-interpolation-filters:linearRGB;solid-color:#000000;solid-opacity:1;vector-effect:none;fill:#fffdfd;fill-opacity:1;fill-rule:nonzero;stroke:none;stroke-width:0.47281894;stroke-linecap:round;stroke-linejoin:round;stroke-miterlimit:4;stroke-dasharray:none;stroke-dashoffset:0;stroke-opacity:1;color-rendering:auto;image-rendering:auto;shape-rendering:auto;text-rendering:auto;enable-background:accumulate" id="path1627" inkscape:href="#path1617" d="m 543.61133,519.04297 a 1.0057063,1.0057063 0 0 0 -0.58789,0.17773 c -0.043,0.0228 -0.10085,0.0157 -0.14063,0.043 a 1.0057063,1.0057063 0 0 0 -0.01,0.006 c -0.80948,0.56759 -1.71962,1.15467 -2.5625,1.98047 c -0.0154,0.0151 -0.0133,0.0133 -0.0117,0.0117 a 1.0057063,1.0057063 0 0 0 -0.006,0.006 c -0.84358,0.85576 -1.32257,1.79737 -1.80859,2.46289 c -0.39954,0.54741 -0.26727,1.34179 0.27343,1.73633 l 1.2461,0.91211 a 1.0057063,1.0057063 0 0 0 0.002,0 c 0.55515,0.40499 1.36168,0.26574 1.75195,-0.29688 l 0.56641,-0.81836 l 0.93359,0.93945 c -0.46283,0.5006 -1.09408,1.18489 -1.98828,2.13868 c -0.42124,0.4493 -0.81067,0.86093 -1.08594,1.14648 a 1.0057063,1.0057063 0 0 0 -0.01,0.01 c -0.46631,0.49843 -0.42907,1.30709 0.0684,1.76367 a 1.0057063,1.0057063 0 0 0 0.004,0.004 l 0.5625,0.51172 c 0.49978,0.45357 1.31222,0.41494 1.76368,-0.0937 l 0.002,-0.002 c 0.95044,-1.0687 2.24057,-2.52207 2.89258,-3.25586 c 0.72761,0.73151 2.23593,2.24808 3.17773,3.19531 c 0.48028,0.48287 1.28519,0.48712 1.76758,-0.004 a 1.0057063,1.0057063 0 0 0 0.002,-0.002 l 0.5293,-0.54101 l 0.002,-0.002 c 0.47544,-0.48635 0.46997,-1.29074 -0.0273,-1.76758 c -1.10284,-1.05465 -2.68519,-2.57089 -3.36328,-3.22071 l 0.91015,-1.01562 a 1.0057063,1.0057063 0 0 0 0.20118,0.13867 l 2,1.05469 a 1.0057063,1.0057063 0 0 0 0.004,0.004 c 0.53884,0.28034 1.26235,0.0566 1.57422,-0.36718 c 0.25391,-0.34506 0.22943,-0.87946 0.006,-1.31055 a 1.0057063,1.0057063 0 0 0 0.0488,-0.0703 c -0.0397,-0.0726 -0.0298,-0.0517 -0.0273,-0.0469 a 1.0057063,1.0057063 0 0 0 -0.002,-0.002 c -0.0131,-0.025 -0.0553,-0.1135 -0.10547,-0.2207 c -0.0949,-0.20277 -0.22177,-0.48622 -0.34961,-0.77149 v -0.002 c -0.128,-0.28593 -0.25939,-0.57638 -0.375,-0.82031 c -0.0582,-0.123 -0.112,-0.23281 -0.16601,-0.33399 a 1.0057063,1.0057063 0 0 0 0,-0.002 c -0.0216,-0.0403 -0.0494,-0.0937 -0.0937,-0.16406 l -0.002,-0.002 c 0.0112,0.0179 -0.13003,-0.18094 -0.2539,-0.29882 c 0.0552,-0.41055 -0.0198,-0.82729 -0.35156,-1.10743 l -0.32618,-0.27539 c -0.29996,-0.25361 -0.67544,-0.28222 -1.03906,-0.20703 c -0.293,-0.28084 -0.62413,-0.59184 -0.80469,-0.78711 v 0.002 c -0.22717,-0.24602 -0.54421,-0.39151 -0.8789,-0.4004 a 1.0057063,1.0057063 0 0 0 -0.01,0 c -0.30092,-0.005 -0.60341,0.0975 -0.84375,0.3086 l -1.21875,1.07031 a 1.0057063,1.0057063 0 0 0 -0.002,0 c -0.0424,0.0372 -0.0305,0.10084 -0.0664,0.14258 l -0.80664,-1.06445 a 1.0057063,1.0057063 0 0 0 0,-0.002 c -0.22756,-0.2989 -0.58057,-0.48278 -0.96484,-0.49023 z m 1.78515,3.23047 l 0.79102,0.78125 c -0.37702,0.4049 -0.58171,0.62571 -0.84766,0.91015 l -0.89843,-0.86132 l 0.80468,-0.58008 c 0.0837,-0.0604 0.0867,-0.17286 0.15039,-0.25 z" />
  <path style="color:#000000;font-style:normal;font-variant:normal;font-weight:normal;font-stretch:normal;font-size:medium;line-height:normal;font-family:sans-serif;font-variant-ligatures:normal;font-variant-position:normal;font-variant-caps:normal;font-variant-numeric:normal;font-variant-alternates:normal;font-feature-settings:normal;text-indent:0;text-align:start;text-decoration:none;text-decoration-line:none;text-decoration-style:solid;text-decoration-color:#000000;letter-spacing:normal;word-spacing:normal;text-transform:none;writing-mode:lr-tb;direction:ltr;text-orientation:mixed;dominant-baseline:auto;baseline-shift:baseline;text-anchor:start;white-space:normal;shape-padding:0;clip-rule:nonzero;display:inline;overflow:visible;visibility:visible;opacity:1;isolation:auto;mix-blend-mode:normal;color-interpolation:sRGB;color-interpolation-filters:linearRGB;solid-color:#000000;solid-opacity:1;vector-effect:none;fill:#000000;fill-opacity:1;fill-rule:nonzero;stroke:none;stroke-width:0.47281894;stroke-linecap:round;stroke-linejoin:round;stroke-miterlimit:4;stroke-dasharray:none;stroke-dashoffset:0;stroke-opacity:1;color-rendering:auto;image-rendering:auto;shape-rendering:auto;text-rendering:auto;enable-background:accumulate" d="m 543.59276,520.0502 c -0.0503,-10e-4 -0.0997,0.0146 -0.1408,0.0428 c -0.82872,0.58108 -1.68787,1.13947 -2.43893,1.87531 c -8.9e-4,8.7e-4 -0.002,0.002 -0.004,0.004 c -0.70603,0.71623 -1.16142,1.59869 -1.71161,2.35205 c -0.077,0.1055 -0.0539,0.25343 0.0516,0.33041 l 1.24882,0.91086 c 0.10733,0.0783 0.25787,0.0528 0.33355,-0.0563 l 1.25575,-1.80931 l 2.46518,2.47938 c 0,0 -1.45495,1.57603 -2.64854,2.84916 c -0.42339,0.4516 -0.8139,0.86508 -1.09492,1.1566 c -0.09,0.0962 -0.0839,0.24739 0.0128,0.33615 l 0.56221,0.51271 c 0.0973,0.0887 0.24842,0.0808 0.33596,-0.0183 c 1.18273,-1.32988 3.60609,-4.05742 3.60609,-4.05742 c 0,0 2.7667,2.78181 3.93214,3.95398 c 0.0929,0.0934 0.24414,0.0929 0.33639,-10e-4 l 0.53296,-0.5431 c 0.0922,-0.0939 0.09,-0.24524 -0.005,-0.33633 c -1.33392,-1.27563 -4.06495,-3.89324 -4.06495,-3.89324 l 2.2283,-2.49309 l 0.74944,0.67279 l 1.99989,1.05424 c 0.23969,0.1247 0.46726,-0.18534 0.27652,-0.37668 c -0.002,-10e-4 0.005,0.005 0.005,0.004 c -0.007,-0.0128 -0.0211,-0.0358 -0.0371,-0.0667 c -0.0323,-0.0618 -0.0762,-0.15232 -0.12654,-0.25992 c -0.10069,-0.2152 -0.2279,-0.49988 -0.35637,-0.78656 c -0.12835,-0.28669 -0.25815,-0.57543 -0.36607,-0.80315 c -0.0539,-0.11391 -0.10222,-0.21216 -0.14389,-0.29021 c -0.0209,-0.039 -0.0399,-0.0728 -0.0593,-0.10348 c -0.0192,-0.0305 -0.0293,-0.0543 -0.0794,-0.098 l -1.2e-4,-10e-5 c -0.16274,-0.14261 -0.35883,-0.31875 -0.55224,-0.49245 l 0.24158,-0.23525 c 0.1,-0.0974 0.0943,-0.2597 -0.0128,-0.34985 l -0.32579,-0.27556 c -0.0932,-0.0788 -0.2312,-0.0737 -0.31833,0.011 l -0.24882,0.24435 c -0.51937,-0.47993 -1.03491,-0.97278 -1.36823,-1.33326 c -0.0434,-0.047 -0.10385,-0.0742 -0.16786,-0.0759 c -0.0593,-10e-4 -0.11701,0.0193 -0.16163,0.0585 l -1.21974,1.06901 c -0.10312,0.0905 -0.10787,0.24952 -0.0109,0.34596 l 1.48582,1.46783 c -0.78519,0.85083 -2.20762,2.37034 -2.20762,2.37034 l -2.50666,-2.40027 l 1.78419,-1.28838 c 0.1077,-0.0777 0.13019,-0.2288 0.0499,-0.33458 l -0.93418,-1.23139 c -0.0437,-0.0574 -0.11098,-0.092 -0.18321,-0.0934 z" id="path1617" inkscape:connector-curvature="0" sodipodi:nodetypes="ccccccccccsccccccccccccccccssscccccccccccccccccccccc" />
</svg>
