<?xml version="1.0" encoding="UTF-8" standalone="no"?>
<svg version="1.0" width="15.186669" height="14.034822" id="svg934" sodipodi:docname="mine.svg" inkscape:version="1.1.1 (3bf5ae0d25, 2021-09-20)" xmlns:inkscape="http://www.inkscape.org/namespaces/inkscape" xmlns:sodipodi="http://sodipodi.sourceforge.net/DTD/sodipodi-0.dtd" xmlns="http://www.w3.org/2000/svg" xmlns:svg="http://www.w3.org/2000/svg">
  <defs id="defs938" />
  <sodipodi:namedview id="namedview936" pagecolor="#ffffff" bordercolor="#666666" borderopacity="1.0" inkscape:pageshadow="2" inkscape:pageopacity="0.0" inkscape:pagecheckerboard="0" showgrid="false" fit-margin-top="0" fit-margin-left="0" fit-margin-right="0" fit-margin-bottom="0" inkscape:zoom="23.089655" inkscape:cx="10.697431" inkscape:cy="14.746864" inkscape:window-width="1883" inkscape:window-height="1062" inkscape:window-x="0" inkscape:window-y="0" inkscape:window-maximized="1" inkscape:current-layer="svg934" />
  <path d="M 5.8369047,1.5099751 A 0.24,0.24 0 0 0 5.6869047,1.5499751 C 4.8569047,2.1299751 3.9969047,2.6899751 3.2469047,3.4299751 V 3.4299751 C 2.5469047,4.1499751 2.0869047,5.0299751 1.5369047,5.7799751 A 0.24,0.24 0 0 0 1.5869047,6.1099751 L 2.8369047,7.0299751 A 0.24,0.24 0 0 0 3.1669047,6.9699751 L 4.4269047,5.1599751 L 6.8869047,7.6399751 L 4.2369047,10.489975 L 3.1369047,11.649975 A 0.24,0.24 0 0 0 3.1569047,11.979975 L 3.7169047,12.489975 C 3.8169047,12.589975 3.9669047,12.569975 4.0569047,12.479975 L 7.6569047,8.4199751 L 11.596905,12.369975 A 0.24,0.24 0 0 0 11.926905,12.369975 L 12.466905,11.829975 A 0.24,0.24 0 0 0 12.466905,11.489975 A 7070.3,7070.3 0 0 1 8.3969047,7.5899751 L 10.626905,5.1099751 L 11.376905,5.7799751 L 13.376905,6.8299751 C 13.616905,6.9599751 13.836905,6.6499751 13.646905,6.4599751 V 6.4599751 L 13.616905,6.3899751 A 7.16,7.16 0 0 1 13.486905,6.1299751 L 13.136905,5.3499751 A 44.14,44.14 0 0 0 12.766905,4.5499751 A 6.98,6.98 0 0 0 12.626905,4.2499751 A 1.67,1.67 0 0 0 12.566905,4.1499751 L 12.486905,4.0499751 V 4.0499751 A 74.78,74.78 0 0 1 11.936905,3.5499751 L 12.176905,3.3199751 A 0.24,0.24 0 0 0 12.156905,2.9699751 L 11.836905,2.6999751 A 0.24,0.24 0 0 0 11.516905,2.6999751 L 11.266905,2.9499751 A 27.98,27.98 0 0 1 9.8969047,1.6199751 A 0.24,0.24 0 0 0 9.5669047,1.5999751 L 8.3469047,2.6699751 A 0.24,0.24 0 0 0 8.3469047,3.0199751 L 9.8269047,4.4899751 L 7.6269047,6.8599751 L 5.1069047,4.4599751 L 6.8969047,3.1599751 A 0.24,0.24 0 0 0 6.9469047,2.8299751 L 6.0069047,1.5999751 A 0.24,0.24 0 0 0 5.8269047,1.4999751 Z" color="#000000" opacity="0.5" fill="none" stroke="#ffffff" stroke-width="3" stroke-linecap="round" stroke-linejoin="round" id="path930" />
  <path d="M 5.8369047,1.5099751 A 0.24,0.24 0 0 0 5.6869047,1.5499751 C 4.8569047,2.1299751 3.9969047,2.6899751 3.2469047,3.4299751 C 2.5469047,4.1499751 2.0869047,5.0299751 1.5369047,5.7799751 A 0.24,0.24 0 0 0 1.5869047,6.1099751 L 2.8369047,7.0299751 A 0.24,0.24 0 0 0 3.1669047,6.9699751 L 4.4269047,5.1599751 L 6.8869047,7.6399751 L 4.2369047,10.489975 L 3.1369047,11.649975 A 0.24,0.24 0 0 0 3.1569047,11.979975 L 3.7169047,12.489975 C 3.8169047,12.589975 3.9669047,12.569975 4.0569047,12.479975 L 7.6569047,8.4199751 L 11.596905,12.369975 A 0.24,0.24 0 0 0 11.926905,12.369975 L 12.466905,11.829975 A 0.24,0.24 0 0 0 12.466905,11.489975 A 8832.6,8832.6 0 0 1 8.3969047,7.5899751 L 10.626905,5.1099751 L 11.376905,5.7799751 L 13.376905,6.8299751 C 13.616905,6.9599751 13.836905,6.6499751 13.646905,6.4599751 L 13.616905,6.3899751 A 7.16,7.16 0 0 1 13.486905,6.1299751 L 13.136905,5.3499751 A 44.14,44.14 0 0 0 12.766905,4.5499751 A 6.98,6.98 0 0 0 12.626905,4.2499751 A 1.67,1.67 0 0 0 12.566905,4.1499751 L 12.486905,4.0499751 A 74.78,74.78 0 0 1 11.936905,3.5499751 L 12.176905,3.3199751 A 0.24,0.24 0 0 0 12.156905,2.9699751 L 11.836905,2.6999751 A 0.24,0.24 0 0 0 11.516905,2.6999751 L 11.266905,2.9499751 A 27.98,27.98 0 0 1 9.8969047,1.6199751 A 0.24,0.24 0 0 0 9.5669047,1.5999751 L 8.3469047,2.6699751 A 0.24,0.24 0 0 0 8.3469047,3.0199751 L 9.8269047,4.4899751 L 7.6269047,6.8599751 L 5.1069047,4.4599751 L 6.8969047,3.1599751 A 0.24,0.24 0 0 0 6.9469047,2.8299751 L 6.0069047,1.5999751 A 0.24,0.24 0 0 0 5.8269047,1.4999751 Z" color="#000000" id="path932" />
</svg>
