<?xml version="1.0" encoding="UTF-8" standalone="no"?>
<!-- Created with Inkscape (http://www.inkscape.org/) -->

<svg xmlns:dc="http://purl.org/dc/elements/1.1/" xmlns:cc="http://creativecommons.org/ns#" xmlns:rdf="http://www.w3.org/1999/02/22-rdf-syntax-ns#" xmlns:svg="http://www.w3.org/2000/svg" xmlns="http://www.w3.org/2000/svg" xmlns:sodipodi="http://sodipodi.sourceforge.net/DTD/sodipodi-0.dtd" xmlns:inkscape="http://www.inkscape.org/namespaces/inkscape" version="1.0" width="580" height="580" id="svg2" sodipodi:version="0.32" inkscape:version="0.92.3 (2405546, 2018-03-11)" sodipodi:docname="mine.svg" inkscape:output_extension="org.inkscape.output.svg.inkscape">
  <metadata id="metadata10">
    <rdf:RDF>
      <cc:Work rdf:about="">
        <dc:format>image/svg+xml</dc:format>
        <dc:type rdf:resource="http://purl.org/dc/dcmitype/StillImage" />
        <cc:license rdf:resource="http://web.resource.org/cc/PublicDomain" />
        <dc:language>en</dc:language>
        <dc:title />
      </cc:Work>
    </rdf:RDF>
  </metadata>
  <sodipodi:namedview inkscape:window-height="1051" inkscape:window-width="1881" inkscape:pageshadow="2" inkscape:pageopacity="0.0" guidetolerance="10.0" gridtolerance="10.0" objecttolerance="10.0" borderopacity="1.0" bordercolor="#666666" pagecolor="#ffffff" id="base" showgrid="true" inkscape:zoom="22.627417" inkscape:cx="525.69919" inkscape:cy="50.456306" inkscape:window-x="0" inkscape:window-y="0" inkscape:current-layer="svg2" showguides="true" inkscape:guide-bbox="true" inkscape:window-maximized="1" inkscape:pagecheckerboard="true">
    <inkscape:grid type="xygrid" id="grid1619" spacingy="1" units="px" spacingx="1" />
  </sodipodi:namedview>
  <defs id="defs4">
    <inkscape:perspective sodipodi:type="inkscape:persp3d" inkscape:vp_x="0 : 290 : 1" inkscape:vp_y="0 : 1000 : 0" inkscape:vp_z="580 : 290 : 1" inkscape:persp3d-origin="290 : 193.33333 : 1" id="perspective12" />
    <style type="text/css" id="style6">
   
    .fil0 {fill:#EF7900}
   
  </style>
    <inkscape:perspective id="perspective6807" inkscape:persp3d-origin="29.116032 : 19.410688 : 1" inkscape:vp_z="58.232063 : 29.116032 : 1" inkscape:vp_y="0 : 1000 : 0" inkscape:vp_x="0 : 29.116032 : 1" sodipodi:type="inkscape:persp3d" />
    <inkscape:perspective id="perspective6954" inkscape:persp3d-origin="290 : 193.33333 : 1" inkscape:vp_z="580 : 290 : 1" inkscape:vp_y="0 : 1000 : 0" inkscape:vp_x="0 : 290 : 1" sodipodi:type="inkscape:persp3d" />
    <inkscape:perspective id="perspective2541" inkscape:persp3d-origin="240 : 160 : 1" inkscape:vp_z="480 : 240 : 1" inkscape:vp_y="0 : 1000 : 0" inkscape:vp_x="0 : 240 : 1" sodipodi:type="inkscape:persp3d" />
    <inkscape:perspective id="perspective2750" inkscape:persp3d-origin="215 : 143.33333 : 1" inkscape:vp_z="430 : 215 : 1" inkscape:vp_y="0 : 1000 : 0" inkscape:vp_x="0 : 215 : 1" sodipodi:type="inkscape:persp3d" />
  </defs>
  <path sodipodi:nodetypes="ccccccccccsccccccccccccccccssscccccccccccccccccccccc" inkscape:connector-curvature="0" id="outline" d="M 543.59276,520.0502 C 543.54246,520.0492 543.49306,520.0648 543.45196,520.093 C 542.62324,520.67408 541.76409,521.23247 541.01303,521.96831 C 541.01214,521.96918 541.01103,521.97031 541.00903,521.97231 C 540.303,522.68854 539.84761,523.571 539.29742,524.32436 C 539.22042,524.42986 539.24352,524.57779 539.34902,524.65477 L 540.59784,525.56563 C 540.70517,525.64393 540.85571,525.61843 540.93139,525.50933 L 542.18714,523.70002 L 544.65232,526.1794 C 544.65232,526.1794 543.19737,527.75543 542.00378,529.02856 C 541.58039,529.48016 541.18988,529.89364 540.90886,530.18516 C 540.81886,530.28136 540.82496,530.43255 540.92166,530.52131 L 541.48387,531.03402 C 541.58117,531.12272 541.73229,531.11482 541.81983,531.01572 C 543.00256,529.68584 545.42592,526.9583 545.42592,526.9583 C 545.42592,526.9583 548.19262,529.74011 549.35806,530.91228 C 549.45096,531.00568 549.6022,531.00518 549.69445,530.91128 L 550.22741,530.36818 C 550.31961,530.27428 550.31741,530.12294 550.22241,530.03185 C 548.88849,528.75622 546.15746,526.13861 546.15746,526.13861 L 548.38576,523.64552 L 549.1352,524.31831 L 551.13509,525.37255 C 551.37478,525.49725 551.60235,525.18721 551.41161,524.99587 C 551.40961,524.99487 551.41661,525.00087 551.41661,524.99987 C 551.40961,524.98707 551.39551,524.96407 551.37951,524.93317 C 551.34721,524.87137 551.30331,524.78085 551.25297,524.67325 C 551.15228,524.45805 551.02507,524.17337 550.8966,523.88669 C 550.76825,523.6 550.63845,523.31126 550.53053,523.08354 C 550.47663,522.96963 550.42831,522.87138 550.38664,522.79333 C 550.36574,522.75433 550.34674,522.72053 550.32734,522.68985 C 550.30814,522.65935 550.29804,522.63555 550.24794,522.59185 L 550.24782,522.59175 C 550.08508,522.44914 549.88899,522.273 549.69558,522.0993 L 549.93716,521.86405 C 550.03716,521.76665 550.03146,521.60435 549.92436,521.5142 L 549.59857,521.23864 C 549.50537,521.15984 549.36737,521.16494 549.28024,521.24964 L 549.03142,521.49399 C 548.51205,521.01406 547.99651,520.52121 547.66319,520.16073 C 547.61979,520.11373 547.55934,520.08653 547.49533,520.08483 C 547.43603,520.08383 547.37832,520.10413 547.3337,520.14333 L 546.11396,521.21234 C 546.01084,521.30284 546.00609,521.46186 546.10306,521.5583 L 547.58888,523.02613 C 546.80369,523.87696 545.38126,525.39647 545.38126,525.39647 L 542.8746,522.9962 L 544.65879,521.70782 C 544.76649,521.63012 544.78898,521.47902 544.70869,521.37324 L 543.77451,520.14185 C 543.73081,520.08445 543.66353,520.04985 543.5913,520.04845 Z" style="color:#000000;font-style:normal;font-variant:normal;font-weight:normal;font-stretch:normal;font-size:medium;line-height:normal;font-family:sans-serif;font-variant-ligatures:normal;font-variant-position:normal;font-variant-caps:normal;font-variant-numeric:normal;font-variant-alternates:normal;font-feature-settings:normal;text-indent:0;text-align:start;text-decoration:none;text-decoration-line:none;text-decoration-style:solid;text-decoration-color:#000000;letter-spacing:normal;word-spacing:normal;text-transform:none;writing-mode:lr-tb;direction:ltr;text-orientation:mixed;dominant-baseline:auto;baseline-shift:baseline;text-anchor:start;white-space:normal;shape-padding:0;clip-rule:nonzero;display:inline;overflow:visible;visibility:visible;opacity:0.5;isolation:auto;mix-blend-mode:normal;color-interpolation:sRGB;color-interpolation-filters:linearRGB;solid-color:#000000;solid-opacity:1;vector-effect:none;fill:none;fill-opacity:1;fill-rule:nonzero;stroke:#ffffff;stroke-width:3;stroke-linecap:round;stroke-linejoin:round;stroke-miterlimit:4;stroke-dasharray:none;stroke-dashoffset:0;stroke-opacity:1;color-rendering:auto;image-rendering:auto;shape-rendering:auto;text-rendering:auto;enable-background:accumulate" />
  <path style="color:#000000;font-style:normal;font-variant:normal;font-weight:normal;font-stretch:normal;font-size:medium;line-height:normal;font-family:sans-serif;font-variant-ligatures:normal;font-variant-position:normal;font-variant-caps:normal;font-variant-numeric:normal;font-variant-alternates:normal;font-feature-settings:normal;text-indent:0;text-align:start;text-decoration:none;text-decoration-line:none;text-decoration-style:solid;text-decoration-color:#000000;letter-spacing:normal;word-spacing:normal;text-transform:none;writing-mode:lr-tb;direction:ltr;text-orientation:mixed;dominant-baseline:auto;baseline-shift:baseline;text-anchor:start;white-space:normal;shape-padding:0;clip-rule:nonzero;display:inline;overflow:visible;visibility:visible;opacity:1;isolation:auto;mix-blend-mode:normal;color-interpolation:sRGB;color-interpolation-filters:linearRGB;solid-color:#000000;solid-opacity:1;vector-effect:none;fill:#000000;fill-opacity:1;fill-rule:nonzero;stroke:none;stroke-width:0.47281894;stroke-linecap:round;stroke-linejoin:round;stroke-miterlimit:4;stroke-dasharray:none;stroke-dashoffset:0;stroke-opacity:1;color-rendering:auto;image-rendering:auto;shape-rendering:auto;text-rendering:auto;enable-background:accumulate" d="m 543.59276,520.0502 c -0.0503,-10e-4 -0.0997,0.0146 -0.1408,0.0428 c -0.82872,0.58108 -1.68787,1.13947 -2.43893,1.87531 c -8.9e-4,8.7e-4 -0.002,0.002 -0.004,0.004 c -0.70603,0.71623 -1.16142,1.59869 -1.71161,2.35205 c -0.077,0.1055 -0.0539,0.25343 0.0516,0.33041 l 1.24882,0.91086 c 0.10733,0.0783 0.25787,0.0528 0.33355,-0.0563 l 1.25575,-1.80931 l 2.46518,2.47938 c 0,0 -1.45495,1.57603 -2.64854,2.84916 c -0.42339,0.4516 -0.8139,0.86508 -1.09492,1.1566 c -0.09,0.0962 -0.0839,0.24739 0.0128,0.33615 l 0.56221,0.51271 c 0.0973,0.0887 0.24842,0.0808 0.33596,-0.0183 c 1.18273,-1.32988 3.60609,-4.05742 3.60609,-4.05742 c 0,0 2.7667,2.78181 3.93214,3.95398 c 0.0929,0.0934 0.24414,0.0929 0.33639,-10e-4 l 0.53296,-0.5431 c 0.0922,-0.0939 0.09,-0.24524 -0.005,-0.33633 c -1.33392,-1.27563 -4.06495,-3.89324 -4.06495,-3.89324 l 2.2283,-2.49309 l 0.74944,0.67279 l 1.99989,1.05424 c 0.23969,0.1247 0.46726,-0.18534 0.27652,-0.37668 c -0.002,-10e-4 0.005,0.005 0.005,0.004 c -0.007,-0.0128 -0.0211,-0.0358 -0.0371,-0.0667 c -0.0323,-0.0618 -0.0762,-0.15232 -0.12654,-0.25992 c -0.10069,-0.2152 -0.2279,-0.49988 -0.35637,-0.78656 c -0.12835,-0.28669 -0.25815,-0.57543 -0.36607,-0.80315 c -0.0539,-0.11391 -0.10222,-0.21216 -0.14389,-0.29021 c -0.0209,-0.039 -0.0399,-0.0728 -0.0593,-0.10348 c -0.0192,-0.0305 -0.0293,-0.0543 -0.0794,-0.098 l -1.2e-4,-10e-5 c -0.16274,-0.14261 -0.35883,-0.31875 -0.55224,-0.49245 l 0.24158,-0.23525 c 0.1,-0.0974 0.0943,-0.2597 -0.0128,-0.34985 l -0.32579,-0.27556 c -0.0932,-0.0788 -0.2312,-0.0737 -0.31833,0.011 l -0.24882,0.24435 c -0.51937,-0.47993 -1.03491,-0.97278 -1.36823,-1.33326 c -0.0434,-0.047 -0.10385,-0.0742 -0.16786,-0.0759 c -0.0593,-10e-4 -0.11701,0.0193 -0.16163,0.0585 l -1.21974,1.06901 c -0.10312,0.0905 -0.10787,0.24952 -0.0109,0.34596 l 1.48582,1.46783 c -0.78519,0.85083 -2.20762,2.37034 -2.20762,2.37034 l -2.50666,-2.40027 l 1.78419,-1.28838 c 0.1077,-0.0777 0.13019,-0.2288 0.0499,-0.33458 l -0.93418,-1.23139 c -0.0437,-0.0574 -0.11098,-0.092 -0.18321,-0.0934 z" id="path1617" inkscape:connector-curvature="0" sodipodi:nodetypes="ccccccccccsccccccccccccccccssscccccccccccccccccccccc" />
</svg>
