<svg xmlns="http://www.w3.org/2000/svg" version="1.0" width="580" height="580" id="svg2">
    <defs id="defs4">
        <style type="text/css" id="style6"/>
    </defs>
    <path id="outline" d="M543.593 520.05a.242.242 0 00-.141.043c-.829.581-1.688 1.14-2.439 1.875l-.004.004c-.706.717-1.161 1.599-1.712 2.352a.236.236 0 00.052.33l1.249.912a.236.236 0 00.333-.057l1.256-1.809 2.465 2.48s-1.455 1.575-2.648 2.849c-.424.451-.814.865-1.095 1.156a.237.237 0 00.013.336l.562.513c.097.089.248.08.336-.018l3.606-4.058 3.932 3.954a.237.237 0 00.336 0l.533-.544a.237.237 0 00-.005-.336 7070.298 7070.298 0 01-4.065-3.893l2.229-2.493.75.672 2 1.055c.239.124.466-.186.276-.377l.005.004-.037-.067a7.16 7.16 0 01-.127-.26c-.1-.215-.228-.5-.356-.786a44.137 44.137 0 00-.366-.803 6.982 6.982 0 00-.144-.29 1.669 1.669 0 00-.06-.104c-.019-.03-.029-.054-.08-.098h0a74.782 74.782 0 01-.551-.493l.241-.235a.236.236 0 00-.013-.35l-.325-.275a.237.237 0 00-.319.01l-.249.245a27.98 27.98 0 01-1.368-1.333.237.237 0 00-.33-.018l-1.219 1.07a.237.237 0 00-.01.345l1.485 1.468c-.785.851-2.208 2.37-2.208 2.37l-2.506-2.4 1.784-1.288a.236.236 0 00.05-.335l-.934-1.231a.236.236 0 00-.184-.094z" color="#000" text-decoration="none" letter-spacing="normal" word-spacing="normal" writing-mode="lr-tb" direction="ltr" dominant-baseline="auto" baseline-shift="baseline" text-anchor="start" clip-rule="nonzero" display="inline" visibility="visible" opacity=".5" color-interpolation="sRGB" color-interpolation-filters="linearRGB" vector-effect="none" fill="none" fill-opacity="1" fill-rule="nonzero" stroke="#fff" stroke-width="3" stroke-linecap="round" stroke-linejoin="round" stroke-miterlimit="4" stroke-dasharray="none" stroke-dashoffset="0" stroke-opacity="1"/>
    <path d="M543.593 520.05a.242.242 0 00-.141.043c-.829.581-1.688 1.14-2.439 1.875l-.004.004c-.706.717-1.161 1.599-1.712 2.352a.236.236 0 00.052.33l1.249.912a.236.236 0 00.333-.057l1.256-1.809 2.465 2.48s-1.455 1.575-2.648 2.849c-.424.451-.814.865-1.095 1.156a.237.237 0 00.013.336l.562.513c.097.089.248.08.336-.018l3.606-4.058 3.932 3.954a.237.237 0 00.336 0l.533-.544a.237.237 0 00-.005-.336 8832.604 8832.604 0 01-4.065-3.893l2.229-2.493.75.672 2 1.055c.239.124.466-.186.276-.377l.005.004-.037-.067a7.16 7.16 0 01-.127-.26c-.1-.215-.228-.5-.356-.786a44.137 44.137 0 00-.366-.803 6.982 6.982 0 00-.144-.29 1.669 1.669 0 00-.06-.104c-.019-.03-.029-.054-.08-.098a74.782 74.782 0 01-.551-.493l.241-.235a.236.236 0 00-.013-.35l-.325-.275a.237.237 0 00-.319.01l-.249.245a27.98 27.98 0 01-1.368-1.333.237.237 0 00-.33-.018l-1.219 1.07a.237.237 0 00-.01.345l1.485 1.468c-.785.851-2.208 2.37-2.208 2.37l-2.506-2.4 1.784-1.288a.236.236 0 00.05-.335l-.934-1.231a.236.236 0 00-.184-.094z" id="path1617" color="#000" text-decoration="none" letter-spacing="normal" word-spacing="normal" writing-mode="lr-tb" direction="ltr" dominant-baseline="auto" baseline-shift="baseline" text-anchor="start" clip-rule="nonzero" display="inline" visibility="visible" opacity="1" color-interpolation="sRGB" color-interpolation-filters="linearRGB" vector-effect="none" fill="#000" fill-opacity="1" fill-rule="nonzero" stroke="none" stroke-width=".473" stroke-linecap="round" stroke-linejoin="round" stroke-miterlimit="4" stroke-dasharray="none" stroke-dashoffset="0" stroke-opacity="1"/>
</svg>
