<svg width="20" height="20" xmlns="http://www.w3.org/2000/svg">
  <path d="m10.928 1.25-.7 1.018c-.172.239-.131.444.122.617.238.146.444.107.617-.12l.398-.597 6.219 4.086-5.082.916a.731.731 0 0 0-.45.289.523.523 0 0 0-.09.488l1.099 4.285-3.588 5.364a.767.767 0 0 0-.1.379c0 .212.076.394.229.546a.75.75 0 0 0 .548.231v-.002c.28 0 .505-.133.678-.398l3.746-5.641.2.777-.557 4.227a.773.773 0 0 0 .637.877.745.745 0 0 0 .587-.13.708.708 0 0 0 .309-.509l.578-4.324c.013-.146 0-.3-.039-.46l-1.275-5.081 3.328-.6a.603.603 0 0 0 .418-.267.654.654 0 0 0 .119-.489.751.751 0 0 0-.297-.439L10.928 1.25zm1.334 2.95c-.359 0-.664.122-.916.368-.253.246-.38.55-.38.909 0 .358.127.66.38.906.252.246.557.369.916.369s.668-.123.927-.37a1.2 1.2 0 0 0 .39-.905c0-.36-.13-.663-.39-.909a1.302 1.302 0 0 0-.927-.369zM2.445 6.13a.223.223 0 0 0-.14.061l-1.12 1.05c-.099.092-.095.25.008.337l3.041 2.602-.076.504-2.965 2.537a.228.228 0 0 0-.007.34l1.119 1.046c.1.094.258.078.338-.033l1.164-1.586-.711 4.674c.02.074 4.003.002 4.103.05.058.029-.264-2.59-.554-4.878l1.277 1.74c.08.11.236.125.336.033l1.119-1.046a.228.228 0 0 0-.008-.34l-3.002-2.57-.058-.454 3.06-2.619a.225.225 0 0 0 .008-.338l-1.12-1.049a.225.225 0 0 0-.336.033l-2.228 3.04-.404-.254-.418.25-2.228-3.035a.226.226 0 0 0-.198-.094z" style="fill:none;stroke:#fff;stroke-opacity:.5;stroke-width:3;stroke-miterlimit:4;stroke-dasharray:none;stroke-linejoin:round;stroke-linecap:round" />
  <path d="m3.096 17.663 1.229-8.076.963-.577.943.592s1.069 8.159.968 8.11c-.1-.049-4.083.024-4.103-.049z" fill-opacity=".333" />
  <path d="M2.446 6.13a.227.227 0 0 0-.141.062l-1.12 1.047a.227.227 0 0 0 .008.34l3.298 2.819-3.298 2.823a.227.227 0 0 0-.008.339l1.12 1.047c.1.093.259.078.338-.033l2.64-3.598 2.639 3.598c.08.109.237.124.336.033l1.12-1.047a.227.227 0 0 0-.009-.34l-3.297-2.822 3.297-2.82a.227.227 0 0 0 .009-.339l-1.12-1.047a.227.227 0 0 0-.164-.061.227.227 0 0 0-.172.094l-2.64 3.598-2.639-3.598a.227.227 0 0 0-.197-.094zm2.837 4.132.141.136-.144.139-.142-.136zM13.578 5.476c0-.359-.13-.661-.389-.907a1.3 1.3 0 0 0-.927-.37c-.358 0-.664.124-.916.37a1.217 1.217 0 0 0-.38.907c0 .358.127.66.38.907.252.246.558.369.916.369a1.3 1.3 0 0 0 .927-.37c.26-.245.389-.548.389-.906zM10.15 18.75c.279 0 .505-.133.677-.399l3.747-5.64.2.777-.558 4.225a.773.773 0 0 0 .638.878.746.746 0 0 0 .588-.13.706.706 0 0 0 .309-.508l.578-4.325c.013-.147 0-.3-.04-.46l-1.276-5.082 3.329-.598a.606.606 0 0 0 .419-.269.654.654 0 0 0 .119-.488.752.752 0 0 0-.299-.439L10.927 1.25l-.698 1.017c-.173.24-.133.445.12.618.239.146.445.106.617-.12l.4-.598 6.218 4.087-5.082.916a.73.73 0 0 0-.449.29.524.524 0 0 0-.09.488l1.097 4.285-3.588 5.362a.765.765 0 0 0 .13.927c.152.153.335.23.548.23z" />
</svg>
