<?xml version="1.0" encoding="UTF-8" standalone="no"?>
<!-- Created with Inkscape (http://www.inkscape.org/) -->

<svg xmlns:dc="http://purl.org/dc/elements/1.1/" xmlns:cc="http://creativecommons.org/ns#" xmlns:rdf="http://www.w3.org/1999/02/22-rdf-syntax-ns#" xmlns:svg="http://www.w3.org/2000/svg" xmlns="http://www.w3.org/2000/svg" xmlns:xlink="http://www.w3.org/1999/xlink" xmlns:sodipodi="http://sodipodi.sourceforge.net/DTD/sodipodi-0.dtd" xmlns:inkscape="http://www.inkscape.org/namespaces/inkscape" width="50" height="50" viewBox="0 0 13.229167 13.229167" version="1.1" id="svg8" inkscape:version="0.92.3 (2405546, 2018-03-11)" sodipodi:docname="monument.svg">
  <defs id="defs2" />
  <sodipodi:namedview id="base" pagecolor="#ffffff" bordercolor="#666666" borderopacity="1.0" inkscape:pageopacity="0.0" inkscape:pageshadow="2" inkscape:zoom="16" inkscape:cx="12.759012" inkscape:cy="32.871175" inkscape:document-units="mm" inkscape:current-layer="layer1" showgrid="true" inkscape:window-width="1881" inkscape:window-height="1058" inkscape:window-x="0" inkscape:window-y="0" inkscape:window-maximized="1" inkscape:pagecheckerboard="true" units="px">
    <inkscape:grid type="xygrid" id="grid13930" units="px" spacingx="0.26458334" spacingy="0.26458334" />
  </sodipodi:namedview>
  <metadata id="metadata5">
    <rdf:RDF>
      <cc:Work rdf:about="">
        <dc:format>image/svg+xml</dc:format>
        <dc:type rdf:resource="http://purl.org/dc/dcmitype/StillImage" />
        <dc:title></dc:title>
      </cc:Work>
    </rdf:RDF>
  </metadata>
  <g inkscape:label="Layer 1" inkscape:groupmode="layer" id="layer1" style="display:inline" transform="translate(0,-283.7708)">
    <path sodipodi:type="inkscape:offset" inkscape:radius="0.26500872" inkscape:original="M 7.1445312 286.68164 L 6.7109375 289.0625 L 6.3496094 289.0625 L 6.0859375 289.0625 L 6.0859375 289.32617 L 6.3496094 289.32617 L 6.3496094 290.12109 L 6.0859375 290.12109 L 6.0859375 290.38477 L 8.4667969 290.38477 L 8.4667969 290.12109 L 8.2011719 290.12109 L 8.2011719 289.32617 L 8.4667969 289.32617 L 8.4667969 289.0625 L 8.2011719 289.0625 L 7.8417969 289.0625 L 7.4082031 286.68164 L 7.1445312 286.68164 z " xlink:href="#path1183" style="fill:#ffffff;fill-opacity:1;fill-rule:evenodd;stroke:none;stroke-width:0.99999994px;stroke-linecap:butt;stroke-linejoin:miter;stroke-opacity:1;opacity:0.5" id="path1216" inkscape:href="#path1183" d="m 7.1445312,286.41602 a 0.26503522,0.26503522 0 0 0 -0.2597656,0.21875 l -0.3945312,2.16211 H 6.3496094 H 6.0859375 a 0.26503522,0.26503522 0 0 0 -0.265625,0.26562 v 0.26367 a 0.26503522,0.26503522 0 0 0 0.2636719,0.26563 v 0.26367 a 0.26503522,0.26503522 0 0 0 -0.2636719,0.26562 v 0.26368 a 0.26503522,0.26503522 0 0 0 0.265625,0.26562 h 2.3808594 a 0.26503522,0.26503522 0 0 0 0.265625,-0.26562 v -0.26368 a 0.26503522,0.26503522 0 0 0 -0.265625,-0.26562 v -0.26367 a 0.26503522,0.26503522 0 0 0 0.265625,-0.26563 v -0.26367 a 0.26503522,0.26503522 0 0 0 -0.265625,-0.26562 H 8.2011719 H 8.0625 l -0.3945312,-2.16211 a 0.26503522,0.26503522 0 0 0 -0.2597657,-0.21875 z" />
    <path style="fill:#030303;fill-opacity:1;fill-rule:evenodd;stroke:none;stroke-width:0.26458332px;stroke-linecap:butt;stroke-linejoin:miter;stroke-opacity:1" d="m 7.1437499,286.68122 l -0.4330486,2.38125 H 6.3499999 H 6.0854166 v 0.26458 h 0.2645833 v 0.79375 H 6.0854166 v 0.26458 h 2.38125 V 290.1208 H 8.2020832 v -0.79375 h 0.2645834 v -0.26458 H 8.2020832 H 7.8413818 l -0.4330486,-2.38125 z" id="path1183" inkscape:connector-curvature="0" />
  </g>
</svg>
