<?xml version="1.0" encoding="UTF-8" standalone="no"?>
<!-- Generator: Adobe Illustrator 20.1.0, SVG Export Plug-In . SVG Version: 6.00 Build 0)  -->

<svg version="1.1" id="Layer_1" x="0px" y="0px" viewBox="0 0 30.143 47" style="enable-background:new 0 0 30.143 47;" xml:space="preserve" sodipodi:docname="mosque.svg" inkscape:version="1.2.2 (b0a8486541, 2022-12-01)" xmlns:inkscape="http://www.inkscape.org/namespaces/inkscape" xmlns:sodipodi="http://sodipodi.sourceforge.net/DTD/sodipodi-0.dtd" xmlns="http://www.w3.org/2000/svg" xmlns:svg="http://www.w3.org/2000/svg"><defs id="defs13057" /><sodipodi:namedview id="namedview13055" pagecolor="#ffffff" bordercolor="#666666" borderopacity="1.0" inkscape:showpageshadow="2" inkscape:pageopacity="0.0" inkscape:pagecheckerboard="true" inkscape:deskcolor="#d1d1d1" showgrid="true" inkscape:zoom="32" inkscape:cx="1.734375" inkscape:cy="13.640625" inkscape:window-width="1863" inkscape:window-height="1056" inkscape:window-x="0" inkscape:window-y="0" inkscape:window-maximized="1" inkscape:current-layer="Layer_1"><inkscape:grid type="xygrid" id="grid15364" /></sodipodi:namedview>
<g id="g15785" transform="matrix(0.46445278,0,0,0.46445278,0,0.91016251)" style="stroke-width:6.45921422;stroke:#ffffff;stroke-opacity:0.5;stroke-dasharray:none;stroke-linejoin:round;stroke-linecap:round">
	<path d="M 0,26.61 L -3.1766415e-7,41.090247 H 30.143 V 26.61 C 30.143,25.631 29.348,24.837 28.37,24.837 H 26.602 C 26.678,24.254 26.697,23.635 26.612,22.947 C 26.135,19.972 23.876,18.069 21.259,16.999 C 20.068,16.405 18.283,16.166 17.213,15.452 C 16.665,15.014 16.273,14.447 15.959,13.825 V 11.37896 C 15.982,11.37896 16.005,11.38296 16.027,11.38296 C 17.528,11.38296 18.882,11.337944 19.92,10.409944 C 19.508,10.531944 19.083,10.617944 18.631,10.617944 C 16.114,10.617944 14.075,8.5759445 14.075,6.0599439 C 14.075,3.5439439 16.114,1.5039439 18.631,1.5039439 C 19.083,1.5039439 19.508,1.5879439 19.92,1.7109439 C 18.883,0.78194389 17.529,0.20194389 16.028,0.20194389 C 12.793,0.20194389 10.169,2.8249439 10.169,6.0599439 C 10.169,8.6529445 11.854,10.728452 14.185,11.501452 V 13.829 C 13.871,14.449 13.481,15.014 12.934,15.452 C 11.862,16.166 10.078,16.405 8.887,16.999 C 6.27,18.069 4.01,19.973 3.534,22.947 C 3.448,23.635 3.467,24.254 3.544,24.837 H 1.773 C 0.795,24.837 0,25.631 0,26.61 Z M 21.277,30.410892 C 21.277,29.185892 22.27,28.194892 23.494,28.194892 C 24.719,28.194892 25.711,29.185892 25.711,30.410892 V 38.937175 H 21.277 Z M 12.857,30.410892 C 12.857,29.185892 13.848,28.194892 15.072,28.194892 C 16.296,28.194892 17.288,29.185892 17.288,30.410892 V 38.937175 H 12.857 Z M 4.433,30.410892 C 4.433,29.185892 5.425,28.194892 6.65,28.194892 C 7.874,28.194892 8.867,29.185892 8.867,30.410892 V 38.937175 H 4.433 Z" id="path15783" sodipodi:nodetypes="sccssccccccscssscssccccccsscssccccssscccssscc" style="stroke-width:6.45921422;stroke:#ffffff;stroke-opacity:0.5;stroke-dasharray:none;stroke-linejoin:round;stroke-linecap:round" />
</g><g id="g13052" transform="matrix(0.46445278,0,0,0.46445278,0,0.91016251)" style="stroke-width:2.15307">
	<path d="M 0,26.61 L -3.1766415e-7,41.090247 H 30.143 V 26.61 C 30.143,25.631 29.348,24.837 28.37,24.837 H 26.602 C 26.678,24.254 26.697,23.635 26.612,22.947 C 26.135,19.972 23.876,18.069 21.259,16.999 C 20.068,16.405 18.283,16.166 17.213,15.452 C 16.665,15.014 16.273,14.447 15.959,13.825 V 11.37896 C 15.982,11.37896 16.005,11.38296 16.027,11.38296 C 17.528,11.38296 18.882,11.337944 19.92,10.409944 C 19.508,10.531944 19.083,10.617944 18.631,10.617944 C 16.114,10.617944 14.075,8.5759445 14.075,6.0599439 C 14.075,3.5439439 16.114,1.5039439 18.631,1.5039439 C 19.083,1.5039439 19.508,1.5879439 19.92,1.7109439 C 18.883,0.78194389 17.529,0.20194389 16.028,0.20194389 C 12.793,0.20194389 10.169,2.8249439 10.169,6.0599439 C 10.169,8.6529445 11.854,10.728452 14.185,11.501452 V 13.829 C 13.871,14.449 13.481,15.014 12.934,15.452 C 11.862,16.166 10.078,16.405 8.887,16.999 C 6.27,18.069 4.01,19.973 3.534,22.947 C 3.448,23.635 3.467,24.254 3.544,24.837 H 1.773 C 0.795,24.837 0,25.631 0,26.61 Z M 21.277,30.410892 C 21.277,29.185892 22.27,28.194892 23.494,28.194892 C 24.719,28.194892 25.711,29.185892 25.711,30.410892 V 38.937175 H 21.277 Z M 12.857,30.410892 C 12.857,29.185892 13.848,28.194892 15.072,28.194892 C 16.296,28.194892 17.288,29.185892 17.288,30.410892 V 38.937175 H 12.857 Z M 4.433,30.410892 C 4.433,29.185892 5.425,28.194892 6.65,28.194892 C 7.874,28.194892 8.867,29.185892 8.867,30.410892 V 38.937175 H 4.433 Z" id="path13050" sodipodi:nodetypes="sccssccccccscssscssccccccsscssccccssscccssscc" style="stroke-width:2.15307" />
</g>
</svg>
