<?xml version="1.0" encoding="UTF-8" standalone="no"?>
<svg xmlns:dc="http://purl.org/dc/elements/1.1/" xmlns:cc="http://creativecommons.org/ns#" xmlns:rdf="http://www.w3.org/1999/02/22-rdf-syntax-ns#" xmlns:svg="http://www.w3.org/2000/svg" xmlns="http://www.w3.org/2000/svg" xmlns:sodipodi="http://sodipodi.sourceforge.net/DTD/sodipodi-0.dtd" xmlns:inkscape="http://www.inkscape.org/namespaces/inkscape" version="1.1" width="14" height="14" viewBox="0 0 14 14" id="svg2" sodipodi:docname="motel.svg" inkscape:version="0.92.3 (2405546, 2018-03-11)">
  <sodipodi:namedview pagecolor="#ffffff" bordercolor="#666666" borderopacity="1" objecttolerance="10" gridtolerance="10" guidetolerance="10" inkscape:pageopacity="0" inkscape:pageshadow="2" inkscape:window-width="1881" inkscape:window-height="1058" id="namedview18440" showgrid="false" inkscape:zoom="16.857143" inkscape:cx="7" inkscape:cy="7" inkscape:window-x="0" inkscape:window-y="0" inkscape:window-maximized="1" inkscape:current-layer="svg2" />
  <metadata id="metadata8">
    <rdf:RDF>
      <cc:Work rdf:about="">
        <dc:format>image/svg+xml</dc:format>
        <dc:type rdf:resource="http://purl.org/dc/dcmitype/StillImage" />
        <dc:title />
      </cc:Work>
    </rdf:RDF>
  </metadata>
  <defs id="defs6" />
  <path id="path18985" d="M 0.5,0 C 0.223,0 0,0.223 0,0.5 V 1 6 H 1 V 5 h 12 v 1 h 1 V 2 1.5 C 14,1.223 13.777,1 13.5,1 13.223,1 13,1.223 13,1.5 V 2 4 H 1 V 1 0.5 C 1,0.223 0.777,0 0.5,0 Z m 3,0 C 2.671573,0 2,0.671573 2,1.5 2,2.328427 2.671573,3 3.5,3 4.328427,3 5,2.328427 5,1.5 5,0.671573 4.328427,0 3.5,0 Z M 6,1 v 2 h 6 C 12,2 10.963825,1 10,1 Z M 4,6 3,9 C 2.527334,9 2,9.384295 2,10 v 3 h 1 c 0,0 0,1 1,1 1,0 1,-1 1,-1 h 4 c 0,0 0,1 1,1 1,0 1,-1 1,-1 h 1 V 10 C 12,9.479394 11.544575,9 11,9 L 10,6 Z m 1,1 h 4 l 0.625,2 h -5.25 z m -1,3.25 c 0.414214,0 0.75,0.335786 0.75,0.75 0,0.414214 -0.335786,0.75 -0.75,0.75 -0.414214,0 -0.75,-0.335786 -0.75,-0.75 0,-0.414214 0.335786,-0.75 0.75,-0.75 z m 6,0 c 0.414214,0 0.75,0.335786 0.75,0.75 0,0.414214 -0.335786,0.75 -0.75,0.75 -0.414214,0 -0.75,-0.335786 -0.75,-0.75 0,-0.414214 0.335786,-0.75 0.75,-0.75 z" style="stroke:#ffffff;stroke-opacity:0.50196081;stroke-width:2;stroke-miterlimit:4;stroke-dasharray:none;stroke-linejoin:round;stroke-linecap:round" />
  <rect width="14" height="14" x="0" y="0" id="canvas" style="fill:none;stroke:none;visibility:hidden" />
  <path d="M 0.5,0 C 0.223,0 0,0.223 0,0.5 V 1 6 H 1 V 5 h 12 v 1 h 1 V 2 1.5 C 14,1.223 13.777,1 13.5,1 13.223,1 13,1.223 13,1.5 V 2 4 H 1 V 1 0.5 C 1,0.223 0.777,0 0.5,0 Z m 3,0 C 2.671573,0 2,0.671573 2,1.5 2,2.328427 2.671573,3 3.5,3 4.328427,3 5,2.328427 5,1.5 5,0.671573 4.328427,0 3.5,0 Z M 6,1 v 2 h 6 C 12,2 10.963825,1 10,1 Z M 4,6 3,9 C 2.527334,9 2,9.384295 2,10 v 3 h 1 c 0,0 0,1 1,1 1,0 1,-1 1,-1 h 4 c 0,0 0,1 1,1 1,0 1,-1 1,-1 h 1 V 10 C 12,9.479394 11.544575,9 11,9 L 10,6 Z m 1,1 h 4 l 0.625,2 h -5.25 z m -1,3.25 c 0.414214,0 0.75,0.335786 0.75,0.75 0,0.414214 -0.335786,0.75 -0.75,0.75 -0.414214,0 -0.75,-0.335786 -0.75,-0.75 0,-0.414214 0.335786,-0.75 0.75,-0.75 z m 6,0 c 0.414214,0 0.75,0.335786 0.75,0.75 0,0.414214 -0.335786,0.75 -0.75,0.75 -0.414214,0 -0.75,-0.335786 -0.75,-0.75 0,-0.414214 0.335786,-0.75 0.75,-0.75 z" id="motel" />
</svg>
