<?xml version="1.0" encoding="UTF-8" standalone="no"?>
<!-- Created with Inkscape (http://www.inkscape.org/) -->

<svg xmlns:dc="http://purl.org/dc/elements/1.1/" xmlns:cc="http://creativecommons.org/ns#" xmlns:rdf="http://www.w3.org/1999/02/22-rdf-syntax-ns#" xmlns:svg="http://www.w3.org/2000/svg" xmlns="http://www.w3.org/2000/svg" xmlns:sodipodi="http://sodipodi.sourceforge.net/DTD/sodipodi-0.dtd" xmlns:inkscape="http://www.inkscape.org/namespaces/inkscape" version="1.1" width="14" height="14" viewBox="0 0 14 14" id="svg17823" sodipodi:docname="museum.svg" inkscape:version="0.92.3 (2405546, 2018-03-11)">
  <metadata id="metadata17829">
    <rdf:RDF>
      <cc:Work rdf:about="">
        <dc:format>image/svg+xml</dc:format>
        <dc:type rdf:resource="http://purl.org/dc/dcmitype/StillImage" />
        <dc:title></dc:title>
      </cc:Work>
    </rdf:RDF>
  </metadata>
  <defs id="defs17827" />
  <sodipodi:namedview pagecolor="#ffffff" bordercolor="#666666" borderopacity="1" objecttolerance="10" gridtolerance="10" guidetolerance="10" inkscape:pageopacity="0" inkscape:pageshadow="2" inkscape:window-width="1881" inkscape:window-height="1051" id="namedview17825" showgrid="false" inkscape:zoom="16.857143" inkscape:cx="-3.4703389" inkscape:cy="7.0000001" inkscape:window-x="0" inkscape:window-y="0" inkscape:window-maximized="1" inkscape:current-layer="svg17823" inkscape:pagecheckerboard="true" />
  <path id="outline" d="M 7,1 L 1,3 V 4 H 13 V 3 Z M 1,5 V 6 H 2 V 11 H 1 L 0,13 H 14 L 13,11 H 12 V 6 H 13 V 5 Z M 5,6 C 5.497372,6 6,6.5325904 6,7 V 11 H 4 V 7 C 4,6.4726661 4.502628,6 5,6 Z M 9,6 C 9.503364,6 10,6.4726661 10,7 V 11 H 8 V 7 C 8,6.4726661 8.496636,6 9,6 Z" style="stroke:#ffffff;stroke-width:3;stroke-linecap:round;stroke-linejoin:round;stroke-miterlimit:4;stroke-dasharray:none;stroke-opacity:0.50196078;fill:none" inkscape:connector-curvature="0" />
  <rect width="14" height="14" x="0" y="0" id="canvas" style="fill:none;stroke:none;visibility:hidden" />
  <path d="M 7,1 1,3 1,4 13,4 13,3 z m -6,4 0,1 1,0 0,5 -1,0 -1,2 14,0 -1,-2 -1,0 0,-5 1,0 0,-1 z M 5,6 C 5.497372,6 6,6.5325904 6,7 L 6,11 4,11 4,7 C 4,6.4726661 4.502628,6 5,6 z m 4,0 c 0.503364,0 1,0.4726661 1,1 l 0,4 -2,0 0,-4 C 8,6.4726661 8.496636,6 9,6 z" id="museum" />
</svg>
