<svg xmlns="http://www.w3.org/2000/svg" width="16" height="16" viewBox="0 0 4.233 4.233">
    <circle cx="3.307" cy="3.043" fill="none" stroke="#fff" stroke-width=".794" stroke-linejoin="round" stroke-opacity=".497" r=".661"/>
    <path d="M2.122.614a.873.873 0 00-.867.88.89.89 0 00.048.288c-.455.543-.187.773-.085 1.108.104.34-.267.544-.552.814.855-.155.997-.553.973-.772-.026-.243-.22-.403.032-.687.147.047.286.128.451.128a.856.856 0 00.492-.155.882.882 0 00.375-.725.873.873 0 00-.867-.88z" opacity=".5" fill="#0064ff" stroke="#fdfdfd" stroke-width=".794" stroke-linecap="round" stroke-linejoin="round"/>
    <path d="M2.122.614a.873.873 0 00-.867.88.89.89 0 00.048.288c-.455.543-.187.773-.085 1.108.104.34-.267.544-.552.814.855-.155.997-.553.973-.772-.026-.243-.22-.403.032-.687.147.047.286.128.451.128a.856.856 0 00.492-.155.882.882 0 00.375-.725.873.873 0 00-.867-.88z" fill="#0064ff"/>
    <circle cx="3.307" cy="3.043" fill="red" r=".661"/>
</svg>
