<?xml version="1.0" encoding="UTF-8" standalone="no"?>
<svg xmlns:dc="http://purl.org/dc/elements/1.1/" xmlns:cc="http://creativecommons.org/ns#" xmlns:rdf="http://www.w3.org/1999/02/22-rdf-syntax-ns#" xmlns:svg="http://www.w3.org/2000/svg" xmlns="http://www.w3.org/2000/svg" xmlns:sodipodi="http://sodipodi.sourceforge.net/DTD/sodipodi-0.dtd" xmlns:inkscape="http://www.inkscape.org/namespaces/inkscape" viewBox="0 0 14 14" height="14" width="14" id="svg109" version="1.1" sodipodi:docname="office.svg" inkscape:version="0.92.3 (2405546, 2018-03-11)">
  <sodipodi:namedview pagecolor="#ffffff" bordercolor="#666666" borderopacity="1" objecttolerance="10" gridtolerance="10" guidetolerance="10" inkscape:pageopacity="0" inkscape:pageshadow="2" inkscape:window-width="1881" inkscape:window-height="1058" id="namedview20062" showgrid="false" inkscape:zoom="16.857143" inkscape:cx="7" inkscape:cy="7" inkscape:window-x="0" inkscape:window-y="0" inkscape:window-maximized="1" inkscape:current-layer="svg109" />
  <metadata id="metadata115">
    <rdf:RDF>
      <cc:Work rdf:about="">
        <dc:format>image/svg+xml</dc:format>
        <dc:type rdf:resource="http://purl.org/dc/dcmitype/StillImage" />
        <dc:title />
      </cc:Work>
    </rdf:RDF>
  </metadata>
  <defs id="defs113" />
  <path style="opacity:1;fill:#000000;fill-opacity:1;fill-rule:evenodd;stroke:#ffffff;stroke-width:2;stroke-linecap:round;stroke-linejoin:round;stroke-miterlimit:4;stroke-dasharray:none;stroke-opacity:0.50196081;paint-order:markers stroke fill" d="M 7 0 A 7 7 0 0 0 0 7 A 7 7 0 0 0 7 14 A 7 7 0 0 0 14 7 A 7 7 0 0 0 7 0 z M 7 1.5 A 5.5 5.5 0 0 1 12.5 7 A 5.5 5.5 0 0 1 7 12.5 A 5.5 5.5 0 0 1 1.5 7 A 5.5 5.5 0 0 1 7 1.5 z M 7 2.8691406 A 1.0399773 1.0399773 0 0 0 5.9609375 3.9101562 A 1.0399773 1.0399773 0 0 0 7 4.9492188 A 1.0399773 1.0399773 0 0 0 8.0390625 3.9101562 A 1.0399773 1.0399773 0 0 0 7 2.8691406 z M 7.6875 5.6347656 L 5.6269531 6.3222656 L 5.6269531 7.0078125 L 6.2597656 7.0078125 L 6.3125 10.443359 L 5.6269531 10.443359 L 5.6269531 11.130859 L 8.3730469 11.130859 L 8.3730469 10.443359 L 7.6875 10.443359 L 7.6875 5.6347656 z " id="path20607" />
  <path id="path41" d="M 7 0 A 7 7 0 0 0 0 7 A 7 7 0 0 0 7 14 A 7 7 0 0 0 14 7 A 7 7 0 0 0 7 0 z M 7 1.5 A 5.5 5.5 0 0 1 12.5 7 A 5.5 5.5 0 0 1 7 12.5 A 5.5 5.5 0 0 1 1.5 7 A 5.5 5.5 0 0 1 7 1.5 z M 7 2.8691406 A 1.0399773 1.0399773 0 0 0 5.9609375 3.9101562 A 1.0399773 1.0399773 0 0 0 7 4.9492188 A 1.0399773 1.0399773 0 0 0 8.0390625 3.9101562 A 1.0399773 1.0399773 0 0 0 7 2.8691406 z M 7.6875 5.6347656 L 5.6269531 6.3222656 L 5.6269531 7.0078125 L 6.2597656 7.0078125 L 6.3125 10.443359 L 5.6269531 10.443359 L 5.6269531 11.130859 L 8.3730469 11.130859 L 8.3730469 10.443359 L 7.6875 10.443359 L 7.6875 5.6347656 z " style="opacity:1;fill:#000000;fill-opacity:1;fill-rule:evenodd;stroke:none;stroke-width:1.60396886;stroke-linecap:square;stroke-linejoin:round;stroke-miterlimit:4;stroke-dasharray:none;stroke-opacity:1;paint-order:markers stroke fill" />
</svg>
