<?xml version="1.0" encoding="UTF-8" standalone="no"?>
<svg version="1.1" viewBox="0 0 14 14" height="14" width="14" id="svg5" sodipodi:docname="parking.svg" inkscape:version="1.2.2 (b0a8486541, 2022-12-01)" xmlns:inkscape="http://www.inkscape.org/namespaces/inkscape" xmlns:sodipodi="http://sodipodi.sourceforge.net/DTD/sodipodi-0.dtd" xmlns="http://www.w3.org/2000/svg" xmlns:svg="http://www.w3.org/2000/svg">
  <defs id="defs9" />
  <sodipodi:namedview id="namedview7" pagecolor="#ffffff" bordercolor="#666666" borderopacity="1.0" inkscape:showpageshadow="2" inkscape:pageopacity="0.0" inkscape:pagecheckerboard="true" inkscape:deskcolor="#d1d1d1" showgrid="false" inkscape:zoom="30.821429" inkscape:cx="-1.7682503" inkscape:cy="9.3603708" inkscape:window-width="1863" inkscape:window-height="1056" inkscape:window-x="0" inkscape:window-y="0" inkscape:window-maximized="1" inkscape:current-layer="svg5" />
  <path fill-rule="evenodd" d="m 3,1 0,12 1.75,0 0,-5 L 9,8 A 3,3.5 0 0 0 9,1 Z m 1.75,1.75 0,3.5 3.75,0 a 1.58,1.75 0 0 0 0,-3.5 z" id="path292" style="fill:none;stroke:#ffffff;stroke-opacity:0.5;stroke-linejoin:round;stroke-linecap:round;stroke-width:3;stroke-dasharray:none" />
  <path fill-rule="evenodd" d="m 3,1 0,12 1.75,0 0,-5 L 9,8 A 3,3.5 0 0 0 9,1 Z m 1.75,1.75 0,3.5 3.75,0 a 1.58,1.75 0 0 0 0,-3.5 z" id="path3" />
</svg>
