<svg xmlns="http://www.w3.org/2000/svg" width="50" height="50" viewBox="0 0 13.229 13.229">
    <path d="M1.984 2.645v.266h.603l-.297.793h-.835v.265h.736l-.33.88.246.093.365-.973h1.14l.365.973.248-.094-.33-.879h.736v-.265h-.835L3.5 2.91h.603v-.266zm.886.266h.346l.297.793h-.941z" color="#000" opacity=".5" fill="none" stroke="#fff" stroke-width=".794" stroke-linecap="round" stroke-linejoin="round"/>
    <path d="M1.984 2.645v.266h.603l-.297.793h-.835v.265h.736l-.33.88.246.093.365-.973h1.14l.365.973.248-.094-.33-.879h.736v-.265h-.835L3.5 2.91h.603v-.266zm.886.266h.346l.297.793h-.941z" color="#000" fill-rule="evenodd"/>
</svg>
