<?xml version="1.0" encoding="UTF-8" standalone="no"?>
<svg xmlns:dc="http://purl.org/dc/elements/1.1/" xmlns:cc="http://creativecommons.org/ns#" xmlns:rdf="http://www.w3.org/1999/02/22-rdf-syntax-ns#" xmlns:svg="http://www.w3.org/2000/svg" xmlns="http://www.w3.org/2000/svg" xmlns:sodipodi="http://sodipodi.sourceforge.net/DTD/sodipodi-0.dtd" xmlns:inkscape="http://www.inkscape.org/namespaces/inkscape" width="32" height="32" id="svg2" sodipodi:version="0.32" inkscape:version="1.0.1 (3bc2e813f5, 2020-09-07)" version="1.0" sodipodi:docname="picnic_shelter.svg" inkscape:output_extension="org.inkscape.output.svg.inkscape" inkscape:export-filename="/home/rudolf/Downloads/mapicons2/Shelter_picnic_brown_p16.png" inkscape:export-xdpi="44.985714" inkscape:export-ydpi="44.985714">
  <title id="title3212">Map icon for shelter</title>
  <metadata id="metadata10">
    <rdf:RDF>
      <cc:Work rdf:about="">
        <dc:format>image/svg+xml</dc:format>
        <dc:type rdf:resource="http://purl.org/dc/dcmitype/StillImage" />
        <cc:license rdf:resource="http://creativecommons.org/publicdomain/zero/1.0/" />
        <dc:title>Map icon for shelter</dc:title>
        <dc:creator>
          <cc:Agent>
            <dc:title>Rudolf</dc:title>
          </cc:Agent>
        </dc:creator>
        <dc:date>2012-04-05</dc:date>
      </cc:Work>
      <cc:License rdf:about="http://creativecommons.org/publicdomain/zero/1.0/">
        <cc:permits rdf:resource="http://creativecommons.org/ns#Reproduction" />
        <cc:permits rdf:resource="http://creativecommons.org/ns#Distribution" />
        <cc:permits rdf:resource="http://creativecommons.org/ns#DerivativeWorks" />
      </cc:License>
    </rdf:RDF>
  </metadata>
  <sodipodi:namedview inkscape:window-height="1056" inkscape:window-width="1847" inkscape:pageshadow="2" inkscape:pageopacity="0.0" guidetolerance="10.0" gridtolerance="10.0" objecttolerance="10.0" borderopacity="1.0" bordercolor="#666666" pagecolor="#ffffff" id="base" showgrid="true" inkscape:snap-global="false" inkscape:zoom="16.90625" inkscape:cx="-1.3155866" inkscape:cy="17.414939" inkscape:window-x="0" inkscape:window-y="0" inkscape:window-maximized="1" inkscape:current-layer="svg2" showguides="true" inkscape:guide-bbox="true" inkscape:snap-bbox="false" inkscape:snap-grids="true" inkscape:snap-page="false" inkscape:snap-nodes="true" inkscape:object-nodes="true" inkscape:snap-to-guides="false" inkscape:snap-center="true" inkscape:snap-object-midpoints="true" inkscape:snap-midpoints="true" inkscape:snap-smooth-nodes="true" inkscape:object-paths="true" inkscape:snap-intersection-paths="true" fit-margin-top="0" fit-margin-left="0" fit-margin-right="0" fit-margin-bottom="0" inkscape:document-rotation="0" inkscape:pagecheckerboard="true">
    <inkscape:grid type="xygrid" id="grid2383" visible="true" enabled="true" empspacing="2" snapvisiblegridlinesonly="true" units="px" spacingx="1" spacingy="1" />
  </sodipodi:namedview>
  <defs id="defs4">
    <inkscape:perspective sodipodi:type="inkscape:persp3d" inkscape:vp_x="0 : 526.18109 : 1" inkscape:vp_y="0 : 1000 : 0" inkscape:vp_z="744.09448 : 526.18109 : 1" inkscape:persp3d-origin="372.04724 : 350.78739 : 1" id="perspective10" />
    <inkscape:perspective id="perspective2461" inkscape:persp3d-origin="10 : 6.6666667 : 1" inkscape:vp_z="20 : 10 : 1" inkscape:vp_y="0 : 1000 : 0" inkscape:vp_x="0 : 10 : 1" sodipodi:type="inkscape:persp3d" />
    <inkscape:perspective id="perspective2466" inkscape:persp3d-origin="400 : 200 : 1" inkscape:vp_z="800 : 300 : 1" inkscape:vp_y="0 : 1000 : 0" inkscape:vp_x="0 : 300 : 1" sodipodi:type="inkscape:persp3d" />
  </defs>
  <path id="path870" style="color:#000000;font-style:normal;font-variant:normal;font-weight:normal;font-stretch:normal;font-size:medium;line-height:normal;font-family:sans-serif;font-variant-ligatures:normal;font-variant-position:normal;font-variant-caps:normal;font-variant-numeric:normal;font-variant-alternates:normal;font-variant-east-asian:normal;font-feature-settings:normal;font-variation-settings:normal;text-indent:0;text-align:start;text-decoration:none;text-decoration-line:none;text-decoration-style:solid;text-decoration-color:#000000;letter-spacing:normal;word-spacing:normal;text-transform:none;writing-mode:lr-tb;direction:ltr;text-orientation:mixed;dominant-baseline:auto;baseline-shift:baseline;text-anchor:start;white-space:normal;shape-padding:0;shape-margin:0;inline-size:0;clip-rule:nonzero;display:inline;overflow:visible;visibility:visible;isolation:auto;mix-blend-mode:normal;color-interpolation:sRGB;color-interpolation-filters:linearRGB;solid-color:#000000;solid-opacity:1;vector-effect:none;fill:#000000;fill-opacity:1;fill-rule:nonzero;stroke:#ffffff;stroke-width:3;stroke-linecap:round;stroke-linejoin:round;stroke-miterlimit:4;stroke-dasharray:none;stroke-dashoffset:0;stroke-opacity:0.5;color-rendering:auto;image-rendering:auto;shape-rendering:auto;text-rendering:auto;enable-background:accumulate;stop-color:#000000;stop-opacity:1;opacity:1" d="M 7.421875 0.013671875 A 0.750075 0.750075 0 0 0 6.9882812 0.1640625 L 1.0527344 4.6308594 A 0.75 0.75 0 0 0 0.90429688 5.6816406 A 0.75 0.75 0 0 0 1.953125 5.8300781 L 7.4355469 1.7050781 L 12.789062 5.8261719 A 0.75 0.75 0 0 0 13.839844 5.6875 A 0.75 0.75 0 0 0 13.703125 4.6367188 L 7.8964844 0.16992188 A 0.750075 0.750075 0 0 0 7.421875 0.013671875 z M 8.3808594 7.9960938 A 0.5 0.5 0 0 0 8.3222656 7.9980469 L 4.4394531 7.9980469 L 3.9394531 7.9980469 L 3.9394531 8.9980469 L 4.4394531 8.9980469 L 5.9375 8.9980469 L 5.2226562 10.998047 L 3.453125 10.998047 L 2.953125 10.998047 L 2.953125 11.998047 L 3.453125 11.998047 L 4.8652344 11.998047 L 4.03125 14.328125 A 0.5 0.5 0 0 0 4.3339844 14.96875 A 0.5 0.5 0 0 0 4.9726562 14.666016 L 5.9277344 11.998047 L 9.0761719 11.998047 L 10.025391 14.664062 A 0.5 0.5 0 0 0 10.664062 14.96875 A 0.5 0.5 0 0 0 10.96875 14.330078 L 10.138672 11.998047 L 11.552734 11.998047 L 12.052734 11.998047 L 12.052734 10.998047 L 11.552734 10.998047 L 9.78125 10.998047 L 9.0703125 8.9980469 L 10.564453 8.9980469 L 11.064453 8.9980469 L 11.064453 7.9980469 L 10.564453 7.9980469 L 8.3964844 7.9980469 A 0.5 0.5 0 0 0 8.3808594 7.9960938 z M 7 8.9980469 L 8.0097656 8.9980469 L 8.7207031 10.998047 L 6.2851562 10.998047 L 7 8.9980469 z " />
  <path id="path851" style="color:#000000;font-style:normal;font-variant:normal;font-weight:normal;font-stretch:normal;font-size:medium;line-height:normal;font-family:sans-serif;font-variant-ligatures:normal;font-variant-position:normal;font-variant-caps:normal;font-variant-numeric:normal;font-variant-alternates:normal;font-variant-east-asian:normal;font-feature-settings:normal;font-variation-settings:normal;text-indent:0;text-align:start;text-decoration:none;text-decoration-line:none;text-decoration-style:solid;text-decoration-color:#000000;letter-spacing:normal;word-spacing:normal;text-transform:none;writing-mode:lr-tb;direction:ltr;text-orientation:mixed;dominant-baseline:auto;baseline-shift:baseline;text-anchor:start;white-space:normal;shape-padding:0;shape-margin:0;inline-size:0;clip-rule:nonzero;display:inline;overflow:visible;visibility:visible;isolation:auto;mix-blend-mode:normal;color-interpolation:sRGB;color-interpolation-filters:linearRGB;solid-color:#000000;solid-opacity:1;vector-effect:none;fill:#000000;fill-opacity:1;fill-rule:nonzero;stroke:none;stroke-width:1.5;stroke-linecap:round;stroke-linejoin:round;stroke-miterlimit:4;stroke-dasharray:none;stroke-dashoffset:0;stroke-opacity:1;color-rendering:auto;image-rendering:auto;shape-rendering:auto;text-rendering:auto;enable-background:accumulate;stop-color:#000000;stop-opacity:1;opacity:1" d="M 7.421875 0.013671875 A 0.750075 0.750075 0 0 0 6.9882812 0.1640625 L 1.0527344 4.6308594 A 0.75 0.75 0 0 0 0.90429688 5.6816406 A 0.75 0.75 0 0 0 1.953125 5.8300781 L 7.4355469 1.7050781 L 12.789062 5.8261719 A 0.75 0.75 0 0 0 13.839844 5.6875 A 0.75 0.75 0 0 0 13.703125 4.6367188 L 7.8964844 0.16992188 A 0.750075 0.750075 0 0 0 7.421875 0.013671875 z M 8.3808594 7.9960938 A 0.5 0.5 0 0 0 8.3222656 7.9980469 L 4.4394531 7.9980469 L 3.9394531 7.9980469 L 3.9394531 8.9980469 L 4.4394531 8.9980469 L 5.9375 8.9980469 L 5.2226562 10.998047 L 3.453125 10.998047 L 2.953125 10.998047 L 2.953125 11.998047 L 3.453125 11.998047 L 4.8652344 11.998047 L 4.03125 14.328125 A 0.5 0.5 0 0 0 4.3339844 14.96875 A 0.5 0.5 0 0 0 4.9726562 14.666016 L 5.9277344 11.998047 L 9.0761719 11.998047 L 10.025391 14.664062 A 0.5 0.5 0 0 0 10.664062 14.96875 A 0.5 0.5 0 0 0 10.96875 14.330078 L 10.138672 11.998047 L 11.552734 11.998047 L 12.052734 11.998047 L 12.052734 10.998047 L 11.552734 10.998047 L 9.78125 10.998047 L 9.0703125 8.9980469 L 10.564453 8.9980469 L 11.064453 8.9980469 L 11.064453 7.9980469 L 10.564453 7.9980469 L 8.3964844 7.9980469 A 0.5 0.5 0 0 0 8.3808594 7.9960938 z M 7 8.9980469 L 8.0097656 8.9980469 L 8.7207031 10.998047 L 6.2851562 10.998047 L 7 8.9980469 z " />
</svg>
