<?xml version="1.0" encoding="UTF-8" standalone="no"?>
<!-- Created with Inkscape (http://www.inkscape.org/) -->

<svg xmlns:dc="http://purl.org/dc/elements/1.1/" xmlns:cc="http://creativecommons.org/ns#" xmlns:rdf="http://www.w3.org/1999/02/22-rdf-syntax-ns#" xmlns:svg="http://www.w3.org/2000/svg" xmlns="http://www.w3.org/2000/svg" xmlns:sodipodi="http://sodipodi.sourceforge.net/DTD/sodipodi-0.dtd" xmlns:inkscape="http://www.inkscape.org/namespaces/inkscape" version="1.0" width="580" height="580" id="svg2" sodipodi:version="0.32" inkscape:version="0.92.3 (2405546, 2018-03-11)" sodipodi:docname="quarry.svg" inkscape:output_extension="org.inkscape.output.svg.inkscape">
  <metadata id="metadata10">
    <rdf:RDF>
      <cc:Work rdf:about="">
        <dc:format>image/svg+xml</dc:format>
        <dc:type rdf:resource="http://purl.org/dc/dcmitype/StillImage" />
        <cc:license rdf:resource="http://web.resource.org/cc/PublicDomain" />
        <dc:language>en</dc:language>
        <dc:title />
      </cc:Work>
    </rdf:RDF>
  </metadata>
  <sodipodi:namedview inkscape:window-height="1058" inkscape:window-width="1881" inkscape:pageshadow="2" inkscape:pageopacity="0.0" guidetolerance="10.0" gridtolerance="10.0" objecttolerance="10.0" borderopacity="1.0" bordercolor="#666666" pagecolor="#ffffff" id="base" showgrid="false" inkscape:zoom="8" inkscape:cx="543.42624" inkscape:cy="30.327566" inkscape:window-x="0" inkscape:window-y="0" inkscape:current-layer="svg2" showguides="true" inkscape:guide-bbox="true" inkscape:window-maximized="1" />
  <defs id="defs4">
    <inkscape:perspective sodipodi:type="inkscape:persp3d" inkscape:vp_x="0 : 290 : 1" inkscape:vp_y="0 : 1000 : 0" inkscape:vp_z="580 : 290 : 1" inkscape:persp3d-origin="290 : 193.33333 : 1" id="perspective12" />
    <style type="text/css" id="style6">
   
    .fil0 {fill:#EF7900}
   
  </style>
    <inkscape:perspective id="perspective6807" inkscape:persp3d-origin="29.116032 : 19.410688 : 1" inkscape:vp_z="58.232063 : 29.116032 : 1" inkscape:vp_y="0 : 1000 : 0" inkscape:vp_x="0 : 29.116032 : 1" sodipodi:type="inkscape:persp3d" />
    <inkscape:perspective id="perspective6954" inkscape:persp3d-origin="290 : 193.33333 : 1" inkscape:vp_z="580 : 290 : 1" inkscape:vp_y="0 : 1000 : 0" inkscape:vp_x="0 : 290 : 1" sodipodi:type="inkscape:persp3d" />
    <inkscape:perspective id="perspective2541" inkscape:persp3d-origin="240 : 160 : 1" inkscape:vp_z="480 : 240 : 1" inkscape:vp_y="0 : 1000 : 0" inkscape:vp_x="0 : 240 : 1" sodipodi:type="inkscape:persp3d" />
    <inkscape:perspective id="perspective2750" inkscape:persp3d-origin="215 : 143.33333 : 1" inkscape:vp_z="430 : 215 : 1" inkscape:vp_y="0 : 1000 : 0" inkscape:vp_x="0 : 215 : 1" sodipodi:type="inkscape:persp3d" />
    <inkscape:perspective id="perspective2830" inkscape:persp3d-origin="0.5 : 0.33333333 : 1" inkscape:vp_z="1 : 0.5 : 1" inkscape:vp_y="0 : 1000 : 0" inkscape:vp_x="0 : 0.5 : 1" sodipodi:type="inkscape:persp3d" />
    <inkscape:perspective id="perspective3648" inkscape:persp3d-origin="0.5 : 0.33333333 : 1" inkscape:vp_z="1 : 0.5 : 1" inkscape:vp_y="0 : 1000 : 0" inkscape:vp_x="0 : 0.5 : 1" sodipodi:type="inkscape:persp3d" />
  </defs>
  <rect style="opacity:0.5;fill:#9e9e9e;fill-opacity:0;fill-rule:nonzero;stroke:none;stroke-width:0.31285608;stroke-linecap:round;stroke-linejoin:round;stroke-miterlimit:4;stroke-dasharray:none;stroke-dashoffset:0;stroke-opacity:1" id="rect134" width="62.758656" height="62.866867" x="515.99133" y="515.02777" />
  <path style="fill:none;stroke:#d6cfcf;stroke-width:0.94137985;stroke-linecap:round;stroke-linejoin:round;stroke-miterlimit:4;stroke-dasharray:none;stroke-opacity:1" d="m 533.5306,527.89397 c -0.81628,0.20128 -1.93319,-0.19481 -2.5259,0.55791 c -0.20045,0.89591 0.74425,1.86231 1.65014,1.57911 c 0.93509,0.0292 2.04351,0.37397 2.84373,-0.27726 c -0.11655,-0.86356 -1.02697,-1.32266 -1.65686,-1.7989 c -0.0993,-0.0397 -0.20295,-0.0734 -0.31111,-0.0609 z" id="path2845" inkscape:connector-curvature="0" />
  <path id="path3720" d="m 539.04903,548.23641 c -0.81628,0.20129 -1.93319,-0.19481 -2.52588,0.55794 c -0.20046,0.89591 0.74423,1.86231 1.65012,1.57911 c 0.93509,0.029 2.04351,0.37394 2.84376,-0.27727 c -0.11686,-0.86355 -1.027,-1.32267 -1.65689,-1.7989 c -0.0993,-0.0397 -0.20295,-0.0734 -0.31111,-0.0609 z" style="fill:none;stroke:#d6cfcf;stroke-width:0.94137985;stroke-linecap:round;stroke-linejoin:round;stroke-miterlimit:4;stroke-dasharray:none;stroke-opacity:1" inkscape:connector-curvature="0" />
  <path style="fill:none;stroke:#d6cfcf;stroke-width:0.94137985;stroke-linecap:round;stroke-linejoin:round;stroke-miterlimit:4;stroke-dasharray:none;stroke-opacity:1" d="m 550.3801,538.72794 c -0.7515,0.18063 -1.69485,-0.19002 -2.29597,0.42943 c -0.11764,0.82894 0.77638,1.52075 1.55544,1.26466 c 0.81736,0.0238 1.79557,0.33783 2.49546,-0.17585 c -0.25483,-0.73691 -1.02567,-1.1823 -1.66026,-1.53178 c -0.0323,8.4e-4 -0.0626,-0.0292 -0.0948,0.0126 z" id="path3722" inkscape:connector-curvature="0" />
  <path style="fill:none;stroke:#d6cfcf;stroke-width:0.94137985;stroke-linecap:round;stroke-linejoin:round;stroke-miterlimit:4;stroke-dasharray:none;stroke-opacity:1" d="m 535.458,538.44389 c -0.30051,-0.0329 -0.37869,0.19211 -0.10494,0.30772 c 0.56345,0.23977 1.20385,-0.0369 1.79213,0.152 c 0.46806,0.11812 0.21722,-0.11937 -0.0271,-0.26375 c -0.48205,-0.3468 -1.10107,-0.10682 -1.66028,-0.19608 z" id="path3724" inkscape:connector-curvature="0" />
  <path style="fill:none;stroke:#d6cfcf;stroke-width:0.94137985;stroke-linecap:round;stroke-linejoin:round;stroke-miterlimit:4;stroke-dasharray:none;stroke-opacity:1" d="m 554.27547,550.2923 c -0.96657,0.16395 -2.3312,-0.17688 -2.90125,0.86226 c -0.34472,1.20171 0.95863,2.47676 2.15735,2.14718 c 1.02891,0.0795 2.43073,0.39591 3.12359,-0.59431 c 0.0802,-1.17292 -1.14276,-1.84243 -2.00099,-2.37116 c -0.1222,-0.0354 -0.25128,-0.0549 -0.3787,-0.0441 z" id="path3736" inkscape:connector-curvature="0" />
  <path id="path3742" d="m 546.17025,546.55925 c -0.30053,-0.0329 -0.37868,0.19211 -0.10494,0.3077 c 0.56347,0.23978 1.20388,-0.0369 1.79214,0.152 c 0.46808,0.11812 0.21723,-0.11937 -0.0271,-0.26376 c -0.48207,-0.34681 -1.10105,-0.10683 -1.66026,-0.19607 z" style="fill:none;stroke:#d6cfcf;stroke-width:0.94137985;stroke-linecap:round;stroke-linejoin:round;stroke-miterlimit:4;stroke-dasharray:none;stroke-opacity:1" inkscape:connector-curvature="0" />
  <path style="fill:none;stroke:#d6cfcf;stroke-width:0.94137985;stroke-linecap:round;stroke-linejoin:round;stroke-miterlimit:4;stroke-dasharray:none;stroke-opacity:1" d="m 527.98513,542.87352 c -0.56122,0.1324 -1.3125,-0.19272 -1.75834,0.22319 c 0.12361,0.61945 0.87503,0.70783 1.38637,0.58158 c 0.49801,0.008 1.2278,0.24248 1.60618,0.0166 c -0.30867,-0.36314 -0.75379,-0.75565 -1.23421,-0.82168 z" id="path3744" inkscape:connector-curvature="0" />
  <path id="path3750" d="m 529.6082,558.67139 c -0.56121,0.13239 -1.31251,-0.19273 -1.75832,0.22318 c 0.12361,0.61947 0.875,0.70783 1.38635,0.5816 c 0.49801,0.008 1.22778,0.24246 1.60617,0.0166 c -0.30868,-0.36314 -0.75377,-0.75564 -1.2342,-0.82168 z" style="fill:none;stroke:#d6cfcf;stroke-width:0.94137985;stroke-linecap:round;stroke-linejoin:round;stroke-miterlimit:4;stroke-dasharray:none;stroke-opacity:1" inkscape:connector-curvature="0" />
  <path style="fill:none;stroke:#d6cfcf;stroke-width:0.94137985;stroke-linecap:round;stroke-linejoin:round;stroke-miterlimit:4;stroke-dasharray:none;stroke-opacity:1" d="m 524.76604,570.20194 c -0.81628,0.20129 -1.93321,-0.19481 -2.52591,0.55794 c -0.20044,0.89589 0.74426,1.86228 1.65011,1.57911 c 0.93511,0.0292 2.04355,0.37394 2.84377,-0.27727 c -0.11655,-0.86355 -1.02698,-1.32268 -1.6569,-1.79892 c -0.0993,-0.0397 -0.20295,-0.0734 -0.31107,-0.0609 z" id="path3752" inkscape:connector-curvature="0" />
  <path style="fill:none;stroke:#d6cfcf;stroke-width:0.94137985;stroke-linecap:round;stroke-linejoin:round;stroke-miterlimit:4;stroke-dasharray:none;stroke-opacity:1" d="m 535.99902,568.30837 c -0.30051,-0.0329 -0.37868,0.19211 -0.10494,0.3077 c 0.56348,0.23977 1.20386,-0.0369 1.79216,0.152 c 0.46808,0.11812 0.21721,-0.11937 -0.0271,-0.26376 c -0.48205,-0.34681 -1.10103,-0.10683 -1.66026,-0.19606 z" id="path3754" inkscape:connector-curvature="0" />
  <path id="path3758" d="m 525.38483,551.38787 c -0.75148,0.18065 -1.69485,-0.19 -2.29597,0.42943 c -0.11764,0.82896 0.7764,1.52075 1.55545,1.26466 c 0.81737,0.0238 1.79558,0.33784 2.49547,-0.17583 c -0.25484,-0.73694 -1.02568,-1.1823 -1.66027,-1.53176 c -0.0323,8.1e-4 -0.0626,-0.0292 -0.0947,0.0126 z" style="fill:none;stroke:#d6cfcf;stroke-width:0.94137985;stroke-linecap:round;stroke-linejoin:round;stroke-miterlimit:4;stroke-dasharray:none;stroke-opacity:1" inkscape:connector-curvature="0" />
  <path id="path3760" d="m 566.53301,545.5313 c -0.81629,0.20128 -1.9332,-0.19481 -2.5259,0.55793 c -0.20046,0.8959 0.74425,1.8623 1.6501,1.57912 c 0.93512,0.0292 2.04355,0.37394 2.84376,-0.27727 c -0.11654,-0.86355 -1.02696,-1.32269 -1.65687,-1.79892 c -0.0993,-0.0397 -0.20297,-0.0734 -0.31109,-0.0609 z" style="fill:none;stroke:#d6cfcf;stroke-width:0.94137985;stroke-linecap:round;stroke-linejoin:round;stroke-miterlimit:4;stroke-dasharray:none;stroke-opacity:1" inkscape:connector-curvature="0" />
  <path id="path3762" d="m 521.05666,531.4647 c -0.96657,0.16395 -2.3312,-0.17688 -2.90125,0.86225 c -0.34473,1.20171 0.95865,2.47677 2.15734,2.14719 c 1.02891,0.0795 2.43073,0.39589 3.1236,-0.59431 c 0.0802,-1.17292 -1.14276,-1.84243 -2.00099,-2.37116 c -0.1222,-0.0355 -0.25128,-0.0549 -0.3787,-0.0441 z" style="fill:none;stroke:#d6cfcf;stroke-width:0.94137985;stroke-linecap:round;stroke-linejoin:round;stroke-miterlimit:4;stroke-dasharray:none;stroke-opacity:1" inkscape:connector-curvature="0" />
  <path id="path3764" d="m 572.34562,569.66092 c -0.96654,0.16395 -2.33119,-0.17688 -2.90123,0.86226 c -0.34473,1.20171 0.95862,2.47677 2.15732,2.14718 c 1.02893,0.0795 2.43073,0.39589 3.12362,-0.5943 c 0.0802,-1.17293 -1.14276,-1.84243 -2.00098,-2.37117 c -0.12236,-0.0354 -0.25128,-0.0549 -0.37873,-0.0441 z" style="fill:none;stroke:#d6cfcf;stroke-width:0.94137985;stroke-linecap:round;stroke-linejoin:round;stroke-miterlimit:4;stroke-dasharray:none;stroke-opacity:1" inkscape:connector-curvature="0" />
  <path style="fill:none;stroke:#d6cfcf;stroke-width:0.94137985;stroke-linecap:round;stroke-linejoin:round;stroke-miterlimit:4;stroke-dasharray:none;stroke-opacity:1" d="m 569.75886,564.73763 c -0.30054,-0.0329 -0.37869,0.19209 -0.10494,0.30768 c 0.56346,0.2398 1.20385,-0.0369 1.79214,0.15232 c 0.46807,0.11811 0.21722,-0.11938 -0.0271,-0.26377 c -0.48204,-0.34681 -1.10104,-0.10682 -1.66027,-0.19606 z" id="path3766" inkscape:connector-curvature="0" />
  <path id="path3768" d="m 559.03983,570.6821 c -0.56121,0.13239 -1.3125,-0.19273 -1.75832,0.22318 c 0.12361,0.61945 0.87501,0.70783 1.38639,0.58158 c 0.49797,0.008 1.22776,0.24251 1.60616,0.0166 c -0.30869,-0.36312 -0.7538,-0.75565 -1.23423,-0.82168 z" style="fill:none;stroke:#d6cfcf;stroke-width:0.94137985;stroke-linecap:round;stroke-linejoin:round;stroke-miterlimit:4;stroke-dasharray:none;stroke-opacity:1" inkscape:connector-curvature="0" />
  <path id="path3770" d="m 560.1185,560.26064 c -0.75148,0.18063 -1.69484,-0.19002 -2.29597,0.42944 c -0.11765,0.82896 0.77641,1.52076 1.55545,1.26465 c 0.81738,0.0238 1.79556,0.33785 2.49545,-0.17585 c -0.25482,-0.73694 -1.02565,-1.1823 -1.66025,-1.53178 c -0.0323,8.2e-4 -0.0626,-0.0292 -0.0947,0.0125 z" style="fill:none;stroke:#d6cfcf;stroke-width:0.94137985;stroke-linecap:round;stroke-linejoin:round;stroke-miterlimit:4;stroke-dasharray:none;stroke-opacity:1" inkscape:connector-curvature="0" />
  <path style="fill:none;stroke:#d6cfcf;stroke-width:0.94137985;stroke-linecap:round;stroke-linejoin:round;stroke-miterlimit:4;stroke-dasharray:none;stroke-opacity:1" d="m 546.73157,563.81788 c -0.81627,0.20128 -1.93321,-0.19483 -2.5259,0.55793 c -0.20044,0.8959 0.74425,1.86229 1.65012,1.57909 c 0.93509,0.0292 2.04351,0.37397 2.84375,-0.27726 c -0.11655,-0.86353 -1.02698,-1.32266 -1.65688,-1.7989 c -0.0993,-0.0397 -0.20295,-0.0734 -0.31109,-0.0609 z" id="path3772" inkscape:connector-curvature="0" />
  <path style="fill:none;stroke:#d6cfcf;stroke-width:0.94137985;stroke-linecap:round;stroke-linejoin:round;stroke-miterlimit:4;stroke-dasharray:none;stroke-opacity:1" d="m 569.99555,529.51703 c -0.81629,0.20128 -1.9332,-0.19481 -2.5259,0.55794 c -0.20046,0.89588 0.74427,1.86228 1.65012,1.57909 c 0.9351,0.0292 2.04353,0.37396 2.84376,-0.27727 c -0.11655,-0.86353 -1.02698,-1.32267 -1.65689,-1.7989 c -0.0993,-0.0397 -0.20295,-0.0734 -0.31109,-0.0609 z" id="path3774" inkscape:connector-curvature="0" />
  <path id="path3776" d="m 565.43067,524.70192 c -0.30052,-0.0329 -0.37867,0.1921 -0.10494,0.30772 c 0.56346,0.23976 1.20387,-0.0369 1.79214,0.152 c 0.46808,0.11812 0.21724,-0.11937 -0.0271,-0.26375 c -0.48207,-0.34682 -1.10103,-0.10682 -1.66026,-0.19606 z" style="fill:none;stroke:#d6cfcf;stroke-width:0.94137985;stroke-linecap:round;stroke-linejoin:round;stroke-miterlimit:4;stroke-dasharray:none;stroke-opacity:1" inkscape:connector-curvature="0" />
  <path id="path3778" d="m 557.95779,533.89255 c -0.5612,0.13224 -1.3125,-0.19273 -1.75832,0.22317 c 0.12377,0.61947 0.87501,0.70781 1.38639,0.5816 c 0.49797,0.008 1.22776,0.24248 1.60613,0.0166 c -0.30868,-0.36312 -0.75377,-0.75565 -1.2342,-0.82169 z" style="fill:none;stroke:#d6cfcf;stroke-width:0.94137985;stroke-linecap:round;stroke-linejoin:round;stroke-miterlimit:4;stroke-dasharray:none;stroke-opacity:1" inkscape:connector-curvature="0" />
  <path id="path3780" d="m 542.15654,517.39811 c -0.96654,0.16394 -2.33118,-0.17688 -2.90123,0.86226 c -0.34473,1.20169 0.95863,2.47675 2.15733,2.14718 c 1.02891,0.0795 2.43073,0.39591 3.12362,-0.59432 c 0.0802,-1.17291 -1.14278,-1.84241 -2.00099,-2.37115 c -0.12251,-0.0355 -0.25128,-0.0551 -0.37873,-0.0441 z" style="fill:none;stroke:#d6cfcf;stroke-width:0.94137985;stroke-linecap:round;stroke-linejoin:round;stroke-miterlimit:4;stroke-dasharray:none;stroke-opacity:1" inkscape:connector-curvature="0" />
  <path id="path3782" d="m 545.30461,522.97064 c -0.30052,-0.0329 -0.37867,0.19211 -0.10495,0.30772 c 0.56347,0.23977 1.20388,-0.0369 1.79214,0.152 c 0.46808,0.11812 0.21721,-0.11937 -0.0271,-0.26375 c -0.48206,-0.34684 -1.10104,-0.10682 -1.66025,-0.19608 z" style="fill:none;stroke:#d6cfcf;stroke-width:0.94137985;stroke-linecap:round;stroke-linejoin:round;stroke-miterlimit:4;stroke-dasharray:none;stroke-opacity:1" inkscape:connector-curvature="0" />
  <path style="fill:none;stroke:#d6cfcf;stroke-width:0.94137985;stroke-linecap:round;stroke-linejoin:round;stroke-miterlimit:4;stroke-dasharray:none;stroke-opacity:1" d="m 533.71995,520.47518 c -0.56119,0.13239 -1.3125,-0.19274 -1.75831,0.22317 c 0.12377,0.61946 0.87502,0.70782 1.38637,0.5816 c 0.49801,0.008 1.22778,0.24249 1.60617,0.0166 c -0.30869,-0.36312 -0.75381,-0.75565 -1.23423,-0.82167 z" id="path3784" inkscape:connector-curvature="0" />
  <path id="path3786" d="m 575.91976,533.56794 c -0.56122,0.13224 -1.31253,-0.19273 -1.75833,0.22316 c 0.12376,0.61946 0.87501,0.70782 1.38637,0.58161 c 0.498,0.008 1.22778,0.24248 1.60616,0.0166 c -0.30869,-0.36312 -0.75377,-0.75564 -1.2342,-0.8217 z" style="fill:none;stroke:#d6cfcf;stroke-width:0.94137985;stroke-linecap:round;stroke-linejoin:round;stroke-miterlimit:4;stroke-dasharray:none;stroke-opacity:1" inkscape:connector-curvature="0" />
</svg>
