<?xml version="1.0" encoding="UTF-8" standalone="no"?>
<!-- Created with Inkscape (http://www.inkscape.org/) -->

<svg xmlns:dc="http://purl.org/dc/elements/1.1/" xmlns:cc="http://creativecommons.org/ns#" xmlns:rdf="http://www.w3.org/1999/02/22-rdf-syntax-ns#" xmlns:svg="http://www.w3.org/2000/svg" xmlns="http://www.w3.org/2000/svg" xmlns:sodipodi="http://sodipodi.sourceforge.net/DTD/sodipodi-0.dtd" xmlns:inkscape="http://www.inkscape.org/namespaces/inkscape" version="1.0" width="64" height="64" id="svg2" sodipodi:version="0.32" inkscape:version="0.92.3 (2405546, 2018-03-11)" sodipodi:docname="quarry.svg" inkscape:output_extension="org.inkscape.output.svg.inkscape">
  <metadata id="metadata10">
    <rdf:RDF>
      <cc:Work rdf:about="">
        <dc:format>image/svg+xml</dc:format>
        <dc:type rdf:resource="http://purl.org/dc/dcmitype/StillImage" />
        <cc:license rdf:resource="http://web.resource.org/cc/PublicDomain" />
        <dc:language>en</dc:language>
        <dc:title></dc:title>
      </cc:Work>
    </rdf:RDF>
  </metadata>
  <sodipodi:namedview inkscape:window-height="1051" inkscape:window-width="1881" inkscape:pageshadow="2" inkscape:pageopacity="0.0" guidetolerance="10.0" gridtolerance="10.0" objecttolerance="10.0" borderopacity="1.0" bordercolor="#666666" pagecolor="#ffffff" id="base" showgrid="false" inkscape:zoom="8" inkscape:cx="34.199447" inkscape:cy="34.639037" inkscape:window-x="0" inkscape:window-y="0" inkscape:current-layer="svg2" showguides="true" inkscape:guide-bbox="true" inkscape:window-maximized="1" inkscape:pagecheckerboard="true" />
  <defs id="defs4">
    <inkscape:perspective sodipodi:type="inkscape:persp3d" inkscape:vp_x="0 : 290 : 1" inkscape:vp_y="0 : 1000 : 0" inkscape:vp_z="580 : 290 : 1" inkscape:persp3d-origin="290 : 193.33333 : 1" id="perspective12" />
    <style type="text/css" id="style6">
   
    .fil0 {fill:#EF7900}
   
  </style>
    <inkscape:perspective id="perspective6807" inkscape:persp3d-origin="29.116032 : 19.410688 : 1" inkscape:vp_z="58.232063 : 29.116032 : 1" inkscape:vp_y="0 : 1000 : 0" inkscape:vp_x="0 : 29.116032 : 1" sodipodi:type="inkscape:persp3d" />
    <inkscape:perspective id="perspective6954" inkscape:persp3d-origin="290 : 193.33333 : 1" inkscape:vp_z="580 : 290 : 1" inkscape:vp_y="0 : 1000 : 0" inkscape:vp_x="0 : 290 : 1" sodipodi:type="inkscape:persp3d" />
    <inkscape:perspective id="perspective2541" inkscape:persp3d-origin="240 : 160 : 1" inkscape:vp_z="480 : 240 : 1" inkscape:vp_y="0 : 1000 : 0" inkscape:vp_x="0 : 240 : 1" sodipodi:type="inkscape:persp3d" />
    <inkscape:perspective id="perspective2750" inkscape:persp3d-origin="215 : 143.33333 : 1" inkscape:vp_z="430 : 215 : 1" inkscape:vp_y="0 : 1000 : 0" inkscape:vp_x="0 : 215 : 1" sodipodi:type="inkscape:persp3d" />
    <inkscape:perspective id="perspective2830" inkscape:persp3d-origin="0.5 : 0.33333333 : 1" inkscape:vp_z="1 : 0.5 : 1" inkscape:vp_y="0 : 1000 : 0" inkscape:vp_x="0 : 0.5 : 1" sodipodi:type="inkscape:persp3d" />
    <inkscape:perspective id="perspective3648" inkscape:persp3d-origin="0.5 : 0.33333333 : 1" inkscape:vp_z="1 : 0.5 : 1" inkscape:vp_y="0 : 1000 : 0" inkscape:vp_x="0 : 0.5 : 1" sodipodi:type="inkscape:persp3d" />
  </defs>
  <rect style="opacity:0.5;fill:#9e9e9e;fill-opacity:0;fill-rule:nonzero;stroke:none;stroke-width:0.31876954;stroke-linecap:round;stroke-linejoin:round;stroke-miterlimit:4;stroke-dasharray:none;stroke-dashoffset:0;stroke-opacity:1" id="rect134" width="64" height="64" x="0" y="-4.7184479e-16" />
  <path style="fill:none;stroke:#d6cfcf;stroke-width:0.95917344;stroke-linecap:round;stroke-linejoin:round;stroke-miterlimit:4;stroke-dasharray:none;stroke-opacity:1" d="M 17.886188,13.098101 C 17.053762,13.30301 15.914759,12.899781 15.310326,13.666068 C 15.105911,14.578127 16.069296,15.561945 16.993106,15.27364 C 17.946691,15.303369 19.077035,15.654352 19.893083,14.991385 C 19.774228,14.112259 18.8458,13.644882 18.203451,13.16006 C 18.102187,13.119644 17.996487,13.085335 17.886188,13.098061 Z" id="path2845" inkscape:connector-curvature="0" />
  <path id="path3720" d="M 23.513769,33.807202 C 22.681344,34.012118 21.542344,33.60888 20.93793,34.375198 C 20.733506,35.287256 21.69688,36.271075 22.620688,35.982771 C 23.574274,36.012294 24.704618,36.36345 25.520698,35.700503 C 25.401524,34.821389 24.473384,34.353991 23.831033,33.869179 C 23.72977,33.828763 23.624067,33.794456 23.513769,33.807182 Z" style="fill:none;stroke:#d6cfcf;stroke-width:0.95917344;stroke-linecap:round;stroke-linejoin:round;stroke-miterlimit:4;stroke-dasharray:none;stroke-opacity:1" inkscape:connector-curvature="0" />
  <path style="fill:none;stroke:#d6cfcf;stroke-width:0.95917344;stroke-linecap:round;stroke-linejoin:round;stroke-miterlimit:4;stroke-dasharray:none;stroke-opacity:1" d="M 35.068964,24.127348 C 34.302602,24.311233 33.340592,23.933902 32.72758,24.564518 C 32.607613,25.408399 33.519318,26.112679 34.313788,25.851972 C 35.147314,25.876201 36.144872,26.195891 36.858607,25.672953 C 36.598736,24.922761 35.81265,24.469342 35.165507,24.113564 C 35.132567,24.114418 35.101667,24.083837 35.068832,24.12639 Z" id="path3722" inkscape:connector-curvature="0" />
  <path style="fill:none;stroke:#d6cfcf;stroke-width:0.95917344;stroke-linecap:round;stroke-linejoin:round;stroke-miterlimit:4;stroke-dasharray:none;stroke-opacity:1" d="M 19.851711,23.838179 C 19.545257,23.804684 19.465529,24.03375 19.744695,24.151445 C 20.31929,24.395536 20.972356,24.113879 21.572272,24.306184 C 22.049592,24.426434 21.79379,24.184663 21.544636,24.037681 C 21.053052,23.68463 20.421787,23.928934 19.851518,23.838065 Z" id="path3724" inkscape:connector-curvature="0" />
  <path style="fill:none;stroke:#d6cfcf;stroke-width:0.95917344;stroke-linecap:round;stroke-linejoin:round;stroke-miterlimit:4;stroke-dasharray:none;stroke-opacity:1" d="M 39.041383,35.900149 C 38.055696,36.067051 36.664072,35.720079 36.082748,36.777949 C 35.73121,38.001318 37.06034,39.29935 38.28277,38.96383 C 39.332032,39.044765 40.761579,39.366877 41.468144,38.358808 C 41.549929,37.164748 40.30278,36.48317 39.427573,35.94491 C 39.302958,35.908872 39.171323,35.88902 39.041383,35.900015 Z" id="path3736" inkscape:connector-curvature="0" />
  <path id="path3742" d="M 30.775845,32.099812 C 30.469372,32.066317 30.389674,32.295384 30.66883,32.413058 C 31.243445,32.657159 31.896521,32.375492 32.496418,32.567799 C 32.973756,32.688045 32.717943,32.446276 32.468781,32.299282 C 31.977175,31.946223 31.345952,32.190527 30.775682,32.09968 Z" style="fill:none;stroke:#d6cfcf;stroke-width:0.95917344;stroke-linecap:round;stroke-linejoin:round;stroke-miterlimit:4;stroke-dasharray:none;stroke-opacity:1" inkscape:connector-curvature="0" />
  <path style="fill:none;stroke:#d6cfcf;stroke-width:0.95917344;stroke-linecap:round;stroke-linejoin:round;stroke-miterlimit:4;stroke-dasharray:none;stroke-opacity:1" d="M 12.23103,28.347649 C 11.658709,28.482435 10.89257,28.151456 10.43791,28.574862 C 10.563966,29.205476 11.330248,29.295451 11.851702,29.166925 C 12.359563,29.175069 13.103788,29.413775 13.489653,29.183824 C 13.174876,28.814137 12.720952,28.414554 12.23103,28.347334 Z" id="path3744" inkscape:connector-curvature="0" />
  <path id="path3750" d="M 13.886204,44.430265 C 13.313893,44.565041 12.547733,44.234061 12.093104,44.657467 C 12.219159,45.288102 12.985413,45.378055 13.506877,45.24955 C 14.014737,45.257694 14.758941,45.496381 15.144817,45.266449 C 14.830029,44.896765 14.376137,44.49719 13.886204,44.42996 Z" style="fill:none;stroke:#d6cfcf;stroke-width:0.95917344;stroke-linecap:round;stroke-linejoin:round;stroke-miterlimit:4;stroke-dasharray:none;stroke-opacity:1" inkscape:connector-curvature="0" />
  <path style="fill:none;stroke:#d6cfcf;stroke-width:0.95917344;stroke-linecap:round;stroke-linejoin:round;stroke-miterlimit:4;stroke-dasharray:none;stroke-opacity:1" d="M 8.9482671,56.168645 C 8.1158413,56.373564 6.9768187,55.970325 6.372396,56.736642 C 6.1679913,57.648681 7.1313777,58.632487 8.0551451,58.344216 C 9.0087515,58.373941 10.139116,58.724894 10.955164,58.061947 C 10.836307,57.18283 9.9078694,56.715426 9.2654902,56.230602 C 9.1642258,56.190188 9.0585265,56.155879 8.9482671,56.168605 Z" id="path3752" inkscape:connector-curvature="0" />
  <path style="fill:none;stroke:#d6cfcf;stroke-width:0.95917344;stroke-linecap:round;stroke-linejoin:round;stroke-miterlimit:4;stroke-dasharray:none;stroke-opacity:1" d="M 20.403432,54.240945 C 20.096978,54.207453 20.017262,54.436518 20.296415,54.554191 C 20.871042,54.798284 21.524088,54.516628 22.124023,54.70893 C 22.601364,54.829181 22.34553,54.58741 22.096388,54.440417 C 21.604804,54.087356 20.973582,54.331663 20.403289,54.240823 Z" id="path3754" inkscape:connector-curvature="0" />
  <path id="path3758" d="M 9.5792965,37.015466 C 8.8129531,37.199371 7.8509235,36.822041 7.2379146,37.452634 C 7.117946,38.296535 8.0296709,39.000795 8.8241292,38.740088 C 9.6576677,38.764318 10.655226,39.084019 11.368959,38.561089 C 11.109079,37.810868 10.322993,37.35748 9.6758491,37.001722 C 9.6429101,37.002546 9.6120113,36.971995 9.5792767,37.014547 Z" style="fill:none;stroke:#d6cfcf;stroke-width:0.95917344;stroke-linecap:round;stroke-linejoin:round;stroke-miterlimit:4;stroke-dasharray:none;stroke-opacity:1" inkscape:connector-curvature="0" />
  <path id="path3760" d="M 51.541373,31.053334 C 50.708937,31.258243 49.569933,30.855012 48.965512,31.621321 C 48.761088,32.533368 49.724483,33.517186 50.648249,33.228903 C 51.601867,33.25863 52.732221,33.609582 53.54826,32.946634 C 53.429413,32.067519 52.500985,31.600103 51.858617,31.115291 C 51.757353,31.074875 51.651631,31.040568 51.541373,31.053292 Z" style="fill:none;stroke:#d6cfcf;stroke-width:0.95917344;stroke-linecap:round;stroke-linejoin:round;stroke-miterlimit:4;stroke-dasharray:none;stroke-opacity:1" inkscape:connector-curvature="0" />
  <path id="path3762" d="M 5.1655181,16.733193 C 4.1798284,16.900098 2.7882071,16.553124 2.2068821,17.610984 C 1.8553327,18.834355 3.1844942,20.132396 4.4068927,19.796875 C 5.4561546,19.877809 6.8857013,20.1999 7.5922765,19.191852 C 7.6740625,17.997793 6.4269131,17.316216 5.5517088,16.777954 C 5.4270916,16.741815 5.2954584,16.722065 5.1655181,16.73306 Z" style="fill:none;stroke:#d6cfcf;stroke-width:0.95917344;stroke-linecap:round;stroke-linejoin:round;stroke-miterlimit:4;stroke-dasharray:none;stroke-opacity:1" inkscape:connector-curvature="0" />
  <path id="path3764" d="M 57.468953,55.617875 C 56.483298,55.784779 55.091653,55.437805 54.51034,56.495677 C 54.15879,57.719046 55.487921,59.017088 56.710329,58.681558 C 57.759611,58.762489 59.189139,59.084581 59.895733,58.076545 C 59.977519,56.882474 58.730371,56.200908 57.855175,55.662636 C 57.730395,55.6266 57.598925,55.606748 57.468953,55.617743 Z" style="fill:none;stroke:#d6cfcf;stroke-width:0.95917344;stroke-linecap:round;stroke-linejoin:round;stroke-miterlimit:4;stroke-dasharray:none;stroke-opacity:1" inkscape:connector-curvature="0" />
  <path style="fill:none;stroke:#d6cfcf;stroke-width:0.95917344;stroke-linecap:round;stroke-linejoin:round;stroke-miterlimit:4;stroke-dasharray:none;stroke-opacity:1" d="M 54.83103,50.605845 C 54.524545,50.572351 54.444849,50.801398 54.724013,50.919071 C 55.298619,51.163194 55.951676,50.881505 56.551601,51.074137 C 57.02893,51.194376 56.773117,50.952605 56.523966,50.805612 C 56.032391,50.452551 55.401147,50.696866 54.830857,50.606018 Z" id="path3766" inkscape:connector-curvature="0" />
  <path id="path3768" d="M 43.899981,56.65746 C 43.327671,56.792238 42.561522,56.461257 42.106881,56.884665 C 42.232937,57.515279 42.9992,57.605252 43.520694,57.476726 C 44.028514,57.48487 44.772738,57.723606 45.158624,57.493625 C 44.843827,57.12396 44.389914,56.724355 43.899981,56.657135 Z" style="fill:none;stroke:#d6cfcf;stroke-width:0.95917344;stroke-linecap:round;stroke-linejoin:round;stroke-miterlimit:4;stroke-dasharray:none;stroke-opacity:1" inkscape:connector-curvature="0" />
  <path id="path3770" d="M 44.999988,46.048159 C 44.233642,46.232044 43.271624,45.854715 42.658604,46.485342 C 42.538625,47.329242 43.45037,48.03351 44.244819,47.772786 C 45.078368,47.797014 46.075896,48.116725 46.789627,47.593766 C 46.529767,46.843542 45.743692,46.390156 45.096539,46.034375 C 45.063601,46.035212 45.032699,46.00465 44.999966,46.047101 Z" style="fill:none;stroke:#d6cfcf;stroke-width:0.95917344;stroke-linecap:round;stroke-linejoin:round;stroke-miterlimit:4;stroke-dasharray:none;stroke-opacity:1" inkscape:connector-curvature="0" />
  <path style="fill:none;stroke:#d6cfcf;stroke-width:0.95917344;stroke-linecap:round;stroke-linejoin:round;stroke-miterlimit:4;stroke-dasharray:none;stroke-opacity:1" d="M 31.348268,49.669517 C 30.515854,49.874424 29.376819,49.471177 28.772408,50.237502 C 28.568002,51.149551 29.531377,52.133359 30.455165,51.845056 C 31.40875,51.874783 32.539093,52.225766 33.355164,51.562799 C 33.236307,50.683703 32.307869,50.216296 31.665512,49.731474 C 31.564245,49.691058 31.458547,49.656751 31.348268,49.669475 Z" id="path3772" inkscape:connector-curvature="0" />
  <path style="fill:none;stroke:#d6cfcf;stroke-width:0.95917344;stroke-linecap:round;stroke-linejoin:round;stroke-miterlimit:4;stroke-dasharray:none;stroke-opacity:1" d="M 55.072401,14.750416 C 54.239965,14.955325 53.100962,14.552096 52.496539,15.318415 C 52.292115,16.23044 53.25553,17.21426 54.179298,16.925965 C 55.132895,16.955692 56.263249,17.306665 57.079307,16.643698 C 56.960451,15.764604 56.032013,15.297187 55.389645,14.812373 C 55.288379,14.771959 55.182681,14.73765 55.072401,14.750376 Z" id="path3774" inkscape:connector-curvature="0" />
  <path id="path3776" d="M 50.417229,9.8485185 C 50.110766,9.8150243 50.03107,10.044081 50.310213,10.161784 C 50.884819,10.405865 51.537895,10.124219 52.137801,10.316525 C 52.615141,10.436772 52.359339,10.195003 52.110165,10.048021 C 51.618559,9.6949493 50.987358,9.939274 50.417065,9.8484267 Z" style="fill:none;stroke:#d6cfcf;stroke-width:0.95917344;stroke-linecap:round;stroke-linejoin:round;stroke-miterlimit:4;stroke-dasharray:none;stroke-opacity:1" inkscape:connector-curvature="0" />
  <path id="path3778" d="M 42.796537,19.204804 C 42.224239,19.339428 41.458077,19.0086 41.00344,19.431994 C 41.129658,20.062631 41.895756,20.152562 42.417251,20.024077 C 42.925071,20.032223 43.669297,20.27093 44.055149,20.040978 C 43.740366,19.671313 43.286471,19.271706 42.796537,19.204478 Z" style="fill:none;stroke:#d6cfcf;stroke-width:0.95917344;stroke-linecap:round;stroke-linejoin:round;stroke-miterlimit:4;stroke-dasharray:none;stroke-opacity:1" inkscape:connector-curvature="0" />
  <path id="path3780" d="M 26.682744,2.4130611 C 25.697087,2.5799573 24.305456,2.2329935 23.724129,3.2908635 C 23.372581,4.5142142 24.70172,5.812254 25.924131,5.4767445 C 26.973393,5.557679 28.40294,5.8797916 29.109535,4.8717117 C 29.191322,3.6776626 27.944151,2.9960938 27.068966,2.4578259 C 26.944034,2.4216862 26.812716,2.4017306 26.682744,2.4129293 Z" style="fill:none;stroke:#d6cfcf;stroke-width:0.95917344;stroke-linecap:round;stroke-linejoin:round;stroke-miterlimit:4;stroke-dasharray:none;stroke-opacity:1" inkscape:connector-curvature="0" />
  <path id="path3782" d="M 29.893084,8.0860335 C 29.586619,8.0525392 29.506921,8.2816063 29.786058,8.3992993 C 30.360674,8.6433905 31.01375,8.3617341 31.613645,8.5540385 C 32.090984,8.6742892 31.835152,8.4325181 31.58601,8.2855355 C 31.094414,7.9324443 30.463191,8.176791 29.89292,8.0859217 Z" style="fill:none;stroke:#d6cfcf;stroke-width:0.95917344;stroke-linecap:round;stroke-linejoin:round;stroke-miterlimit:4;stroke-dasharray:none;stroke-opacity:1" inkscape:connector-curvature="0" />
  <path style="fill:none;stroke:#d6cfcf;stroke-width:0.95917344;stroke-linecap:round;stroke-linejoin:round;stroke-miterlimit:4;stroke-dasharray:none;stroke-opacity:1" d="M 18.079283,5.5455938 C 17.506992,5.6803694 16.740821,5.3493801 16.286194,5.7727881 C 16.412412,6.4034107 17.178522,6.4933636 17.699984,6.3648692 C 18.207845,6.3730131 18.95205,6.6117295 19.337925,6.381768 C 19.023129,6.0121034 18.569204,5.6125004 18.079283,5.5452883 Z" id="path3784" inkscape:connector-curvature="0" />
  <path id="path3786" d="M 61.113789,18.874342 C 60.541469,19.008965 59.775299,18.678138 59.320679,19.101524 C 59.44689,19.732151 60.212999,19.822103 60.734473,19.693617 C 61.242323,19.701761 61.986537,19.940467 62.372401,19.710518 C 62.057605,19.340851 61.603723,18.941256 61.113789,18.874006 Z" style="fill:none;stroke:#d6cfcf;stroke-width:0.95917344;stroke-linecap:round;stroke-linejoin:round;stroke-miterlimit:4;stroke-dasharray:none;stroke-opacity:1" inkscape:connector-curvature="0" />
  <path style="fill:none;stroke:#d6cfcf;stroke-width:0.95917344;stroke-linecap:round;stroke-linejoin:round;stroke-miterlimit:4;stroke-dasharray:none;stroke-opacity:1" d="M 5.2987904,4.9791774 C 4.4663764,5.1840844 3.3273414,4.7808374 2.7229304,5.5471624 C 2.5185244,6.4592114 3.4818994,7.4430194 4.4056874,7.1547164 C 5.3592724,7.1844434 6.4896154,7.5354264 7.3056864,6.8724594 C 7.1868294,5.9933634 6.2583914,5.5259564 5.6160344,5.0411344 C 5.5147674,5.0007184 5.4090694,4.9664114 5.2987904,4.9791354 Z" id="path3772-3" inkscape:connector-curvature="0" />
  <path style="fill:none;stroke:#d6cfcf;stroke-width:0.95917344;stroke-linecap:round;stroke-linejoin:round;stroke-miterlimit:4;stroke-dasharray:none;stroke-opacity:1" d="M 43.294892,0.9129398 C 42.309205,1.0798418 40.917581,0.7328698 40.336257,1.7907398 C 39.984719,3.0141088 41.313849,4.3121408 42.536279,3.9766208 C 43.585541,4.0575558 45.015088,4.3796678 45.721653,3.3715988 C 45.803438,2.1775388 44.556289,1.4959608 43.681082,0.9577008 C 43.556467,0.9216628 43.424832,0.9018108 43.294892,0.9128058 Z" id="path3736-6" inkscape:connector-curvature="0" />
  <path id="path3782-7" d="M 60.642018,40.123647 C 60.335553,40.090153 60.255855,40.31922 60.534992,40.436913 C 61.109608,40.681004 61.762684,40.399348 62.362579,40.591652 C 62.839918,40.711903 62.584086,40.470132 62.334944,40.323149 C 61.843348,39.970058 61.212125,40.214405 60.641854,40.123536 Z" style="fill:none;stroke:#d6cfcf;stroke-width:0.95917344;stroke-linecap:round;stroke-linejoin:round;stroke-miterlimit:4;stroke-dasharray:none;stroke-opacity:1" inkscape:connector-curvature="0" />
  <path id="path3782-5" d="M 61.142018,1.6236475 C 60.835553,1.5901532 60.755855,1.8192203 61.034992,1.9369133 C 61.609608,2.1810044 62.262684,1.8993481 62.862579,2.0916525 C 63.339918,2.2119031 63.084086,1.9701321 62.834944,1.8231495 C 62.343348,1.4700583 61.712125,1.714405 61.141854,1.6235357 Z" style="fill:none;stroke:#d6cfcf;stroke-width:0.95917344;stroke-linecap:round;stroke-linejoin:round;stroke-miterlimit:4;stroke-dasharray:none;stroke-opacity:1" inkscape:connector-curvature="0" />
</svg>
