<?xml version="1.0" encoding="UTF-8" standalone="no"?>
<svg xmlns:dc="http://purl.org/dc/elements/1.1/" xmlns:cc="http://creativecommons.org/ns#" xmlns:rdf="http://www.w3.org/1999/02/22-rdf-syntax-ns#" xmlns:svg="http://www.w3.org/2000/svg" xmlns="http://www.w3.org/2000/svg" xmlns:sodipodi="http://sodipodi.sourceforge.net/DTD/sodipodi-0.dtd" xmlns:inkscape="http://www.inkscape.org/namespaces/inkscape" viewBox="0 0 14 14" height="14" width="14" id="svg109" version="1.1" sodipodi:docname="restaurant.svg" inkscape:version="0.92.3 (2405546, 2018-03-11)">
  <sodipodi:namedview pagecolor="#ffffff" bordercolor="#666666" borderopacity="1" objecttolerance="10" gridtolerance="10" guidetolerance="10" inkscape:pageopacity="0" inkscape:pageshadow="2" inkscape:window-width="1881" inkscape:window-height="1058" id="namedview8276" showgrid="false" inkscape:zoom="16.857143" inkscape:cx="7" inkscape:cy="7" inkscape:window-x="0" inkscape:window-y="0" inkscape:window-maximized="1" inkscape:current-layer="svg109" />
  <metadata id="metadata115">
    <rdf:RDF>
      <cc:Work rdf:about="">
        <dc:format>image/svg+xml</dc:format>
        <dc:type rdf:resource="http://purl.org/dc/dcmitype/StillImage" />
        <dc:title />
      </cc:Work>
    </rdf:RDF>
  </metadata>
  <defs id="defs113" />
  <path d="M 1.5 0 C 1.25 0 1 0.25 1 0.75 L 1 7 C 1 8 2.75 8 2.75 9 L 2.25 14 L 4.75 14 L 4.25 9 C 4.25 8 6 8 6 7 L 6 0.75 C 6 -0.25 5 -0.25 5 0.75 L 5 6 C 5 6.5632885 4 6.5632884 4 6 L 4 0.75 C 4 -0.25 3 -0.25 3 0.75 L 3 6 C 3 6.5273339 2 6.5273339 2 6 L 2 0.75 C 2 0.25 1.75 0 1.5 0 z M 10 0 C 9 0 7 2 7 5 C 7 8 9.25 9 9.25 9 L 8.75 14 L 11.25 14 L 10.75 9 C 10.75 9 13 8 13 5 C 13 2 11 0 10 0 z " id="path8821" style="stroke:#fbfbfb;stroke-opacity:0.50196081;stroke-width:2;stroke-miterlimit:4;stroke-dasharray:none;stroke-linecap:round;stroke-linejoin:round" />
  <path id="restaurant" d="M 1.5 0 C 1.25 0 1 0.25 1 0.75 L 1 7 C 1 8 2.75 8 2.75 9 L 2.25 14 L 4.75 14 L 4.25 9 C 4.25 8 6 8 6 7 L 6 0.75 C 6 -0.25 5 -0.25 5 0.75 L 5 6 C 5 6.5632885 4 6.5632884 4 6 L 4 0.75 C 4 -0.25 3 -0.25 3 0.75 L 3 6 C 3 6.5273339 2 6.5273339 2 6 L 2 0.75 C 2 0.25 1.75 0 1.5 0 z M 10 0 C 9 0 7 2 7 5 C 7 8 9.25 9 9.25 9 L 8.75 14 L 11.25 14 L 10.75 9 C 10.75 9 13 8 13 5 C 13 2 11 0 10 0 z " />
</svg>
