<?xml version="1.0" encoding="UTF-8" standalone="no"?>
<!-- Created with Inkscape (http://www.inkscape.org/) -->

<svg version="1.0" width="14" height="14" id="svg2" sodipodi:version="0.32" inkscape:version="1.1.2 (0a00cf5339, 2022-02-04)" sodipodi:docname="school.svg" inkscape:output_extension="org.inkscape.output.svg.inkscape" xmlns:inkscape="http://www.inkscape.org/namespaces/inkscape" xmlns:sodipodi="http://sodipodi.sourceforge.net/DTD/sodipodi-0.dtd" xmlns="http://www.w3.org/2000/svg" xmlns:svg="http://www.w3.org/2000/svg" xmlns:rdf="http://www.w3.org/1999/02/22-rdf-syntax-ns#" xmlns:cc="http://creativecommons.org/ns#" xmlns:dc="http://purl.org/dc/elements/1.1/">
  <metadata id="metadata2975">
    <rdf:RDF>
      <cc:Work rdf:about="">
        <dc:format>image/svg+xml</dc:format>
        <dc:type rdf:resource="http://purl.org/dc/dcmitype/StillImage" />
        <cc:license rdf:resource="http://web.resource.org/cc/PublicDomain" />
        <dc:language>en</dc:language>
      </cc:Work>
    </rdf:RDF>
  </metadata>
  <sodipodi:namedview inkscape:window-height="1062" inkscape:window-width="1883" inkscape:pageshadow="2" inkscape:pageopacity="0.0" guidetolerance="10.0" gridtolerance="10.0" objecttolerance="10.0" borderopacity="1.0" bordercolor="#666666" pagecolor="#ffffff" id="base" inkscape:zoom="29.493668" inkscape:cx="0.44077258" inkscape:cy="11.375323" inkscape:window-x="0" inkscape:window-y="0" inkscape:current-layer="svg2" showgrid="false" inkscape:pagecheckerboard="0" inkscape:window-maximized="1" />
  <defs id="defs4">
    <inkscape:perspective sodipodi:type="inkscape:persp3d" inkscape:vp_x="0 : -276 : 1" inkscape:vp_y="0 : 1000 : 0" inkscape:vp_z="580 : -276 : 1" inkscape:persp3d-origin="290 : -372.66667 : 1" id="perspective2441" />
    <inkscape:perspective id="perspective3452" inkscape:persp3d-origin="30 : -546 : 1" inkscape:vp_z="60 : -536 : 1" inkscape:vp_y="0 : 1000 : 0" inkscape:vp_x="0 : -536 : 1" sodipodi:type="inkscape:persp3d" />
    <symbol viewBox="244.5 110 489 219.9" id="symbol-university">
      <path id="path4460" d="M 79,43 L 136,162 C 136,162 157,66 240,66 C 323,66 364,172 364,172 L 407,39 L 489,22 L 0,17 Z" />
      <path id="path4462" d="M 94,176 L 73,215" stroke-width="20" stroke="#000000" fill="none" />
      <path id="path4464" d="M 300,19 C 300,29.5 277.4,38 249.5,38 C 221.6,38 199,29.5 199,19 C 199,8.5 221.6,0 249.5,0 C 277.4,0 300,8.5 300,19 Z" />
      <path id="path4466" d="M 112,216 L 96,178 L 64,88 C 64,88 55,80 60,53 C 65,26 76,29 76,29" stroke-width="20" stroke="#000000" ill="none" />
    </symbol>
    <inkscape:perspective id="perspective4471" inkscape:persp3d-origin="372.04724 : -215.21261 : 1" inkscape:vp_z="744.09448 : -39.81891 : 1" inkscape:vp_y="0 : 1000 : 0" inkscape:vp_x="0 : -39.81891 : 1" sodipodi:type="inkscape:persp3d" />
    <inkscape:perspective id="perspective4668" inkscape:persp3d-origin="6 : -562 : 1" inkscape:vp_z="12 : -560 : 1" inkscape:vp_y="0 : 1000 : 0" inkscape:vp_x="0 : -560 : 1" sodipodi:type="inkscape:persp3d" />
    <marker viewBox="0 0 10 10" refY="5" refX="10" orient="auto" markerWidth="4" markerUnits="strokeWidth" markerHeight="3" id="ArrowStart">
      <path id="path3634" d="M 10,0 L 0,5 L 10,10 Z" />
    </marker>
    <marker viewBox="0 0 10 10" refY="5" refX="0" orient="auto" markerWidth="4" markerUnits="strokeWidth" markerHeight="3" id="ArrowEnd">
      <path id="path3631" d="M 0,0 L 10,5 L 0,10 Z" />
    </marker>
    <inkscape:perspective id="perspective2510" inkscape:persp3d-origin="306.082 : -361.60966 : 1" inkscape:vp_z="612.164 : -259.41449 : 1" inkscape:vp_y="0 : 1000 : 0" inkscape:vp_x="0 : -259.41449 : 1" sodipodi:type="inkscape:persp3d" />
    <marker viewBox="0 0 10 10" refY="5" refX="10" orient="auto" markerWidth="4" markerUnits="strokeWidth" markerHeight="3" id="marker2611">
      <path id="path1325" d="M 10,0 L 0,5 L 10,10 Z" />
    </marker>
    <marker viewBox="0 0 10 10" refY="5" refX="0" orient="auto" markerWidth="4" markerUnits="strokeWidth" markerHeight="3" id="marker2608">
      <path id="path1322" d="M 0,0 L 10,5 L 0,10 Z" />
    </marker>
    <inkscape:perspective id="perspective2605" inkscape:persp3d-origin="306.082 : -361.60966 : 1" inkscape:vp_z="612.164 : -259.41449 : 1" inkscape:vp_y="0 : 1000 : 0" inkscape:vp_x="0 : -259.41449 : 1" sodipodi:type="inkscape:persp3d" />
    <inkscape:perspective id="perspective2656" inkscape:persp3d-origin="372.04724 : -215.21261 : 1" inkscape:vp_z="744.09448 : -39.81891 : 1" inkscape:vp_y="0 : 1000 : 0" inkscape:vp_x="0 : -39.81891 : 1" sodipodi:type="inkscape:persp3d" />
  </defs>
  <path id="path51791" style="color:#000000;fill:none;fill-rule:evenodd;stroke-width:3;stroke-linecap:round;stroke:#ffffff;stroke-opacity:0.5;stroke-miterlimit:4;stroke-dasharray:none;stroke-linejoin:round" d="M 6.8260428,0.00329993 L 6.8240082,0.00525727 C 6.6706249,0.02691523 6.5381913,0.11990639 6.4699898,0.25383897 L 5.4486268,2.6985519 H 0.31332655 C 0.14032971,2.6986649 1.1738524e-4,2.8335535 0,2.9999817 V 11.052464 C 1.175576e-4,11.218892 0.14032984,11.35378 0.31332655,11.353893 H 1.8311292 L 0.9847406,13.379736 C 0.88893476,13.611609 1.0063619,13.874326 1.2472024,13.966937 C 1.4876615,14.059322 1.7605108,13.947326 1.8575788,13.716398 L 2.8443541,11.353893 H 11.062055 L 12.04883,13.716398 C 12.145896,13.948398 12.420212,14.060622 12.661241,13.966937 C 12.901284,13.873555 13.0177,13.611065 12.921669,13.379736 L 12.07528,11.353893 H 13.686674 C 13.859671,11.35378 13.999882,11.218892 14,11.052464 V 2.9999817 C 13.999882,2.8335536 13.859671,2.698665 13.686674,2.6985519 H 8.4598171 L 7.4384538,0.25383897 C 7.3702523,0.11990636 7.2378187,0.0269152 7.0844354,0.00525727 C 7.0830823,0.00459851 7.081726,0.00394606 7.0803663,0.00329993 C 7.0384177,-0.00150136 6.9959876,-8.4299599e-4 6.9542218,0.00525727 C 6.9117886,-0.00102095 6.8686617,-0.0016795 6.8260428,0.00329993 Z M 6.9542218,1.5182782 L 7.4465921,2.6985519 H 6.4618515 Z M 2.7359379,3.7566993 C 3.1105103,3.7567022 3.4100564,3.7770124 3.6372603,3.8173768 C 3.8644581,3.8577469 4.0534395,3.941882 4.2049104,4.0698731 C 4.3113435,4.1584872 4.3957899,4.2832301 4.4571994,4.4456817 C 4.5186015,4.608138 4.5487518,4.7638445 4.5487558,4.9115277 V 6.2973218 C 4.5487518,6.4450078 4.5598257,6.5600826 4.5792746,6.6437703 C 4.5987164,6.7274593 4.6399159,6.8348088 4.705419,6.9647735 H 3.5334964 C 3.4864156,6.8840374 3.4562652,6.8231198 3.4419399,6.7807838 C 3.4276091,6.7384443 3.4135388,6.6717178 3.3992136,6.5811355 C 3.2354633,6.7327597 3.0705772,6.8410729 2.9088778,6.9060533 C 2.6878155,6.9926946 2.4325027,7.0352376 2.1398036,7.0352376 C 1.7508996,7.0352376 1.4563727,6.9481952 1.2547578,6.7749119 C 1.0531422,6.6016264 0.95160395,6.3888825 0.9516042,6.1348629 C 0.95160389,5.896598 1.023978,5.6992989 1.1693051,5.5457047 C 1.3146314,5.3921134 1.5820166,5.279957 1.9729674,5.2051281 C 2.441696,5.1145495 2.7452748,5.0497403 2.8844629,5.0133092 C 3.023647,4.9768821 3.1724395,4.9294999 3.328003,4.8704236 C 3.3280006,4.722741 3.2958272,4.620241 3.2323773,4.5611645 C 3.1689216,4.5020928 3.0583573,4.4711297 2.8987049,4.4711271 C 2.6940178,4.4711294 2.5391949,4.5040265 2.4368533,4.5670366 C 2.3570248,4.6162674 2.2926909,4.7091095 2.2435676,4.8449783 L 1.0492644,4.7216662 C 1.0942948,4.5208164 1.1596399,4.3631883 1.2445849,4.2479907 C 1.3295288,4.1327991 1.4511551,4.0331939 1.6108107,3.9485183 C 1.7254335,3.8874782 1.8822418,3.841068 2.0828351,3.8075901 C 2.2834254,3.7741177 2.5025947,3.7567025 2.7359379,3.7566993 Z M 11.033571,3.7613855 C 11.565751,3.7613887 11.970855,3.8522857 12.250255,4.0354126 C 12.529647,4.2185454 12.727705,4.4874043 12.840286,4.8398778 L 11.662258,4.9905927 C 11.625413,4.8566931 11.56009,4.7551432 11.462869,4.6872055 C 11.365638,4.619273 11.23394,4.5854269 11.070193,4.5854241 C 10.863458,4.5854266 10.697611,4.6579708 10.569684,4.8007311 C 10.441754,4.9434957 10.376398,5.1591478 10.376399,5.4486094 C 10.376397,5.7065678 10.440742,5.9019104 10.56765,6.0358103 C 10.694553,6.1697128 10.855383,6.2374168 11.051882,6.2374158 C 11.215628,6.2374167 11.353348,6.1967967 11.464903,6.116061 C 11.576454,6.0353269 11.65989,5.911545 11.715158,5.7441672 L 12.903357,5.8733514 C 12.837854,6.1116181 12.731309,6.3176014 12.581892,6.4918696 C 12.432469,6.6661379 12.240454,6.8025064 12.008138,6.8989956 C 11.775819,6.9954816 11.481289,7.0438384 11.123092,7.0438385 C 10.777172,7.0438385 10.488663,7.0119145 10.258393,6.9498863 C 10.02812,6.8878586 9.8300874,6.7872818 9.6642931,6.6484565 C 9.4984965,6.509633 9.367807,6.346191 9.2736522,6.1591224 C 9.1794962,5.972055 9.1332651,5.7244909 9.1332656,5.4153347 C 9.1332656,5.0923977 9.1895467,4.8235506 9.3041709,4.6089121 C 9.388091,4.4513839 9.5026888,4.3111702 9.6480164,4.1861275 C 9.7933426,4.0610891 9.944145,3.9672747 10.09766,3.9062284 C 10.341235,3.8097436 10.652853,3.7613887 11.033571,3.7613855 Z M 3.328003,5.4752406 C 3.1560647,5.5343161 2.9771332,5.5865387 2.7908717,5.6318275 C 2.5370596,5.6968108 2.3762191,5.7606351 2.3086744,5.8236464 C 2.2390792,5.8886291 2.2049088,5.9640798 2.2049104,6.0467828 C 2.2049092,6.1413023 2.2380683,6.2176908 2.3066398,6.2777484 C 2.3752076,6.3378079 2.4747112,6.3677865 2.6077588,6.3677859 C 2.746943,6.3677865 2.8786562,6.3349013 2.9983998,6.2699191 C 3.1181381,6.2049384 3.2025728,6.1266161 3.2527232,6.0330814 C 3.3028687,5.9395482 3.3280006,5.8167156 3.328003,5.6670595 Z M 5.7542317,5.9890592 H 7.0156762 V 7.4883789 C 7.1405328,7.3623571 7.282272,7.2675805 7.4409051,7.2045651 C 7.5995348,7.1415552 7.7754563,7.1106165 7.9678634,7.110613 C 8.3649506,7.1106165 8.6926498,7.248919 8.952604,7.5236109 C 9.2125509,7.7983079 9.343241,8.1918988 9.3432449,8.7058421 C 9.343241,9.0484732 9.2829148,9.3511788 9.1642012,9.6120887 C 9.0454796,9.8729997 8.88163,10.066395 8.6718308,10.195376 C 8.4620245,10.324353 8.2298215,10.389152 7.9739672,10.389152 C 7.7549511,10.389152 7.553897,10.344678 7.3717292,10.254096 C 7.234588,10.183211 7.0858194,10.049745 6.9241198,9.8547984 V 10.318688 H 5.7542317 Z M 7.5833263,8.0090303 C 7.4134357,8.0090324 7.275729,8.0680056 7.1682704,8.1891053 C 7.0608095,8.3102092 7.0055017,8.4949333 7.0055033,8.7410741 C 7.0055017,9.0108473 7.0587863,9.2071742 7.1642011,9.3282749 C 7.2696126,9.4493777 7.4033114,9.5103082 7.5650149,9.5103072 C 7.7144331,9.5103082 7.8400921,9.449366 7.9414138,9.3302322 C 8.0427308,9.2111003 8.0940051,9.0109182 8.0940079,8.72933 C 8.0940054,8.4812199 8.0447528,8.2994141 7.9454829,8.1832333 C 7.8462079,8.0670562 7.7245572,8.0090328 7.5833263,8.0090303 Z" sodipodi:nodetypes="ccccccccccccccccccccccccccccccccccccccccccccssscccccccccccccccccccsccssccccsscsscccccccccssccccccccccccsccccccsccssccc" />
  <path id="path3526" style="color:#000000;fill:#000000;fill-rule:evenodd;stroke-width:1.02174;stroke-linecap:round;-inkscape-stroke:none" d="M 6.8260428,0.00329993 L 6.8240082,0.00525727 C 6.6706249,0.02691523 6.5381913,0.11990639 6.4699898,0.25383897 L 5.4486268,2.6985519 H 0.31332655 C 0.14032971,2.6986649 1.1738524e-4,2.8335535 0,2.9999817 V 11.052464 C 1.175576e-4,11.218892 0.14032984,11.35378 0.31332655,11.353893 H 1.8311292 L 0.9847406,13.379736 C 0.88893476,13.611609 1.0063619,13.874326 1.2472024,13.966937 C 1.4876615,14.059322 1.7605108,13.947326 1.8575788,13.716398 L 2.8443541,11.353893 H 11.062055 L 12.04883,13.716398 C 12.145896,13.948398 12.420212,14.060622 12.661241,13.966937 C 12.901284,13.873555 13.0177,13.611065 12.921669,13.379736 L 12.07528,11.353893 H 13.686674 C 13.859671,11.35378 13.999882,11.218892 14,11.052464 V 2.9999817 C 13.999882,2.8335536 13.859671,2.698665 13.686674,2.6985519 H 8.4598171 L 7.4384538,0.25383897 C 7.3702523,0.11990636 7.2378187,0.0269152 7.0844354,0.00525727 C 7.0830823,0.00459851 7.081726,0.00394606 7.0803663,0.00329993 C 7.0384177,-0.00150136 6.9959876,-8.4299599e-4 6.9542218,0.00525727 C 6.9117886,-0.00102095 6.8686617,-0.0016795 6.8260428,0.00329993 Z M 6.9542218,1.5182782 L 7.4465921,2.6985519 H 6.4618515 Z M 2.7359379,3.7566993 C 3.1105103,3.7567022 3.4100564,3.7770124 3.6372603,3.8173768 C 3.8644581,3.8577469 4.0534395,3.941882 4.2049104,4.0698731 C 4.3113435,4.1584872 4.3957899,4.2832301 4.4571994,4.4456817 C 4.5186015,4.608138 4.5487518,4.7638445 4.5487558,4.9115277 V 6.2973218 C 4.5487518,6.4450078 4.5598257,6.5600826 4.5792746,6.6437703 C 4.5987164,6.7274593 4.6399159,6.8348088 4.705419,6.9647735 H 3.5334964 C 3.4864156,6.8840374 3.4562652,6.8231198 3.4419399,6.7807838 C 3.4276091,6.7384443 3.4135388,6.6717178 3.3992136,6.5811355 C 3.2354633,6.7327597 3.0705772,6.8410729 2.9088778,6.9060533 C 2.6878155,6.9926946 2.4325027,7.0352376 2.1398036,7.0352376 C 1.7508996,7.0352376 1.4563727,6.9481952 1.2547578,6.7749119 C 1.0531422,6.6016264 0.95160395,6.3888825 0.9516042,6.1348629 C 0.95160389,5.896598 1.023978,5.6992989 1.1693051,5.5457047 C 1.3146314,5.3921134 1.5820166,5.279957 1.9729674,5.2051281 C 2.441696,5.1145495 2.7452748,5.0497403 2.8844629,5.0133092 C 3.023647,4.9768821 3.1724395,4.9294999 3.328003,4.8704236 C 3.3280006,4.722741 3.2958272,4.620241 3.2323773,4.5611645 C 3.1689216,4.5020928 3.0583573,4.4711297 2.8987049,4.4711271 C 2.6940178,4.4711294 2.5391949,4.5040265 2.4368533,4.5670366 C 2.3570248,4.6162674 2.2926909,4.7091095 2.2435676,4.8449783 L 1.0492644,4.7216662 C 1.0942948,4.5208164 1.1596399,4.3631883 1.2445849,4.2479907 C 1.3295288,4.1327991 1.4511551,4.0331939 1.6108107,3.9485183 C 1.7254335,3.8874782 1.8822418,3.841068 2.0828351,3.8075901 C 2.2834254,3.7741177 2.5025947,3.7567025 2.7359379,3.7566993 Z M 11.033571,3.7613855 C 11.565751,3.7613887 11.970855,3.8522857 12.250255,4.0354126 C 12.529647,4.2185454 12.727705,4.4874043 12.840286,4.8398778 L 11.662258,4.9905927 C 11.625413,4.8566931 11.56009,4.7551432 11.462869,4.6872055 C 11.365638,4.619273 11.23394,4.5854269 11.070193,4.5854241 C 10.863458,4.5854266 10.697611,4.6579708 10.569684,4.8007311 C 10.441754,4.9434957 10.376398,5.1591478 10.376399,5.4486094 C 10.376397,5.7065678 10.440742,5.9019104 10.56765,6.0358103 C 10.694553,6.1697128 10.855383,6.2374168 11.051882,6.2374158 C 11.215628,6.2374167 11.353348,6.1967967 11.464903,6.116061 C 11.576454,6.0353269 11.65989,5.911545 11.715158,5.7441672 L 12.903357,5.8733514 C 12.837854,6.1116181 12.731309,6.3176014 12.581892,6.4918696 C 12.432469,6.6661379 12.240454,6.8025064 12.008138,6.8989956 C 11.775819,6.9954816 11.481289,7.0438384 11.123092,7.0438385 C 10.777172,7.0438385 10.488663,7.0119145 10.258393,6.9498863 C 10.02812,6.8878586 9.8300874,6.7872818 9.6642931,6.6484565 C 9.4984965,6.509633 9.367807,6.346191 9.2736522,6.1591224 C 9.1794962,5.972055 9.1332651,5.7244909 9.1332656,5.4153347 C 9.1332656,5.0923977 9.1895467,4.8235506 9.3041709,4.6089121 C 9.388091,4.4513839 9.5026888,4.3111702 9.6480164,4.1861275 C 9.7933426,4.0610891 9.944145,3.9672747 10.09766,3.9062284 C 10.341235,3.8097436 10.652853,3.7613887 11.033571,3.7613855 Z M 3.328003,5.4752406 C 3.1560647,5.5343161 2.9771332,5.5865387 2.7908717,5.6318275 C 2.5370596,5.6968108 2.3762191,5.7606351 2.3086744,5.8236464 C 2.2390792,5.8886291 2.2049088,5.9640798 2.2049104,6.0467828 C 2.2049092,6.1413023 2.2380683,6.2176908 2.3066398,6.2777484 C 2.3752076,6.3378079 2.4747112,6.3677865 2.6077588,6.3677859 C 2.746943,6.3677865 2.8786562,6.3349013 2.9983998,6.2699191 C 3.1181381,6.2049384 3.2025728,6.1266161 3.2527232,6.0330814 C 3.3028687,5.9395482 3.3280006,5.8167156 3.328003,5.6670595 Z M 5.7542317,5.9890592 H 7.0156762 V 7.4883789 C 7.1405328,7.3623571 7.282272,7.2675805 7.4409051,7.2045651 C 7.5995348,7.1415552 7.7754563,7.1106165 7.9678634,7.110613 C 8.3649506,7.1106165 8.6926498,7.248919 8.952604,7.5236109 C 9.2125509,7.7983079 9.343241,8.1918988 9.3432449,8.7058421 C 9.343241,9.0484732 9.2829148,9.3511788 9.1642012,9.6120887 C 9.0454796,9.8729997 8.88163,10.066395 8.6718308,10.195376 C 8.4620245,10.324353 8.2298215,10.389152 7.9739672,10.389152 C 7.7549511,10.389152 7.553897,10.344678 7.3717292,10.254096 C 7.234588,10.183211 7.0858194,10.049745 6.9241198,9.8547984 V 10.318688 H 5.7542317 Z M 7.5833263,8.0090303 C 7.4134357,8.0090324 7.275729,8.0680056 7.1682704,8.1891053 C 7.0608095,8.3102092 7.0055017,8.4949333 7.0055033,8.7410741 C 7.0055017,9.0108473 7.0587863,9.2071742 7.1642011,9.3282749 C 7.2696126,9.4493777 7.4033114,9.5103082 7.5650149,9.5103072 C 7.7144331,9.5103082 7.8400921,9.449366 7.9414138,9.3302322 C 8.0427308,9.2111003 8.0940051,9.0109182 8.0940079,8.72933 C 8.0940054,8.4812199 8.0447528,8.2994141 7.9454829,8.1832333 C 7.8462079,8.0670562 7.7245572,8.0090328 7.5833263,8.0090303 Z" sodipodi:nodetypes="ccccccccccccccccccccccccccccccccccccccccccccssscccccccccccccccccccsccssccccsscsscccccccccssccccccccccccsccccccsccssccc" />
</svg>
