<?xml version="1.0" encoding="UTF-8" standalone="no"?>
<svg xmlns:dc="http://purl.org/dc/elements/1.1/" xmlns:cc="http://creativecommons.org/ns#" xmlns:rdf="http://www.w3.org/1999/02/22-rdf-syntax-ns#" xmlns:svg="http://www.w3.org/2000/svg" xmlns="http://www.w3.org/2000/svg" xmlns:sodipodi="http://sodipodi.sourceforge.net/DTD/sodipodi-0.dtd" xmlns:inkscape="http://www.inkscape.org/namespaces/inkscape" id="Svg" width="64" height="64" version="1.1" sodipodi:docname="scree.svg" inkscape:version="0.92.4 (5da689c313, 2019-01-14)">
  <metadata id="metadata4660">
    <rdf:RDF>
      <cc:Work rdf:about="">
        <dc:format>image/svg+xml</dc:format>
        <dc:type rdf:resource="http://purl.org/dc/dcmitype/StillImage" />
      </cc:Work>
    </rdf:RDF>
  </metadata>
  <defs id="defs4658" />
  <sodipodi:namedview pagecolor="#ffffff" bordercolor="#666666" borderopacity="1" objecttolerance="10" gridtolerance="10" guidetolerance="10" inkscape:pageopacity="0" inkscape:pageshadow="2" inkscape:window-width="1881" inkscape:window-height="1056" id="namedview4656" showgrid="false" inkscape:zoom="3.3007813" inkscape:cx="11.853711" inkscape:cy="4.3396842" inkscape:window-x="0" inkscape:window-y="0" inkscape:window-maximized="1" inkscape:current-layer="Svg" />
  <path style="fill:#8c8c8c;stroke-width:0.15000001" d="M 27.595703 0 L 27.181641 0.51953125 L 27.330078 1.2695312 L 28.193359 1.53125 L 28.71875 0.8203125 L 28.455078 0.03125 L 28.107422 0 L 27.595703 0 z M 49.126953 0 L 49.912109 0.23828125 L 50.087891 0 L 49.126953 0 z M 9.4902344 0.033203125 L 9.0390625 0.59570312 L 9.1894531 1.3457031 L 10.052734 1.6074219 L 10.578125 0.89648438 L 10.314453 0.10742188 L 9.4902344 0.033203125 z M 42.130859 0.48046875 L 41.679688 0.63085938 L 41.417969 1.1933594 L 41.792969 1.6816406 L 42.318359 1.6425781 L 42.693359 1.34375 L 42.65625 0.70507812 L 42.130859 0.48046875 z M 18.994141 0.54101562 L 18.580078 0.578125 L 18.355469 1.0273438 L 18.392578 1.5898438 L 18.955078 1.7402344 L 19.369141 1.5898438 L 19.630859 1.2148438 L 19.40625 0.69140625 L 18.994141 0.54101562 z M 0.60351562 0.71289062 L 0.15429688 1.2753906 L 0.3046875 2.0253906 L 1.1660156 2.2871094 L 1.6914062 1.5742188 L 1.4296875 0.78710938 L 0.60351562 0.71289062 z M 37.009766 0.80078125 L 36.558594 1.3632812 L 36.708984 2.1132812 L 37.572266 2.375 L 38.097656 1.6640625 L 37.833984 0.875 L 37.009766 0.80078125 z M 23.722656 1.0742188 L 23.197266 1.3378906 L 23.009766 1.7128906 L 23.271484 2.0507812 L 23.796875 2.4257812 L 24.097656 2.1621094 L 24.322266 1.8242188 L 24.248047 1.1875 L 23.722656 1.0742188 z M 60.791016 1.1210938 L 60.339844 1.6835938 L 60.490234 2.4335938 L 61.353516 2.6972656 L 61.878906 1.984375 L 61.615234 1.1972656 L 60.791016 1.1210938 z M 57.851562 1.3105469 L 57.402344 1.8730469 L 57.550781 2.6230469 L 58.414062 2.8847656 L 58.939453 2.1738281 L 58.675781 1.3847656 L 57.851562 1.3105469 z M 14.029297 1.5097656 L 13.580078 1.6582031 L 13.318359 2.2207031 L 13.693359 2.7089844 L 14.216797 2.671875 L 14.591797 2.3710938 L 14.554688 1.734375 L 14.029297 1.5097656 z M 29.638672 1.765625 L 29.226562 1.8027344 L 29.001953 2.2519531 L 29.039062 2.8144531 L 29.601562 2.9648438 L 30.013672 2.8144531 L 30.275391 2.4394531 L 30.050781 1.9160156 L 29.638672 1.765625 z M 54.923828 1.8496094 L 54.435547 2.2617188 L 54.548828 2.6367188 L 54.472656 3.125 L 54.923828 3.4257812 L 55.410156 3.1992188 L 55.597656 2.6367188 L 55.335938 2.1875 L 54.923828 1.8496094 z M 5.3164062 2.0097656 L 4.8652344 2.5722656 L 5.015625 3.3222656 L 5.8789062 3.5859375 L 6.4042969 2.8730469 L 6.140625 2.0859375 L 5.3164062 2.0097656 z M 34.404297 2.0976562 L 33.955078 2.8085938 L 34.480469 3.4472656 L 35.341797 3.1835938 L 35.267578 2.3222656 L 34.404297 2.0976562 z M 49 2.3105469 L 48.587891 2.3476562 L 48.361328 2.796875 L 48.400391 3.359375 L 48.962891 3.5097656 L 49.375 3.359375 L 49.636719 2.984375 L 49.412109 2.4589844 L 49 2.3105469 z M 44.707031 2.8320312 L 44.294922 2.8710938 L 44.070312 3.3203125 L 44.107422 3.8828125 L 44.669922 4.0332031 L 45.082031 3.8828125 L 45.345703 3.5078125 L 45.119141 2.9824219 L 44.707031 2.8320312 z M 12.925781 3.9589844 L 12.474609 4.1074219 L 12.212891 4.6699219 L 12.587891 5.1582031 L 13.113281 5.1210938 L 13.488281 4.8203125 L 13.449219 4.1835938 L 12.925781 3.9589844 z M 54.160156 4.6796875 L 53.710938 5.3925781 L 54.236328 6.0292969 L 55.097656 5.7675781 L 55.023438 4.9042969 L 54.160156 4.6796875 z M 11.148438 4.7792969 L 10.736328 4.8164062 L 10.511719 5.265625 L 10.548828 5.828125 L 11.111328 5.9785156 L 11.523438 5.828125 L 11.787109 5.453125 L 11.5625 4.9296875 L 11.148438 4.7792969 z M 46.501953 4.7832031 L 46.087891 4.8222656 L 45.863281 5.2714844 L 45.900391 5.8339844 L 46.462891 5.984375 L 46.876953 5.8339844 L 47.138672 5.4589844 L 46.914062 4.9335938 L 46.501953 4.7832031 z M 41.146484 4.8300781 L 40.660156 5.2421875 L 40.771484 5.6171875 L 40.697266 6.1035156 L 41.146484 6.4042969 L 41.634766 6.1796875 L 41.822266 5.6171875 L 41.560547 5.1660156 L 41.146484 4.8300781 z M 58.710938 5.0136719 L 58.261719 5.7265625 L 58.787109 6.3632812 L 59.648438 6.1015625 L 59.574219 5.2382812 L 58.710938 5.0136719 z M 63.828125 5.3242188 L 63.378906 5.4746094 L 63.115234 6.0371094 L 63.490234 6.5253906 L 64 6.4902344 L 64 5.3984375 L 63.828125 5.3242188 z M 6.5761719 5.375 L 6.1269531 5.5253906 L 5.8632812 6.0878906 L 6.2382812 6.5742188 L 6.7636719 6.5371094 L 7.1386719 6.2363281 L 7.1015625 5.5996094 L 6.5761719 5.375 z M 0 5.3984375 L 0 6.4902344 L 0.015625 6.4882812 L 0.390625 6.1875 L 0.35351562 5.5507812 L 0 5.3984375 z M 29.246094 5.6542969 L 28.757812 6.0664062 L 28.871094 6.4414062 L 28.796875 6.9277344 L 29.246094 7.2285156 L 29.734375 7.0039062 L 29.921875 6.4414062 L 29.658203 5.9902344 L 29.246094 5.6542969 z M 25.457031 5.9960938 L 24.931641 6.2578125 L 24.744141 6.6328125 L 25.007812 6.9707031 L 25.53125 7.3457031 L 25.832031 7.0839844 L 26.056641 6.7460938 L 25.982422 6.109375 L 25.457031 5.9960938 z M 37.066406 6.0097656 L 36.654297 6.046875 L 36.429688 6.4980469 L 36.466797 7.0605469 L 37.029297 7.2089844 L 37.441406 7.0605469 L 37.705078 6.6855469 L 37.478516 6.1601562 L 37.066406 6.0097656 z M 18.660156 6.1386719 L 18.136719 6.4003906 L 17.949219 6.7753906 L 18.210938 7.1132812 L 18.736328 7.4882812 L 19.035156 7.2265625 L 19.261719 6.8886719 L 19.185547 6.2519531 L 18.660156 6.1386719 z M 20.925781 6.2910156 L 20.474609 7.0019531 L 21 7.640625 L 21.863281 7.3769531 L 21.787109 6.515625 L 20.925781 6.2910156 z M 50.390625 6.4003906 L 49.941406 7.1132812 L 50.466797 7.7519531 L 51.328125 7.4882812 L 51.253906 6.6269531 L 50.390625 6.4003906 z M 35.066406 6.4042969 L 34.654297 6.4414062 L 34.429688 6.8925781 L 34.466797 7.4550781 L 35.029297 7.6054688 L 35.441406 7.4550781 L 35.703125 7.0800781 L 35.478516 6.5546875 L 35.066406 6.4042969 z M 3.328125 6.6699219 L 2.8789062 6.8203125 L 2.6152344 7.3828125 L 2.9902344 7.8710938 L 3.515625 7.8320312 L 3.890625 7.5332031 L 3.8535156 6.8945312 L 3.328125 6.6699219 z M 40.953125 7.6992188 L 40.503906 8.2617188 L 40.652344 9.0117188 L 41.515625 9.2734375 L 42.041016 8.5605469 L 41.777344 7.7734375 L 40.953125 7.6992188 z M 14.230469 7.7890625 L 13.742188 8.2011719 L 13.855469 8.5761719 L 13.78125 9.0644531 L 14.230469 9.3632812 L 14.71875 9.1386719 L 14.90625 8.5761719 L 14.642578 8.1269531 L 14.230469 7.7890625 z M 16.810547 8.1875 L 16.361328 8.75 L 16.511719 9.5 L 17.373047 9.7617188 L 17.898438 9.0507812 L 17.636719 8.2617188 L 16.810547 8.1875 z M 2.3339844 8.8144531 L 1.921875 8.8515625 L 1.6953125 9.3007812 L 1.734375 9.8632812 L 2.296875 10.013672 L 2.7089844 9.8632812 L 2.9707031 9.4882812 L 2.7460938 8.9628906 L 2.3339844 8.8144531 z M 21.685547 9.1328125 L 21.236328 9.6953125 L 21.386719 10.445312 L 22.248047 10.708984 L 22.773438 9.9960938 L 22.511719 9.2089844 L 21.685547 9.1328125 z M 29.666016 9.1699219 L 29.214844 9.7324219 L 29.365234 10.482422 L 30.228516 10.744141 L 30.751953 10.03125 L 30.490234 9.2441406 L 29.666016 9.1699219 z M 55.355469 9.4394531 L 54.830078 9.703125 L 54.642578 10.078125 L 54.904297 10.416016 L 55.429688 10.791016 L 55.730469 10.527344 L 55.955078 10.189453 L 55.880859 9.5527344 L 55.355469 9.4394531 z M 45.552734 9.5703125 L 45.101562 9.7207031 L 44.839844 10.283203 L 45.214844 10.769531 L 45.740234 10.732422 L 46.115234 10.433594 L 46.076172 9.7949219 L 45.552734 9.5703125 z M 58.84375 9.671875 L 58.431641 9.7089844 L 58.207031 10.160156 L 58.244141 10.722656 L 58.806641 10.873047 L 59.21875 10.722656 L 59.480469 10.347656 L 59.255859 9.8222656 L 58.84375 9.671875 z M 25.396484 9.8476562 L 24.984375 9.8847656 L 24.759766 10.333984 L 24.796875 10.896484 L 25.359375 11.046875 L 25.771484 10.896484 L 26.035156 10.521484 L 25.808594 9.9960938 L 25.396484 9.8476562 z M 6.5839844 9.9335938 L 6.171875 9.9707031 L 5.9472656 10.421875 L 5.984375 10.984375 L 6.546875 11.134766 L 6.9589844 10.984375 L 7.2207031 10.609375 L 6.9960938 10.083984 L 6.5839844 9.9335938 z M 50.400391 9.96875 L 49.951172 10.53125 L 50.101562 11.28125 L 50.962891 11.544922 L 51.488281 10.832031 L 51.226562 10.044922 L 50.400391 9.96875 z M 11.033203 10.037109 L 10.544922 10.449219 L 10.658203 10.824219 L 10.583984 11.3125 L 11.033203 11.611328 L 11.521484 11.386719 L 11.708984 10.824219 L 11.445312 10.375 L 11.033203 10.037109 z M 62.324219 10.173828 L 61.873047 10.736328 L 62.023438 11.486328 L 62.886719 11.748047 L 63.412109 11.035156 L 63.148438 10.248047 L 62.324219 10.173828 z M 39.59375 10.513672 L 39.144531 10.662109 L 38.882812 11.224609 L 39.257812 11.712891 L 39.78125 11.675781 L 40.15625 11.375 L 40.119141 10.738281 L 39.59375 10.513672 z M 33.65625 10.566406 L 33.205078 11.128906 L 33.355469 11.878906 L 34.21875 12.140625 L 34.742188 11.429688 L 34.480469 10.640625 L 33.65625 10.566406 z M 17.890625 12.191406 L 17.441406 12.339844 L 17.179688 12.902344 L 17.554688 13.390625 L 18.078125 13.353516 L 18.453125 13.052734 L 18.416016 12.416016 L 17.890625 12.191406 z M 30.492188 12.464844 L 30.042969 13.177734 L 30.566406 13.814453 L 31.429688 13.552734 L 31.355469 12.689453 L 30.492188 12.464844 z M 37.322266 12.755859 L 36.873047 13.46875 L 37.398438 14.105469 L 38.259766 13.84375 L 38.185547 12.980469 L 37.322266 12.755859 z M 62.923828 12.808594 L 62.509766 12.845703 L 62.285156 13.294922 L 62.322266 13.857422 L 62.884766 14.007812 L 63.298828 13.857422 L 63.560547 13.482422 L 63.335938 12.957031 L 62.923828 12.808594 z M 51.574219 12.908203 L 51.085938 13.320312 L 51.199219 13.695312 L 51.123047 14.183594 L 51.574219 14.482422 L 52.060547 14.257812 L 52.248047 13.695312 L 51.986328 13.246094 L 51.574219 12.908203 z M 24.869141 12.990234 L 24.417969 13.552734 L 24.568359 14.302734 L 25.431641 14.564453 L 25.955078 13.851562 L 25.693359 13.064453 L 24.869141 12.990234 z M 44.351562 13.189453 L 43.900391 13.900391 L 44.425781 14.539062 L 45.289062 14.275391 L 45.212891 13.414062 L 44.351562 13.189453 z M 55.513672 13.587891 L 55.025391 14 L 55.138672 14.375 L 55.064453 14.863281 L 55.513672 15.164062 L 56.001953 14.9375 L 56.189453 14.375 L 55.925781 13.925781 L 55.513672 13.587891 z M 14.855469 13.738281 L 14.332031 14 L 14.144531 14.375 L 14.40625 14.712891 L 14.931641 15.087891 L 15.230469 14.826172 L 15.457031 14.488281 L 15.380859 13.849609 L 14.855469 13.738281 z M 10.589844 13.777344 L 10.138672 13.927734 L 9.8769531 14.490234 L 10.251953 14.976562 L 10.777344 14.939453 L 11.152344 14.638672 L 11.113281 14.001953 L 10.589844 13.777344 z M 59.34375 13.792969 L 58.818359 14.054688 L 58.630859 14.429688 L 58.892578 14.767578 L 59.417969 15.142578 L 59.71875 14.880859 L 59.943359 14.542969 L 59.867188 13.90625 L 59.34375 13.792969 z M 7.4765625 14.074219 L 6.9902344 14.486328 L 7.1015625 14.861328 L 7.0273438 15.349609 L 7.4765625 15.650391 L 7.9648438 15.423828 L 8.1523438 14.861328 L 7.890625 14.412109 L 7.4765625 14.074219 z M 2.0585938 14.177734 L 1.609375 14.890625 L 2.1328125 15.527344 L 2.9960938 15.265625 L 2.921875 14.402344 L 2.0585938 14.177734 z M 33.773438 14.251953 L 33.248047 14.515625 L 33.060547 14.890625 L 33.324219 15.228516 L 33.847656 15.603516 L 34.148438 15.339844 L 34.373047 15.001953 L 34.298828 14.365234 L 33.773438 14.251953 z M 42.097656 14.271484 L 41.572266 14.533203 L 41.384766 14.908203 L 41.646484 15.246094 L 42.171875 15.621094 L 42.472656 15.357422 L 42.697266 15.021484 L 42.623047 14.382812 L 42.097656 14.271484 z M 20.570312 14.298828 L 20.119141 14.449219 L 19.857422 15.011719 L 20.232422 15.5 L 20.757812 15.462891 L 21.132812 15.162109 L 21.095703 14.525391 L 20.570312 14.298828 z M 23.986328 15.113281 L 23.498047 15.525391 L 23.611328 15.900391 L 23.535156 16.388672 L 23.986328 16.6875 L 24.472656 16.462891 L 24.660156 15.900391 L 24.398438 15.451172 L 23.986328 15.113281 z M 47.472656 15.259766 L 46.984375 15.671875 L 47.097656 16.046875 L 47.021484 16.535156 L 47.472656 16.835938 L 47.958984 16.609375 L 48.146484 16.046875 L 47.884766 15.597656 L 47.472656 15.259766 z M 18.294922 16.146484 L 17.882812 16.183594 L 17.65625 16.632812 L 17.695312 17.195312 L 18.257812 17.345703 L 18.669922 17.195312 L 18.931641 16.820312 L 18.707031 16.294922 L 18.294922 16.146484 z M 58.390625 16.548828 L 57.978516 16.585938 L 57.751953 17.035156 L 57.791016 17.597656 L 58.353516 17.748047 L 58.765625 17.597656 L 59.027344 17.222656 L 58.802734 16.699219 L 58.390625 16.548828 z M 53.642578 16.748047 L 53.191406 17.460938 L 53.716797 18.099609 L 54.580078 17.835938 L 54.503906 16.974609 L 53.642578 16.748047 z M 36.539062 16.763672 L 36.087891 17.476562 L 36.613281 18.115234 L 37.476562 17.851562 L 37.400391 16.990234 L 36.539062 16.763672 z M 34.982422 16.8125 L 34.494141 17.224609 L 34.607422 17.599609 L 34.53125 18.087891 L 34.982422 18.388672 L 35.46875 18.162109 L 35.65625 17.599609 L 35.394531 17.150391 L 34.982422 16.8125 z M 10.984375 17.148438 L 10.458984 17.410156 L 10.271484 17.785156 L 10.535156 18.123047 L 11.058594 18.498047 L 11.359375 18.234375 L 11.583984 17.898438 L 11.509766 17.259766 L 10.984375 17.148438 z M 5.8105469 17.259766 L 5.2851562 17.521484 L 5.0976562 17.896484 L 5.3613281 18.234375 L 5.8867188 18.609375 L 6.1855469 18.347656 L 6.4101562 18.009766 L 6.3359375 17.371094 L 5.8105469 17.259766 z M 2.5566406 17.337891 L 2.1054688 17.488281 L 1.84375 18.050781 L 2.21875 18.539062 L 2.7441406 18.5 L 3.1191406 18.201172 L 3.0820312 17.5625 L 2.5566406 17.337891 z M 43.25 17.363281 L 42.761719 17.777344 L 42.875 18.152344 L 42.798828 18.638672 L 43.25 18.939453 L 43.736328 18.714844 L 43.923828 18.152344 L 43.662109 17.701172 L 43.25 17.363281 z M 24.091797 17.46875 L 23.642578 18.03125 L 23.792969 18.78125 L 24.654297 19.042969 L 25.179688 18.330078 L 24.917969 17.542969 L 24.091797 17.46875 z M 28.875 17.601562 L 28.351562 17.863281 L 28.164062 18.238281 L 28.425781 18.576172 L 28.951172 18.951172 L 29.25 18.689453 L 29.476562 18.351562 L 29.400391 17.712891 L 28.875 17.601562 z M 63.308594 17.712891 L 62.896484 17.75 L 62.671875 18.199219 L 62.708984 18.761719 L 63.271484 18.912109 L 63.683594 18.761719 L 63.947266 18.386719 L 63.722656 17.863281 L 63.308594 17.712891 z M 50.033203 17.798828 L 49.582031 18.511719 L 50.107422 19.148438 L 50.970703 18.886719 L 50.894531 18.023438 L 50.033203 17.798828 z M 13.345703 18.492188 L 12.820312 18.755859 L 12.632812 19.130859 L 12.894531 19.466797 L 13.419922 19.841797 L 13.720703 19.580078 L 13.945312 19.242188 L 13.869141 18.605469 L 13.345703 18.492188 z M 34.119141 20.056641 L 33.705078 20.09375 L 33.480469 20.542969 L 33.517578 21.105469 L 34.080078 21.255859 L 34.494141 21.105469 L 34.755859 20.730469 L 34.53125 20.205078 L 34.119141 20.056641 z M 26.570312 20.074219 L 26.083984 20.486328 L 26.195312 20.861328 L 26.121094 21.349609 L 26.570312 21.648438 L 27.058594 21.423828 L 27.246094 20.861328 L 26.984375 20.412109 L 26.570312 20.074219 z M 37.873047 20.152344 L 37.460938 20.189453 L 37.236328 20.638672 L 37.273438 21.201172 L 37.835938 21.351562 L 38.248047 21.201172 L 38.509766 20.826172 L 38.285156 20.302734 L 37.873047 20.152344 z M 18.501953 20.28125 L 18.050781 20.994141 L 18.576172 21.630859 L 19.439453 21.369141 L 19.363281 20.505859 L 18.501953 20.28125 z M 62.400391 20.400391 L 61.988281 20.439453 L 61.763672 20.888672 L 61.800781 21.451172 L 62.363281 21.601562 L 62.775391 21.451172 L 63.039062 21.076172 L 62.814453 20.550781 L 62.400391 20.400391 z M 41.222656 20.507812 L 40.773438 21.220703 L 41.296875 21.859375 L 42.160156 21.595703 L 42.085938 20.734375 L 41.222656 20.507812 z M 30.314453 20.648438 L 29.826172 21.060547 L 29.939453 21.435547 L 29.863281 21.923828 L 30.314453 22.222656 L 30.800781 21.998047 L 30.988281 21.435547 L 30.726562 20.986328 L 30.314453 20.648438 z M 57.828125 20.884766 L 57.378906 21.447266 L 57.529297 22.197266 L 58.390625 22.458984 L 58.916016 21.746094 L 58.654297 20.958984 L 57.828125 20.884766 z M 53.669922 21.011719 L 53.181641 21.423828 L 53.294922 21.798828 L 53.21875 22.287109 L 53.669922 22.585938 L 54.15625 22.361328 L 54.34375 21.798828 L 54.082031 21.349609 L 53.669922 21.011719 z M 14.896484 21.154297 L 14.408203 21.566406 L 14.521484 21.941406 L 14.445312 22.429688 L 14.896484 22.730469 L 15.382812 22.503906 L 15.570312 21.941406 L 15.308594 21.492188 L 14.896484 21.154297 z M 9.3125 21.652344 L 8.7871094 21.914062 L 8.5996094 22.289062 L 8.8632812 22.626953 L 9.3867188 23.001953 L 9.6875 22.740234 L 9.9121094 22.402344 L 9.8378906 21.763672 L 9.3125 21.652344 z M 4.9511719 21.667969 L 4.5 22.230469 L 4.6503906 22.980469 L 5.5136719 23.242188 L 6.0390625 22.53125 L 5.7753906 21.742188 L 4.9511719 21.667969 z M 51.400391 22.113281 L 50.988281 22.150391 L 50.761719 22.601562 L 50.800781 23.164062 L 51.363281 23.314453 L 51.775391 23.164062 L 52.037109 22.789062 L 51.8125 22.263672 L 51.400391 22.113281 z M 45.648438 22.167969 L 45.199219 22.730469 L 45.349609 23.480469 L 46.210938 23.744141 L 46.736328 23.03125 L 46.474609 22.244141 L 45.648438 22.167969 z M 2.359375 22.236328 L 1.9472656 22.273438 L 1.7226562 22.724609 L 1.7597656 23.287109 L 2.3222656 23.435547 L 2.734375 23.287109 L 2.9960938 22.912109 L 2.7714844 22.386719 L 2.359375 22.236328 z M 20.990234 23.164062 L 20.541016 23.314453 L 20.277344 23.876953 L 20.652344 24.365234 L 21.177734 24.328125 L 21.552734 24.027344 L 21.515625 23.390625 L 20.990234 23.164062 z M 16.662109 23.988281 L 16.212891 24.550781 L 16.363281 25.300781 L 17.224609 25.5625 L 17.75 24.849609 L 17.488281 24.0625 L 16.662109 23.988281 z M 50.794922 24.355469 L 50.269531 24.617188 L 50.082031 24.992188 L 50.345703 25.330078 L 50.871094 25.705078 L 51.169922 25.443359 L 51.394531 25.105469 L 51.320312 24.46875 L 50.794922 24.355469 z M 14.017578 24.892578 L 13.529297 25.304688 L 13.642578 25.679688 L 13.566406 26.167969 L 14.017578 26.46875 L 14.503906 26.242188 L 14.691406 25.679688 L 14.429688 25.230469 L 14.017578 24.892578 z M 30.160156 25.105469 L 29.710938 25.253906 L 29.447266 25.816406 L 29.822266 26.304688 L 30.347656 26.267578 L 30.722656 25.966797 L 30.685547 25.330078 L 30.160156 25.105469 z M 63.087891 25.119141 L 62.5625 25.380859 L 62.375 25.755859 L 62.636719 26.09375 L 63.162109 26.46875 L 63.462891 26.205078 L 63.6875 25.869141 L 63.613281 25.230469 L 63.087891 25.119141 z M 45.363281 25.154297 L 44.912109 25.302734 L 44.650391 25.865234 L 45.025391 26.353516 L 45.550781 26.316406 L 45.925781 26.015625 L 45.886719 25.378906 L 45.363281 25.154297 z M 27.119141 25.302734 L 26.707031 25.339844 L 26.480469 25.791016 L 26.519531 26.353516 L 27.082031 26.501953 L 27.494141 26.353516 L 27.755859 25.978516 L 27.53125 25.453125 L 27.119141 25.302734 z M 58.8125 25.527344 L 58.363281 26.089844 L 58.513672 26.839844 L 59.375 27.101562 L 59.900391 26.390625 L 59.638672 25.601562 L 58.8125 25.527344 z M 37.236328 25.683594 L 36.785156 26.246094 L 36.935547 26.996094 L 37.798828 27.257812 L 38.322266 26.544922 L 38.060547 25.757812 L 37.236328 25.683594 z M 53.888672 25.769531 L 53.363281 26.033203 L 53.175781 26.408203 L 53.4375 26.746094 L 53.962891 27.121094 L 54.263672 26.857422 L 54.488281 26.519531 L 54.414062 25.882812 L 53.888672 25.769531 z M 33.503906 25.798828 L 33.052734 26.509766 L 33.578125 27.148438 L 34.441406 26.884766 L 34.365234 26.023438 L 33.503906 25.798828 z M 42.220703 25.822266 L 41.771484 26.535156 L 42.296875 27.171875 L 43.158203 26.910156 L 43.083984 26.046875 L 42.220703 25.822266 z M 5.90625 25.919922 L 5.4941406 25.958984 L 5.2695312 26.408203 L 5.3066406 26.970703 L 5.8691406 27.121094 L 6.28125 26.970703 L 6.5429688 26.595703 L 6.3183594 26.070312 L 5.90625 25.919922 z M 1.46875 26.183594 L 1.0195312 26.896484 L 1.5449219 27.533203 L 2.40625 27.271484 L 2.3320312 26.408203 L 1.46875 26.183594 z M 23.025391 26.189453 L 22.613281 26.226562 L 22.388672 26.677734 L 22.425781 27.240234 L 22.988281 27.390625 L 23.400391 27.240234 L 23.662109 26.865234 L 23.4375 26.339844 L 23.025391 26.189453 z M 11.390625 26.808594 L 10.939453 26.957031 L 10.677734 27.519531 L 11.052734 28.007812 L 11.578125 27.970703 L 11.953125 27.669922 L 11.914062 27.033203 L 11.390625 26.808594 z M 19.228516 27.726562 L 18.742188 28.138672 L 18.853516 28.513672 L 18.779297 29.001953 L 19.228516 29.302734 L 19.716797 29.076172 L 19.904297 28.513672 L 19.640625 28.064453 L 19.228516 27.726562 z M 37.388672 27.916016 L 36.863281 28.177734 L 36.675781 28.552734 L 36.939453 28.890625 L 37.462891 29.265625 L 37.763672 29.003906 L 37.988281 28.666016 L 37.914062 28.027344 L 37.388672 27.916016 z M 7.34375 28.128906 L 6.8945312 28.691406 L 7.0449219 29.441406 L 7.90625 29.705078 L 8.4316406 28.992188 L 8.1699219 28.205078 L 7.34375 28.128906 z M 33.28125 28.203125 L 32.832031 28.914062 L 33.357422 29.552734 L 34.21875 29.289062 L 34.144531 28.427734 L 33.28125 28.203125 z M 54.818359 28.335938 L 54.292969 28.599609 L 54.105469 28.974609 L 54.367188 29.310547 L 54.892578 29.685547 L 55.193359 29.423828 L 55.417969 29.085938 L 55.34375 28.449219 L 54.818359 28.335938 z M 29.470703 28.408203 L 28.945312 28.669922 L 28.757812 29.044922 L 29.019531 29.382812 L 29.544922 29.757812 L 29.845703 29.494141 L 30.070312 29.158203 L 29.996094 28.519531 L 29.470703 28.408203 z M 23.548828 28.738281 L 23.023438 29 L 22.835938 29.375 L 23.099609 29.712891 L 23.623047 30.087891 L 23.923828 29.826172 L 24.148438 29.488281 L 24.074219 28.849609 L 23.548828 28.738281 z M 15.263672 29.089844 L 14.814453 29.802734 L 15.339844 30.439453 L 16.201172 30.177734 L 16.126953 29.314453 L 15.263672 29.089844 z M 58.019531 29.136719 L 57.53125 29.548828 L 57.644531 29.923828 L 57.568359 30.412109 L 58.019531 30.710938 L 58.505859 30.486328 L 58.693359 29.923828 L 58.431641 29.474609 L 58.019531 29.136719 z M 1.9257812 29.900391 L 1.4746094 30.613281 L 2 31.25 L 2.8632812 30.988281 L 2.7871094 30.125 L 1.9257812 29.900391 z M 45.927734 29.925781 L 45.478516 30.076172 L 45.214844 30.638672 L 45.589844 31.126953 L 46.115234 31.089844 L 46.490234 30.789062 L 46.453125 30.152344 L 45.927734 29.925781 z M 11.462891 30.087891 L 10.976562 30.5 L 11.087891 30.875 L 11.013672 31.363281 L 11.462891 31.662109 L 11.951172 31.4375 L 12.138672 30.875 L 11.875 30.425781 L 11.462891 30.087891 z M 48.492188 30.117188 L 48.042969 30.679688 L 48.191406 31.429688 L 49.054688 31.693359 L 49.580078 30.980469 L 49.316406 30.193359 L 48.492188 30.117188 z M 62.580078 30.195312 L 62.167969 30.232422 L 61.943359 30.683594 L 61.980469 31.246094 L 62.542969 31.396484 L 62.955078 31.246094 L 63.21875 30.871094 L 62.994141 30.345703 L 62.580078 30.195312 z M 41.091797 30.302734 L 40.642578 31.013672 L 41.167969 31.652344 L 42.029297 31.388672 L 41.955078 30.527344 L 41.091797 30.302734 z M 26.896484 30.523438 L 26.445312 30.671875 L 26.183594 31.234375 L 26.558594 31.722656 L 27.083984 31.685547 L 27.458984 31.384766 L 27.419922 30.748047 L 26.896484 30.523438 z M 62.847656 32.263672 L 62.398438 32.414062 L 62.134766 32.976562 L 62.509766 33.462891 L 63.035156 33.425781 L 63.410156 33.126953 L 63.373047 32.488281 L 62.847656 32.263672 z M 26.726562 32.568359 L 26.275391 33.130859 L 26.425781 33.880859 L 27.289062 34.142578 L 27.8125 33.429688 L 27.550781 32.642578 L 26.726562 32.568359 z M 31.013672 32.652344 L 30.564453 33.214844 L 30.712891 33.964844 L 31.576172 34.226562 L 32.101562 33.513672 L 31.837891 32.726562 L 31.013672 32.652344 z M 45.808594 32.673828 L 45.357422 33.386719 L 45.882812 34.025391 L 46.746094 33.761719 L 46.669922 32.900391 L 45.808594 32.673828 z M 51.128906 32.998047 L 50.679688 33.710938 L 51.203125 34.349609 L 52.066406 34.085938 L 51.992188 33.224609 L 51.128906 32.998047 z M 0.74609375 33.005859 L 0.296875 33.568359 L 0.4453125 34.318359 L 1.3085938 34.580078 L 1.8339844 33.867188 L 1.5703125 33.080078 L 0.74609375 33.005859 z M 54.46875 33.140625 L 54.019531 33.291016 L 53.755859 33.853516 L 54.130859 34.341797 L 54.65625 34.304688 L 55.03125 34.003906 L 54.994141 33.367188 L 54.46875 33.140625 z M 11.294922 33.169922 L 10.769531 33.433594 L 10.582031 33.808594 L 10.845703 34.144531 L 11.369141 34.519531 L 11.669922 34.257812 L 11.894531 33.919922 L 11.820312 33.283203 L 11.294922 33.169922 z M 56.935547 33.212891 L 56.486328 33.925781 L 57.009766 34.5625 L 57.873047 34.300781 L 57.798828 33.4375 L 56.935547 33.212891 z M 17.09375 33.445312 L 16.642578 34.15625 L 17.167969 34.794922 L 18.03125 34.53125 L 17.955078 33.669922 L 17.09375 33.445312 z M 35.738281 33.923828 L 35.326172 33.960938 L 35.099609 34.412109 L 35.138672 34.974609 L 35.701172 35.125 L 36.113281 34.974609 L 36.375 34.599609 L 36.150391 34.074219 L 35.738281 33.923828 z M 4.7773438 34.142578 L 4.328125 34.705078 L 4.4785156 35.455078 L 5.3398438 35.716797 L 5.8652344 35.003906 L 5.6035156 34.216797 L 4.7773438 34.142578 z M 22.894531 34.25 L 22.445312 34.398438 L 22.183594 34.960938 L 22.558594 35.449219 L 23.082031 35.412109 L 23.457031 35.111328 L 23.419922 34.474609 L 22.894531 34.25 z M 38.498047 34.279297 L 38.083984 34.316406 L 37.859375 34.765625 L 37.896484 35.328125 L 38.458984 35.478516 L 38.873047 35.328125 L 39.134766 34.953125 L 38.910156 34.429688 L 38.498047 34.279297 z M 40.595703 34.451172 L 40.144531 35.162109 L 40.669922 35.800781 L 41.533203 35.537109 L 41.457031 34.675781 L 40.595703 34.451172 z M 14.207031 34.492188 L 13.755859 35.054688 L 13.90625 35.804688 L 14.769531 36.066406 L 15.294922 35.355469 L 15.03125 34.566406 L 14.207031 34.492188 z M 34.517578 35.496094 L 34.029297 35.910156 L 34.142578 36.285156 L 34.066406 36.771484 L 34.517578 37.072266 L 35.003906 36.847656 L 35.191406 36.285156 L 34.929688 35.833984 L 34.517578 35.496094 z M 46.447266 35.759766 L 45.921875 36.021484 L 45.734375 36.396484 L 45.998047 36.734375 L 46.523438 37.109375 L 46.822266 36.847656 L 47.046875 36.509766 L 46.972656 35.871094 L 46.447266 35.759766 z M 30.005859 36.158203 L 29.554688 36.871094 L 30.080078 37.507812 L 30.943359 37.246094 L 30.867188 36.382812 L 30.005859 36.158203 z M 58.740234 36.849609 L 58.328125 36.886719 L 58.103516 37.335938 L 58.140625 37.898438 L 58.703125 38.048828 L 59.115234 37.898438 L 59.378906 37.523438 L 59.154297 37 L 58.740234 36.849609 z M 18.333984 36.972656 L 17.847656 37.384766 L 17.958984 37.759766 L 17.884766 38.246094 L 18.333984 38.546875 L 18.822266 38.322266 L 19.009766 37.759766 L 18.748047 37.308594 L 18.333984 36.972656 z M 48.726562 36.986328 L 48.277344 37.548828 L 48.427734 38.298828 L 49.289062 38.5625 L 49.814453 37.849609 L 49.552734 37.0625 L 48.726562 36.986328 z M 37.775391 37.021484 L 37.324219 37.171875 L 37.0625 37.734375 L 37.4375 38.222656 L 37.962891 38.185547 L 38.337891 37.884766 L 38.298828 37.248047 L 37.775391 37.021484 z M 41.101562 37.273438 L 40.652344 37.421875 L 40.388672 37.984375 L 40.763672 38.472656 L 41.289062 38.435547 L 41.664062 38.134766 L 41.626953 37.498047 L 41.101562 37.273438 z M 10.523438 37.472656 L 10.072266 37.623047 L 9.8105469 38.185547 L 10.185547 38.671875 L 10.710938 38.634766 L 11.085938 38.335938 L 11.046875 37.697266 L 10.523438 37.472656 z M 63.222656 37.677734 L 62.773438 37.828125 L 62.509766 38.390625 L 62.884766 38.878906 L 63.410156 38.839844 L 63.785156 38.541016 L 63.748047 37.902344 L 63.222656 37.677734 z M 2.9726562 37.685547 L 2.5605469 37.722656 L 2.3359375 38.171875 L 2.3730469 38.734375 L 2.9355469 38.884766 L 3.3476562 38.734375 L 3.609375 38.359375 L 3.3847656 37.833984 L 2.9726562 37.685547 z M 25.169922 38.054688 L 24.720703 38.203125 L 24.457031 38.765625 L 24.832031 39.253906 L 25.357422 39.216797 L 25.732422 38.916016 L 25.695312 38.279297 L 25.169922 38.054688 z M 14.548828 38.072266 L 14.099609 38.785156 L 14.625 39.421875 L 15.486328 39.160156 L 15.412109 38.296875 L 14.548828 38.072266 z M 53.361328 38.111328 L 52.912109 38.673828 L 53.0625 39.423828 L 53.923828 39.6875 L 54.449219 38.974609 L 54.1875 38.1875 L 53.361328 38.111328 z M 7.7128906 38.490234 L 7.1875 38.751953 L 7 39.126953 L 7.2636719 39.464844 L 7.7890625 39.839844 L 8.0878906 39.576172 L 8.3125 39.240234 L 8.2382812 38.601562 L 7.7128906 38.490234 z M 21.761719 38.845703 L 21.3125 39.558594 L 21.835938 40.197266 L 22.699219 39.933594 L 22.625 39.072266 L 21.761719 38.845703 z M 54.46875 39.601562 L 53.980469 40.015625 L 54.09375 40.390625 L 54.019531 40.876953 L 54.46875 41.177734 L 54.957031 40.953125 L 55.144531 40.390625 L 54.880859 39.939453 L 54.46875 39.601562 z M 31.113281 39.882812 L 30.625 40.294922 L 30.738281 40.669922 L 30.662109 41.158203 L 31.113281 41.458984 L 31.599609 41.232422 L 31.787109 40.669922 L 31.525391 40.220703 L 31.113281 39.882812 z M 18.90625 39.914062 L 18.419922 40.328125 L 18.53125 40.703125 L 18.457031 41.189453 L 18.90625 41.490234 L 19.394531 41.265625 L 19.582031 40.703125 L 19.318359 40.251953 L 18.90625 39.914062 z M 23.572266 40.15625 L 23.123047 40.71875 L 23.271484 41.46875 L 24.134766 41.730469 L 24.660156 41.017578 L 24.396484 40.230469 L 23.572266 40.15625 z M 14.935547 40.587891 L 14.523438 40.625 L 14.298828 41.074219 L 14.335938 41.636719 L 14.898438 41.787109 L 15.310547 41.636719 L 15.574219 41.261719 L 15.347656 40.738281 L 14.935547 40.587891 z M 47.326172 40.621094 L 46.800781 40.882812 L 46.613281 41.257812 L 46.875 41.595703 L 47.400391 41.970703 L 47.701172 41.707031 L 47.925781 41.371094 L 47.851562 40.732422 L 47.326172 40.621094 z M 51.09375 41.091797 L 50.644531 41.242188 L 50.382812 41.804688 L 50.757812 42.292969 L 51.28125 42.253906 L 51.65625 41.955078 L 51.619141 41.316406 L 51.09375 41.091797 z M 58.613281 41.201172 L 58.164062 41.914062 L 58.689453 42.550781 L 59.550781 42.289062 L 59.476562 41.425781 L 58.613281 41.201172 z M 27.0625 41.378906 L 26.537109 41.640625 L 26.349609 42.015625 L 26.613281 42.353516 L 27.136719 42.728516 L 27.4375 42.464844 L 27.662109 42.128906 L 27.587891 41.490234 L 27.0625 41.378906 z M 61.173828 41.609375 L 60.722656 42.322266 L 61.248047 42.958984 L 62.111328 42.697266 L 62.035156 41.833984 L 61.173828 41.609375 z M 5.0390625 41.796875 L 4.5898438 41.947266 L 4.3261719 42.509766 L 4.7011719 42.998047 L 5.2265625 42.960938 L 5.6015625 42.660156 L 5.5644531 42.023438 L 5.0390625 41.796875 z M 43.396484 41.802734 L 42.871094 42.064453 L 42.683594 42.439453 L 42.947266 42.777344 L 43.472656 43.152344 L 43.771484 42.890625 L 43.996094 42.552734 L 43.921875 41.914062 L 43.396484 41.802734 z M 34.224609 41.859375 L 33.8125 41.898438 L 33.587891 42.347656 L 33.625 42.910156 L 34.1875 43.060547 L 34.599609 42.910156 L 34.863281 42.535156 L 34.636719 42.009766 L 34.224609 41.859375 z M 1.5585938 42.615234 L 1.109375 43.177734 L 1.2597656 43.927734 L 2.1210938 44.191406 L 2.6464844 43.478516 L 2.3847656 42.691406 L 1.5585938 42.615234 z M 10.539062 42.626953 L 10.089844 43.189453 L 10.240234 43.939453 L 11.101562 44.201172 L 11.626953 43.488281 L 11.365234 42.701172 L 10.539062 42.626953 z M 36.960938 42.726562 L 36.511719 42.876953 L 36.248047 43.439453 L 36.623047 43.925781 L 37.148438 43.888672 L 37.523438 43.587891 L 37.486328 42.951172 L 36.960938 42.726562 z M 7.5898438 43.685547 L 7.1015625 44.099609 L 7.2148438 44.474609 L 7.140625 44.960938 L 7.5898438 45.261719 L 8.078125 45.037109 L 8.265625 44.474609 L 8.0019531 44.023438 L 7.5898438 43.685547 z M 50.443359 43.855469 L 49.955078 44.267578 L 50.068359 44.642578 L 49.992188 45.130859 L 50.443359 45.429688 L 50.929688 45.205078 L 51.117188 44.642578 L 50.855469 44.193359 L 50.443359 43.855469 z M 45.082031 43.929688 L 44.556641 44.191406 L 44.369141 44.566406 L 44.630859 44.904297 L 45.15625 45.279297 L 45.457031 45.015625 L 45.681641 44.679688 L 45.605469 44.041016 L 45.082031 43.929688 z M 55.046875 44.294922 L 54.560547 44.707031 L 54.671875 45.082031 L 54.597656 45.570312 L 55.046875 45.871094 L 55.535156 45.644531 L 55.722656 45.082031 L 55.460938 44.632812 L 55.046875 44.294922 z M 15.275391 44.34375 L 14.826172 45.056641 L 15.351562 45.693359 L 16.212891 45.431641 L 16.138672 44.568359 L 15.275391 44.34375 z M 58.144531 44.523438 L 57.693359 44.671875 L 57.431641 45.234375 L 57.806641 45.722656 L 58.332031 45.685547 L 58.707031 45.384766 L 58.669922 44.748047 L 58.144531 44.523438 z M 22.353516 44.820312 L 21.941406 44.857422 L 21.716797 45.308594 L 21.753906 45.871094 L 22.316406 46.021484 L 22.728516 45.871094 L 22.992188 45.496094 L 22.767578 44.970703 L 22.353516 44.820312 z M 39.085938 44.992188 L 38.560547 45.253906 L 38.373047 45.628906 L 38.634766 45.966797 L 39.160156 46.341797 L 39.460938 46.080078 L 39.685547 45.742188 L 39.611328 45.105469 L 39.085938 44.992188 z M 11.183594 45.072266 L 10.734375 45.785156 L 11.259766 46.421875 L 12.121094 46.160156 L 12.046875 45.296875 L 11.183594 45.072266 z M 30.75 45.083984 L 30.300781 45.796875 L 30.826172 46.433594 L 31.6875 46.171875 L 31.613281 45.308594 L 30.75 45.083984 z M 18.091797 45.478516 L 17.642578 46.189453 L 18.167969 46.828125 L 19.029297 46.564453 L 18.955078 45.703125 L 18.091797 45.478516 z M 3.7089844 45.505859 L 3.296875 45.542969 L 3.0722656 45.994141 L 3.109375 46.556641 L 3.671875 46.707031 L 4.0839844 46.556641 L 4.3457031 46.181641 L 4.1210938 45.65625 L 3.7089844 45.505859 z M 26.087891 46.029297 L 25.636719 46.591797 L 25.787109 47.341797 L 26.650391 47.605469 L 27.175781 46.892578 L 26.912109 46.105469 L 26.087891 46.029297 z M 62.181641 46.294922 L 61.769531 46.332031 L 61.542969 46.78125 L 61.582031 47.34375 L 62.144531 47.494141 L 62.556641 47.34375 L 62.818359 46.96875 L 62.59375 46.443359 L 62.181641 46.294922 z M 32.927734 46.394531 L 32.476562 46.544922 L 32.214844 47.107422 L 32.589844 47.59375 L 33.115234 47.556641 L 33.490234 47.255859 L 33.451172 46.619141 L 32.927734 46.394531 z M 42.925781 46.708984 L 42.474609 46.859375 L 42.212891 47.421875 L 42.587891 47.908203 L 43.113281 47.871094 L 43.488281 47.572266 L 43.449219 46.933594 L 42.925781 46.708984 z M 60.800781 47.917969 L 60.275391 48.179688 L 60.087891 48.554688 L 60.349609 48.892578 L 60.875 49.267578 L 61.175781 49.005859 L 61.400391 48.667969 L 61.324219 48.029297 L 60.800781 47.917969 z M 45.085938 47.955078 L 44.597656 48.369141 L 44.710938 48.744141 L 44.634766 49.230469 L 45.085938 49.53125 L 45.572266 49.306641 L 45.759766 48.744141 L 45.498047 48.292969 L 45.085938 47.955078 z M 26.964844 48.564453 L 26.550781 48.601562 L 26.326172 49.050781 L 26.363281 49.613281 L 26.925781 49.763672 L 27.339844 49.613281 L 27.601562 49.238281 L 27.376953 48.712891 L 26.964844 48.564453 z M 52.783203 48.587891 L 52.257812 48.849609 L 52.070312 49.224609 L 52.333984 49.5625 L 52.857422 49.9375 L 53.158203 49.673828 L 53.382812 49.337891 L 53.308594 48.699219 L 52.783203 48.587891 z M 48.726562 48.740234 L 48.201172 49.001953 L 48.013672 49.376953 L 48.275391 49.714844 L 48.800781 50.089844 L 49.101562 49.826172 L 49.326172 49.490234 L 49.25 48.851562 L 48.726562 48.740234 z M 41.119141 48.794922 L 40.669922 49.357422 L 40.820312 50.107422 L 41.681641 50.371094 L 42.207031 49.658203 L 41.945312 48.871094 L 41.119141 48.794922 z M 30.660156 48.974609 L 30.248047 49.011719 L 30.023438 49.462891 L 30.060547 50.025391 L 30.623047 50.173828 L 31.035156 50.025391 L 31.296875 49.650391 L 31.072266 49.125 L 30.660156 48.974609 z M 3.9628906 49.017578 L 3.5136719 49.580078 L 3.6640625 50.330078 L 4.5253906 50.59375 L 5.0507812 49.880859 L 4.7890625 49.09375 L 3.9628906 49.017578 z M 10.041016 49.203125 L 9.5527344 49.615234 L 9.6660156 49.990234 L 9.5917969 50.476562 L 10.041016 50.777344 L 10.529297 50.552734 L 10.716797 49.990234 L 10.453125 49.539062 L 10.041016 49.203125 z M 16.90625 49.296875 L 16.380859 49.560547 L 16.193359 49.935547 L 16.457031 50.273438 L 16.980469 50.648438 L 17.28125 50.384766 L 17.505859 50.046875 L 17.431641 49.410156 L 16.90625 49.296875 z M 33.076172 49.568359 L 32.626953 50.130859 L 32.775391 50.880859 L 33.638672 51.142578 L 34.164062 50.429688 L 33.900391 49.642578 L 33.076172 49.568359 z M 20.462891 50.097656 L 19.974609 50.509766 L 20.087891 50.884766 L 20.013672 51.373047 L 20.462891 51.673828 L 20.951172 51.447266 L 21.138672 50.884766 L 20.875 50.435547 L 20.462891 50.097656 z M 57.150391 50.304688 L 56.738281 50.34375 L 56.513672 50.792969 L 56.550781 51.355469 L 57.113281 51.505859 L 57.525391 51.355469 L 57.787109 50.980469 L 57.5625 50.455078 L 57.150391 50.304688 z M 12.140625 50.671875 L 11.689453 51.234375 L 11.839844 51.984375 L 12.703125 52.246094 L 13.228516 51.533203 L 12.964844 50.746094 L 12.140625 50.671875 z M 0.91601562 50.837891 L 0.46484375 50.988281 L 0.203125 51.550781 L 0.578125 52.039062 L 1.1035156 52.001953 L 1.4785156 51.701172 L 1.4394531 51.064453 L 0.91601562 50.837891 z M 39.253906 50.908203 L 38.841797 50.947266 L 38.615234 51.396484 L 38.654297 51.958984 L 39.216797 52.109375 L 39.628906 51.958984 L 39.890625 51.583984 L 39.666016 51.058594 L 39.253906 50.908203 z M 35.46875 51.738281 L 35.056641 51.775391 L 34.832031 52.226562 L 34.869141 52.789062 L 35.431641 52.939453 L 35.84375 52.789062 L 36.107422 52.414062 L 35.882812 51.888672 L 35.46875 51.738281 z M 51.628906 51.767578 L 51.103516 52.03125 L 50.916016 52.40625 L 51.177734 52.744141 L 51.703125 53.119141 L 52.003906 52.855469 L 52.228516 52.517578 L 52.152344 51.880859 L 51.628906 51.767578 z M 21.984375 51.796875 L 21.533203 52.509766 L 22.058594 53.146484 L 22.921875 52.884766 L 22.845703 52.021484 L 21.984375 51.796875 z M 5.7207031 52 L 5.2714844 52.710938 L 5.7949219 53.349609 L 6.6582031 53.085938 L 6.5839844 52.224609 L 5.7207031 52 z M 46.84375 52.353516 L 46.355469 52.765625 L 46.46875 53.140625 L 46.392578 53.628906 L 46.84375 53.927734 L 47.330078 53.703125 L 47.517578 53.140625 L 47.255859 52.691406 L 46.84375 52.353516 z M 13.417969 52.460938 L 12.892578 52.722656 L 12.705078 53.097656 L 12.96875 53.435547 L 13.494141 53.810547 L 13.792969 53.548828 L 14.017578 53.210938 L 13.943359 52.572266 L 13.417969 52.460938 z M 61.816406 52.521484 L 61.367188 53.083984 L 61.517578 53.833984 L 62.378906 54.095703 L 62.904297 53.382812 L 62.642578 52.595703 L 61.816406 52.521484 z M 9.84375 52.53125 L 9.4296875 52.570312 L 9.2050781 53.019531 L 9.2421875 53.582031 L 9.8046875 53.732422 L 10.21875 53.582031 L 10.480469 53.207031 L 10.255859 52.681641 L 9.84375 52.53125 z M 29.130859 53.042969 L 28.644531 53.455078 L 28.755859 53.830078 L 28.681641 54.318359 L 29.130859 54.617188 L 29.619141 54.392578 L 29.806641 53.830078 L 29.544922 53.380859 L 29.130859 53.042969 z M 36.875 53.638672 L 36.423828 54.351562 L 36.949219 54.990234 L 37.8125 54.726562 L 37.736328 53.865234 L 36.875 53.638672 z M 2.1054688 53.755859 L 1.6933594 53.792969 L 1.46875 54.244141 L 1.5058594 54.806641 L 2.0683594 54.957031 L 2.4804688 54.806641 L 2.7441406 54.431641 L 2.5175781 53.90625 L 2.1054688 53.755859 z M 40.353516 53.857422 L 39.904297 54.568359 L 40.427734 55.207031 L 41.291016 54.943359 L 41.216797 54.082031 L 40.353516 53.857422 z M 52.964844 53.972656 L 52.515625 54.123047 L 52.251953 54.685547 L 52.626953 55.173828 L 53.152344 55.134766 L 53.527344 54.835938 L 53.490234 54.197266 L 52.964844 53.972656 z M 18.978516 54.296875 L 18.492188 54.710938 L 18.603516 55.085938 L 18.529297 55.572266 L 18.978516 55.873047 L 19.466797 55.648438 L 19.654297 55.085938 L 19.390625 54.634766 L 18.978516 54.296875 z M 26.412109 54.414062 L 25.960938 54.5625 L 25.699219 55.125 L 26.074219 55.613281 L 26.599609 55.576172 L 26.974609 55.275391 L 26.935547 54.638672 L 26.412109 54.414062 z M 58.601562 54.763672 L 58.152344 54.914062 L 57.888672 55.476562 L 58.263672 55.964844 L 58.789062 55.925781 L 59.164062 55.626953 L 59.126953 54.988281 L 58.601562 54.763672 z M 55.302734 56.029297 L 54.853516 56.179688 L 54.591797 56.742188 L 54.966797 57.230469 L 55.490234 57.193359 L 55.865234 56.892578 L 55.828125 56.255859 L 55.302734 56.029297 z M 47.224609 56.548828 L 46.775391 56.699219 L 46.511719 57.261719 L 46.886719 57.75 L 47.412109 57.712891 L 47.787109 57.412109 L 47.75 56.775391 L 47.224609 56.548828 z M 42.919922 56.755859 L 42.394531 57.017578 L 42.207031 57.392578 L 42.470703 57.730469 L 42.994141 58.105469 L 43.294922 57.841797 L 43.519531 57.505859 L 43.445312 56.867188 L 42.919922 56.755859 z M 58.013672 57.103516 L 57.488281 57.365234 L 57.300781 57.740234 L 57.564453 58.078125 L 58.087891 58.453125 L 58.388672 58.191406 L 58.613281 57.853516 L 58.539062 57.214844 L 58.013672 57.103516 z M 61.232422 57.117188 L 60.708984 57.378906 L 60.521484 57.753906 L 60.783203 58.091797 L 61.308594 58.466797 L 61.607422 58.203125 L 61.833984 57.867188 L 61.757812 57.228516 L 61.232422 57.117188 z M 10.777344 57.322266 L 10.251953 57.585938 L 10.064453 57.960938 L 10.328125 58.296875 L 10.851562 58.671875 L 11.152344 58.410156 L 11.376953 58.072266 L 11.302734 57.435547 L 10.777344 57.322266 z M 16.726562 57.462891 L 16.277344 58.025391 L 16.427734 58.775391 L 17.289062 59.037109 L 17.814453 58.324219 L 17.552734 57.537109 L 16.726562 57.462891 z M 6.7910156 57.546875 L 6.265625 57.810547 L 6.078125 58.185547 L 6.3417969 58.521484 L 6.8671875 58.896484 L 7.1660156 58.634766 L 7.390625 58.296875 L 7.3164062 57.660156 L 6.7910156 57.546875 z M 1.1289062 57.650391 L 0.6796875 57.798828 L 0.41796875 58.361328 L 0.79296875 58.849609 L 1.3164062 58.8125 L 1.6914062 58.511719 L 1.6542969 57.875 L 1.1289062 57.650391 z M 25.302734 57.720703 L 24.777344 57.984375 L 24.589844 58.359375 L 24.851562 58.695312 L 25.376953 59.070312 L 25.677734 58.808594 L 25.902344 58.470703 L 25.828125 57.833984 L 25.302734 57.720703 z M 13.136719 57.894531 L 12.6875 58.044922 L 12.425781 58.607422 L 12.800781 59.09375 L 13.324219 59.056641 L 13.699219 58.757812 L 13.662109 58.119141 L 13.136719 57.894531 z M 31.056641 57.894531 L 30.605469 58.457031 L 30.755859 59.207031 L 31.619141 59.46875 L 32.144531 58.755859 L 31.880859 57.96875 L 31.056641 57.894531 z M 37.431641 58.228516 L 36.943359 58.640625 L 37.056641 59.015625 L 36.982422 59.503906 L 37.431641 59.802734 L 37.919922 59.578125 L 38.107422 59.015625 L 37.84375 58.566406 L 37.431641 58.228516 z M 22.921875 58.318359 L 22.472656 58.46875 L 22.208984 59.03125 L 22.583984 59.519531 L 23.109375 59.480469 L 23.484375 59.181641 L 23.447266 58.542969 L 22.921875 58.318359 z M 50.400391 58.535156 L 49.951172 59.097656 L 50.101562 59.847656 L 50.962891 60.109375 L 51.488281 59.396484 L 51.226562 58.609375 L 50.400391 58.535156 z M 33.789062 58.949219 L 33.375 58.986328 L 33.150391 59.4375 L 33.1875 60 L 33.75 60.150391 L 34.164062 60 L 34.425781 59.625 L 34.201172 59.099609 L 33.789062 58.949219 z M 28.671875 59.632812 L 28.259766 59.669922 L 28.035156 60.121094 L 28.072266 60.683594 L 28.634766 60.832031 L 29.046875 60.683594 L 29.308594 60.308594 L 29.083984 59.783203 L 28.671875 59.632812 z M 47.0625 59.804688 L 46.537109 60.068359 L 46.349609 60.443359 L 46.611328 60.78125 L 47.136719 61.15625 L 47.4375 60.892578 L 47.662109 60.554688 L 47.585938 59.917969 L 47.0625 59.804688 z M 53.402344 59.84375 L 52.953125 60.556641 L 53.476562 61.193359 L 54.339844 60.931641 L 54.265625 60.068359 L 53.402344 59.84375 z M 4.96875 59.900391 L 4.5175781 60.613281 L 5.0429688 61.25 L 5.90625 60.988281 L 5.8300781 60.125 L 4.96875 59.900391 z M 40.232422 59.925781 L 39.744141 60.337891 L 39.857422 60.712891 L 39.783203 61.201172 L 40.232422 61.501953 L 40.720703 61.275391 L 40.908203 60.712891 L 40.644531 60.263672 L 40.232422 59.925781 z M 21.505859 60.195312 L 21.056641 60.757812 L 21.207031 61.507812 L 22.068359 61.771484 L 22.59375 61.058594 L 22.332031 60.271484 L 21.505859 60.195312 z M 15.591797 60.515625 L 15.066406 60.777344 L 14.878906 61.152344 L 15.142578 61.490234 L 15.667969 61.865234 L 15.966797 61.603516 L 16.191406 61.265625 L 16.117188 60.628906 L 15.591797 60.515625 z M 19.548828 61.21875 L 19.136719 61.255859 L 18.910156 61.707031 L 18.949219 62.269531 L 19.511719 62.417969 L 19.923828 62.269531 L 20.185547 61.894531 L 19.960938 61.369141 L 19.548828 61.21875 z M 43.429688 61.369141 L 42.980469 62.082031 L 43.503906 62.720703 L 44.367188 62.457031 L 44.292969 61.595703 L 43.429688 61.369141 z M 2.8867188 61.503906 L 2.4355469 62.066406 L 2.5859375 62.816406 L 3.4492188 63.080078 L 3.9726562 62.367188 L 3.7109375 61.580078 L 2.8867188 61.503906 z M 56.923828 61.972656 L 56.511719 62.009766 L 56.287109 62.460938 L 56.324219 63.023438 L 56.886719 63.173828 L 57.298828 63.023438 L 57.5625 62.648438 L 57.335938 62.123047 L 56.923828 61.972656 z M 60.867188 62.193359 L 60.416016 62.90625 L 60.941406 63.544922 L 61.804688 63.28125 L 61.728516 62.419922 L 60.867188 62.193359 z M 33.488281 62.210938 L 33.039062 62.773438 L 33.189453 63.523438 L 34.050781 63.785156 L 34.576172 63.072266 L 34.314453 62.285156 L 33.488281 62.210938 z M 25.660156 62.310547 L 25.208984 62.458984 L 24.947266 63.021484 L 25.322266 63.509766 L 25.847656 63.472656 L 26.222656 63.171875 L 26.183594 62.535156 L 25.660156 62.310547 z M 10.998047 62.513672 L 10.548828 63.226562 L 11.074219 63.863281 L 11.935547 63.601562 L 11.861328 62.738281 L 10.998047 62.513672 z M 49.349609 62.664062 L 48.898438 63.226562 L 49.048828 63.976562 L 49.126953 64 L 50.087891 64 L 50.435547 63.525391 L 50.173828 62.738281 L 49.349609 62.664062 z M 27.630859 63.957031 L 27.595703 64 L 28.107422 64 L 27.630859 63.957031 z " id="path815" />
</svg>
