<svg id="Svg" width="256" height="256">
    <defs>
        <clipPath id="clipPath">

            <rect x="0" y="0" width="256" height="256"></rect>
        </clipPath>
        <g fill="#000000" style="" transform="matrix(1,0,0,1,-5,-12)" id="gSlkzpaepo413">
            <g>
                <path
                    d="M 4,9 4,13.125 2.40625,10.7188 1.59375,11.2813 3.40625,14 1,14 l 0,1 3,0 1,0 3,0 0,-1 -2.40625,0 1.8125,-2.7187 L 6.59375,10.7188 5,13.125 5,9 4,9 z"></path>
            </g>
        </g>
    </defs>
    <g id="Pattern" style="clip-path: url(#clipPath);">
        <use xlink:href="#gSlkzpaepo413" x="161" y="15"></use>
        <use xlink:href="#gSlkzpaepo413" x="222" y="53"></use>
        <use xlink:href="#gSlkzpaepo413" x="166" y="78"></use>
        <use xlink:href="#gSlkzpaepo413" x="142" y="75"></use>
        <use xlink:href="#gSlkzpaepo413" x="232" y="75"></use>
        <use xlink:href="#gSlkzpaepo413" x="54" y="137"></use>
        <use xlink:href="#gSlkzpaepo413" x="11" y="139"></use>
        <use xlink:href="#gSlkzpaepo413" x="79" y="81"></use>
        <use xlink:href="#gSlkzpaepo413" x="51" y="53"></use>
        <use xlink:href="#gSlkzpaepo413" x="139" y="52"></use>
        <use xlink:href="#gSlkzpaepo413" x="210" y="79"></use>
        <use xlink:href="#gSlkzpaepo413" x="117" y="100"></use>
        <use xlink:href="#gSlkzpaepo413" x="78" y="206"></use>
        <use xlink:href="#gSlkzpaepo413" x="96" y="9"></use>
        <use xlink:href="#gSlkzpaepo413" x="116" y="57"></use>
        <use xlink:href="#gSlkzpaepo413" x="137" y="180"></use>
        <use xlink:href="#gSlkzpaepo413" x="252" y="166"></use>
        <use xlink:href="#gSlkzpaepo413" x="227" y="31"></use>
        <use xlink:href="#gSlkzpaepo413" x="53" y="97"></use>
        <use xlink:href="#gSlkzpaepo413" x="11" y="95"></use>
        <use xlink:href="#gSlkzpaepo413" x="29" y="227"></use>
        <use xlink:href="#gSlkzpaepo413" x="160" y="188"></use>
        <use xlink:href="#gSlkzpaepo413" x="102" y="202"></use>
        <use xlink:href="#gSlkzpaepo413" x="204" y="58"></use>
        <use xlink:href="#gSlkzpaepo413" x="178" y="11"></use>
        <use xlink:href="#gSlkzpaepo413" x="9" y="9"></use>
        <use xlink:href="#gSlkzpaepo413" x="116" y="186"></use>
        <use xlink:href="#gSlkzpaepo413" x="9" y="179"></use>
        <use xlink:href="#gSlkzpaepo413" x="156" y="227"></use>
        <use xlink:href="#gSlkzpaepo413" x="95" y="95"></use>
        <use xlink:href="#gSlkzpaepo413" x="96" y="223"></use>
        <use xlink:href="#gSlkzpaepo413" x="186" y="74"></use>
        <use xlink:href="#gSlkzpaepo413" x="59" y="157"></use>
        <use xlink:href="#gSlkzpaepo413" x="121" y="206"></use>
        <use xlink:href="#gSlkzpaepo413" x="244" y="144"></use>
        <use xlink:href="#gSlkzpaepo413" x="94" y="182"></use>
        <use xlink:href="#gSlkzpaepo413" x="103" y="118"></use>
        <use xlink:href="#gSlkzpaepo413" x="58" y="32"></use>
        <use xlink:href="#gSlkzpaepo413" x="121" y="123"></use>
        <use xlink:href="#gSlkzpaepo413" x="77" y="248"></use>
        <use xlink:href="#gSlkzpaepo413" x="116" y="18"></use>
        <use xlink:href="#gSlkzpaepo413" x="99" y="75"></use>
        <use xlink:href="#gSlkzpaepo413" x="75" y="186"></use>
        <use xlink:href="#gSlkzpaepo413" x="15" y="244"></use>
        <use xlink:href="#gSlkzpaepo413" x="95" y="51"></use>
        <use xlink:href="#gSlkzpaepo413" x="78" y="35"></use>
        <use xlink:href="#gSlkzpaepo413" x="252" y="208"></use>
        <use xlink:href="#gSlkzpaepo413" x="144" y="32"></use>
        <use xlink:href="#gSlkzpaepo413" x="99" y="158"></use>
        <use xlink:href="#gSlkzpaepo413" x="74" y="101"></use>
        <use xlink:href="#gSlkzpaepo413" x="251" y="249"></use>
        <use xlink:href="#gSlkzpaepo413" x="188" y="31"></use>
        <use xlink:href="#gSlkzpaepo413" x="117" y="231"></use>
        <use xlink:href="#gSlkzpaepo413" x="230" y="117"></use>
        <use xlink:href="#gSlkzpaepo413" x="166" y="165"></use>
        <use xlink:href="#gSlkzpaepo413" x="79" y="122"></use>
        <use xlink:href="#gSlkzpaepo413" x="208" y="251"></use>
        <use xlink:href="#gSlkzpaepo413" x="166" y="206"></use>
        <use xlink:href="#gSlkzpaepo413" x="143" y="202"></use>
        <use xlink:href="#gSlkzpaepo413" x="161" y="36"></use>
        <use xlink:href="#gSlkzpaepo413" x="200" y="16"></use>
        <use xlink:href="#gSlkzpaepo413" x="12" y="51"></use>
        <use xlink:href="#gSlkzpaepo413" x="58" y="117"></use>
        <use xlink:href="#gSlkzpaepo413" x="37" y="248"></use>
        <use xlink:href="#gSlkzpaepo413" x="141" y="116"></use>
        <use xlink:href="#gSlkzpaepo413" x="223" y="9"></use>
        <use xlink:href="#gSlkzpaepo413" x="81" y="165"></use>
        <use xlink:href="#gSlkzpaepo413" x="229" y="159"></use>
        <use xlink:href="#gSlkzpaepo413" x="143" y="159"></use>
        <use xlink:href="#gSlkzpaepo413" x="223" y="137"></use>
        <use xlink:href="#gSlkzpaepo413" x="187" y="161"></use>
        <use xlink:href="#gSlkzpaepo413" x="31" y="100"></use>
        <use xlink:href="#gSlkzpaepo413" x="75" y="228"></use>
        <use xlink:href="#gSlkzpaepo413" x="123" y="251"></use>
        <use xlink:href="#gSlkzpaepo413" x="138" y="8"></use>
        <use xlink:href="#gSlkzpaepo413" x="157" y="143"></use>
        <use xlink:href="#gSlkzpaepo413" x="122" y="38"></use>
        <use xlink:href="#gSlkzpaepo413" x="122" y="80"></use>
        <use xlink:href="#gSlkzpaepo413" x="222" y="179"></use>
        <use xlink:href="#gSlkzpaepo413" x="253" y="121"></use>
        <use xlink:href="#gSlkzpaepo413" x="207" y="208"></use>
        <use xlink:href="#gSlkzpaepo413" x="200" y="230"></use>
        <use xlink:href="#gSlkzpaepo413" x="164" y="123"></use>
        <use xlink:href="#gSlkzpaepo413" x="243" y="187"></use>
        <use xlink:href="#gSlkzpaepo413" x="50" y="10"></use>
        <use xlink:href="#gSlkzpaepo413" x="203" y="144"></use>
        <use xlink:href="#gSlkzpaepo413" x="250" y="38"></use>
        <use xlink:href="#gSlkzpaepo413" x="223" y="92"></use>
        <use xlink:href="#gSlkzpaepo413" x="245" y="229"></use>
        <use xlink:href="#gSlkzpaepo413" x="223" y="223"></use>
        <use xlink:href="#gSlkzpaepo413" x="38" y="166"></use>
        <use xlink:href="#gSlkzpaepo413" x="30" y="185"></use>
        <use xlink:href="#gSlkzpaepo413" x="16" y="201"></use>
        <use xlink:href="#gSlkzpaepo413" x="38" y="208"></use>
        <use xlink:href="#gSlkzpaepo413" x="31" y="143"></use>
        <use xlink:href="#gSlkzpaepo413" x="31" y="13"></use>
        <use xlink:href="#gSlkzpaepo413" x="16" y="75"></use>
        <use xlink:href="#gSlkzpaepo413" x="160" y="60"></use>
        <use xlink:href="#gSlkzpaepo413" x="72" y="143"></use>
        <use xlink:href="#gSlkzpaepo413" x="30" y="58"></use>
        <use xlink:href="#gSlkzpaepo413" x="15" y="30"></use>
        <use xlink:href="#gSlkzpaepo413" x="245" y="16"></use>
        <use xlink:href="#gSlkzpaepo413" x="181" y="180"></use>
        <use xlink:href="#gSlkzpaepo413" x="74" y="56"></use>
        <use xlink:href="#gSlkzpaepo413" x="202" y="186"></use>
        <use xlink:href="#gSlkzpaepo413" x="159" y="104"></use>
        <use xlink:href="#gSlkzpaepo413" x="229" y="203"></use>
        <use xlink:href="#gSlkzpaepo413" x="185" y="202"></use>
        <use xlink:href="#gSlkzpaepo413" x="13" y="157"></use>
        <use xlink:href="#gSlkzpaepo413" x="203" y="102"></use>
        <use xlink:href="#gSlkzpaepo413" x="38" y="79"></use>
        <use xlink:href="#gSlkzpaepo413" x="16" y="115"></use>
        <use xlink:href="#gSlkzpaepo413" x="99" y="245"></use>
        <use xlink:href="#gSlkzpaepo413" x="9" y="223"></use>
        <use xlink:href="#gSlkzpaepo413" x="120" y="166"></use>
        <use xlink:href="#gSlkzpaepo413" x="229" y="244"></use>
        <use xlink:href="#gSlkzpaepo413" x="243" y="103"></use>
        <use xlink:href="#gSlkzpaepo413" x="208" y="120"></use>
        <use xlink:href="#gSlkzpaepo413" x="181" y="223"></use>
        <use xlink:href="#gSlkzpaepo413" x="36" y="39"></use>
        <use xlink:href="#gSlkzpaepo413" x="139" y="136"></use>
        <use xlink:href="#gSlkzpaepo413" x="117" y="142"></use>
        <use xlink:href="#gSlkzpaepo413" x="93" y="137"></use>
        <use xlink:href="#gSlkzpaepo413" x="53" y="181"></use>
        <use xlink:href="#gSlkzpaepo413" x="205" y="165"></use>
        <use xlink:href="#gSlkzpaepo413" x="36" y="123"></use>
        <use xlink:href="#gSlkzpaepo413" x="163" y="251"></use>
        <use xlink:href="#gSlkzpaepo413" x="246" y="60"></use>
        <use xlink:href="#gSlkzpaepo413" x="51" y="224"></use>
        <use xlink:href="#gSlkzpaepo413" x="207" y="36"></use>
        <use xlink:href="#gSlkzpaepo413" x="56" y="73"></use>
        <use xlink:href="#gSlkzpaepo413" x="56" y="244"></use>
        <use xlink:href="#gSlkzpaepo413" x="186" y="243"></use>
        <use xlink:href="#gSlkzpaepo413" x="181" y="136"></use>
        <use xlink:href="#gSlkzpaepo413" x="179" y="94"></use>
        <use xlink:href="#gSlkzpaepo413" x="181" y="50"></use>
        <use xlink:href="#gSlkzpaepo413" x="188" y="119"></use>
        <use xlink:href="#gSlkzpaepo413" x="139" y="222"></use>
        <use xlink:href="#gSlkzpaepo413" x="99" y="32"></use>
        <use xlink:href="#gSlkzpaepo413" x="142" y="243"></use>
        <use xlink:href="#gSlkzpaepo413" x="139" y="94"></use>
        <use xlink:href="#gSlkzpaepo413" x="74" y="17"></use>
        <use xlink:href="#gSlkzpaepo413" x="250" y="79"></use>
        <use xlink:href="#gSlkzpaepo413" x="56" y="201"></use>
    </g>
    <desc>Created with Snap</desc>
</svg>
