<svg xmlns="http://www.w3.org/2000/svg" xmlns:xlink="http://www.w3.org/1999/xlink" width="32" height="32" version="1.0">
    <defs>
        <linearGradient id="a">
            <stop offset="0" stop-color="#010000"/>
            <stop offset="1" stop-color="#010000" stop-opacity="0"/>
        </linearGradient>
        <linearGradient xlink:href="#a" id="b" x1="1.418" y1="7.68" x2="13.941" y2="7.68" gradientUnits="userSpaceOnUse"/>
    </defs>
    <path d="M7.67 1.42a.5.5 0 00-.31.115l-5.76 4.8a.5.5 0 00.32.886h5.26v5.718H4.3v1h6.76v-1H8.18V7.221h5.26a.5.5 0 00.32-.885L8 1.536a.5.5 0 00-.33-.116z" color="#000" fill="url(#b)" stroke="#fff" stroke-width="3" stroke-linecap="round" stroke-linejoin="round" stroke-opacity=".5"/>
    <path d="M7.67 1.42a.5.5 0 00-.31.115l-5.76 4.8a.5.5 0 00.32.886h5.26v5.718H4.3v1h6.76v-1H8.18V7.221h5.26a.5.5 0 00.32-.885L8 1.536a.5.5 0 00-.33-.116z" color="#000" fill="#010000"/>
</svg>
