<svg version="1.0" width="580" height="580" xmlns="http://www.w3.org/2000/svg">
  <path style="fill:none;fill-opacity:1;fill-rule:evenodd;stroke:#fff;stroke-width:3.00001;stroke-linecap:round;stroke-linejoin:round;stroke-miterlimit:10;stroke-dasharray:none;stroke-opacity:.5" d="M8 1.5A6.503 6.503 0 0 0 1.5 8c0 3.588 2.912 6.5 6.5 6.5s6.5-2.912 6.5-6.5S11.588 1.5 8 1.5Z" />
  <path style="fill:#fff;fill-opacity:.96904844;fill-rule:evenodd;stroke:none;stroke-width:3;stroke-linecap:round;stroke-linejoin:round;stroke-miterlimit:10;stroke-dasharray:none;stroke-opacity:.5" d="M8 1.5A6.503 6.503 0 0 0 1.5 8c0 3.588 2.912 6.5 6.5 6.5s6.5-2.912 6.5-6.5S11.588 1.5 8 1.5Z" />
  <path style="fill:#000;fill-opacity:1;fill-rule:evenodd;stroke:none;stroke-width:.18338;stroke-miterlimit:10" d="M8 1.5A6.503 6.503 0 0 0 1.5 8c0 3.588 2.912 6.5 6.5 6.5s6.5-2.912 6.5-6.5S11.588 1.5 8 1.5Zm-.488.54 1.356 1.177L8.51 4.72l-1.507.735-1.905-.53L4.815 3.7l.73-1.159Zm3.377.628 1.746 1.503-.492 1.88-1.595.25-1.493-1.567.239-1.424Zm-6.283.279c-.062.256-.124.512-.182.768l-.877.237c.07-.135.16-.26.266-.376.093-.126.19-.248.328-.345.137-.112.275-.2.465-.284Zm.28 2.467 1.758.516.448 2-1.834 1.49-1.596-.047-.403-2.224Zm7.478 1.134.895 1.583-1.236 2.145-1.55-.154-.568-1.363.953-1.927Zm-10.523.54.927.312.491 2.159-.598 1.13c-.142.061-.275-.097-.417-.423A7.137 7.137 0 0 1 1.81 8.67a5.256 5.256 0 0 1 .031-1.582Zm12.256.87c.004.54-.036.996-.12 1.457a6.37 6.37 0 0 1-.403 1.205c-.15.316-.288.54-.448.689l-.717-.875 1.253-2.225Zm-6.651.359 1.999.549.638 1.577-1.104 1.522-2.49-.549-.82-1.722Zm-1.16 3.49 2.64.488.758 1.22-.19.534a9.09 9.09 0 0 1-2.37.06 6.78 6.78 0 0 1-1.153-.298 3.183 3.183 0 0 1-.833-.436l-.031-.628Z" />
</svg>
