<svg version="1.0" width="16" height="16" xmlns="http://www.w3.org/2000/svg">
  <path style="fill:none;fill-opacity:.969048;fill-rule:evenodd;stroke:#fff;stroke-width:3;stroke-linecap:round;stroke-linejoin:round;stroke-miterlimit:10;stroke-dasharray:none;stroke-opacity:.5" d="M8 1.5A6.503 6.503 0 0 0 1.5 8c0 3.588 2.912 6.5 6.5 6.5s6.5-2.912 6.5-6.5S11.588 1.5 8 1.5zm-.488.54 1.355 1.177L8.51 4.72l-1.506.734-1.906-.53L4.814 3.7l.73-1.158 1.968-.502zm3.377.628 1.746 1.504-.492 1.879-1.594.25-1.494-1.567.24-1.423 1.594-.643zm-6.284.28c-.062.255-.123.51-.181.767l-.877.236c.07-.135.16-.259.265-.375a1.45 1.45 0 0 1 .329-.346c.137-.112.274-.199.464-.283zm.282 2.466 1.758.516.447 2-1.834 1.49-1.596-.047-.402-2.225 1.627-1.734zm7.476 1.135.897 1.582-1.237 2.144-1.55-.154-.569-1.361.953-1.928 1.506-.283zm-10.521.539.926.312.492 2.159-.6 1.13c-.142.061-.274-.097-.416-.423a7.137 7.137 0 0 1-.433-1.596 5.256 5.256 0 0 1 .03-1.582zm12.256.869c.004.54-.037.996-.121 1.457a6.37 6.37 0 0 1-.403 1.205c-.15.316-.287.54-.447.69l-.719-.875 1.254-2.225.436-.252zm-6.653.36 2 .548.637 1.578-1.103 1.522-2.49-.549-.82-1.723 1.776-1.377zm-1.16 3.49 2.64.488.759 1.22-.19.534a9.09 9.09 0 0 1-2.371.06 6.78 6.78 0 0 1-1.152-.298 3.183 3.183 0 0 1-.832-.436l-.032-.629 1.178-.94z" />
  <path style="fill:#000;fill-opacity:1;fill-rule:evenodd;stroke:none;stroke-width:3;stroke-linecap:round;stroke-linejoin:round;stroke-miterlimit:10;stroke-dasharray:none;stroke-opacity:.5" d="M8 1.5A6.503 6.503 0 0 0 1.5 8c0 3.588 2.912 6.5 6.5 6.5s6.5-2.912 6.5-6.5S11.588 1.5 8 1.5zm-.488.54 1.355 1.177L8.51 4.72l-1.506.734-1.906-.53L4.814 3.7l.73-1.158 1.968-.502zm3.377.628 1.746 1.504-.492 1.879-1.594.25-1.494-1.567.24-1.423 1.594-.643zm-6.284.28c-.062.255-.123.51-.181.767l-.877.236c.07-.135.16-.259.265-.375a1.45 1.45 0 0 1 .329-.346c.137-.112.274-.199.464-.283zm.282 2.466 1.758.516.447 2-1.834 1.49-1.596-.047-.402-2.225 1.627-1.734zm7.476 1.135.897 1.582-1.237 2.144-1.55-.154-.569-1.361.953-1.928 1.506-.283zm-10.521.539.926.312.492 2.159-.6 1.13c-.142.061-.274-.097-.416-.423a7.137 7.137 0 0 1-.433-1.596 5.256 5.256 0 0 1 .03-1.582zm12.256.869c.004.54-.037.996-.121 1.457a6.37 6.37 0 0 1-.403 1.205c-.15.316-.287.54-.447.69l-.719-.875 1.254-2.225.436-.252zm-6.653.36 2 .548.637 1.578-1.103 1.522-2.49-.549-.82-1.723 1.776-1.377zm-1.16 3.49 2.64.488.759 1.22-.19.534a9.09 9.09 0 0 1-2.371.06 6.78 6.78 0 0 1-1.152-.298 3.183 3.183 0 0 1-.832-.436l-.032-.629 1.178-.94z" />
</svg>
