<?xml version="1.0" encoding="UTF-8" standalone="no"?>
<!-- Created with Inkscape (http://www.inkscape.org/) -->

<svg xmlns:dc="http://purl.org/dc/elements/1.1/" xmlns:cc="http://creativecommons.org/ns#" xmlns:rdf="http://www.w3.org/1999/02/22-rdf-syntax-ns#" xmlns:svg="http://www.w3.org/2000/svg" xmlns="http://www.w3.org/2000/svg" xmlns:sodipodi="http://sodipodi.sourceforge.net/DTD/sodipodi-0.dtd" xmlns:inkscape="http://www.inkscape.org/namespaces/inkscape" width="16" height="16" viewBox="0 0 4.2333334 4.2333334" version="1.1" id="svg8" inkscape:version="0.92.3 (2405546, 2018-03-11)" sodipodi:docname="spring.svg">
  <defs id="defs2" />
  <sodipodi:namedview id="base" pagecolor="#ffffff" bordercolor="#666666" borderopacity="1.0" inkscape:pageopacity="0.0" inkscape:pageshadow="2" inkscape:zoom="20.48" inkscape:cx="7.1749677" inkscape:cy="19.320492" inkscape:document-units="mm" inkscape:current-layer="svg8" showgrid="true" inkscape:window-width="1881" inkscape:window-height="1051" inkscape:window-x="0" inkscape:window-y="0" inkscape:window-maximized="1" inkscape:pagecheckerboard="true" units="px">
    <inkscape:grid type="xygrid" id="grid1407" units="px" spacingx="0.26458333" spacingy="0.26458333" />
  </sodipodi:namedview>
  <metadata id="metadata5">
    <rdf:RDF>
      <cc:Work rdf:about="">
        <dc:format>image/svg+xml</dc:format>
        <dc:type rdf:resource="http://purl.org/dc/dcmitype/StillImage" />
        <dc:title></dc:title>
      </cc:Work>
    </rdf:RDF>
  </metadata>
  <path sodipodi:nodetypes="csccccsccscc" inkscape:connector-curvature="0" id="outline" d="M 2.3433933,0.35756668 C 1.8220663,0.35756668 1.3994343,0.78238668 1.3994343,1.3064067 C 1.3994343,1.4153667 1.4179543,1.5199167 1.4515843,1.6173767 C 0.85299629,2.1091867 0.90938529,3.0150267 1.4812943,3.5018267 C 1.7937363,3.7612867 2.3045763,3.7971567 2.3045763,3.7971567 C 1.5366273,3.2784567 1.2755123,2.5994067 1.8520833,2.1166667 C 1.9952103,2.2045667 2.1634093,2.2551967 2.3433993,2.2551967 C 2.4462703,2.2551967 2.5453023,2.2386967 2.6380003,2.2081967 C 2.7246703,2.1795967 2.8058083,2.1386967 2.8793683,2.0876567 C 3.1258493,1.9164567 3.2873263,1.6304667 3.2873263,1.3065167 C 3.2873263,0.78249668 2.8647243,0.35769668 2.3433993,0.35769668 Z" style="opacity:0.5;fill:none;fill-opacity:1;fill-rule:nonzero;stroke:#fdfdfd;stroke-width:0.79374999;stroke-linecap:round;stroke-linejoin:round;stroke-miterlimit:4;stroke-dasharray:none;stroke-dashoffset:0;stroke-opacity:1" />
  <path style="opacity:1;fill:#0064ff;fill-opacity:1;fill-rule:nonzero;stroke:none;stroke-width:0.26458332;stroke-linecap:round;stroke-linejoin:round;stroke-miterlimit:4;stroke-dasharray:none;stroke-dashoffset:0;stroke-opacity:0.50196078" d="M 2.3433933,0.35756668 C 1.8220663,0.35756668 1.3994343,0.78238668 1.3994343,1.3064067 C 1.3994343,1.4153667 1.4179543,1.5199167 1.4515843,1.6173767 C 0.85299629,2.1091867 0.90938529,3.0150267 1.4812943,3.5018267 C 1.7937363,3.7612867 2.3045763,3.7971567 2.3045763,3.7971567 C 1.5366273,3.2784567 1.2755123,2.5994067 1.8520833,2.1166667 C 1.9952103,2.2045667 2.1634093,2.2551967 2.3433993,2.2551967 C 2.4462703,2.2551967 2.5453023,2.2386967 2.6380003,2.2081967 C 2.7246703,2.1795967 2.8058083,2.1386967 2.8793683,2.0876567 C 3.1258493,1.9164567 3.2873263,1.6304667 3.2873263,1.3065167 C 3.2873263,0.78249668 2.8647243,0.35769668 2.3433993,0.35769668 Z" id="path4747" inkscape:connector-curvature="0" sodipodi:nodetypes="csccccsccscc" />
</svg>
