<svg xmlns="http://www.w3.org/2000/svg" width="16" height="16">
  <path d="M7.5 2.17A3.3 3.3 0 004.23 5.5a3.36 3.36 0 00.18 1.08c-1.71 2.05-.7 2.92-.32 4.19.4 1.28-1 2.06-2.09 3.08 3.24-.59 3.77-2.1 3.68-2.92-.1-.92-.83-1.52.12-2.6.56.18 1.08.49 1.7.49a3.24 3.24 0 001.87-.6 3.33 3.33 0 001.41-2.73A3.3 3.3 0 007.5 2.16z" opacity=".5" fill="#0064ff" stroke="#fdfdfd" stroke-width="3" stroke-linecap="round" stroke-linejoin="round"/>
  <path d="M7.5 2.17A3.3 3.3 0 004.23 5.5a3.36 3.36 0 00.18 1.08c-1.71 2.05-.7 2.92-.32 4.19.4 1.28-1 2.06-2.09 3.08 3.24-.59 3.77-2.1 3.68-2.92-.1-.92-.83-1.52.12-2.6.56.18 1.08.49 1.7.49a3.24 3.24 0 001.87-.6 3.33 3.33 0 001.41-2.73A3.3 3.3 0 007.5 2.16z" fill="#0064ff"/>
</svg>
