<?xml version="1.0" encoding="UTF-8" standalone="no"?>
<!-- Created with Inkscape (http://www.inkscape.org/) -->

<svg xmlns:dc="http://purl.org/dc/elements/1.1/" xmlns:cc="http://creativecommons.org/ns#" xmlns:rdf="http://www.w3.org/1999/02/22-rdf-syntax-ns#" xmlns:svg="http://www.w3.org/2000/svg" xmlns="http://www.w3.org/2000/svg" xmlns:sodipodi="http://sodipodi.sourceforge.net/DTD/sodipodi-0.dtd" xmlns:inkscape="http://www.inkscape.org/namespaces/inkscape" width="210mm" height="297mm" viewBox="0 0 210 297" version="1.1" id="svg8" inkscape:version="0.92.3 (2405546, 2018-03-11)" sodipodi:docname="spring.svg">
  <defs id="defs2" />
  <sodipodi:namedview id="base" pagecolor="#ffffff" bordercolor="#666666" borderopacity="1.0" inkscape:pageopacity="0.0" inkscape:pageshadow="2" inkscape:zoom="11.2" inkscape:cx="168.65187" inkscape:cy="592.60004" inkscape:document-units="mm" inkscape:current-layer="layer1" showgrid="false" inkscape:window-width="1881" inkscape:window-height="1058" inkscape:window-x="0" inkscape:window-y="0" inkscape:window-maximized="1" />
  <metadata id="metadata5">
    <rdf:RDF>
      <cc:Work rdf:about="">
        <dc:format>image/svg+xml</dc:format>
        <dc:type rdf:resource="http://purl.org/dc/dcmitype/StillImage" />
        <dc:title></dc:title>
      </cc:Work>
    </rdf:RDF>
  </metadata>
  <g inkscape:label="Layer 1" inkscape:groupmode="layer" id="layer1">
    <path style="opacity:1;fill:#0064ff;fill-opacity:1;fill-rule:nonzero;stroke:#ffffff;stroke-width:0.26458332;stroke-linecap:round;stroke-linejoin:round;stroke-miterlimit:4;stroke-dasharray:none;stroke-dashoffset:0;stroke-opacity:0.50196078" d="m 48.080885,139.87546 c -0.521327,0 -0.943959,0.42482 -0.943959,0.94884 c 0,0.10896 0.01852,0.21351 0.05215,0.31097 c -0.598588,0.49181 -0.878834,1.27363 -0.306928,1.76043 c 0.312442,0.25946 1.159917,0.41935 1.159917,0.41935 c -1.045525,-0.89077 -1.029064,-1.19775 -0.452493,-1.68049 c 0.143127,0.0879 0.311326,0.13853 0.491316,0.13853 c 0.102871,0 0.201903,-0.0165 0.294601,-0.047 c 0.08667,-0.0286 0.167808,-0.0695 0.241368,-0.12054 c 0.246481,-0.1712 0.407958,-0.45719 0.407958,-0.78114 c 0,-0.52402 -0.422602,-0.94882 -0.943927,-0.94882 z" id="path4747" inkscape:connector-curvature="0" />
  </g>
</svg>
