<?xml version="1.0" encoding="UTF-8" standalone="no"?>
<!-- Created with Inkscape (http://www.inkscape.org/) -->

<svg xmlns:dc="http://purl.org/dc/elements/1.1/" xmlns:cc="http://creativecommons.org/ns#" xmlns:rdf="http://www.w3.org/1999/02/22-rdf-syntax-ns#" xmlns:svg="http://www.w3.org/2000/svg" xmlns="http://www.w3.org/2000/svg" xmlns:sodipodi="http://sodipodi.sourceforge.net/DTD/sodipodi-0.dtd" xmlns:inkscape="http://www.inkscape.org/namespaces/inkscape" width="50" height="50" viewBox="0 0 13.229167 13.229167" version="1.1" id="svg8" inkscape:version="0.92.3 (2405546, 2018-03-11)" sodipodi:docname="spring.svg">
  <defs id="defs2" />
  <sodipodi:namedview id="base" pagecolor="#ffffff" bordercolor="#666666" borderopacity="1.0" inkscape:pageopacity="0.0" inkscape:pageshadow="2" inkscape:zoom="31.678384" inkscape:cx="21.303475" inkscape:cy="26.602935" inkscape:document-units="mm" inkscape:current-layer="layer1" showgrid="true" inkscape:window-width="1881" inkscape:window-height="1051" inkscape:window-x="0" inkscape:window-y="0" inkscape:window-maximized="1" inkscape:pagecheckerboard="true" units="px">
    <inkscape:grid type="xygrid" id="grid1407" units="px" spacingx="0.26458333" spacingy="0.26458333" />
  </sodipodi:namedview>
  <metadata id="metadata5">
    <rdf:RDF>
      <cc:Work rdf:about="">
        <dc:format>image/svg+xml</dc:format>
        <dc:type rdf:resource="http://purl.org/dc/dcmitype/StillImage" />
        <dc:title />
      </cc:Work>
    </rdf:RDF>
  </metadata>
  <g inkscape:label="Layer 1" inkscape:groupmode="layer" id="layer1" transform="translate(0,-283.77083)">
    <path sodipodi:nodetypes="csccccsccscc" inkscape:connector-curvature="0" id="path2051" d="m 7.9374939,288.00403 c -0.521327,0 -0.943959,0.42482 -0.943959,0.94884 c 0,0.10896 0.01852,0.21351 0.05215,0.31097 c -0.598588,0.49181 -0.542199,1.39765 0.02971,1.88445 c 0.312442,0.25946 0.823282,0.29533 0.823282,0.29533 c -0.767949,-0.5187 -1.029064,-1.19775 -0.452493,-1.68049 c 0.143127,0.0879 0.311326,0.13853 0.491316,0.13853 c 0.102871,0 0.201903,-0.0165 0.294601,-0.047 c 0.08667,-0.0286 0.167808,-0.0695 0.241368,-0.12054 c 0.246481,-0.1712 0.407958,-0.45719 0.407958,-0.78114 c 0,-0.52402 -0.422602,-0.94882 -0.943927,-0.94882 z" style="opacity:0.5;fill:none;fill-opacity:1;fill-rule:nonzero;stroke:#fdfdfd;stroke-width:0.79375;stroke-linecap:round;stroke-linejoin:round;stroke-miterlimit:4;stroke-dasharray:none;stroke-dashoffset:0;stroke-opacity:1" />
    <path style="opacity:1;fill:#0064ff;fill-opacity:1;fill-rule:nonzero;stroke:none;stroke-width:0.26458332;stroke-linecap:round;stroke-linejoin:round;stroke-miterlimit:4;stroke-dasharray:none;stroke-dashoffset:0;stroke-opacity:0.50196078" d="m 7.9374939,288.00403 c -0.521327,0 -0.943959,0.42482 -0.943959,0.94884 c 0,0.10896 0.01852,0.21351 0.05215,0.31097 c -0.598588,0.49181 -0.542199,1.39765 0.02971,1.88445 c 0.312442,0.25946 0.823282,0.29533 0.823282,0.29533 c -0.767949,-0.5187 -1.029064,-1.19775 -0.452493,-1.68049 c 0.143127,0.0879 0.311326,0.13853 0.491316,0.13853 c 0.102871,0 0.201903,-0.0165 0.294601,-0.047 c 0.08667,-0.0286 0.167808,-0.0695 0.241368,-0.12054 c 0.246481,-0.1712 0.407958,-0.45719 0.407958,-0.78114 c 0,-0.52402 -0.422602,-0.94882 -0.943927,-0.94882 z" id="path4747" inkscape:connector-curvature="0" sodipodi:nodetypes="csccccsccscc" />
  </g>
</svg>
