<?xml version="1.0" encoding="UTF-8" standalone="no"?>
<!-- Created with Inkscape (http://www.inkscape.org/) -->

<svg xmlns:dc="http://purl.org/dc/elements/1.1/" xmlns:cc="http://creativecommons.org/ns#" xmlns:rdf="http://www.w3.org/1999/02/22-rdf-syntax-ns#" xmlns:svg="http://www.w3.org/2000/svg" xmlns="http://www.w3.org/2000/svg" xmlns:sodipodi="http://sodipodi.sourceforge.net/DTD/sodipodi-0.dtd" xmlns:inkscape="http://www.inkscape.org/namespaces/inkscape" width="50" height="50" viewBox="0 0 13.229167 13.229167" version="1.1" id="svg8" inkscape:version="0.92.3 (2405546, 2018-03-11)" sodipodi:docname="spring.svg">
  <defs id="defs2" />
  <sodipodi:namedview id="base" pagecolor="#ffffff" bordercolor="#666666" borderopacity="1.0" inkscape:pageopacity="0.0" inkscape:pageshadow="2" inkscape:zoom="14.481547" inkscape:cx="19.989427" inkscape:cy="23.261697" inkscape:document-units="mm" inkscape:current-layer="svg8" showgrid="true" inkscape:window-width="1881" inkscape:window-height="1051" inkscape:window-x="0" inkscape:window-y="0" inkscape:window-maximized="1" inkscape:pagecheckerboard="true" units="px">
    <inkscape:grid type="xygrid" id="grid1407" units="px" spacingx="0.26458333" spacingy="0.26458333" />
  </sodipodi:namedview>
  <metadata id="metadata5">
    <rdf:RDF>
      <cc:Work rdf:about="">
        <dc:format>image/svg+xml</dc:format>
        <dc:type rdf:resource="http://purl.org/dc/dcmitype/StillImage" />
        <dc:title />
      </cc:Work>
    </rdf:RDF>
  </metadata>
  <path sodipodi:nodetypes="csccccsccscc" inkscape:connector-curvature="0" id="outline" d="M 6.6086998,5.2910143 C 6.0873728,5.2910143 5.6647408,5.7158343 5.6647408,6.2398543 C 5.6647408,6.3488143 5.6832608,6.4533643 5.7168908,6.5508243 C 5.1183028,7.0426343 5.1746918,7.9484743 5.7466008,8.4352743 C 6.0590428,8.6947343 6.5698828,8.7306043 6.5698828,8.7306043 C 5.8019338,8.2119043 5.5408188,7.5328543 6.1173898,7.0501143 C 6.2605168,7.1380143 6.4287158,7.1886443 6.6087058,7.1886443 C 6.7115768,7.1886443 6.8106088,7.1721443 6.9033068,7.1416443 C 6.9899768,7.1130443 7.0711148,7.0721443 7.1446748,7.0211043 C 7.3911558,6.8499043 7.5526328,6.5639143 7.5526328,6.2399643 C 7.5526328,5.7159443 7.1300308,5.2911443 6.6087058,5.2911443 Z" style="opacity:0.5;fill:none;fill-opacity:1;fill-rule:nonzero;stroke:#fdfdfd;stroke-width:0.79374999;stroke-linecap:round;stroke-linejoin:round;stroke-miterlimit:4;stroke-dasharray:none;stroke-dashoffset:0;stroke-opacity:1" />
  <path style="opacity:1;fill:#0064ff;fill-opacity:1;fill-rule:nonzero;stroke:none;stroke-width:0.26458332;stroke-linecap:round;stroke-linejoin:round;stroke-miterlimit:4;stroke-dasharray:none;stroke-dashoffset:0;stroke-opacity:0.50196078" d="M 6.6086998,5.2910143 C 6.0873728,5.2910143 5.6647408,5.7158343 5.6647408,6.2398543 C 5.6647408,6.3488143 5.6832608,6.4533643 5.7168908,6.5508243 C 5.1183028,7.0426343 5.1746918,7.9484743 5.7466008,8.4352743 C 6.0590428,8.6947343 6.5698828,8.7306043 6.5698828,8.7306043 C 5.8019338,8.2119043 5.5408188,7.5328543 6.1173898,7.0501143 C 6.2605168,7.1380143 6.4287158,7.1886443 6.6087058,7.1886443 C 6.7115768,7.1886443 6.8106088,7.1721443 6.9033068,7.1416443 C 6.9899768,7.1130443 7.0711148,7.0721443 7.1446748,7.0211043 C 7.3911558,6.8499043 7.5526328,6.5639143 7.5526328,6.2399643 C 7.5526328,5.7159443 7.1300308,5.2911443 6.6087058,5.2911443 Z" id="path4747" inkscape:connector-curvature="0" sodipodi:nodetypes="csccccsccscc" />
</svg>
