<?xml version="1.0" encoding="UTF-8" standalone="no"?>
<!-- Created with Inkscape (http://www.inkscape.org/) -->

<svg xmlns:dc="http://purl.org/dc/elements/1.1/" xmlns:cc="http://creativecommons.org/ns#" xmlns:rdf="http://www.w3.org/1999/02/22-rdf-syntax-ns#" xmlns:svg="http://www.w3.org/2000/svg" xmlns="http://www.w3.org/2000/svg" xmlns:xlink="http://www.w3.org/1999/xlink" xmlns:sodipodi="http://sodipodi.sourceforge.net/DTD/sodipodi-0.dtd" xmlns:inkscape="http://www.inkscape.org/namespaces/inkscape" width="50" height="50" viewBox="0 0 13.229167 13.229167" version="1.1" id="svg8" inkscape:version="0.92.3 (2405546, 2018-03-11)" sodipodi:docname="spring.svg">
  <defs id="defs2" />
  <sodipodi:namedview id="base" pagecolor="#ffffff" bordercolor="#666666" borderopacity="1.0" inkscape:pageopacity="0.0" inkscape:pageshadow="2" inkscape:zoom="7.919596" inkscape:cx="11.211748" inkscape:cy="23.146382" inkscape:document-units="mm" inkscape:current-layer="layer1" showgrid="true" inkscape:window-width="1881" inkscape:window-height="1058" inkscape:window-x="0" inkscape:window-y="0" inkscape:window-maximized="1" inkscape:pagecheckerboard="true" units="px">
    <inkscape:grid type="xygrid" id="grid1407" units="px" spacingx="0.26458333" spacingy="0.26458333" />
  </sodipodi:namedview>
  <metadata id="metadata5">
    <rdf:RDF>
      <cc:Work rdf:about="">
        <dc:format>image/svg+xml</dc:format>
        <dc:type rdf:resource="http://purl.org/dc/dcmitype/StillImage" />
        <dc:title></dc:title>
      </cc:Work>
    </rdf:RDF>
  </metadata>
  <g inkscape:label="Layer 1" inkscape:groupmode="layer" id="layer1" transform="translate(0,-283.77083)">
    <path sodipodi:type="inkscape:offset" inkscape:radius="0.26072961" inkscape:original="M 7.9375 288.00391 C 7.416173 288.00391 6.9941406 288.4291 6.9941406 288.95312 C 6.9941406 289.06209 7.0112919 289.16621 7.0449219 289.26367 C 6.4463339 289.75548 6.5042629 290.66164 7.0761719 291.14844 C 7.3886139 291.4079 7.8984375 291.44336 7.8984375 291.44336 C 7.1304885 290.92466 6.8687415 290.24641 7.4453125 289.76367 C 7.5884395 289.85157 7.75751 289.90234 7.9375 289.90234 C 8.040371 289.90234 8.1397239 289.88597 8.2324219 289.85547 C 8.3190919 289.82687 8.3990963 289.78541 8.4726562 289.73438 C 8.7191372 289.56318 8.8808594 289.27708 8.8808594 288.95312 C 8.8808594 288.4291 8.458825 288.00391 7.9375 288.00391 z " xlink:href="#path4747" style="opacity:0.5;fill:#ffffff;fill-opacity:1;fill-rule:nonzero;stroke:none;stroke-width:0.26458332;stroke-linecap:round;stroke-linejoin:round;stroke-miterlimit:4;stroke-dasharray:none;stroke-dashoffset:0;stroke-opacity:0.50196078" id="path1409" inkscape:href="#path4747" d="m 8.015625,287.7832 c -0.6624428,0 -1.203125,0.54302 -1.203125,1.20703 c 0,0.0849 0.024211,0.16599 0.041016,0.24805 c -0.5832046,0.61501 -0.5133006,1.59985 0.1289063,2.14649 a 0.26075568,0.26075568 0 0 0 0.00391,0.002 c 0.4106202,0.34099 0.9707031,0.35547 0.9707031,0.35547 a 0.26075568,0.26075568 0 0 0 0.1660157,-0.47657 c -0.3515541,-0.23745 -0.5636413,-0.50371 -0.6269531,-0.71289 c -0.052797,-0.17443 -0.010634,-0.31254 0.1269531,-0.46289 c 0.1281082,0.0463 0.2496519,0.10938 0.3925781,0.10938 c 0.1305312,0 0.2580264,-0.0195 0.3769531,-0.0586 c 0.1125348,-0.0371 0.2146663,-0.0905 0.3066407,-0.15429 c 0.3143747,-0.21836 0.5195312,-0.58537 0.5195312,-0.9961 c 0,-0.66401 -0.5406837,-1.20703 -1.203125,-1.20703 z" transform="translate(-7.9999985e-8,-3.7233333e-6)" />
    <path style="opacity:1;fill:#0064ff;fill-opacity:1;fill-rule:nonzero;stroke:none;stroke-width:0.26458332;stroke-linecap:round;stroke-linejoin:round;stroke-miterlimit:4;stroke-dasharray:none;stroke-dashoffset:0;stroke-opacity:0.50196078" d="m 7.9374939,288.00403 c -0.521327,0 -0.943959,0.42482 -0.943959,0.94884 c 0,0.10896 0.01852,0.21351 0.05215,0.31097 c -0.598588,0.49181 -0.542199,1.39765 0.02971,1.88445 c 0.312442,0.25946 0.823282,0.29533 0.823282,0.29533 c -0.767949,-0.5187 -1.029064,-1.19775 -0.452493,-1.68049 c 0.143127,0.0879 0.311326,0.13853 0.491316,0.13853 c 0.102871,0 0.201903,-0.0165 0.294601,-0.047 c 0.08667,-0.0286 0.167808,-0.0695 0.241368,-0.12054 c 0.246481,-0.1712 0.407958,-0.45719 0.407958,-0.78114 c 0,-0.52402 -0.422602,-0.94882 -0.943927,-0.94882 z" id="path4747" inkscape:connector-curvature="0" sodipodi:nodetypes="csccccsccscc" />
  </g>
</svg>
