<?xml version="1.0" encoding="UTF-8" standalone="no"?>
<!-- Created with Inkscape (http://www.inkscape.org/) -->

<svg xmlns:dc="http://purl.org/dc/elements/1.1/" xmlns:cc="http://creativecommons.org/ns#" xmlns:rdf="http://www.w3.org/1999/02/22-rdf-syntax-ns#" xmlns:svg="http://www.w3.org/2000/svg" xmlns="http://www.w3.org/2000/svg" xmlns:sodipodi="http://sodipodi.sourceforge.net/DTD/sodipodi-0.dtd" xmlns:inkscape="http://www.inkscape.org/namespaces/inkscape" version="1.0" width="14" height="14" id="svg2" sodipodi:version="0.32" inkscape:version="0.92.4 (5da689c313, 2019-01-14)" sodipodi:docname="train_station.svg" inkscape:output_extension="org.inkscape.output.svg.inkscape">
  <defs id="defs22">
    <inkscape:perspective sodipodi:type="inkscape:persp3d" inkscape:vp_x="0 : 290 : 1" inkscape:vp_y="0 : 1000 : 0" inkscape:vp_z="580 : 290 : 1" inkscape:persp3d-origin="290 : 193.33333 : 1" id="perspective24" />
    <marker viewBox="0 0 10 10" refY="5" refX="10" orient="auto" markerWidth="4" markerUnits="strokeWidth" markerHeight="3" id="ArrowStart">
      <path id="path3568" d="M 10,0 L 0,5 L 10,10 Z" inkscape:connector-curvature="0" />
    </marker>
    <marker viewBox="0 0 10 10" refY="5" refX="0" orient="auto" markerWidth="4" markerUnits="strokeWidth" markerHeight="3" id="ArrowEnd">
      <path id="path3565" d="M 0,0 L 10,5 L 0,10 Z" inkscape:connector-curvature="0" />
    </marker>
    <inkscape:perspective id="perspective2683" inkscape:persp3d-origin="306.082 : 204.39034 : 1" inkscape:vp_z="612.164 : 306.58551 : 1" inkscape:vp_y="0 : 1000 : 0" inkscape:vp_x="0 : 306.58551 : 1" sodipodi:type="inkscape:persp3d" />
  </defs>
  <metadata id="metadata10">
    <rdf:RDF>
      <cc:Work rdf:about="">
        <dc:format>image/svg+xml</dc:format>
        <dc:type rdf:resource="http://purl.org/dc/dcmitype/StillImage" />
        <cc:license rdf:resource="http://web.resource.org/cc/PublicDomain" />
        <dc:language>en</dc:language>
        <dc:title></dc:title>
      </cc:Work>
    </rdf:RDF>
  </metadata>
  <sodipodi:namedview inkscape:window-height="1051" inkscape:window-width="1881" inkscape:pageshadow="2" inkscape:pageopacity="0.0" guidetolerance="10.0" gridtolerance="10.0" objecttolerance="10.0" borderopacity="1.0" bordercolor="#666666" pagecolor="#ffffff" id="base" showgrid="true" inkscape:zoom="32" inkscape:cx="13.63396" inkscape:cy="12.063069" inkscape:window-x="0" inkscape:window-y="0" inkscape:current-layer="svg2" inkscape:pagecheckerboard="true" inkscape:window-maximized="1">
    <inkscape:grid type="xygrid" id="grid7036" units="px" spacingx="1" spacingy="1" />
  </sodipodi:namedview>
  <g style="fill:#000000;fill-opacity:1;stroke-width:97.42534053;stroke:#ffffff;stroke-opacity:1;stroke-miterlimit:4;stroke-dasharray:none;opacity:0.5;stroke-linejoin:round;stroke-linecap:round" transform="matrix(0.03079281,0,0,0.03079281,-2.4152548,-3.2296483)" id="g7638">
    <g style="fill:#000000;fill-opacity:1;stroke-width:97.42534053;stroke:#ffffff;stroke-opacity:1;stroke-miterlimit:4;stroke-dasharray:none;stroke-linejoin:round;stroke-linecap:round" id="g7634">
      <path inkscape:connector-curvature="0" id="path7632" transform="matrix(0.8977168,0,0,0.8977168,40.710583,46.777129)" d="M 295.5625,77.1875 L 213.03125,77.25 C 174.59259,77.249989 146.3125,108.11801 146.3125,141.75 V 379.96875 C 146.31253,412.55139 171.80358,439.27577 197.4375,443.40625 L 120.5625,558.71875 H 164.9375 L 219.90625,478.125 H 295.1875 H 295.25 H 295.3125 H 370.59375 L 425.5625,558.71875 H 469.9375 L 393.0625,443.40625 C 418.69638,439.27575 444.21875,412.55141 444.21875,379.96875 V 141.75 C 444.21871,108.11804 415.90738,77.25 377.46875,77.25 Z" style="fill:#fbfbfb;fill-opacity:1;stroke:#ffffff;stroke-width:108.52569599;stroke-opacity:1;stroke-miterlimit:4;stroke-dasharray:none;stroke-linejoin:round;stroke-linecap:round" sodipodi:nodetypes="ccsscccccccccccsccc" />
    </g>
    <g style="fill:#000000;fill-opacity:1;stroke-width:97.42534053;stroke:#ffffff;stroke-opacity:1;stroke-miterlimit:4;stroke-dasharray:none;stroke-linejoin:round;stroke-linecap:round" id="g7636" />
  </g>
  <g id="g2319" transform="translate(879.29125,-529.19488)">
    <path id="path2323" style="fill:#ffffff;stroke:none" d="" inkscape:connector-curvature="0" />
  </g>
  <g id="g2325" transform="translate(879.29125,-529.19488)">
    <path id="path2329" style="fill:#ffffff;stroke:none" d="" inkscape:connector-curvature="0" />
  </g>
  <g id="g3574" transform="matrix(0.03079281,0,0,0.03079281,-2.4152548,-3.2296483)" style="fill:#000000;fill-opacity:1;stroke-width:40">
    <g id="g3576" style="fill:#000000;fill-opacity:1;stroke-width:40">
      <path style="fill:#000000;fill-opacity:1;stroke:none;stroke-width:40" d="M 295.5625,77.1875 L 213.03125,77.25 C 174.59259,77.249989 146.3125,108.11801 146.3125,141.75 V 379.96875 C 146.31253,412.55139 171.80358,439.27577 197.4375,443.40625 L 120.5625,558.71875 H 164.9375 L 219.90625,478.125 H 295.1875 H 295.25 H 295.3125 H 370.59375 L 425.5625,558.71875 H 469.9375 L 393.0625,443.40625 C 418.69638,439.27575 444.21875,412.55141 444.21875,379.96875 V 141.75 C 444.21871,108.11804 415.90738,77.25 377.46875,77.25 Z M 262.875,91 H 295.1875 H 295.25 H 295.3125 H 327.625 C 333.47317,91 338.5625,95.90183 338.5625,101.75 V 120.6875 C 338.5625,126.53567 333.75166,131.5625 327.625,131.5625 H 295.3125 H 295.25 H 295.1875 H 262.875 C 256.74835,131.5625 251.9375,126.53567 251.9375,120.6875 V 101.75 C 251.9375,95.90183 257.02682,91.000003 262.875,91 Z M 215.25,144.40625 H 295.1875 H 295.3125 H 375.25 C 396.97176,144.40626 408.50001,159.95825 408.5,177.78125 V 220.65625 C 408.66931,241.26409 393.62996,253.90625 375.25,253.90625 H 295.3125 H 295.25 H 295.1875 H 215.25 C 196.87003,253.90625 181.83068,241.26409 182,220.65625 V 177.78125 C 181.99999,159.95825 193.52822,144.40625 215.25,144.40625 Z M 211.625,350.15625 C 227.78266,350.15622 240.90625,363.24859 240.90625,379.40625 C 240.90625,395.56275 227.78266,408.65625 211.625,408.65625 C 195.46731,408.65623 182.375,395.56279 182.375,379.40625 C 182.37496,363.24855 195.46734,350.15625 211.625,350.15625 Z M 378.1875,350.15625 C 394.34514,350.15623 407.4375,363.24858 407.4375,379.40625 C 407.43748,395.56277 394.34517,408.65626 378.1875,408.65625 C 362.02982,408.65623 348.93749,395.56278 348.9375,379.40625 C 348.93748,363.24857 362.02985,350.15625 378.1875,350.15625 Z" transform="matrix(0.8977168,0,0,0.8977168,40.710583,46.777129)" id="path3578" inkscape:connector-curvature="0" />
    </g>
    <g id="g3584" style="fill:#000000;fill-opacity:1;stroke-width:40" />
  </g>
</svg>
