<svg width="100px" height="100px" xmlns="http://www.w3.org/2000/svg">
    <path d="m19.546 59.674c-6.3666-0.5721-11.604-5.9064-12.869-12.044-1.7741-5.0974-4.9636-9.5527-7.0254-14.499-1.3692-5.2669-0.1479-10.725-0.23958-16.076 0.28011-4.5779 0.41583-9.2335 1.3919-13.712 1.7581-3.5038 5.4751-5.2913 8.5406-7.4516 4.3978-2.3329 9.4692-1.0779 14.15-0.70488 5.1457 0.55123 9.9702 2.4736 14.945 3.7521 3.4644 0.97248 6.7082 3.2484 7.9194 6.7642 2.2207 4.909 3.9088 10.939 1.3641 16.045-2.4118 4.2784-6.5876 7.6674-7.3426 12.777-0.97839 5.8198-3.4545 11.242-5.5983 16.703-0.7309 2.4195-2.1796 4.5259-4.409 5.7882-2.7443 1.6158-5.8605 3.2108-9.1424 2.6856-0.56034-0.03233-1.1223-0.05504-1.6834-0.02679z"  fill="none" stroke="#fff" stroke-width="13" stroke-linecap="round" stroke-linejoin="round" opacity=".5"/>
    <path d="m19.546 59.674c-6.3666-0.5721-11.604-5.9064-12.869-12.044-1.7741-5.0974-4.9636-9.5527-7.0254-14.499-1.3692-5.2669-0.1479-10.725-0.23958-16.076 0.28011-4.5779 0.41583-9.2335 1.3919-13.712 1.7581-3.5038 5.4751-5.2913 8.5406-7.4516 4.3978-2.3329 9.4692-1.0779 14.15-0.70488 5.1457 0.55123 9.9702 2.4736 14.945 3.7521 3.4644 0.97248 6.7082 3.2484 7.9194 6.7642 2.2207 4.909 3.9088 10.939 1.3641 16.045-2.4118 4.2784-6.5876 7.6674-7.3426 12.777-0.97839 5.8198-3.4545 11.242-5.5983 16.703-0.7309 2.4195-2.1796 4.5259-4.409 5.7882-2.7443 1.6158-5.8605 3.2108-9.1424 2.6856-0.56034-0.03233-1.1223-0.05504-1.6834-0.02679z" stroke-width=".005"/>
</svg>
