<svg xmlns="http://www.w3.org/2000/svg" width="16" height="16">
  <path d="M5.2182688 1.9684187c1.0832482-.189021 2.1908916.4663088 2.6743021 1.4330045.5216865.770541 1.2499498 1.3708118 1.8127077 2.1033116.4619624.8168851.5020354 1.7813635.7554854 2.6693359.157262.7756966.341974 1.5578969.379181 2.3481073-.136117.662654-.6741 1.126686-1.0872482 1.623768-.6268149.585368-1.5252744.602686-2.3195725.749591-.8794726.137963-1.7666215.032992-2.6500763.042076-.6188869-.007367-1.2591495-.241887-1.6169023-.773903-.5874989-.719184-1.1364152-1.649039-.940937-2.6139319.2102408-.8209894.7531572-1.5725042.6511251-2.4580535-.0965339-1.0139269.0734718-2.0284722.186538-3.0346423.0137232-.4360048.1606443-.8518774.4748526-1.161904.3840197-.3919575.830754-.7970622 1.3994064-.856108.0945367-.0196398.1889148-.0409568.2808813-.0707311z" stroke-width="3" fill="none" stroke="#fff" stroke-linejoin="round" stroke-opacity=".5"/>
  <path d="M5.2182688 2.0013692c1.0832482-.1890212 2.1908916.4663086 2.6743021 1.4330042.5216865.7705414 1.2499498 1.3708117 1.8127077 2.1033116.4619624.8168851.5020354 1.7813637.7554854 2.6693366.157262.775696.341974 1.5578964.379181 2.3481104-.136117.66265-.6741 1.126685-1.0872482 1.623766-.6268149.585369-1.5252744.602681-2.3195725.74959-.8794726.13796-1.7666215.032991-2.6500763.042078-.6188869-.007368-1.2591495-.24189-1.6169023-.773907-.5874989-.719183-1.1364152-1.649039-.940937-2.6139303.2102408-.8209896.7531572-1.5725042.6511251-2.458054-.0965339-1.0139268.0734718-2.0284721.186538-3.0346422.0137232-.4360051.1606443-.8518769.4748526-1.1619037.3840197-.3919576.830754-.7970625 1.3994064-.8561078.0945367-.0196401.1889148-.0409574.2808813-.0707317z"/>
</svg>
