<?xml version="1.0" encoding="UTF-8" standalone="no"?>
<svg xmlns:dc="http://purl.org/dc/elements/1.1/" xmlns:cc="http://creativecommons.org/ns#" xmlns:rdf="http://www.w3.org/1999/02/22-rdf-syntax-ns#" xmlns:svg="http://www.w3.org/2000/svg" xmlns="http://www.w3.org/2000/svg" xmlns:sodipodi="http://sodipodi.sourceforge.net/DTD/sodipodi-0.dtd" xmlns:inkscape="http://www.inkscape.org/namespaces/inkscape" id="Svg" width="64" height="64" version="1.1" sodipodi:docname="stump.svg" inkscape:version="0.92.4 (5da689c313, 2019-01-14)">
  <metadata id="metadata3147">
    <rdf:RDF>
      <cc:Work rdf:about="">
        <dc:format>image/svg+xml</dc:format>
        <dc:type rdf:resource="http://purl.org/dc/dcmitype/StillImage" />
        <dc:title></dc:title>
      </cc:Work>
    </rdf:RDF>
  </metadata>
  <sodipodi:namedview pagecolor="#ffffff" bordercolor="#666666" borderopacity="1" objecttolerance="10" gridtolerance="10" guidetolerance="10" inkscape:pageopacity="0" inkscape:pageshadow="2" inkscape:window-width="1881" inkscape:window-height="1056" id="namedview3145" showgrid="false" inkscape:zoom="7.375" inkscape:cx="17.720383" inkscape:cy="33.946218" inkscape:window-x="0" inkscape:window-y="0" inkscape:window-maximized="1" inkscape:current-layer="Svg" />
  <defs id="defs2779" />
  <g id="g2833" transform="translate(11.8589,27.7178)">
    <g id="g2831" transform="matrix(1.8,0,0,1.8,-174.6,-241.2)" style="fill:#b0be93">
      <g id="gSk5sig4l6llv">
        <path inkscape:connector-curvature="0" style="fill:#963434;fill-opacity:0.5;fill-rule:evenodd;stroke:#000000;stroke-width:0.25566971;stroke-linecap:round;stroke-linejoin:round;stroke-miterlimit:4;stroke-dasharray:none;stroke-opacity:1" d="M 95.720495,132.83553 C 95.720494,132.839 95.720471,132.84224 95.720469,132.8457 C 95.720818,132.84231 95.721232,132.83891 95.721711,132.83553 Z M 98.931009,132.83613 C 98.931337,132.83927 98.93161,132.84241 98.931828,132.84554 C 98.931855,132.84237 98.931824,132.83931 98.931854,132.83613 Z M 98.931828,132.84797 C 98.930418,133.20984 98.211958,133.50289 97.326135,133.50292 C 96.440891,133.50289 95.722671,133.21021 95.720442,132.84858 C 95.680233,134.70851 95.527759,135.57984 94.82963,136.18884 C 95.975391,136.6165 96.264772,135.59289 96.490998,135.59321 C 96.956452,135.59386 96.772203,136.53528 97.435108,136.5221 C 98.098014,136.50892 97.908311,135.5912 98.319051,135.59369 C 98.574186,135.59523 98.952829,136.67608 100.1006,136.23875 C 99.308868,135.53629 98.995072,134.58633 98.931828,132.84797 Z" id="pathSk5sig4l6llw" />
        <ellipse style="opacity:1;fill:#d4ac82;fill-opacity:0.5;fill-rule:nonzero;stroke:#000000;stroke-width:0.25566971;stroke-linecap:round;stroke-linejoin:round;stroke-miterlimit:4;stroke-dasharray:none;stroke-dashoffset:0;stroke-opacity:1;paint-order:normal" id="ellipseSk5sig4l6llx" ry="0.65599406" rx="1.6058189" cy="132.84694" cx="97.326134" />
        <path inkscape:connector-curvature="0" d="" cx="94.747047" cy="104.83321" rx="31.404167" ry="11.759858" id="pathSk5sig4l6lly" style="opacity:1;fill:#ffffff;fill-opacity:1;fill-rule:nonzero;stroke:#000000;stroke-width:2.29999995;stroke-linecap:round;stroke-linejoin:round;stroke-miterlimit:4;stroke-dasharray:none;stroke-dashoffset:0;stroke-opacity:1;paint-order:normal" />
        <path inkscape:connector-curvature="0" style="fill:none;fill-rule:evenodd;stroke:#000000;stroke-width:0.25566971;stroke-linecap:round;stroke-linejoin:round;stroke-miterlimit:4;stroke-dasharray:none;stroke-opacity:1" d="M 96.153831,135.07545 C 96.408001,134.62165 96.360771,133.98053 96.360771,133.98053" id="pathSk5sig4l6llz" />
      </g>
    </g>
  </g>
  <g id="g2914" transform="translate(31.8589,31.8589)">
    <g id="g2912" transform="matrix(1.8,0,0,1.8,-174.6,-241.2)" style="fill:#b0be93">
      <g id="gSk5sig4l6lnm">
        <path inkscape:connector-curvature="0" style="fill:#963434;fill-opacity:0.5;fill-rule:evenodd;stroke:#000000;stroke-width:0.25566971;stroke-linecap:round;stroke-linejoin:round;stroke-miterlimit:4;stroke-dasharray:none;stroke-opacity:1" d="M 95.720495,132.83553 C 95.720494,132.839 95.720471,132.84224 95.720469,132.8457 C 95.720818,132.84231 95.721232,132.83891 95.721711,132.83553 Z M 98.931009,132.83613 C 98.931337,132.83927 98.93161,132.84241 98.931828,132.84554 C 98.931855,132.84237 98.931824,132.83931 98.931854,132.83613 Z M 98.931828,132.84797 C 98.930418,133.20984 98.211958,133.50289 97.326135,133.50292 C 96.440891,133.50289 95.722671,133.21021 95.720442,132.84858 C 95.680233,134.70851 95.527759,135.57984 94.82963,136.18884 C 95.975391,136.6165 96.264772,135.59289 96.490998,135.59321 C 96.956452,135.59386 96.772203,136.53528 97.435108,136.5221 C 98.098014,136.50892 97.908311,135.5912 98.319051,135.59369 C 98.574186,135.59523 98.952829,136.67608 100.1006,136.23875 C 99.308868,135.53629 98.995072,134.58633 98.931828,132.84797 Z" id="pathSk5sig4l6lnn" />
        <ellipse style="opacity:1;fill:#d4ac82;fill-opacity:0.5;fill-rule:nonzero;stroke:#000000;stroke-width:0.25566971;stroke-linecap:round;stroke-linejoin:round;stroke-miterlimit:4;stroke-dasharray:none;stroke-dashoffset:0;stroke-opacity:1;paint-order:normal" id="ellipseSk5sig4l6lno" ry="0.65599406" rx="1.6058189" cy="132.84694" cx="97.326134" />
        <path inkscape:connector-curvature="0" d="" cx="94.747047" cy="104.83321" rx="31.404167" ry="11.759858" id="pathSk5sig4l6lnp" style="opacity:1;fill:#ffffff;fill-opacity:1;fill-rule:nonzero;stroke:#000000;stroke-width:2.29999995;stroke-linecap:round;stroke-linejoin:round;stroke-miterlimit:4;stroke-dasharray:none;stroke-dashoffset:0;stroke-opacity:1;paint-order:normal" />
        <path inkscape:connector-curvature="0" style="fill:none;fill-rule:evenodd;stroke:#000000;stroke-width:0.25566971;stroke-linecap:round;stroke-linejoin:round;stroke-miterlimit:4;stroke-dasharray:none;stroke-opacity:1" d="M 96.153831,135.07545 C 96.408001,134.62165 96.360771,133.98053 96.360771,133.98053" id="pathSk5sig4l6lnq" />
      </g>
    </g>
  </g>
  <g id="g3049" transform="translate(7.5454,7.5454)">
    <g id="g3047" transform="matrix(1.8,0,0,1.8,-174.6,-241.2)" style="fill:#b0be93">
      <g id="gSk5sig4l6lqj">
        <path inkscape:connector-curvature="0" style="fill:#963434;fill-opacity:0.5;fill-rule:evenodd;stroke:#000000;stroke-width:0.25566971;stroke-linecap:round;stroke-linejoin:round;stroke-miterlimit:4;stroke-dasharray:none;stroke-opacity:1" d="M 95.720495,132.83553 C 95.720494,132.839 95.720471,132.84224 95.720469,132.8457 C 95.720818,132.84231 95.721232,132.83891 95.721711,132.83553 Z M 98.931009,132.83613 C 98.931337,132.83927 98.93161,132.84241 98.931828,132.84554 C 98.931855,132.84237 98.931824,132.83931 98.931854,132.83613 Z M 98.931828,132.84797 C 98.930418,133.20984 98.211958,133.50289 97.326135,133.50292 C 96.440891,133.50289 95.722671,133.21021 95.720442,132.84858 C 95.680233,134.70851 95.527759,135.57984 94.82963,136.18884 C 95.975391,136.6165 96.264772,135.59289 96.490998,135.59321 C 96.956452,135.59386 96.772203,136.53528 97.435108,136.5221 C 98.098014,136.50892 97.908311,135.5912 98.319051,135.59369 C 98.574186,135.59523 98.952829,136.67608 100.1006,136.23875 C 99.308868,135.53629 98.995072,134.58633 98.931828,132.84797 Z" id="pathSk5sig4l6lqk" />
        <ellipse style="opacity:1;fill:#d4ac82;fill-opacity:0.5;fill-rule:nonzero;stroke:#000000;stroke-width:0.25566971;stroke-linecap:round;stroke-linejoin:round;stroke-miterlimit:4;stroke-dasharray:none;stroke-dashoffset:0;stroke-opacity:1;paint-order:normal" id="ellipseSk5sig4l6lql" ry="0.65599406" rx="1.6058189" cy="132.84694" cx="97.326134" />
        <path inkscape:connector-curvature="0" d="" cx="94.747047" cy="104.83321" rx="31.404167" ry="11.759858" id="pathSk5sig4l6lqm" style="opacity:1;fill:#ffffff;fill-opacity:1;fill-rule:nonzero;stroke:#000000;stroke-width:2.29999995;stroke-linecap:round;stroke-linejoin:round;stroke-miterlimit:4;stroke-dasharray:none;stroke-dashoffset:0;stroke-opacity:1;paint-order:normal" />
        <path inkscape:connector-curvature="0" style="fill:none;fill-rule:evenodd;stroke:#000000;stroke-width:0.25566971;stroke-linecap:round;stroke-linejoin:round;stroke-miterlimit:4;stroke-dasharray:none;stroke-opacity:1" d="M 96.153831,135.07545 C 96.408001,134.62165 96.360771,133.98053 96.360771,133.98053" id="pathSk5sig4l6lqn" />
      </g>
    </g>
  </g>
  <g id="g3103" transform="translate(27.7178,11.8589)">
    <g id="g3101" transform="matrix(1.8,0,0,1.8,-174.6,-241.2)" style="fill:#b0be93">
      <g id="gSk5sig4l6lrp">
        <path inkscape:connector-curvature="0" style="fill:#963434;fill-opacity:0.5;fill-rule:evenodd;stroke:#000000;stroke-width:0.25566971;stroke-linecap:round;stroke-linejoin:round;stroke-miterlimit:4;stroke-dasharray:none;stroke-opacity:1" d="M 95.720495,132.83553 C 95.720494,132.839 95.720471,132.84224 95.720469,132.8457 C 95.720818,132.84231 95.721232,132.83891 95.721711,132.83553 Z M 98.931009,132.83613 C 98.931337,132.83927 98.93161,132.84241 98.931828,132.84554 C 98.931855,132.84237 98.931824,132.83931 98.931854,132.83613 Z M 98.931828,132.84797 C 98.930418,133.20984 98.211958,133.50289 97.326135,133.50292 C 96.440891,133.50289 95.722671,133.21021 95.720442,132.84858 C 95.680233,134.70851 95.527759,135.57984 94.82963,136.18884 C 95.975391,136.6165 96.264772,135.59289 96.490998,135.59321 C 96.956452,135.59386 96.772203,136.53528 97.435108,136.5221 C 98.098014,136.50892 97.908311,135.5912 98.319051,135.59369 C 98.574186,135.59523 98.952829,136.67608 100.1006,136.23875 C 99.308868,135.53629 98.995072,134.58633 98.931828,132.84797 Z" id="pathSk5sig4l6lrq" />
        <ellipse style="opacity:1;fill:#d4ac82;fill-opacity:0.5;fill-rule:nonzero;stroke:#000000;stroke-width:0.25566971;stroke-linecap:round;stroke-linejoin:round;stroke-miterlimit:4;stroke-dasharray:none;stroke-dashoffset:0;stroke-opacity:1;paint-order:normal" id="ellipseSk5sig4l6lrr" ry="0.65599406" rx="1.6058189" cy="132.84694" cx="97.326134" />
        <path inkscape:connector-curvature="0" d="" cx="94.747047" cy="104.83321" rx="31.404167" ry="11.759858" id="pathSk5sig4l6lrs" style="opacity:1;fill:#ffffff;fill-opacity:1;fill-rule:nonzero;stroke:#000000;stroke-width:2.29999995;stroke-linecap:round;stroke-linejoin:round;stroke-miterlimit:4;stroke-dasharray:none;stroke-dashoffset:0;stroke-opacity:1;paint-order:normal" />
        <path inkscape:connector-curvature="0" style="fill:none;fill-rule:evenodd;stroke:#000000;stroke-width:0.25566971;stroke-linecap:round;stroke-linejoin:round;stroke-miterlimit:4;stroke-dasharray:none;stroke-opacity:1" d="M 96.153831,135.07545 C 96.408001,134.62165 96.360771,133.98053 96.360771,133.98053" id="pathSk5sig4l6lrt" />
      </g>
    </g>
  </g>
  <desc id="desc3142">Created with Snap</desc>
  <rect style="opacity:0;fill:#963434;fill-opacity:0.5;fill-rule:nonzero;stroke:none;stroke-width:0.04724411;stroke-linecap:round;stroke-linejoin:round;stroke-miterlimit:4;stroke-dasharray:none;stroke-dashoffset:0;stroke-opacity:1;paint-order:normal" id="rect3979" width="40" height="40" x="2" y="-2" />
</svg>
