<?xml version="1.0" encoding="UTF-8" standalone="no"?>
<svg xmlns:dc="http://purl.org/dc/elements/1.1/" xmlns:cc="http://creativecommons.org/ns#" xmlns:rdf="http://www.w3.org/1999/02/22-rdf-syntax-ns#" xmlns:svg="http://www.w3.org/2000/svg" xmlns="http://www.w3.org/2000/svg" xmlns:sodipodi="http://sodipodi.sourceforge.net/DTD/sodipodi-0.dtd" xmlns:inkscape="http://www.inkscape.org/namespaces/inkscape" version="1.1" id="svg2" viewBox="0 0 14 14" height="14" width="14" sodipodi:docname="supermarket.svg" inkscape:version="0.92.3 (2405546, 2018-03-11)">
  <sodipodi:namedview pagecolor="#ffffff" bordercolor="#666666" borderopacity="1" objecttolerance="10" gridtolerance="10" guidetolerance="10" inkscape:pageopacity="0" inkscape:pageshadow="2" inkscape:window-width="1881" inkscape:window-height="1058" id="namedview2076" showgrid="false" inkscape:zoom="16.857143" inkscape:cx="7" inkscape:cy="7" inkscape:window-x="0" inkscape:window-y="0" inkscape:window-maximized="1" inkscape:current-layer="svg2" />
  <metadata id="metadata30">
    <rdf:RDF>
      <cc:Work rdf:about="">
        <dc:format>image/svg+xml</dc:format>
        <dc:type rdf:resource="http://purl.org/dc/dcmitype/StillImage" />
        <dc:title />
      </cc:Work>
    </rdf:RDF>
  </metadata>
  <defs id="defs28" />
  <path id="path2639" d="M 13.412109 1.171875 A 0.55339859 0.55339859 0 0 0 13.25 1.1992188 L 11.767578 1.75 L 11.5 3 L 0 3 L 1 9 L 10 9.9003906 L 10 11 L 1.5 11 A 0.5 0.5 0 0 0 1.5 12 L 2.5195312 12 A 1 1 0 0 1 2.5195312 12.001953 A 1 1 0 0 0 2.5 12.199219 A 1 1 0 0 0 3.5 13.199219 A 1 1 0 0 0 4.5 12.199219 A 1 1 0 0 0 4.4785156 12 L 8.5195312 12 A 1 1 0 0 1 8.5195312 12.001953 A 1 1 0 0 0 8.5 12.199219 A 1 1 0 0 0 9.5 13.199219 A 1 1 0 0 0 10.5 12.199219 A 1 1 0 0 0 10.478516 12 L 11 12 L 11 10 L 12.5 3 L 12.599609 2.5996094 L 13.599609 2.25 A 0.55339859 0.55339859 0 0 0 13.412109 1.171875 z M 1.1679688 4 L 3.5 4 L 3.5 5 L 1.3457031 5 L 1.1679688 4 z M 4 4 L 5.5 4 L 5.5 5 L 4 5 L 4 4 z M 6 4 L 7.5 4 L 7.5 5 L 6 5 L 6 4 z M 8 4 L 9.5 4 L 9.5 5 L 8 5 L 8 4 z M 10 4 L 11.285156 4 L 11.074219 5 L 10 5 L 10 4 z M 1.4355469 5.5 L 3.5 5.5 L 3.5 7 L 1.703125 7 L 1.4355469 5.5 z M 4 5.5 L 5.5 5.5 L 5.5 7 L 4 7 L 4 5.5 z M 6 5.5 L 7.5 5.5 L 7.5 7 L 6 7 L 6 5.5 z M 8 5.5 L 9.5 5.5 L 9.5 7 L 8 7 L 8 5.5 z M 10 5.5 L 10.96875 5.5 L 10.652344 7 L 10 7 L 10 5.5 z M 1.7929688 7.5 L 3.5 7.5 L 3.5 8.2539062 L 1.9003906 8.0996094 L 1.7929688 7.5 z M 4 7.5 L 5.5 7.5 L 5.5 8.4453125 L 4 8.3007812 L 4 7.5 z M 6 7.5 L 7.5 7.5 L 7.5 8.6367188 L 6 8.4921875 L 6 7.5 z M 8 7.5 L 9.5 7.5 L 9.5 8.828125 L 8 8.6835938 L 8 7.5 z M 10 7.5 L 10.544922 7.5 L 10.25 8.9003906 L 10 8.8769531 L 10 7.5 z " style="fill:none;fill-opacity:1;stroke:#ffffff;stroke-opacity:0.50196081;stroke-width:2;stroke-miterlimit:4;stroke-dasharray:none;stroke-linejoin:round;stroke-linecap:round" />
  <path style="" d="M 13.412109 1.171875 A 0.55339859 0.55339859 0 0 0 13.25 1.1992188 L 11.767578 1.75 L 11.5 3 L 0 3 L 1 9 L 10 9.9003906 L 10 11 L 1.5 11 A 0.5 0.5 0 0 0 1.5 12 L 2.5195312 12 A 1 1 0 0 1 2.5195312 12.001953 A 1 1 0 0 0 2.5 12.199219 A 1 1 0 0 0 3.5 13.199219 A 1 1 0 0 0 4.5 12.199219 A 1 1 0 0 0 4.4785156 12 L 8.5195312 12 A 1 1 0 0 1 8.5195312 12.001953 A 1 1 0 0 0 8.5 12.199219 A 1 1 0 0 0 9.5 13.199219 A 1 1 0 0 0 10.5 12.199219 A 1 1 0 0 0 10.478516 12 L 11 12 L 11 10 L 12.5 3 L 12.599609 2.5996094 L 13.599609 2.25 A 0.55339859 0.55339859 0 0 0 13.412109 1.171875 z M 1.1679688 4 L 3.5 4 L 3.5 5 L 1.3457031 5 L 1.1679688 4 z M 4 4 L 5.5 4 L 5.5 5 L 4 5 L 4 4 z M 6 4 L 7.5 4 L 7.5 5 L 6 5 L 6 4 z M 8 4 L 9.5 4 L 9.5 5 L 8 5 L 8 4 z M 10 4 L 11.285156 4 L 11.074219 5 L 10 5 L 10 4 z M 1.4355469 5.5 L 3.5 5.5 L 3.5 7 L 1.703125 7 L 1.4355469 5.5 z M 4 5.5 L 5.5 5.5 L 5.5 7 L 4 7 L 4 5.5 z M 6 5.5 L 7.5 5.5 L 7.5 7 L 6 7 L 6 5.5 z M 8 5.5 L 9.5 5.5 L 9.5 7 L 8 7 L 8 5.5 z M 10 5.5 L 10.96875 5.5 L 10.652344 7 L 10 7 L 10 5.5 z M 1.7929688 7.5 L 3.5 7.5 L 3.5 8.2539062 L 1.9003906 8.0996094 L 1.7929688 7.5 z M 4 7.5 L 5.5 7.5 L 5.5 8.4453125 L 4 8.3007812 L 4 7.5 z M 6 7.5 L 7.5 7.5 L 7.5 8.6367188 L 6 8.4921875 L 6 7.5 z M 8 7.5 L 9.5 7.5 L 9.5 8.828125 L 8 8.6835938 L 8 7.5 z M 10 7.5 L 10.544922 7.5 L 10.25 8.9003906 L 10 8.8769531 L 10 7.5 z " id="rect5" />
</svg>
