<?xml version="1.0" encoding="UTF-8" standalone="no"?>
<svg height="20" width="20" version="1.2" viewBox="0 0 6.25 6.25" xml:space="preserve" id="svg134" sodipodi:docname="synagogue.svg" inkscape:version="1.2.2 (b0a8486541, 2022-12-01)" xmlns:inkscape="http://www.inkscape.org/namespaces/inkscape" xmlns:sodipodi="http://sodipodi.sourceforge.net/DTD/sodipodi-0.dtd" xmlns="http://www.w3.org/2000/svg" xmlns:svg="http://www.w3.org/2000/svg"><defs id="defs138" /><sodipodi:namedview id="namedview136" pagecolor="#ffffff" bordercolor="#666666" borderopacity="1.0" inkscape:showpageshadow="2" inkscape:pageopacity="0.0" inkscape:pagecheckerboard="true" inkscape:deskcolor="#d1d1d1" showgrid="true" inkscape:zoom="21.575" inkscape:cx="-0.34762457" inkscape:cy="18.887601" inkscape:window-width="1863" inkscape:window-height="1056" inkscape:window-x="0" inkscape:window-y="0" inkscape:window-maximized="1" inkscape:current-layer="svg134"><inkscape:grid type="xygrid" id="grid244" /></sodipodi:namedview>
  <path d="M 3.28125,1.25 C 2.1875011,1.25 1.5625,2.1887213 1.5625,2.8125 H 0.9375 V 5.9375 H 5.625 V 2.8125 H 5 C 5,2.1875006 4.3749989,1.25 3.28125,1.25 Z M 3.2727051,1.71875 L 3.5821533,2.2662354 L 4.2016602,2.265625 L 3.8916016,2.8131104 L 4.2022705,3.359375 L 3.5827637,3.3587646 L 3.2727051,3.90625 L 2.9632568,3.3587646 L 2.34375,3.359375 L 2.6538086,2.8118896 L 2.3431396,2.265625 L 2.9626465,2.2662354 Z M 3.2727051,2.0977783 L 3.1774902,2.2662354 H 3.3679199 Z M 2.6654053,2.4554443 L 2.7606201,2.623291 L 2.855835,2.4554443 Z M 3.0706787,2.4554443 L 2.868042,2.8125 L 3.0706787,3.1695557 H 3.4747314 L 3.6773682,2.8125 L 3.4747314,2.4554443 Z M 3.6895752,2.4554443 L 3.78479,2.6239014 L 3.8800049,2.4554443 Z M 2.7606201,3.0010986 L 2.6654053,3.1695557 H 2.855835 Z M 3.78479,3.001709 L 3.6895752,3.1695557 H 3.8800049 Z M 3.1774902,3.3587646 L 3.2727051,3.5272217 L 3.3679199,3.3587646 Z M 3.28125,4.0625903 C 3.6699948,4.0625903 3.75,4.3858995 3.75,4.56552 V 5.6262207 L 2.8125,5.625 V 4.5642993 C 2.8125,4.3780373 2.8925052,4.0625903 3.28125,4.0625903 Z M 1.875,4.06198 C 2.2637448,4.06198 2.34375,4.3852891 2.34375,4.5649097 V 5.6256103 L 1.40625,5.6243897 V 4.5636889 C 1.40625,4.3774269 1.4862552,4.06198 1.875,4.06198 Z M 4.6875,4.06198 C 5.0762448,4.06198 5.15625,4.3852891 5.15625,4.5649097 V 5.6256103 L 4.21875,5.6243897 V 4.5636889 C 4.21875,4.3774269 4.2987552,4.06198 4.6875,4.06198 Z" id="path10476" sodipodi:nodetypes="sccccccsccccccccccccccccccccccccccccccccccccccccccccssccssssccssssccss" style="stroke-width:0.9375;stroke-dasharray:none;stroke:#ffffff;stroke-opacity:0.5;stroke-linejoin:round;stroke-linecap:round" /><path d="M 3.28125,1.25 C 2.1875011,1.25 1.5625,2.1887213 1.5625,2.8125 H 0.9375 V 5.9375 H 5.625 V 2.8125 H 5 C 5,2.1875006 4.3749989,1.25 3.28125,1.25 Z M 3.2727051,1.71875 L 3.5821533,2.2662354 L 4.2016602,2.265625 L 3.8916016,2.8131104 L 4.2022705,3.359375 L 3.5827637,3.3587646 L 3.2727051,3.90625 L 2.9632568,3.3587646 L 2.34375,3.359375 L 2.6538086,2.8118896 L 2.3431396,2.265625 L 2.9626465,2.2662354 Z M 3.2727051,2.0977783 L 3.1774902,2.2662354 H 3.3679199 Z M 2.6654053,2.4554443 L 2.7606201,2.623291 L 2.855835,2.4554443 Z M 3.0706787,2.4554443 L 2.868042,2.8125 L 3.0706787,3.1695557 H 3.4747314 L 3.6773682,2.8125 L 3.4747314,2.4554443 Z M 3.6895752,2.4554443 L 3.78479,2.6239014 L 3.8800049,2.4554443 Z M 2.7606201,3.0010986 L 2.6654053,3.1695557 H 2.855835 Z M 3.78479,3.001709 L 3.6895752,3.1695557 H 3.8800049 Z M 3.1774902,3.3587646 L 3.2727051,3.5272217 L 3.3679199,3.3587646 Z M 3.28125,4.0625903 C 3.6699948,4.0625903 3.75,4.3858995 3.75,4.56552 V 5.6262207 L 2.8125,5.625 V 4.5642993 C 2.8125,4.3780373 2.8925052,4.0625903 3.28125,4.0625903 Z M 1.875,4.06198 C 2.2637448,4.06198 2.34375,4.3852891 2.34375,4.5649097 V 5.6256103 L 1.40625,5.6243897 V 4.5636889 C 1.40625,4.3774269 1.4862552,4.06198 1.875,4.06198 Z M 4.6875,4.06198 C 5.0762448,4.06198 5.15625,4.3852891 5.15625,4.5649097 V 5.6256103 L 4.21875,5.6243897 V 4.5636889 C 4.21875,4.3774269 4.2987552,4.06198 4.6875,4.06198 Z" id="path10474" sodipodi:nodetypes="sccccccsccccccccccccccccccccccccccccccccccccccccccccssccssssccssssccss" style="stroke-width:0.9375;stroke-dasharray:none" />
</svg>
