<?xml version="1.0" encoding="UTF-8" standalone="no"?>
<svg xmlns:dc="http://purl.org/dc/elements/1.1/" xmlns:cc="http://creativecommons.org/ns#" xmlns:rdf="http://www.w3.org/1999/02/22-rdf-syntax-ns#" xmlns:svg="http://www.w3.org/2000/svg" xmlns="http://www.w3.org/2000/svg" xmlns:sodipodi="http://sodipodi.sourceforge.net/DTD/sodipodi-0.dtd" xmlns:inkscape="http://www.inkscape.org/namespaces/inkscape" version="1.1" width="14" height="14" viewBox="0 0 14 14" id="svg2" sodipodi:docname="telephone.svg" inkscape:version="0.92.4 (5da689c313, 2019-01-14)">
  <sodipodi:namedview pagecolor="#ffffff" bordercolor="#666666" borderopacity="1" objecttolerance="10" gridtolerance="10" guidetolerance="10" inkscape:pageopacity="0" inkscape:pageshadow="2" inkscape:window-width="1881" inkscape:window-height="1051" id="namedview1509" showgrid="false" inkscape:pagecheckerboard="true" inkscape:zoom="16.857143" inkscape:cx="7" inkscape:cy="7" inkscape:window-x="0" inkscape:window-y="0" inkscape:window-maximized="1" inkscape:current-layer="svg2" />
  <metadata id="metadata8">
    <rdf:RDF>
      <cc:Work rdf:about="">
        <dc:format>image/svg+xml</dc:format>
        <dc:type rdf:resource="http://purl.org/dc/dcmitype/StillImage" />
        <dc:title></dc:title>
      </cc:Work>
    </rdf:RDF>
  </metadata>
  <defs id="defs6" />
  <path id="outline" d="M 2,8 C 1.0118212,8.9881788 0.56004859,10.573569 1.5487288,11.552966 L 2,12 L 5,9 V 7.5 L 7.5,5 H 9 L 12,2 L 11.489407,1.512712 C 10.513874,0.58170546 8.9807634,1.0192366 8,2 Z M 2.5451482,12.537558 L 2.8839339,12.890445 C 2.8839339,12.890445 3.7341027,12.966355 4.172856,12.534278 L 5.5665554,11.161784 C 5.9484277,10.759801 5.8738707,9.8572254 5.8738707,9.8572254 L 5.5350852,9.504338 Z M 9.5530473,5.5203307 L 9.8918329,5.8732169 C 9.8918329,5.8732169 10.761569,6.0307577 11.156184,5.6421465 L 12.549883,4.2696525 C 12.944768,3.8807753 12.87203,2.8612795 12.87203,2.8612795 L 12.533244,2.5083933 Z" inkscape:connector-curvature="0" style="fill:none;stroke:#ffffff;stroke-opacity:1;opacity:0.5;stroke-width:3;stroke-miterlimit:4;stroke-dasharray:none;stroke-linejoin:round;stroke-linecap:round" />
  <path d="M 2,8 C 1.0118212,8.9881788 0.56004859,10.573569 1.5487288,11.552966 L 2,12 5,9 5,7.5 7.5,5 9,5 12,2 11.489407,1.512712 C 10.513874,0.58170546 8.9807634,1.0192366 8,2 z m 0.5451482,4.537558 0.3387857,0.352887 c 0,0 0.8501688,0.07591 1.2889221,-0.356167 L 5.5665554,11.161784 C 5.9484277,10.759801 5.8738707,9.8572254 5.8738707,9.8572254 L 5.5350852,9.504338 z M 9.5530473,5.5203307 9.8918329,5.8732169 c 0,0 0.8697361,0.1575408 1.2643511,-0.2310704 l 1.393699,-1.372494 C 12.944768,3.8807753 12.87203,2.8612795 12.87203,2.8612795 L 12.533244,2.5083933 z" id="telephone" />
</svg>
