<svg version="1.0" width="16" height="16">
  <path style="fill:none;fill-opacity:1;stroke:#fff;stroke-width:3;stroke-linecap:round;stroke-linejoin:round;stroke-miterlimit:4;stroke-dasharray:none;stroke-opacity:.5" d="M4.813 1.501c-.875-.024-1.705.26-2.353.887-1.615 1.562-1.078 3.904.67 5.649 1.368 1.366 3.002 2.063 4.477 1.47a9.87 9.87 0 0 1 2.63 1.368.488.488 0 0 0 .133.448l2.957 2.95a.49.49 0 0 0 .692 0l.347-.345a.489.489 0 0 0 0-.692l-2.956-2.95a.49.49 0 0 0-.449-.133A9.844 9.844 0 0 1 9.59 7.519c.577-1.464-.107-3.101-1.47-4.462-.983-.982-2.182-1.524-3.306-1.556Zm4.365 6.65c.225.544.51 1.158.864 1.806a18.473 18.473 0 0 0-1.808-.862 7.148 7.148 0 0 0 .944-.943ZM4.411 10.99a1.65 1.648 0 0 0-1.651 1.648 1.65 1.648 0 0 0 1.65 1.648 1.65 1.648 0 0 0 1.652-1.648A1.65 1.648 0 0 0 4.41 10.99Z" />
  <ellipse cx="4.411" cy="12.637" style="fill:#000;fill-opacity:1;stroke-width:1" rx="1.651" ry="1.648" />
  <path d="M8.119 3.057C6.37 1.312 3.942.955 2.46 2.388.845 3.95 1.382 6.292 3.13 8.037c1.368 1.366 3.002 2.063 4.477 1.47a9.87 9.87 0 0 1 2.63 1.368.488.488 0 0 0 .133.448l2.957 2.95a.49.49 0 0 0 .692 0l.347-.345a.489.489 0 0 0 0-.692l-2.956-2.95a.49.49 0 0 0-.449-.133A9.844 9.844 0 0 1 9.59 7.519c.577-1.464-.107-3.101-1.47-4.462Zm1.923 6.9a18.475 18.475 0 0 0-1.808-.862 7.148 7.148 0 0 0 .944-.943c.225.543.51 1.157.864 1.805Z" style="fill:#000;fill-opacity:1;stroke-width:1" />
</svg>
