<?xml version="1.0" encoding="UTF-8" standalone="no"?>
<!-- Created with Inkscape (http://www.inkscape.org/) -->

<svg xmlns:dc="http://purl.org/dc/elements/1.1/" xmlns:cc="http://creativecommons.org/ns#" xmlns:rdf="http://www.w3.org/1999/02/22-rdf-syntax-ns#" xmlns:svg="http://www.w3.org/2000/svg" xmlns="http://www.w3.org/2000/svg" xmlns:sodipodi="http://sodipodi.sourceforge.net/DTD/sodipodi-0.dtd" xmlns:inkscape="http://www.inkscape.org/namespaces/inkscape" version="1.1" width="14" height="14" viewBox="0 0 14 14" id="svg2" sodipodi:docname="theatre.svg" inkscape:version="0.92.3 (2405546, 2018-03-11)">
  <sodipodi:namedview pagecolor="#ffffff" bordercolor="#666666" borderopacity="1" objecttolerance="10" gridtolerance="10" guidetolerance="10" inkscape:pageopacity="0" inkscape:pageshadow="2" inkscape:window-width="1881" inkscape:window-height="1051" id="namedview11277" showgrid="false" inkscape:zoom="16.857143" inkscape:cx="-3.4703389" inkscape:cy="7.0000001" inkscape:window-x="0" inkscape:window-y="0" inkscape:window-maximized="1" inkscape:current-layer="svg2" inkscape:pagecheckerboard="true" />
  <metadata id="metadata8">
    <rdf:RDF>
      <cc:Work rdf:about="">
        <dc:format>image/svg+xml</dc:format>
        <dc:type rdf:resource="http://purl.org/dc/dcmitype/StillImage" />
        <dc:title></dc:title>
      </cc:Work>
    </rdf:RDF>
  </metadata>
  <defs id="defs6" />
  <path id="outline" d="M 0,0 V 7 C 0,7 0,11 4,11 C 4.487694,11 4.905229,10.91692 5.28125,10.8125 C 5.222862,10.329209 5.25,10 5.25,10 V 9.78125 C 4.906989,9.915179 4.490013,10 4,10 C 1,10 1,7 1,7 V 1.5 C 3,2.4520605 5,2.4520605 7,1.5 V 2.65625 C 7.334486,2.7893793 7.676632,2.9137483 8,3 V 0 C 5,1.3728814 3,1.3050847 0,0 Z M 2.5,3 C 1.947715,3 1.5,3.4477153 1.5,4 C 1.5,4.5522847 1.947715,5 2.5,5 C 3.052285,5 3.5,4.5522847 3.5,4 C 3.5,3.4477153 3.052285,3 2.5,3 Z M 6,3 V 10 C 6,10 6,14 10,14 C 14,14 14,10 14,10 V 3 C 11,4.3728814 9,4.3050847 6,3 Z M 8.5,6 C 9.052285,6 9.5,6.4477153 9.5,7 C 9.5,7.552285 9.052285,8 8.5,8 C 7.947715,8 7.5,7.552285 7.5,7 C 7.5,6.4477153 7.947715,6 8.5,6 Z M 11.5,6 C 12.052285,6 12.5,6.4477153 12.5,7 C 12.5,7.552285 12.052285,8 11.5,8 C 10.947715,8 10.5,7.552285 10.5,7 C 10.5,6.4477153 10.947715,6 11.5,6 Z M 4,6.5 C 2.53776,6.5 2,7.516949 2,8.5 H 5.25 V 6.84375 C 4.945701,6.6221969 4.545878,6.5 4,6.5 Z M 8,10 H 12 C 12,11 11,12 10,12 C 9,12 8,11 8,10 Z" style="stroke:#ffffff;stroke-width:3;stroke-linecap:round;stroke-linejoin:round;stroke-miterlimit:4;stroke-dasharray:none;stroke-opacity:0.50196078;fill:none" inkscape:connector-curvature="0" />
  <path d="m 0,0 0,7 c 0,0 0,4 4,4 0.487694,0 0.905229,-0.08308 1.28125,-0.1875 C 5.222862,10.329209 5.25,10 5.25,10 l 0,-0.21875 C 4.906989,9.915179 4.490013,10 4,10 1,10 1,7 1,7 L 1,1.5 c 2,0.9520605 4,0.9520605 6,0 L 7,2.65625 C 7.334486,2.7893793 7.676632,2.9137483 8,3 L 8,0 C 5,1.3728814 3,1.3050847 0,0 z m 2.5,3 c -0.552285,0 -1,0.4477153 -1,1 0,0.5522847 0.447715,1 1,1 0.552285,0 1,-0.4477153 1,-1 0,-0.5522847 -0.447715,-1 -1,-1 z M 6,3 6,10 c 0,0 0,4 4,4 4,0 4,-4 4,-4 L 14,3 C 11,4.3728814 9,4.3050847 6,3 z m 2.5,3 c 0.552285,0 1,0.4477153 1,1 0,0.552285 -0.447715,1 -1,1 -0.552285,0 -1,-0.447715 -1,-1 0,-0.5522847 0.447715,-1 1,-1 z m 3,0 c 0.552285,0 1,0.4477153 1,1 0,0.552285 -0.447715,1 -1,1 -0.552285,0 -1,-0.447715 -1,-1 0,-0.5522847 0.447715,-1 1,-1 z M 4,6.5 c -1.46224,0 -2,1.016949 -2,2 l 3.25,0 0,-1.65625 C 4.945701,6.6221969 4.545878,6.5 4,6.5 z m 4,3.5 4,0 c 0,1 -1,2 -2,2 -1,0 -2,-1 -2,-2 z" id="theatre" />
</svg>
