<?xml version="1.0" encoding="UTF-8" standalone="no"?>
<!-- Created with Inkscape (http://www.inkscape.org/) -->

<svg xmlns:dc="http://purl.org/dc/elements/1.1/" xmlns:cc="http://creativecommons.org/ns#" xmlns:rdf="http://www.w3.org/1999/02/22-rdf-syntax-ns#" xmlns:svg="http://www.w3.org/2000/svg" xmlns="http://www.w3.org/2000/svg" xmlns:sodipodi="http://sodipodi.sourceforge.net/DTD/sodipodi-0.dtd" xmlns:inkscape="http://www.inkscape.org/namespaces/inkscape" version="1.1" width="14" height="14" viewBox="0 0 14 14" id="svg893" sodipodi:docname="toilets.svg" inkscape:version="0.92.4 (5da689c313, 2019-01-14)">
  <metadata id="metadata899">
    <rdf:RDF>
      <cc:Work rdf:about="">
        <dc:format>image/svg+xml</dc:format>
        <dc:type rdf:resource="http://purl.org/dc/dcmitype/StillImage" />
        <dc:title></dc:title>
      </cc:Work>
    </rdf:RDF>
  </metadata>
  <defs id="defs897" />
  <sodipodi:namedview pagecolor="#ffffff" bordercolor="#666666" borderopacity="1" objecttolerance="10" gridtolerance="10" guidetolerance="10" inkscape:pageopacity="0" inkscape:pageshadow="2" inkscape:window-width="1881" inkscape:window-height="1051" id="namedview895" showgrid="false" inkscape:pagecheckerboard="true" inkscape:zoom="23.8396" inkscape:cx="8.598502" inkscape:cy="6.4092493" inkscape:window-x="0" inkscape:window-y="0" inkscape:window-maximized="1" inkscape:current-layer="svg893" />
  <path id="outline" d="M 6.25,0 V 14 H 7.75 V 0 Z M 2.5,1 C 1.671573,1 1,1.6715729 1,2.5 C 1,3.3284271 1.671573,4 2.5,4 C 3.328427,4 4,3.3284271 4,2.5 C 4,1.6715729 3.328427,1 2.5,1 Z M 11.5,1 C 10.671573,1 10,1.6715729 10,2.5 C 10,3.3284271 10.671573,4 11.5,4 C 12.328427,4 13,3.3284271 13,2.5 C 13,1.6715729 12.328427,1 11.5,1 Z M 1.5,5 C 0.900278,5 0.5,5.568545 0.5,6 C 0.5,6.5273339 1.75,7.496636 1.75,8 C 1.75,8.555974 0,9 0,11 H 1.75 V 14 H 3.25 V 11 H 5 C 5,9 3.25,8.529509 3.25,8 C 3.25,7.470492 4.5,6.5513036 4.5,6 C 4.5,5.5925147 4.075273,5 3.5,5 Z M 10,5 C 9.472666,5 9,5.4804699 9,6 C 9,7 10.75,10.016073 10.75,11 V 14 H 12.25 V 11 C 12.25,10.035543 14,7 14,6 C 14,5.446616 13.551304,5 13,5 Z" style="opacity:0.5;fill:none;stroke:#ffffff;stroke-width:3;stroke-linecap:round;stroke-linejoin:round;stroke-miterlimit:4;stroke-dasharray:none;stroke-opacity:1" inkscape:connector-curvature="0" />
  <path d="m 6.25,0 0,14 1.5,0 0,-14 -1.5,0 z M 2.5,1 C 1.671573,1 1,1.6715729 1,2.5 1,3.3284271 1.671573,4 2.5,4 3.328427,4 4,3.3284271 4,2.5 4,1.6715729 3.328427,1 2.5,1 z m 9,0 C 10.671573,1 10,1.6715729 10,2.5 10,3.3284271 10.671573,4 11.5,4 12.328427,4 13,3.3284271 13,2.5 13,1.6715729 12.328427,1 11.5,1 z m -10,4 c -0.599722,0 -1,0.568545 -1,1 0,0.5273339 1.25,1.496636 1.25,2 C 1.75,8.555974 0,9 0,11 l 1.75,0 0,3 1.5,0 0,-3 L 5,11 C 5,9 3.25,8.529509 3.25,8 3.25,7.470492 4.5,6.5513036 4.5,6 4.5,5.5925147 4.075273,5 3.5,5 l -2,0 z M 10,5 C 9.472666,5 9,5.4804699 9,6 c 0,1 1.75,4.016073 1.75,5 l 0,3 1.5,0 0,-3 C 12.25,10.035543 14,7 14,6 14,5.446616 13.551304,5 13,5 l -3,0 z" id="toilets" />
</svg>
