<?xml version="1.0" encoding="UTF-8" standalone="no"?>
<!-- Created with Inkscape (http://www.inkscape.org/) -->

<svg xmlns:dc="http://purl.org/dc/elements/1.1/" xmlns:cc="http://creativecommons.org/ns#" xmlns:rdf="http://www.w3.org/1999/02/22-rdf-syntax-ns#" xmlns:svg="http://www.w3.org/2000/svg" xmlns="http://www.w3.org/2000/svg" xmlns:sodipodi="http://sodipodi.sourceforge.net/DTD/sodipodi-0.dtd" xmlns:inkscape="http://www.inkscape.org/namespaces/inkscape" version="1.1" width="14" height="14" viewBox="0 0 14 14" id="svg846" sodipodi:docname="townhall.svg" inkscape:version="0.92.3 (2405546, 2018-03-11)">
  <metadata id="metadata852">
    <rdf:RDF>
      <cc:Work rdf:about="">
        <dc:format>image/svg+xml</dc:format>
        <dc:type rdf:resource="http://purl.org/dc/dcmitype/StillImage" />
      </cc:Work>
    </rdf:RDF>
  </metadata>
  <defs id="defs850" />
  <sodipodi:namedview pagecolor="#ffffff" bordercolor="#666666" borderopacity="1" objecttolerance="10" gridtolerance="10" guidetolerance="10" inkscape:pageopacity="0" inkscape:pageshadow="2" inkscape:window-width="1881" inkscape:window-height="1058" id="namedview848" showgrid="false" inkscape:zoom="30.892857" inkscape:cx="6.3109604" inkscape:cy="7.5245203" inkscape:window-x="0" inkscape:window-y="0" inkscape:window-maximized="1" inkscape:current-layer="svg846" />
  <path id="path854" d="M 7,0 C 6.75,0.0032 6.5,0.1644239 6.5,0.5 L 6.5,4.375 1,7 13,7 7.5,4.375 7.5,0.5 C 7.5,0.1516409 7.25,-0.0031957 7,0 z M 8,0 8,3 12,3 10,1.5 12,0 z m -7,8 0,1 1,0 0,4 -1,0 0,1 12,0 0,-1 -1,0 0,-4 1,0 0,-1 z m 6,1.5 c 1,0 2,0.5 2,1.5 l 0,2 -4,0 0,-2 C 5,10 6,9.5 7,9.5 z" style="stroke:#ffffff;stroke-opacity:0.50196081;stroke-width:2;stroke-miterlimit:4;stroke-dasharray:none;stroke-linejoin:round;stroke-linecap:round" />
  <rect width="14" height="14" x="0" y="0" id="canvas" style="fill:none;stroke:none;visibility:hidden" />
  <path d="M 7,0 C 6.75,0.0032 6.5,0.1644239 6.5,0.5 L 6.5,4.375 1,7 13,7 7.5,4.375 7.5,0.5 C 7.5,0.1516409 7.25,-0.0031957 7,0 z M 8,0 8,3 12,3 10,1.5 12,0 z m -7,8 0,1 1,0 0,4 -1,0 0,1 12,0 0,-1 -1,0 0,-4 1,0 0,-1 z m 6,1.5 c 1,0 2,0.5 2,1.5 l 0,2 -4,0 0,-2 C 5,10 6,9.5 7,9.5 z" id="town-hall" />
</svg>
