<?xml version="1.0" encoding="UTF-8" standalone="no"?>
<!-- Created with Inkscape (http://www.inkscape.org/) -->

<svg xmlns:dc="http://purl.org/dc/elements/1.1/" xmlns:cc="http://creativecommons.org/ns#" xmlns:rdf="http://www.w3.org/1999/02/22-rdf-syntax-ns#" xmlns:svg="http://www.w3.org/2000/svg" xmlns="http://www.w3.org/2000/svg" xmlns:sodipodi="http://sodipodi.sourceforge.net/DTD/sodipodi-0.dtd" xmlns:inkscape="http://www.inkscape.org/namespaces/inkscape" version="1.1" width="14" height="14" viewBox="0 0 14 14" id="svg881" sodipodi:docname="tree.svg" inkscape:version="0.92.4 (5da689c313, 2019-01-14)">
  <metadata id="metadata887">
    <rdf:RDF>
      <cc:Work rdf:about="">
        <dc:format>image/svg+xml</dc:format>
        <dc:type rdf:resource="http://purl.org/dc/dcmitype/StillImage" />
        <dc:title></dc:title>
      </cc:Work>
    </rdf:RDF>
  </metadata>
  <defs id="defs885" />
  <sodipodi:namedview pagecolor="#ffffff" bordercolor="#666666" borderopacity="1" objecttolerance="10" gridtolerance="10" guidetolerance="10" inkscape:pageopacity="0" inkscape:pageshadow="2" inkscape:window-width="1881" inkscape:window-height="1051" id="namedview883" showgrid="true" inkscape:pagecheckerboard="true" inkscape:zoom="33.714286" inkscape:cx="2.419605" inkscape:cy="4.8883175" inkscape:window-x="0" inkscape:window-y="0" inkscape:window-maximized="1" inkscape:current-layer="svg881">
    <inkscape:grid type="xygrid" id="grid1439" units="px" spacingx="1" spacingy="1" />
  </sodipodi:namedview>
  <path sodipodi:type="star" style="opacity:1;fill:#b0ddb0;fill-opacity:1;fill-rule:nonzero;stroke:none;stroke-width:3;stroke-linecap:round;stroke-linejoin:round;stroke-miterlimit:4;stroke-dasharray:none;stroke-dashoffset:0;stroke-opacity:1;paint-order:normal" id="path1462" sodipodi:sides="9" sodipodi:cx="-12.368644" sodipodi:cy="5" sodipodi:r1="4.1974955" sodipodi:r2="3.2908554" sodipodi:arg1="0.6392613" sodipodi:arg2="0.98832715" inkscape:flatsided="false" inkscape:rounded="0.250729" inkscape:randomized="-0.129" d="M -9.4938543,7.254643 C -9.7548101,7.5334198 -10.045409,7.0387659 -10.376136,7.2464949 C -10.706863,7.454224 -10.857335,8.897386 -11.248431,8.934481 C -11.639527,8.9715759 -12.486227,7.8759182 -12.881126,7.7671986 C -13.276024,7.658479 -14.32142,9.2113398 -14.622148,8.9886169 C -14.922875,8.765894 -14.446469,7.3135994 -14.670248,6.970092 C -14.894026,6.6265845 -15.742832,7.3542407 -15.959771,7.0239014 C -16.17671,6.6935621 -15.468391,6.01155 -15.514136,5.6356036 C -15.559882,5.2596571 -16.773105,4.0452079 -16.592725,3.6958622 C -16.412346,3.3465165 -15.392345,3.4856647 -15.180547,3.1453209 C -14.96875,2.8049772 -14.883738,2.1016695 -14.587331,1.8767288 C -14.290925,1.6517882 -13.397592,1.7495192 -13.016474,1.6072411 C -12.635356,1.4649629 -12.227033,0.29937501 -11.816082,0.29305832 C -11.405131,0.28674163 -11.043382,1.758945 -10.673017,1.9115104 C -10.302653,2.0640757 -9.5396954,1.4347359 -9.3129035,1.7644543 C -9.0861116,2.0941726 -9.7794524,3.5375182 -9.583473,3.854734 C -9.3874936,4.1719498 -8.5411115,4.0927783 -8.4940481,4.4850101 C -8.4469848,4.877242 -9.2954739,5.2262213 -9.3630113,5.6050831 C -9.4305486,5.9839449 -9.2328985,6.9758661 -9.4938543,7.254643 Z" inkscape:transform-center-x="0.35852734" inkscape:transform-center-y="-0.013131001" transform="translate(19.5406,2.2635817)" />
</svg>
