<?xml version="1.0" encoding="UTF-8" standalone="no"?>
<!-- Created with Inkscape (http://www.inkscape.org/) -->

<svg version="1.0" width="14" height="14" id="svg2" sodipodi:version="0.32" inkscape:version="1.1.2 (0a00cf5339, 2022-02-04)" sodipodi:docname="university.svg" inkscape:output_extension="org.inkscape.output.svg.inkscape" xmlns:inkscape="http://www.inkscape.org/namespaces/inkscape" xmlns:sodipodi="http://sodipodi.sourceforge.net/DTD/sodipodi-0.dtd" xmlns="http://www.w3.org/2000/svg" xmlns:svg="http://www.w3.org/2000/svg" xmlns:rdf="http://www.w3.org/1999/02/22-rdf-syntax-ns#" xmlns:cc="http://creativecommons.org/ns#" xmlns:dc="http://purl.org/dc/elements/1.1/">
  <metadata id="metadata2975">
    <rdf:RDF>
      <cc:Work rdf:about="">
        <dc:format>image/svg+xml</dc:format>
        <dc:type rdf:resource="http://purl.org/dc/dcmitype/StillImage" />
        <cc:license rdf:resource="http://web.resource.org/cc/PublicDomain" />
        <dc:language>en</dc:language>
      </cc:Work>
    </rdf:RDF>
  </metadata>
  <sodipodi:namedview inkscape:window-height="1062" inkscape:window-width="1883" inkscape:pageshadow="2" inkscape:pageopacity="0.0" guidetolerance="10.0" gridtolerance="10.0" objecttolerance="10.0" borderopacity="1.0" bordercolor="#666666" pagecolor="#ffffff" id="base" inkscape:zoom="29.493668" inkscape:cx="0.44077258" inkscape:cy="11.375323" inkscape:window-x="0" inkscape:window-y="0" inkscape:current-layer="svg2" showgrid="false" inkscape:pagecheckerboard="0" inkscape:window-maximized="1" />
  <defs id="defs4">
    <inkscape:perspective sodipodi:type="inkscape:persp3d" inkscape:vp_x="0 : -276 : 1" inkscape:vp_y="0 : 1000 : 0" inkscape:vp_z="580 : -276 : 1" inkscape:persp3d-origin="290 : -372.66667 : 1" id="perspective2441" />
    <inkscape:perspective id="perspective3452" inkscape:persp3d-origin="30 : -546 : 1" inkscape:vp_z="60 : -536 : 1" inkscape:vp_y="0 : 1000 : 0" inkscape:vp_x="0 : -536 : 1" sodipodi:type="inkscape:persp3d" />
    <symbol viewBox="244.5 110 489 219.9" id="symbol-university">
      <path id="path4460" d="M 79,43 L 136,162 C 136,162 157,66 240,66 C 323,66 364,172 364,172 L 407,39 L 489,22 L 0,17 Z" />
      <path id="path4462" d="M 94,176 L 73,215" stroke-width="20" stroke="#000000" fill="none" />
      <path id="path4464" d="M 300,19 C 300,29.5 277.4,38 249.5,38 C 221.6,38 199,29.5 199,19 C 199,8.5 221.6,0 249.5,0 C 277.4,0 300,8.5 300,19 Z" />
      <path id="path4466" d="M 112,216 L 96,178 L 64,88 C 64,88 55,80 60,53 C 65,26 76,29 76,29" stroke-width="20" stroke="#000000" ill="none" />
    </symbol>
    <inkscape:perspective id="perspective4471" inkscape:persp3d-origin="372.04724 : -215.21261 : 1" inkscape:vp_z="744.09448 : -39.81891 : 1" inkscape:vp_y="0 : 1000 : 0" inkscape:vp_x="0 : -39.81891 : 1" sodipodi:type="inkscape:persp3d" />
    <inkscape:perspective id="perspective4668" inkscape:persp3d-origin="6 : -562 : 1" inkscape:vp_z="12 : -560 : 1" inkscape:vp_y="0 : 1000 : 0" inkscape:vp_x="0 : -560 : 1" sodipodi:type="inkscape:persp3d" />
    <marker viewBox="0 0 10 10" refY="5" refX="10" orient="auto" markerWidth="4" markerUnits="strokeWidth" markerHeight="3" id="ArrowStart">
      <path id="path3634" d="M 10,0 L 0,5 L 10,10 Z" />
    </marker>
    <marker viewBox="0 0 10 10" refY="5" refX="0" orient="auto" markerWidth="4" markerUnits="strokeWidth" markerHeight="3" id="ArrowEnd">
      <path id="path3631" d="M 0,0 L 10,5 L 0,10 Z" />
    </marker>
    <inkscape:perspective id="perspective2510" inkscape:persp3d-origin="306.082 : -361.60966 : 1" inkscape:vp_z="612.164 : -259.41449 : 1" inkscape:vp_y="0 : 1000 : 0" inkscape:vp_x="0 : -259.41449 : 1" sodipodi:type="inkscape:persp3d" />
    <marker viewBox="0 0 10 10" refY="5" refX="10" orient="auto" markerWidth="4" markerUnits="strokeWidth" markerHeight="3" id="marker2611">
      <path id="path1325" d="M 10,0 L 0,5 L 10,10 Z" />
    </marker>
    <marker viewBox="0 0 10 10" refY="5" refX="0" orient="auto" markerWidth="4" markerUnits="strokeWidth" markerHeight="3" id="marker2608">
      <path id="path1322" d="M 0,0 L 10,5 L 0,10 Z" />
    </marker>
    <inkscape:perspective id="perspective2605" inkscape:persp3d-origin="306.082 : -361.60966 : 1" inkscape:vp_z="612.164 : -259.41449 : 1" inkscape:vp_y="0 : 1000 : 0" inkscape:vp_x="0 : -259.41449 : 1" sodipodi:type="inkscape:persp3d" />
    <inkscape:perspective id="perspective2656" inkscape:persp3d-origin="372.04724 : -215.21261 : 1" inkscape:vp_z="744.09448 : -39.81891 : 1" inkscape:vp_y="0 : 1000 : 0" inkscape:vp_x="0 : -39.81891 : 1" sodipodi:type="inkscape:persp3d" />
  </defs>
  <path id="path54884" style="color:#000000;fill:#000000;fill-rule:evenodd;stroke-width:3;stroke-linecap:round;stroke:#ffffff;stroke-miterlimit:4;stroke-dasharray:none;stroke-opacity:0.5" d="M 6.8261719 0.00390625 L 6.8242188 0.005859375 C 6.6708355 0.027517335 6.5389046 0.11997367 6.4707031 0.25390625 L 5.4492188 2.6992188 L 0.3125 2.6992188 C 0.13950316 2.6993317 0.00011738524 2.8335718 0 3 L 0 11.052734 C 0.0001175576 11.219162 0.13950329 11.353403 0.3125 11.353516 L 1.8320312 11.353516 L 0.984375 13.378906 C 0.88856916 13.610779 1.0072064 13.874186 1.2480469 13.966797 C 1.488506 14.059182 1.7603539 13.947725 1.8574219 13.716797 L 2.84375 11.353516 L 11.0625 11.353516 L 12.048828 13.716797 C 12.145894 13.948797 12.42108 14.060482 12.662109 13.966797 C 12.902152 13.873415 13.017906 13.610235 12.921875 13.378906 L 12.076172 11.353516 L 13.6875 11.353516 C 13.860497 11.353403 13.999882 11.219162 14 11.052734 L 14 3 C 13.999882 2.8335719 13.860497 2.6993319 13.6875 2.6992188 L 8.4589844 2.6992188 L 7.4375 0.25390625 C 7.3692985 0.11997364 7.2373677 0.027517305 7.0839844 0.005859375 C 7.0826313 0.005200615 7.0814378 0.00455238 7.0800781 0.00390625 C 7.0381295 -0.00089504 6.9968439 -0.00024089099 6.9550781 0.005859375 C 6.9126449 -0.000418845 6.8687908 -0.00107318 6.8261719 0.00390625 z M 6.9550781 1.5175781 L 7.4472656 2.6992188 L 6.4609375 2.6992188 L 6.9550781 1.5175781 z M 9.7949219 4.5019531 C 9.8227759 4.5018082 9.8510902 4.5029454 9.8789062 4.5039062 C 10.069336 4.5010233 10.264692 4.5114988 10.451172 4.5371094 C 11.324805 4.6563346 12.081462 5.3834236 12.185547 6.2636719 C 12.31091 6.9560884 12.088002 7.7414356 11.466797 8.1347656 L 12.351562 8.1347656 L 12.351562 8.9960938 L 10.326172 8.9960938 L 10.326172 8.0722656 C 11.006255 7.6306396 11.214857 6.6667082 10.886719 5.9453125 C 10.658287 5.2900278 9.7133589 5.1230662 9.2324219 5.5957031 C 8.6017343 6.2962879 8.7620607 7.5604596 9.5585938 8.0722656 L 9.5585938 8.9960938 L 7.875 8.9960938 C 7.560474 9.0740058 7.4784443 8.918325 7.5351562 8.625 C 7.5681823 8.4222 7.4132781 8.0319176 7.7519531 8.1347656 C 7.9554061 8.1260176 8.2557815 8.1516787 8.3984375 8.1210938 C 7.6764295 7.6461498 7.51873 6.6501683 7.796875 5.8808594 C 8.059971 5.032485 8.9314189 4.5065412 9.7949219 4.5019531 z M 1.6542969 4.5839844 L 2.7890625 4.5839844 C 2.7893645 4.9448008 2.7870465 5.3052033 2.7890625 5.6660156 C 2.7609205 6.1810475 2.868536 6.7546595 3.3125 7.0742188 C 3.326452 6.2441709 3.3184745 5.4140866 3.3203125 4.5839844 L 4.4550781 4.5839844 L 4.4550781 7.0761719 C 4.6170521 6.9481999 4.7513729 6.7930969 4.8417969 6.6074219 C 5.0969479 5.967854 4.9528622 5.2553578 4.9882812 4.5839844 L 6.1230469 4.5839844 C 6.1005439 5.2772861 6.2052235 5.9872359 6.0078125 6.6621094 C 5.7918805 7.3445379 5.2156184 8.0188315 4.4589844 8.0859375 C 4.4532264 8.3893355 4.4557681 8.6926607 4.4550781 8.9960938 L 3.3203125 8.9960938 L 3.3203125 8.0859375 C 2.8021095 8.0516335 2.3775794 7.697693 2.0839844 7.296875 C 1.5166734 6.5440071 1.673501 5.5458109 1.65625 4.6640625 L 1.6542969 4.5839844 z " />
  <path id="path3526" style="color:#000000;fill:#000000;fill-rule:evenodd;stroke-width:1.02174;stroke-linecap:round;-inkscape-stroke:none" d="M 6.8261719 0.00390625 L 6.8242188 0.005859375 C 6.6708355 0.027517335 6.5389046 0.11997367 6.4707031 0.25390625 L 5.4492188 2.6992188 L 0.3125 2.6992188 C 0.13950316 2.6993317 0.00011738524 2.8335718 0 3 L 0 11.052734 C 0.0001175576 11.219162 0.13950329 11.353403 0.3125 11.353516 L 1.8320312 11.353516 L 0.984375 13.378906 C 0.88856916 13.610779 1.0072064 13.874186 1.2480469 13.966797 C 1.488506 14.059182 1.7603539 13.947725 1.8574219 13.716797 L 2.84375 11.353516 L 11.0625 11.353516 L 12.048828 13.716797 C 12.145894 13.948797 12.42108 14.060482 12.662109 13.966797 C 12.902152 13.873415 13.017906 13.610235 12.921875 13.378906 L 12.076172 11.353516 L 13.6875 11.353516 C 13.860497 11.353403 13.999882 11.219162 14 11.052734 L 14 3 C 13.999882 2.8335719 13.860497 2.6993319 13.6875 2.6992188 L 8.4589844 2.6992188 L 7.4375 0.25390625 C 7.3692985 0.11997364 7.2373677 0.027517305 7.0839844 0.005859375 C 7.0826313 0.005200615 7.0814378 0.00455238 7.0800781 0.00390625 C 7.0381295 -0.00089504 6.9968439 -0.00024089099 6.9550781 0.005859375 C 6.9126449 -0.000418845 6.8687908 -0.00107318 6.8261719 0.00390625 z M 6.9550781 1.5175781 L 7.4472656 2.6992188 L 6.4609375 2.6992188 L 6.9550781 1.5175781 z M 9.7949219 4.5019531 C 9.8227759 4.5018082 9.8510902 4.5029454 9.8789062 4.5039062 C 10.069336 4.5010233 10.264692 4.5114988 10.451172 4.5371094 C 11.324805 4.6563346 12.081462 5.3834236 12.185547 6.2636719 C 12.31091 6.9560884 12.088002 7.7414356 11.466797 8.1347656 L 12.351562 8.1347656 L 12.351562 8.9960938 L 10.326172 8.9960938 L 10.326172 8.0722656 C 11.006255 7.6306396 11.214857 6.6667082 10.886719 5.9453125 C 10.658287 5.2900278 9.7133589 5.1230662 9.2324219 5.5957031 C 8.6017343 6.2962879 8.7620607 7.5604596 9.5585938 8.0722656 L 9.5585938 8.9960938 L 7.875 8.9960938 C 7.560474 9.0740058 7.4784443 8.918325 7.5351562 8.625 C 7.5681823 8.4222 7.4132781 8.0319176 7.7519531 8.1347656 C 7.9554061 8.1260176 8.2557815 8.1516787 8.3984375 8.1210938 C 7.6764295 7.6461498 7.51873 6.6501683 7.796875 5.8808594 C 8.059971 5.032485 8.9314189 4.5065412 9.7949219 4.5019531 z M 1.6542969 4.5839844 L 2.7890625 4.5839844 C 2.7893645 4.9448008 2.7870465 5.3052033 2.7890625 5.6660156 C 2.7609205 6.1810475 2.868536 6.7546595 3.3125 7.0742188 C 3.326452 6.2441709 3.3184745 5.4140866 3.3203125 4.5839844 L 4.4550781 4.5839844 L 4.4550781 7.0761719 C 4.6170521 6.9481999 4.7513729 6.7930969 4.8417969 6.6074219 C 5.0969479 5.967854 4.9528622 5.2553578 4.9882812 4.5839844 L 6.1230469 4.5839844 C 6.1005439 5.2772861 6.2052235 5.9872359 6.0078125 6.6621094 C 5.7918805 7.3445379 5.2156184 8.0188315 4.4589844 8.0859375 C 4.4532264 8.3893355 4.4557681 8.6926607 4.4550781 8.9960938 L 3.3203125 8.9960938 L 3.3203125 8.0859375 C 2.8021095 8.0516335 2.3775794 7.697693 2.0839844 7.296875 C 1.5166734 6.5440071 1.673501 5.5458109 1.65625 4.6640625 L 1.6542969 4.5839844 z " />
</svg>
