<?xml version="1.0" encoding="UTF-8" standalone="no"?>
<!-- Created with Inkscape (http://www.inkscape.org/) -->

<svg xmlns:dc="http://purl.org/dc/elements/1.1/" xmlns:cc="http://creativecommons.org/ns#" xmlns:rdf="http://www.w3.org/1999/02/22-rdf-syntax-ns#" xmlns:svg="http://www.w3.org/2000/svg" xmlns="http://www.w3.org/2000/svg" xmlns:sodipodi="http://sodipodi.sourceforge.net/DTD/sodipodi-0.dtd" xmlns:inkscape="http://www.inkscape.org/namespaces/inkscape" version="1.0" width="580" height="580" id="svg2" sodipodi:version="0.32" inkscape:version="0.92.3 (2405546, 2018-03-11)" sodipodi:docname="viewpoint.svg" inkscape:output_extension="org.inkscape.output.svg.inkscape">
  <metadata id="metadata2975">
    <rdf:RDF>
      <cc:Work rdf:about="">
        <dc:format>image/svg+xml</dc:format>
        <dc:type rdf:resource="http://purl.org/dc/dcmitype/StillImage" />
        <cc:license rdf:resource="http://web.resource.org/cc/PublicDomain" />
        <dc:language>en</dc:language>
        <dc:title />
      </cc:Work>
    </rdf:RDF>
  </metadata>
  <sodipodi:namedview inkscape:window-height="1051" inkscape:window-width="1881" inkscape:pageshadow="2" inkscape:pageopacity="0.0" guidetolerance="10.0" gridtolerance="10.0" objecttolerance="10.0" borderopacity="1.0" bordercolor="#666666" pagecolor="#ffffff" id="base" inkscape:zoom="45.254834" inkscape:cx="544.8606" inkscape:cy="64.729324" inkscape:window-x="0" inkscape:window-y="0" inkscape:current-layer="svg2" showgrid="true" inkscape:window-maximized="1" inkscape:pagecheckerboard="true">
    <inkscape:grid type="xygrid" id="grid910" units="px" spacingx="1" spacingy="1" />
  </sodipodi:namedview>
  <defs id="defs4">
    <inkscape:perspective sodipodi:type="inkscape:persp3d" inkscape:vp_x="0 : 290 : 1" inkscape:vp_y="0 : 1000 : 0" inkscape:vp_z="580 : 290 : 1" inkscape:persp3d-origin="290 : 193.33333 : 1" id="perspective3579" />
  </defs>
  <path inkscape:connector-curvature="0" id="outline" d="M 550.09375,509.49023 C 549.12726,509.33951 548.82993,510.82204 548.74023,511.12695 C 548.29045,512.65561 548.06674,514.00014 548.08594,513.99414 C 548.10514,513.98814 549.04649,513.11032 550.14258,512.03906 C 550.45362,511.73513 551.91578,510.45315 550.55078,509.66406 C 550.38404,509.56766 550.23182,509.51177 550.09375,509.49023 Z M 544.5625,509.55473 C 544.42118,509.57713 544.26644,509.63403 544.0957,509.73246 C 542.76092,510.50211 544.20846,511.76827 544.45898,512.03129 C 545.55796,513.18513 546.60928,514.05304 546.61328,514.03324 C 546.61728,514.01344 546.32889,512.75834 545.94922,511.27348 C 545.85492,510.90484 545.55177,509.39808 544.5625,509.55473 Z M 541.81445,514.21098 C 541.3014,514.23098 540.83794,514.46372 540.82812,515.25199 C 540.82612,515.44457 540.85162,515.60348 540.90042,515.73442 C 541.24226,516.65092 542.68048,516.18442 542.99026,516.11332 C 544.54336,515.75697 545.82522,515.2951 545.81058,515.28129 C 545.79618,515.26719 544.57039,514.8765 543.09964,514.44535 C 542.89098,514.38415 542.32754,514.19099 541.81448,514.21098 Z M 552.75391,514.26758 C 552.25516,514.23488 551.71022,514.40469 551.5332,514.44531 C 549.9801,514.80167 548.69791,515.26184 548.71289,515.27539 C 548.72779,515.28899 549.95309,515.68212 551.42383,516.11328 C 551.78898,516.22029 553.2393,516.72759 553.60938,515.79688 C 553.66218,515.6639 553.69278,515.50176 553.69528,515.30469 C 553.70528,514.53436 553.25262,514.3003 552.75388,514.26758 Z M 548.0332,516.52539 C 548.03307,516.52603 548.0542,516.61199 548.0547,516.61519 C 548.0497,516.61219 547.9944,516.56159 547.9941,516.56249 C 547.9891,516.58199 548.26492,517.83884 548.62691,519.32811 C 548.72959,519.75071 549.08575,521.66385 550.4609,520.89257 C 550.4952,520.87327 550.5082,520.84997 550.539,520.83007 C 550.543,520.82807 550.547,520.82907 550.5507,520.82607 C 550.68004,520.75147 550.76296,520.67033 550.84367,520.58779 C 550.84367,520.58779 550.84567,520.58579 550.84567,520.58579 C 551.59427,519.81669 550.41354,518.76454 550.18747,518.52719 C 549.08849,517.37335 548.03717,516.50544 548.03317,516.52524 Z M 546.56641,516.54489 C 546.54721,516.55089 545.59509,517.41841 544.48633,518.47653 C 544.21108,518.73925 543.04503,519.74146 543.66602,520.52731 C 543.67302,520.53631 543.68962,520.54371 543.69722,520.55271 C 543.78822,520.67272 543.91259,520.78868 544.09565,520.89451 C 544.26239,520.99091 544.41461,521.0468 544.55268,521.06834 C 545.51917,521.21906 545.8165,519.73653 545.9062,519.43162 C 546.30998,518.05931 546.50203,516.97189 546.52925,516.74021 C 546.53425,516.70751 546.56855,516.54419 546.56635,516.5449 Z" style="opacity:0.5;fill:none;fill-opacity:1;stroke:#fbfbfb;stroke-width:3;stroke-linecap:round;stroke-linejoin:round;stroke-miterlimit:4;stroke-dasharray:none;stroke-opacity:1" />
  <path style="fill:#000000;fill-opacity:1;stroke:#000000;stroke-width:0.35367763;stroke-linecap:round;stroke-linejoin:round;stroke-miterlimit:4;stroke-dasharray:none;stroke-opacity:1" d="m 550.09375,509.49023 c -0.96649,-0.15072 -1.26382,1.33181 -1.35352,1.63672 c -0.44978,1.52866 -0.67349,2.87319 -0.65429,2.86719 c 0.0192,-0.006 0.96055,-0.88382 2.05664,-1.95508 c 0.31104,-0.30393 1.7732,-1.58591 0.4082,-2.375 c -0.16674,-0.0964 -0.31896,-0.15229 -0.45703,-0.17383 z m -5.53125,0.0645 c -0.14132,0.0224 -0.29606,0.0793 -0.4668,0.17773 c -1.33478,0.76965 0.11276,2.03581 0.36328,2.29883 c 1.09898,1.15384 2.1503,2.02175 2.1543,2.00195 c 0.004,-0.0198 -0.28439,-1.2749 -0.66406,-2.75976 c -0.0943,-0.36864 -0.39745,-1.8754 -1.38672,-1.71875 z m -2.74805,4.65625 c -0.51305,0.02 -0.97651,0.25274 -0.98633,1.04101 c -0.002,0.19258 0.0235,0.35149 0.0723,0.48243 c 0.34184,0.9165 1.78006,0.45 2.08984,0.3789 c 1.5531,-0.35635 2.83496,-0.81822 2.82032,-0.83203 c -0.0144,-0.0141 -1.24019,-0.40479 -2.71094,-0.83594 c -0.20866,-0.0612 -0.7721,-0.25436 -1.28516,-0.23437 z m 10.93946,0.0566 c -0.49875,-0.0327 -1.04369,0.13711 -1.22071,0.17773 c -1.5531,0.35636 -2.83529,0.81653 -2.82031,0.83008 c 0.0149,0.0136 1.2402,0.40673 2.71094,0.83789 c 0.36515,0.10701 1.81547,0.61431 2.18555,-0.3164 c 0.0528,-0.13298 0.0834,-0.29512 0.0859,-0.49219 c 0.01,-0.77033 -0.44266,-1.00439 -0.9414,-1.03711 z m -4.72071,2.25781 c -1.3e-4,6.4e-4 0.021,0.0866 0.0215,0.0898 c -0.005,-0.003 -0.0603,-0.0536 -0.0606,-0.0527 c -0.005,0.0195 0.27082,1.27635 0.63281,2.76562 c 0.10268,0.4226 0.45884,2.33574 1.83399,1.56446 c 0.0343,-0.0193 0.0473,-0.0426 0.0781,-0.0625 c 0.004,-0.002 0.008,-10e-4 0.0117,-0.004 c 0.12934,-0.0746 0.21226,-0.15574 0.29297,-0.23828 c 0,0 0.002,-0.002 0.002,-0.002 c 0.7486,-0.7691 -0.43213,-1.82125 -0.6582,-2.0586 c -1.09898,-1.15384 -2.1503,-2.02175 -2.1543,-2.00195 z m -1.46679,0.0195 c -0.0192,0.006 -0.97132,0.87352 -2.08008,1.93164 c -0.27525,0.26272 -1.4413,1.26493 -0.82031,2.05078 c 0.007,0.009 0.0236,0.0164 0.0312,0.0254 c 0.091,0.12001 0.21537,0.23597 0.39843,0.3418 c 0.16674,0.0964 0.31896,0.15229 0.45703,0.17383 c 0.96649,0.15072 1.26382,-1.33181 1.35352,-1.63672 c 0.40378,-1.37231 0.59583,-2.45973 0.62305,-2.69141 c 0.005,-0.0327 0.0393,-0.19602 0.0371,-0.19531 z" id="use6027" inkscape:connector-curvature="0" />
</svg>
