<?xml version="1.0" encoding="UTF-8" standalone="no"?>
<!-- Created with Inkscape (http://www.inkscape.org/) -->

<svg xmlns:dc="http://purl.org/dc/elements/1.1/" xmlns:cc="http://creativecommons.org/ns#" xmlns:rdf="http://www.w3.org/1999/02/22-rdf-syntax-ns#" xmlns:svg="http://www.w3.org/2000/svg" xmlns="http://www.w3.org/2000/svg" xmlns:xlink="http://www.w3.org/1999/xlink" xmlns:sodipodi="http://sodipodi.sourceforge.net/DTD/sodipodi-0.dtd" xmlns:inkscape="http://www.inkscape.org/namespaces/inkscape" version="1.0" width="580" height="580" id="svg2" sodipodi:version="0.32" inkscape:version="0.92.3 (2405546, 2018-03-11)" sodipodi:docname="view_point.svg" inkscape:output_extension="org.inkscape.output.svg.inkscape">
  <metadata id="metadata2975">
    <rdf:RDF>
      <cc:Work rdf:about="">
        <dc:format>image/svg+xml</dc:format>
        <dc:type rdf:resource="http://purl.org/dc/dcmitype/StillImage" />
        <cc:license rdf:resource="http://web.resource.org/cc/PublicDomain" />
        <dc:language>en</dc:language>
        <dc:title></dc:title>
      </cc:Work>
    </rdf:RDF>
  </metadata>
  <sodipodi:namedview inkscape:window-height="1058" inkscape:window-width="1881" inkscape:pageshadow="2" inkscape:pageopacity="0.0" guidetolerance="10.0" gridtolerance="10.0" objecttolerance="10.0" borderopacity="1.0" bordercolor="#666666" pagecolor="#ffffff" id="base" inkscape:zoom="45.254834" inkscape:cx="548.76074" inkscape:cy="64.729324" inkscape:window-x="0" inkscape:window-y="0" inkscape:current-layer="svg2" showgrid="true" inkscape:window-maximized="1" inkscape:pagecheckerboard="true">
    <inkscape:grid type="xygrid" id="grid910" units="px" spacingx="1" spacingy="1" />
  </sodipodi:namedview>
  <defs id="defs4">
    <inkscape:perspective sodipodi:type="inkscape:persp3d" inkscape:vp_x="0 : 290 : 1" inkscape:vp_y="0 : 1000 : 0" inkscape:vp_z="580 : 290 : 1" inkscape:persp3d-origin="290 : 193.33333 : 1" id="perspective3579" />
  </defs>
  <path sodipodi:type="inkscape:offset" inkscape:radius="1.2181461" inkscape:original="M 550.09375 509.49023 C 549.12726 509.33951 548.82993 510.82204 548.74023 511.12695 C 548.29045 512.65561 548.06674 514.00014 548.08594 513.99414 C 548.10514 513.98814 549.04649 513.11032 550.14258 512.03906 C 550.45362 511.73513 551.91578 510.45315 550.55078 509.66406 C 550.38404 509.56766 550.23182 509.51177 550.09375 509.49023 z M 544.5625 509.55469 C 544.42118 509.57709 544.26644 509.63399 544.0957 509.73242 C 542.76092 510.50207 544.20846 511.76823 544.45898 512.03125 C 545.55796 513.18509 546.60928 514.053 546.61328 514.0332 C 546.61728 514.0134 546.32889 512.7583 545.94922 511.27344 C 545.85492 510.9048 545.55177 509.39804 544.5625 509.55469 z M 541.81445 514.21094 C 541.3014 514.23094 540.83795 514.46368 540.82812 515.25195 C 540.82613 515.44453 540.85159 515.60343 540.90039 515.73438 C 541.24223 516.65088 542.68045 516.18438 542.99023 516.11328 C 544.54333 515.75693 545.82519 515.29506 545.81055 515.28125 C 545.79615 515.26715 544.57036 514.87646 543.09961 514.44531 C 542.89095 514.38411 542.32751 514.19095 541.81445 514.21094 z M 552.75391 514.26758 C 552.25516 514.23488 551.71022 514.40469 551.5332 514.44531 C 549.9801 514.80167 548.69791 515.26184 548.71289 515.27539 C 548.72779 515.28899 549.95309 515.68212 551.42383 516.11328 C 551.78898 516.22029 553.2393 516.72758 553.60938 515.79688 C 553.66218 515.6639 553.69281 515.50176 553.69531 515.30469 C 553.70531 514.53436 553.25265 514.3003 552.75391 514.26758 z M 548.0332 516.52539 C 548.03307 516.52603 548.05419 516.61203 548.05469 516.61523 C 548.04969 516.61223 547.99444 516.5616 547.99414 516.5625 C 547.98914 516.582 548.26496 517.83885 548.62695 519.32812 C 548.72963 519.75072 549.08579 521.66386 550.46094 520.89258 C 550.49524 520.87328 550.50826 520.84998 550.53906 520.83008 C 550.54306 520.82808 550.54708 520.82917 550.55078 520.82617 C 550.68012 520.75157 550.76304 520.67043 550.84375 520.58789 L 550.8457 520.58594 C 551.5943 519.81684 550.41357 518.76469 550.1875 518.52734 C 549.08852 517.3735 548.0372 516.50559 548.0332 516.52539 z M 546.56641 516.54492 C 546.54721 516.55092 545.59509 517.41844 544.48633 518.47656 C 544.21108 518.73928 543.04503 519.74149 543.66602 520.52734 C 543.67302 520.53634 543.68967 520.54373 543.69727 520.55273 C 543.78827 520.67274 543.91264 520.7887 544.0957 520.89453 C 544.26244 520.99093 544.41466 521.04682 544.55273 521.06836 C 545.51922 521.21908 545.81655 519.73655 545.90625 519.43164 C 546.31003 518.05933 546.50208 516.97191 546.5293 516.74023 C 546.5343 516.70753 546.56861 516.54421 546.56641 516.54492 z " xlink:href="#use6027" style="fill:#fffefe;fill-opacity:1;stroke:none;stroke-width:0.35367763;stroke-linecap:round;stroke-linejoin:round;stroke-miterlimit:4;stroke-dasharray:none;stroke-opacity:1;opacity:0.5" id="path912" inkscape:href="#use6027" d="m 550.28125,508.28711 c -0.55142,-0.086 -1.14085,0.0941 -1.51953,0.375 c -0.37868,0.28095 -0.59364,0.61082 -0.75,0.90625 c -0.31271,0.59086 -0.44262,1.2256 -0.43945,1.21484 c -0.11078,0.37649 -0.16219,0.64723 -0.2461,0.98438 c -0.0689,-0.27826 -0.11888,-0.49034 -0.19726,-0.79688 c -0.0261,-0.1019 -0.14048,-0.7104 -0.45899,-1.31836 c -0.15925,-0.30397 -0.37696,-0.64123 -0.76172,-0.92578 c -0.38475,-0.28454 -0.98235,-0.46284 -1.53711,-0.375 c -0.32055,0.0508 -0.61215,0.17014 -0.88281,0.32617 a 1.2182679,1.2182679 0 0 0 -0.002,0 c -0.54145,0.31221 -0.99915,0.84839 -1.125,1.45313 c -0.12585,0.60474 0.0476,1.12063 0.23633,1.49219 c 0.37745,0.74311 0.9881,1.25812 0.97851,1.24804 c 0.24801,0.26039 0.43653,0.4235 0.66797,0.64844 c -0.27974,-0.0843 -0.49227,-0.15313 -0.80273,-0.24414 l 0.002,0.002 c -0.11271,-0.0331 -0.823,-0.31643 -1.67578,-0.2832 c -0.42604,0.0166 -0.97078,0.12143 -1.43946,0.5332 c -0.46867,0.41178 -0.71087,1.07767 -0.71874,1.70899 a 1.2182679,1.2182679 0 0 0 0,0.004 c -0.003,0.30685 0.0374,0.61673 0.15039,0.91993 c 0.19502,0.52288 0.63996,0.94994 1.07031,1.14257 c 0.43035,0.19264 0.82405,0.21729 1.1582,0.20899 c 0.66731,-0.0166 1.28221,-0.21279 1.27344,-0.21094 c 0.38342,-0.088 0.6467,-0.17555 0.98242,-0.26758 c -0.20906,0.19665 -0.37041,0.34378 -0.59961,0.5625 c -0.0758,0.0723 -0.55145,0.46959 -0.92578,1.04492 c -0.18717,0.28767 -0.37374,0.64429 -0.43359,1.11915 c -0.0597,0.47372 0.0793,1.079 0.42578,1.51953 c 0.0236,0.03 0.0147,0.0119 0.0351,0.0351 l -0.0195,-0.0254 c 0.1856,0.24477 0.44988,0.48101 0.75977,0.66016 c 0.26823,0.15507 0.55848,0.27228 0.8789,0.32226 c 0.55142,0.086 1.14086,-0.0941 1.51954,-0.375 c 0.37868,-0.28094 0.59364,-0.61081 0.75,-0.90625 c 0.31271,-0.59086 0.44261,-1.2256 0.43945,-1.21484 c 0.1281,-0.43537 0.11342,-0.52282 0.20117,-0.875 c 0.0598,0.25313 0.10107,0.43959 0.16797,0.71484 c 0.0281,0.11549 0.13765,0.87069 0.5918,1.5918 c 0.22707,0.36056 0.59062,0.77795 1.18164,0.97852 c 0.52955,0.1797 1.13001,0.0338 1.64843,-0.20703 c 0.0934,-0.0232 0.23583,-0.0679 0.4043,-0.18555 c 0.18625,-0.12868 0.3616,-0.26829 0.4375,-0.3457 a 1.2182679,1.2182679 0 0 0 0.0117,-0.0117 c 0.39561,-0.40645 0.6092,-1.0127 0.58789,-1.51367 c -0.0213,-0.50098 -0.19662,-0.88184 -0.375,-1.1836 c -0.35677,-0.60351 -0.85877,-1.0481 -0.86133,-1.05078 c -0.22703,-0.23837 -0.39752,-0.38472 -0.61133,-0.59375 c 0.22356,0.0671 0.38211,0.11882 0.62305,0.18945 c 0.10173,0.0298 0.68378,0.24136 1.36914,0.27735 c 0.34268,0.018 0.74467,0.002 1.18555,-0.1836 c 0.44088,-0.18582 0.89797,-0.60903 1.10547,-1.13086 c 0.1185,-0.29844 0.16788,-0.61099 0.17187,-0.92578 c 0.008,-0.62531 -0.22108,-1.29454 -0.67773,-1.71093 c -0.45665,-0.4164 -0.98766,-0.52944 -1.40235,-0.55665 c -0.83127,-0.0545 -1.58539,0.2081 -1.57226,0.20508 c -0.3424,0.0786 -0.57156,0.15601 -0.87695,0.23828 c 0.21196,-0.20406 0.37613,-0.35798 0.60937,-0.58593 c 0.0854,-0.0835 0.67838,-0.5636 1.06641,-1.32227 c 0.19401,-0.37934 0.36769,-0.90525 0.23828,-1.51562 c -0.12941,-0.61038 -0.59212,-1.14694 -1.13867,-1.46289 c -0.26823,-0.15508 -0.55848,-0.27228 -0.87891,-0.32227 z m -2.90625,6.6582 c 0.0608,0.0344 0.08,0.0456 0.1582,0.0899 c 0.001,0.0716 0.004,0.25765 0.006,0.41406 c -0.1572,0.0963 -0.39059,0.2402 -0.39062,0.24023 c -5e-5,5e-5 -0.25887,0.49655 -0.29102,0.5586 a 1.2182679,1.2182679 0 0 0 -0.043,0.0117 c -2e-5,7e-5 -0.01,0.0733 -0.0195,0.14648 c -0.0784,0.0475 -0.22851,0.13867 -0.22851,0.13867 l -0.0781,-0.25 c 0.0172,-0.0114 0.0316,-0.0221 0.0566,-0.041 c 0.0376,-0.0285 0.15996,-0.14432 0.16016,-0.14453 c 1e-4,-1.1e-4 0.12884,-0.16788 0.1289,-0.16797 c 7e-5,-10e-5 0.15428,-0.34563 0.1543,-0.34571 c 2e-5,-5e-5 -4.9e-4,-0.22751 0,-0.41211 c 0.0423,-0.0259 0.25056,-0.15484 0.38672,-0.23828 z m 0.48633,1.17774 c 0.006,0.009 0.0307,0.0519 0.0312,0.0527 c 0,0 0.002,0.002 0.002,0.002 c 10e-6,2e-5 0.002,0.002 0.002,0.002 c 0.005,0.003 0.0547,0.0401 0.10938,0.0801 c -0.005,0.11316 -0.0117,0.30273 -0.0117,0.30273 c 0,0 0.0713,-0.1563 0.10742,-0.23438 c 5e-5,4e-5 0.002,0.002 0.002,0.002 c 8e-5,5e-5 0.0163,0.009 0.0254,0.0137 c -0.0446,0.0729 -0.13477,0.21875 -0.13477,0.21875 a 1.2182679,1.2182679 0 0 0 -0.22852,-0.17578 c -0.008,-0.067 -0.0176,-0.13474 -0.0176,-0.13477 c 0,0 -0.008,-0.025 -0.0137,-0.0449 z m 3.32031,5.74023 l -0.0977,0.0566 c -0.10613,0.0531 -0.0942,0.0358 -0.15429,0.0508 c 0.0393,-0.0195 0.089,0.006 0.12695,-0.0156 a 1.2182679,1.2182679 0 0 0 0.002,0 c 0.20641,-0.11615 0.14587,-0.0946 0.10157,-0.0742 c 0.0104,-0.006 0.0113,-0.0115 0.0215,-0.0176 z" />
  <path style="fill:#000000;fill-opacity:1;stroke:#000000;stroke-width:0.35367763;stroke-linecap:round;stroke-linejoin:round;stroke-miterlimit:4;stroke-dasharray:none;stroke-opacity:1" d="m 550.09375,509.49023 c -0.96649,-0.15072 -1.26382,1.33181 -1.35352,1.63672 c -0.44978,1.52866 -0.67349,2.87319 -0.65429,2.86719 c 0.0192,-0.006 0.96055,-0.88382 2.05664,-1.95508 c 0.31104,-0.30393 1.7732,-1.58591 0.4082,-2.375 c -0.16674,-0.0964 -0.31896,-0.15229 -0.45703,-0.17383 z m -5.53125,0.0645 c -0.14132,0.0224 -0.29606,0.0793 -0.4668,0.17773 c -1.33478,0.76965 0.11276,2.03581 0.36328,2.29883 c 1.09898,1.15384 2.1503,2.02175 2.1543,2.00195 c 0.004,-0.0198 -0.28439,-1.2749 -0.66406,-2.75976 c -0.0943,-0.36864 -0.39745,-1.8754 -1.38672,-1.71875 z m -2.74805,4.65625 c -0.51305,0.02 -0.97651,0.25274 -0.98633,1.04101 c -0.002,0.19258 0.0235,0.35149 0.0723,0.48243 c 0.34184,0.9165 1.78006,0.45 2.08984,0.3789 c 1.5531,-0.35635 2.83496,-0.81822 2.82032,-0.83203 c -0.0144,-0.0141 -1.24019,-0.40479 -2.71094,-0.83594 c -0.20866,-0.0612 -0.7721,-0.25436 -1.28516,-0.23437 z m 10.93946,0.0566 c -0.49875,-0.0327 -1.04369,0.13711 -1.22071,0.17773 c -1.5531,0.35636 -2.83529,0.81653 -2.82031,0.83008 c 0.0149,0.0136 1.2402,0.40673 2.71094,0.83789 c 0.36515,0.10701 1.81547,0.61431 2.18555,-0.3164 c 0.0528,-0.13298 0.0834,-0.29512 0.0859,-0.49219 c 0.01,-0.77033 -0.44266,-1.00439 -0.9414,-1.03711 z m -4.72071,2.25781 c -1.3e-4,6.4e-4 0.021,0.0866 0.0215,0.0898 c -0.005,-0.003 -0.0603,-0.0536 -0.0606,-0.0527 c -0.005,0.0195 0.27082,1.27635 0.63281,2.76562 c 0.10268,0.4226 0.45884,2.33574 1.83399,1.56446 c 0.0343,-0.0193 0.0473,-0.0426 0.0781,-0.0625 c 0.004,-0.002 0.008,-10e-4 0.0117,-0.004 c 0.12934,-0.0746 0.21226,-0.15574 0.29297,-0.23828 c 0,0 0.002,-0.002 0.002,-0.002 c 0.7486,-0.7691 -0.43213,-1.82125 -0.6582,-2.0586 c -1.09898,-1.15384 -2.1503,-2.02175 -2.1543,-2.00195 z m -1.46679,0.0195 c -0.0192,0.006 -0.97132,0.87352 -2.08008,1.93164 c -0.27525,0.26272 -1.4413,1.26493 -0.82031,2.05078 c 0.007,0.009 0.0236,0.0164 0.0312,0.0254 c 0.091,0.12001 0.21537,0.23597 0.39843,0.3418 c 0.16674,0.0964 0.31896,0.15229 0.45703,0.17383 c 0.96649,0.15072 1.26382,-1.33181 1.35352,-1.63672 c 0.40378,-1.37231 0.59583,-2.45973 0.62305,-2.69141 c 0.005,-0.0327 0.0393,-0.19602 0.0371,-0.19531 z" id="use6027" inkscape:connector-curvature="0" />
</svg>
