<?xml version="1.0" encoding="UTF-8" standalone="no"?>
<!-- Created with Inkscape (http://www.inkscape.org/) -->

<svg xmlns:dc="http://purl.org/dc/elements/1.1/" xmlns:cc="http://creativecommons.org/ns#" xmlns:rdf="http://www.w3.org/1999/02/22-rdf-syntax-ns#" xmlns:svg="http://www.w3.org/2000/svg" xmlns="http://www.w3.org/2000/svg" xmlns:sodipodi="http://sodipodi.sourceforge.net/DTD/sodipodi-0.dtd" xmlns:inkscape="http://www.inkscape.org/namespaces/inkscape" version="1.1" id="svg2" xml:space="preserve" width="14" height="14" viewBox="0 0 14 14" sodipodi:docname="water_well.svg" inkscape:version="0.92.4 (5da689c313, 2019-01-14)"><metadata id="metadata8"><rdf:RDF><cc:Work rdf:about=""><dc:format>image/svg+xml</dc:format><dc:type rdf:resource="http://purl.org/dc/dcmitype/StillImage" /><dc:title></dc:title></cc:Work></rdf:RDF></metadata><defs id="defs6" /><sodipodi:namedview pagecolor="#ffffff" bordercolor="#666666" borderopacity="1" objecttolerance="10" gridtolerance="10" guidetolerance="10" inkscape:pageopacity="0" inkscape:pageshadow="2" inkscape:window-width="1881" inkscape:window-height="1051" id="namedview4" showgrid="true" inkscape:pagecheckerboard="true" inkscape:zoom="21.784616" inkscape:cx="6.8253339" inkscape:cy="4.5334424" inkscape:window-x="0" inkscape:window-y="0" inkscape:window-maximized="1" inkscape:current-layer="g10"><inkscape:grid type="xygrid" id="grid823" units="px" spacingx="1" spacingy="1" /></sodipodi:namedview><g id="g10" inkscape:groupmode="layer" inkscape:label="ink_ext_XXXXXX" transform="matrix(1.3333333,0,0,-1.3333333,0,14.000003)"><path sodipodi:nodetypes="ccccccccccccccccccccccccccccccc" inkscape:connector-curvature="0" id="path2023" d="M 4.8885065,9.7500014 L 0.75000001,6.7500018 H 2.2500001 V 0.75000166 L 7.5000002,0.75000091 V 5.2500013 H 8.2500002 V 3.0000013 H 10.5 V 3.7500013 H 9.0000002 V 6.0000014 H 7.5000002 V 6.7500014 H 9.0000002 Z M 3.0000001,6.7500018 L 6.7500002,6.7500014 V 6.0000014 L 3.0000001,6.0000018 Z M 3.0000001,5.2500018 L 4.5000001,5.2500013 V 3.7500023 L 3.0000001,3.7500028 Z M 5.2500001,5.2500013 H 6.7500002 V 3.7500023 H 5.2500001 Z" style="fill:#f0f6ff;fill-opacity:1;fill-rule:evenodd;stroke:#fcfcfc;stroke-width:2.25000006;stroke-linecap:round;stroke-linejoin:round;stroke-miterlimit:4;stroke-dasharray:none;stroke-opacity:1;opacity:0.5" /><path style="fill:#0064ff;fill-opacity:1;fill-rule:evenodd;stroke:#000000;stroke-width:0;stroke-linecap:butt;stroke-linejoin:miter;stroke-miterlimit:4;stroke-dasharray:none;stroke-opacity:1" d="M 4.8885065,9.7500014 L 0.75000001,6.7500018 H 2.2500001 V 0.75000166 L 7.5000002,0.75000091 V 5.2500013 H 8.2500002 V 3.0000013 H 10.5 V 3.7500013 H 9.0000002 V 6.0000014 H 7.5000002 V 6.7500014 H 9.0000002 Z M 3.0000001,6.7500018 L 6.7500002,6.7500014 V 6.0000014 L 3.0000001,6.0000018 Z M 3.0000001,5.2500018 L 4.5000001,5.2500013 V 3.7500023 L 3.0000001,3.7500028 Z M 5.2500001,5.2500013 H 6.7500002 V 3.7500023 H 5.2500001 Z" id="path825" inkscape:connector-curvature="0" sodipodi:nodetypes="ccccccccccccccccccccccccccccccc" /></g></svg>