<?xml version="1.0" encoding="UTF-8" standalone="no"?>
<!-- Created with Inkscape (http://www.inkscape.org/) -->

<svg xmlns:dc="http://purl.org/dc/elements/1.1/" xmlns:cc="http://creativecommons.org/ns#" xmlns:rdf="http://www.w3.org/1999/02/22-rdf-syntax-ns#" xmlns:svg="http://www.w3.org/2000/svg" xmlns="http://www.w3.org/2000/svg" xmlns:sodipodi="http://sodipodi.sourceforge.net/DTD/sodipodi-0.dtd" xmlns:inkscape="http://www.inkscape.org/namespaces/inkscape" width="16" height="16" viewBox="0 0 16 16" id="svg2" version="1.1" inkscape:version="0.92.4 (5da689c313, 2019-01-14)" sodipodi:docname="water_works.svg">
  <defs id="defs4" />
  <sodipodi:namedview id="base" pagecolor="#ffffff" bordercolor="#666666" borderopacity="1.0" inkscape:pageopacity="0.0" inkscape:pageshadow="2" inkscape:zoom="31.678384" inkscape:cx="7.3766257" inkscape:cy="10.093241" inkscape:document-units="px" inkscape:current-layer="layer1" showgrid="false" units="px" inkscape:window-width="1881" inkscape:window-height="1061" inkscape:window-x="0" inkscape:window-y="0" inkscape:window-maximized="1" inkscape:pagecheckerboard="true">
    <inkscape:grid type="xygrid" id="grid4136" />
  </sodipodi:namedview>
  <metadata id="metadata7">
    <rdf:RDF>
      <cc:Work rdf:about="">
        <dc:format>image/svg+xml</dc:format>
        <dc:type rdf:resource="http://purl.org/dc/dcmitype/StillImage" />
        <dc:title></dc:title>
        <cc:license rdf:resource="http://creativecommons.org/publicdomain/zero/1.0/" />
      </cc:Work>
      <cc:License rdf:about="http://creativecommons.org/publicdomain/zero/1.0/">
        <cc:permits rdf:resource="http://creativecommons.org/ns#Reproduction" />
        <cc:permits rdf:resource="http://creativecommons.org/ns#Distribution" />
        <cc:permits rdf:resource="http://creativecommons.org/ns#DerivativeWorks" />
      </cc:License>
    </rdf:RDF>
  </metadata>
  <g inkscape:label="Layer 1" inkscape:groupmode="layer" id="layer1" transform="translate(0,-1036.3622)">
    <path style="fill:#1332ff;fill-opacity:1;fill-rule:evenodd;stroke:#fdfdfd;stroke-opacity:1;stroke-width:3;stroke-miterlimit:4;stroke-dasharray:none;stroke-linecap:round;stroke-linejoin:round;opacity:0.5" d="M 8.6835938 0.27539062 C 6.0769618 1.162304 5.5087419 3.1810287 5.1660156 5.3613281 A 2.5789182 2.6104853 0 0 0 4.9570312 6.3886719 A 2.5789182 2.6104853 0 0 0 7.5351562 9 A 2.5789182 2.6104853 0 0 0 10.113281 6.3886719 A 2.5789182 2.6104853 0 0 0 10.111328 6.3574219 L 10.123047 6.3574219 C 10.117774 6.3422846 10.116409 6.3295157 10.111328 6.3144531 A 2.5789182 2.6104853 0 0 0 9.6992188 4.9707031 C 9.5844756 4.6783541 9.4364287 4.3927832 9.1640625 4.109375 C 7.7329449 2.620275 7.7592888 1.4475906 8.6835938 0.27539062 z M 3.5644531 9.9746094 C 3.2744828 9.9746094 2.9858041 10.051681 2.7128906 10.207031 L 2.2011719 10.498047 C 1.6553449 10.808747 1.0399676 10.808747 0.49414062 10.498047 L 0.23828125 10.353516 L 0 10.216797 L 0 11.521484 L 0.23828125 11.658203 L 0.49414062 11.802734 C 1.0399676 12.113334 1.6553449 12.113334 2.2011719 11.802734 L 2.7128906 11.511719 C 3.2587176 11.201019 3.8721408 11.201019 4.4179688 11.511719 L 4.9296875 11.802734 C 5.4755145 12.113334 6.0889376 12.113334 6.6347656 11.802734 L 7.1464844 11.511719 C 7.4167224 11.357819 7.707243 11.279297 8 11.279297 C 8.292757 11.279297 8.5832776 11.357719 8.8535156 11.511719 L 9.3652344 11.802734 C 9.9110624 12.113334 10.524485 12.113334 11.070312 11.802734 L 11.582031 11.511719 C 12.127858 11.201019 12.741282 11.201019 13.287109 11.511719 L 13.798828 11.802734 C 14.344655 12.113334 14.96003 12.113334 15.505859 11.802734 L 15.761719 11.658203 L 16 11.521484 L 16 10.216797 L 15.761719 10.353516 L 15.505859 10.498047 C 14.96003 10.808747 14.344655 10.808747 13.798828 10.498047 L 13.287109 10.207031 C 12.741282 9.8963313 12.127858 9.8963313 11.582031 10.207031 L 11.070312 10.498047 C 10.524484 10.808747 9.9110624 10.808747 9.3652344 10.498047 L 8.8535156 10.207031 C 8.5832776 10.053231 8.292757 9.9746094 8 9.9746094 C 7.707243 9.9746094 7.4167224 10.053031 7.1464844 10.207031 L 6.6347656 10.498047 C 6.0889376 10.808747 5.4755145 10.808747 4.9296875 10.498047 L 4.4179688 10.207031 C 4.1450547 10.051681 3.8544235 9.9746094 3.5644531 9.9746094 z M 3.5644531 12.9375 C 3.2744828 12.9375 2.9858041 13.016525 2.7128906 13.171875 L 2.2011719 13.462891 C 1.6553449 13.773491 1.0399676 13.773491 0.49414062 13.462891 L 0.23828125 13.316406 L 0 13.181641 L 0 14.486328 L 0.23828125 14.621094 L 0.49414062 14.767578 C 1.0399676 15.078278 1.6553449 15.078278 2.2011719 14.767578 L 2.7128906 14.476562 C 3.2587176 14.165962 3.8721408 14.165962 4.4179688 14.476562 L 4.9296875 14.767578 C 5.4755145 15.078278 6.0889376 15.078278 6.6347656 14.767578 L 7.1464844 14.476562 C 7.4167224 14.322762 7.707243 14.242188 8 14.242188 C 8.292757 14.242188 8.5832776 14.322563 8.8535156 14.476562 L 9.3652344 14.767578 C 9.9110624 15.078278 10.524485 15.078278 11.070312 14.767578 L 11.582031 14.476562 C 12.127858 14.165962 12.741282 14.165962 13.287109 14.476562 L 13.798828 14.767578 C 14.344655 15.078278 14.96003 15.078278 15.505859 14.767578 L 15.761719 14.621094 L 16 14.486328 L 16 13.181641 L 15.761719 13.316406 L 15.505859 13.462891 C 14.96003 13.773491 14.344655 13.773491 13.798828 13.462891 L 13.287109 13.171875 C 12.741282 12.861175 12.127858 12.861175 11.582031 13.171875 L 11.070312 13.462891 C 10.524484 13.773491 9.9110624 13.773491 9.3652344 13.462891 L 8.8535156 13.171875 C 8.5832776 13.017975 8.292757 12.9375 8 12.9375 C 7.707243 12.9375 7.4167224 13.017875 7.1464844 13.171875 L 6.6347656 13.462891 C 6.0889376 13.773491 5.4755145 13.773491 4.9296875 13.462891 L 4.4179688 13.171875 C 4.1450547 13.016525 3.8544235 12.9375 3.5644531 12.9375 z " transform="translate(0,1036.3622)" id="path826" />
    <path d="m 15.999588,1049.543 -0.2388,0.1359 -0.255856,0.1456 c -0.545829,0.3106 -1.159883,0.3106 -1.70571,0 l -0.511715,-0.2912 c -0.545827,-0.3107 -1.159882,-0.3107 -1.705709,0 l -0.511725,0.2912 c -0.545828,0.3106 -1.159883,0.3106 -1.705711,0 l -0.511713,-0.2912 c -0.270238,-0.1539 -0.560098,-0.233 -0.852855,-0.233 -0.292757,0 -0.582617,0.079 -0.852855,0.233 l -0.511713,0.2912 c -0.545828,0.3106 -1.159883,0.3106 -1.70571,0 l -0.511726,-0.2912 c -0.545828,-0.3107 -1.159882,-0.3107 -1.705709,0 l -0.511715,0.2912 c -0.545827,0.3106 -1.159882,0.3106 -1.705709,0 L 0.2388,1049.6789 0,1049.543 l 0,1.3047 0.2388,0.1359 0.255857,0.1456 c 0.545827,0.3107 1.159882,0.3107 1.705709,0 l 0.511715,-0.2912 c 0.545827,-0.3106 1.159881,-0.3106 1.705709,0 l 0.511726,0.2912 c 0.545827,0.3107 1.159882,0.3107 1.70571,0 l 0.511713,-0.2912 c 0.270238,-0.1538 0.560098,-0.233 0.852855,-0.233 0.292757,0 0.582617,0.079 0.852855,0.233 l 0.511713,0.2912 c 0.545828,0.3107 1.159883,0.3107 1.705711,0 l 0.511725,-0.2912 c 0.545827,-0.3106 1.159882,-0.3106 1.705709,0 l 0.511715,0.2912 c 0.545827,0.3107 1.159881,0.3107 1.70571,0 l 0.255856,-0.1456 0.2388,-0.1359 0,-1.3047 z" id="path6-6" style="fill:#0064ff;fill-opacity:1;fill-rule:evenodd;stroke:none" inkscape:connector-curvature="0" />
    <path d="m 15.999588,1046.5793 -0.2388,0.1359 -0.255856,0.1456 c -0.545829,0.3107 -1.159883,0.3107 -1.70571,0 l -0.511715,-0.2912 c -0.545827,-0.3107 -1.159882,-0.3107 -1.705709,0 l -0.511725,0.2912 c -0.545828,0.3107 -1.159883,0.3107 -1.705711,0 l -0.511713,-0.2912 c -0.270238,-0.1538 -0.560098,-0.233 -0.852855,-0.233 -0.292757,0 -0.582617,0.079 -0.852855,0.233 l -0.511713,0.2912 c -0.545828,0.3107 -1.159883,0.3107 -1.70571,0 l -0.511726,-0.2912 c -0.545828,-0.3107 -1.159882,-0.3107 -1.705709,0 l -0.511715,0.2912 c -0.545827,0.3107 -1.159882,0.3107 -1.705709,0 L 0.2388,1046.7152 0,1046.5793 l 0,1.3048 0.2388,0.1359 0.255857,0.1456 c 0.545827,0.3106 1.159882,0.3106 1.705709,0 l 0.511715,-0.2912 c 0.545827,-0.3107 1.159881,-0.3107 1.705709,0 l 0.511726,0.2912 c 0.545827,0.3106 1.159882,0.3106 1.70571,0 l 0.511713,-0.2912 c 0.270238,-0.1539 0.560098,-0.233 0.852855,-0.233 0.292757,0 0.582617,0.079 0.852855,0.233 l 0.511713,0.2912 c 0.545828,0.3106 1.159883,0.3106 1.705711,0 l 0.511725,-0.2912 c 0.545827,-0.3107 1.159882,-0.3107 1.705709,0 l 0.511715,0.2912 c 0.545827,0.3106 1.159881,0.3106 1.70571,0 l 0.255856,-0.1456 0.2388,-0.1359 0,-1.3048 z" id="path6" style="fill:#0064ff;fill-opacity:1;fill-rule:evenodd;stroke:none" inkscape:connector-curvature="0" />
    <ellipse style="color:#000000;clip-rule:nonzero;display:inline;overflow:visible;visibility:visible;opacity:1;isolation:auto;mix-blend-mode:normal;color-interpolation:sRGB;color-interpolation-filters:linearRGB;solid-color:#000000;solid-opacity:1;fill:#0064ff;fill-opacity:1;fill-rule:evenodd;stroke:none;stroke-width:0.477;stroke-linecap:butt;stroke-linejoin:miter;stroke-miterlimit:4;stroke-dasharray:none;stroke-dashoffset:0;stroke-opacity:1;color-rendering:auto;image-rendering:auto;shape-rendering:auto;text-rendering:auto;enable-background:accumulate" id="path4141" cx="7.5352502" cy="1042.7517" rx="2.5789182" ry="2.6104853" />
    <path style="fill:#0064ff;fill-opacity:1;fill-rule:evenodd;stroke:none;stroke-width:1px;stroke-linecap:butt;stroke-linejoin:miter;stroke-opacity:1" d="m 10.122768,1042.7193 c -0.287988,-0.8267 -0.279451,-1.541 -0.9594819,-2.2486 -1.4311176,-1.4891 -1.404555,-2.6617 -0.48025,-3.8339 -2.9866044,1.0162 -3.3157976,3.5058 -3.6718754,6.0379 z" id="path4147" inkscape:connector-curvature="0" sodipodi:nodetypes="csccc" />
    <path style="fill:#82a0f6;fill-opacity:1;fill-rule:evenodd;stroke:none;stroke-width:1px;stroke-linecap:butt;stroke-linejoin:miter;stroke-opacity:1" d="m 6.0254276,1043.7107 c -1.0111135,-1.2746 0.034911,-2.4996 0.034911,-2.4996 l 0.5147663,-0.6756 0.7894297,-0.5911 c 0,0 -0.8494625,1.9542 -0.052184,3.2579 -0.7007705,0.8624 -0.9590023,0.5966 -1.2869228,0.5084" id="path4145" inkscape:connector-curvature="0" sodipodi:nodetypes="cccccc" />
  </g>
</svg>
