<?xml version="1.0" encoding="UTF-8" standalone="no"?>
<svg xmlns:dc="http://purl.org/dc/elements/1.1/" xmlns:cc="http://creativecommons.org/ns#" xmlns:rdf="http://www.w3.org/1999/02/22-rdf-syntax-ns#" xmlns:svg="http://www.w3.org/2000/svg" xmlns="http://www.w3.org/2000/svg" xmlns:sodipodi="http://sodipodi.sourceforge.net/DTD/sodipodi-0.dtd" xmlns:inkscape="http://www.inkscape.org/namespaces/inkscape" width="14px" height="14px" version="1.0" viewBox="0 0 14 14" id="svg3842" sodipodi:docname="waterfall.svg" inkscape:version="0.92.4 (5da689c313, 2019-01-14)">
  <metadata id="metadata3848">
    <rdf:RDF>
      <cc:Work rdf:about="">
        <dc:format>image/svg+xml</dc:format>
        <dc:type rdf:resource="http://purl.org/dc/dcmitype/StillImage" />
        <dc:title />
      </cc:Work>
    </rdf:RDF>
  </metadata>
  <defs id="defs3846" />
  <sodipodi:namedview pagecolor="#ffffff" bordercolor="#666666" borderopacity="1" objecttolerance="10" gridtolerance="10" guidetolerance="10" inkscape:pageopacity="0" inkscape:pageshadow="2" inkscape:window-width="1881" inkscape:window-height="1051" id="namedview3844" showgrid="false" inkscape:pagecheckerboard="true" inkscape:zoom="16.857143" inkscape:cx="7" inkscape:cy="7" inkscape:window-x="0" inkscape:window-y="0" inkscape:window-maximized="1" inkscape:current-layer="svg3842" />
  <path id="path4393" d="m1 11c0.641 0 1.829 1 2.4 1 0.535 0 1.795-1 2.4-1s1.866 1 2.4 1c0.642 0 1.825-1 2.399-1 0.641-0.029 1.902 1 2.4 1v2c-0.604 0-1.83-1-2.4-1-0.569 0-1.795 1-2.399 1-0.574 0-1.795-1-2.4-1-0.609 0-1.829 1-2.4 1-0.64 0-1.794-1-2.4-1zm0-8c1.094 0 2.001 0.3 2.001 1.75l-1e-3 2.5c0 2 1.5 3 2.5 3 0 0-0.5-1-0.5-3v-2.5c0-0.915-0.649-1.308-1.001-1.75 1.094 0 2.001 0.3 2.001 1.75v2.5c0 2 1.5 3 2.5 3 0 0-0.5-1-0.5-3l0.1-2.5c0.036571-0.91427-0.749-1.308-1.1-1.75 1.093 0 2 0.3 2 1.75v2.5c0 2 1.5 3 2.5 3 0 0-0.5-1-0.5-3v-2.5c0-3-3-3.75-4-3.75h-7l5e-4 2z" style="fill:none;stroke:#f6f6f6;stroke-opacity:1;opacity:0.5;stroke-width:3;stroke-miterlimit:4;stroke-dasharray:none;stroke-linejoin:round;stroke-linecap:round" />
  <path d="m1 11c0.641 0 1.829 1 2.4 1 0.535 0 1.795-1 2.4-1s1.866 1 2.4 1c0.642 0 1.825-1 2.399-1 0.641-0.029 1.902 1 2.4 1v2c-0.604 0-1.83-1-2.4-1-0.569 0-1.795 1-2.399 1-0.574 0-1.795-1-2.4-1-0.609 0-1.829 1-2.4 1-0.64 0-1.794-1-2.4-1zm0-8c1.094 0 2.001 0.3 2.001 1.75l-1e-3 2.5c0 2 1.5 3 2.5 3 0 0-0.5-1-0.5-3v-2.5c0-0.915-0.649-1.308-1.001-1.75 1.094 0 2.001 0.3 2.001 1.75v2.5c0 2 1.5 3 2.5 3 0 0-0.5-1-0.5-3l0.1-2.5c0.036571-0.91427-0.749-1.308-1.1-1.75 1.093 0 2 0.3 2 1.75v2.5c0 2 1.5 3 2.5 3 0 0-0.5-1-0.5-3v-2.5c0-3-3-3.75-4-3.75h-7l5e-4 2z" id="path3840" style="fill:#0064ff;fill-opacity:1" />
</svg>
