<?xml version="1.0" encoding="UTF-8" standalone="no"?>
<!-- Created with Inkscape (http://www.inkscape.org/) -->

<svg xmlns:dc="http://purl.org/dc/elements/1.1/" xmlns:cc="http://creativecommons.org/ns#" xmlns:rdf="http://www.w3.org/1999/02/22-rdf-syntax-ns#" xmlns:svg="http://www.w3.org/2000/svg" xmlns="http://www.w3.org/2000/svg" xmlns:sodipodi="http://sodipodi.sourceforge.net/DTD/sodipodi-0.dtd" xmlns:inkscape="http://www.inkscape.org/namespaces/inkscape" version="1.1" id="svg2" xml:space="preserve" width="14" height="14" viewBox="0 0 14 14" sodipodi:docname="water_well.svg" inkscape:version="0.92.4 (5da689c313, 2019-01-14)"><metadata id="metadata8"><rdf:RDF><cc:Work rdf:about=""><dc:format>image/svg+xml</dc:format><dc:type rdf:resource="http://purl.org/dc/dcmitype/StillImage" /><dc:title></dc:title></cc:Work></rdf:RDF></metadata><defs id="defs6" /><sodipodi:namedview pagecolor="#ffffff" bordercolor="#666666" borderopacity="1" objecttolerance="10" gridtolerance="10" guidetolerance="10" inkscape:pageopacity="0" inkscape:pageshadow="2" inkscape:window-width="1881" inkscape:window-height="1051" id="namedview4" showgrid="true" inkscape:pagecheckerboard="true" inkscape:zoom="21.784616" inkscape:cx="-1.9293777" inkscape:cy="-2.0159238" inkscape:window-x="0" inkscape:window-y="0" inkscape:window-maximized="1" inkscape:current-layer="g10"><inkscape:grid type="xygrid" id="grid823" units="px" spacingx="1" spacingy="1" /></sodipodi:namedview><g id="g10" inkscape:groupmode="layer" inkscape:label="ink_ext_XXXXXX" transform="matrix(1.3333333,0,0,-1.3333333,0,14.000003)"><path sodipodi:nodetypes="ccccccccccccccccccccccccccccccc" inkscape:connector-curvature="0" id="path1437" transform="matrix(0.75000002,0,0,-0.75000002,0,10.500003)" d="M 6,0 L 0,4 H 2 L 2,13.000001 H 10 L 10,6 H 11 V 9 H 14 V 8 H 12 V 5 H 10 V 4 H 12 Z M 3,4 H 9 V 5 H 3 Z M 3,6 H 5.5 V 9 H 3 Z M 6.5,6 H 9 V 9 H 6.5 Z" style="fill:#ffffff;fill-opacity:1;fill-rule:evenodd;stroke:#ffffff;stroke-width:3;stroke-linecap:round;stroke-linejoin:round;stroke-miterlimit:4;stroke-dasharray:none;stroke-opacity:1;opacity:0.5" /><path style="fill:#0064ff;fill-opacity:1;fill-rule:evenodd;stroke:#000000;stroke-width:0;stroke-linecap:butt;stroke-linejoin:miter;stroke-miterlimit:4;stroke-dasharray:none;stroke-opacity:1" d="M 6,0 L 0,4 H 2 L 2,13.000001 H 10 L 10,6 H 11 V 9 H 14 V 8 H 12 V 5 H 10 V 4 H 12 Z M 3,4 H 9 V 5 H 3 Z M 3,6 H 5.5 V 9 H 3 Z M 6.5,6 H 9 V 9 H 6.5 Z" transform="matrix(0.75000002,0,0,-0.75000002,0,10.500003)" id="path825" inkscape:connector-curvature="0" sodipodi:nodetypes="ccccccccccccccccccccccccccccccc" /></g></svg>