<svg version="1.0" width="16" height="16" xmlns="http://www.w3.org/2000/svg">
  <path style="opacity:1;fill:none;fill-opacity:1;stroke:#fff;stroke-width:3;stroke-linecap:round;stroke-linejoin:round;stroke-miterlimit:4;stroke-opacity:.5;stroke-dasharray:none" d="M2.111 0C1.396.016.727.504.037.5L.017.498v1.451c.707-.004 1.39-.514 2.126-.498.744.021 1.55.56 2.279.598.72.02 1.476-.453 2.004-.457.285-.003.494.105.678.215.106.098.217.21.333.345.175.588.056 1.417.268 2.077.231.648.363.917.594 1.582.01.031.179.454.234.603h-.008v1.453l.04.002c.671.025 1.364-.419 2.083-.385.71.032 1.42.556 2.145.575.712.004 1.399-.512 2.14-.496.347.008.707.132 1.067.265V6.363c-.347-.127-.693-.242-1.027-.252-.742-.015-1.43.506-2.143.502-.724-.018-1.435-.545-2.144-.576a1.582 1.582 0 0 0-.131-.002 2.596 2.596 0 0 0-.576.09 4.289 4.289 0 0 0-.125-.453c-.231-.665-.6-1.235-.83-1.883-.213-.66.076-1.42-.098-2.008-.099-.365-.25-.61-.416-.779-.034-.077-.188-.218-.578-.465C7.488.21 6.978.135 6.462.145 5.936.149 5.179.622 4.46.602 3.729.564 2.924.022 2.179 0h-.068zm2.787 3.709c-.474.01-1.061.104-1.796.25C2.47 3.959.813 3.979 0 4v7.008h7.256c-.39-5.795-.302-7.34-2.358-7.299zm5.9 5.264c-.694-.01-1.368.41-2.019.386a1.371 1.371 0 0 1-.076-.005v1.453c.013 0 .026.003.04.004.671.024 1.366-.421 2.085-.387.71.031 1.418.558 2.143.576.712.004 1.398-.516 2.14-.5.29.007.59.097.889.203V9.24c-.287-.1-.573-.181-.85-.19-.742-.015-1.43.507-2.142.503-.725-.018-1.434-.545-2.143-.576-.022-.002-.044-.004-.066-.004z"/>
  <path style="opacity:1;fill:#000001;fill-opacity:1;stroke:none;stroke-width:11.0405;stroke-linecap:round;stroke-linejoin:round;stroke-miterlimit:4;stroke-opacity:1" d="M3.101 3.96C2.469 3.957.813 3.98 0 4v7.009h7.256c-.479-7.132-.235-7.828-4.155-7.05Z"/>
  <path style="fill:#0064ff;fill-opacity:1;fill-rule:evenodd;stroke-width:.999999" d="M2.111 0C1.396.016.727.503.037.5.03.498.024.496.017.496V1.95c.707-.004 1.39-.514 2.126-.499.744.022 1.55.562 2.279.6.72.02 1.476-.455 2.004-.459.285-.002.494.105.678.215.106.098.217.21.333.346.175.587.056 1.416.268 2.076.231.648.363.919.594 1.583.01.032.179.455.234.604h-.008v1.452l.04.002c.671.025 1.364-.419 2.083-.384.71.03 1.42.556 2.145.574.712.004 1.399-.512 2.14-.497.347.009.707.133 1.067.266V6.364c-.347-.127-.693-.242-1.027-.252-.742-.016-1.43.505-2.143.501-.724-.018-1.435-.545-2.144-.577a1.582 1.582 0 0 0-.131-.002 2.596 2.596 0 0 0-.576.09 4.279 4.279 0 0 0-.125-.452c-.231-.664-.6-1.236-.83-1.884-.213-.66.076-1.419-.098-2.006-.099-.365-.25-.61-.416-.78-.034-.077-.188-.217-.578-.464C7.488.21 6.978.135 6.462.145 5.936.15 5.179.622 4.46.601 3.729.564 2.924.021 2.179 0h-.068ZM10.798 8.973c-.695-.01-1.368.411-2.019.387a1.38 1.38 0 0 1-.076-.006v1.453l.039.004c.672.024 1.366-.421 2.085-.387.71.031 1.419.558 2.143.576.712.004 1.4-.515 2.142-.5.29.008.588.096.888.202V9.24c-.287-.099-.572-.18-.85-.188-.741-.015-1.43.505-2.142.501-.725-.018-1.434-.544-2.143-.575l-.067-.004Z"/>
</svg>
